<svg xmlns="http://www.w3.org/2000/svg" xmlns:xlink="http://www.w3.org/1999/xlink" width="500" zoomAndPan="magnify" viewBox="0 0 375 187.499995" height="250" preserveAspectRatio="xMidYMid meet" version="1.0"><defs><g/><clipPath id="8ae05e2951"><path d="M 311 33.800781 L 374.492188 33.800781 L 374.492188 110 L 311 110 Z M 311 33.800781 " clip-rule="nonzero"/></clipPath><clipPath id="8ece7b208c"><path d="M 309.171875 35 L 335 35 L 335 60 L 309.171875 60 Z M 309.171875 35 " clip-rule="nonzero"/></clipPath></defs><g fill="#000000" fill-opacity="1"><g transform="translate(6.196777, 131.750542)"><g><path d="M 69.09375 12.078125 C 68.332031 12.078125 67.578125 11.992188 66.828125 11.828125 C 62.796875 11.078125 60.78125 7.507812 60.78125 1.125 C 60.78125 -9.1875 65.984375 -26.757812 76.390625 -51.59375 C 80.410156 -60.988281 83.390625 -70.132812 85.328125 -79.03125 C 86.078125 -82.46875 86.453125 -85.210938 86.453125 -87.265625 C 86.453125 -89.328125 86.367188 -90.945312 86.203125 -92.125 C 85.785156 -95.8125 84.398438 -98.367188 82.046875 -99.796875 C 77.847656 -102.054688 73.148438 -103.1875 67.953125 -103.1875 C 62.503906 -103.1875 56.757812 -101.84375 50.71875 -99.15625 C 44.675781 -96.476562 38.988281 -93.207031 33.65625 -89.34375 C 28.332031 -85.488281 23.488281 -80.894531 19.125 -75.5625 C 14.757812 -70.238281 11.507812 -64.660156 9.375 -58.828125 C 7.238281 -52.992188 6.171875 -47.726562 6.171875 -43.03125 C 6.171875 -41.101562 6.335938 -39.257812 6.671875 -37.5 C 8.015625 -31.707031 10.53125 -27.382812 14.21875 -24.53125 C 17.90625 -21.6875 22.269531 -20.265625 27.3125 -20.265625 C 34.351562 -20.265625 40.957031 -23.367188 47.125 -29.578125 C 53.289062 -35.785156 56.375 -42.367188 56.375 -49.328125 C 56.375 -53.109375 55.617188 -55.835938 54.109375 -57.515625 C 52.597656 -59.191406 51.046875 -60.03125 49.453125 -60.03125 C 47.859375 -60.03125 46.265625 -59.796875 44.671875 -59.328125 C 43.078125 -58.867188 42.28125 -58.910156 42.28125 -59.453125 C 42.28125 -60.003906 43.242188 -60.71875 45.171875 -61.59375 C 47.109375 -62.476562 49.125 -62.921875 51.21875 -62.921875 C 53.3125 -62.921875 55.238281 -62.289062 57 -61.03125 C 60.28125 -58.519531 61.921875 -54.703125 61.921875 -49.578125 C 61.921875 -44.460938 59.96875 -39.320312 56.0625 -34.15625 C 52.15625 -29 47.347656 -24.847656 41.640625 -21.703125 C 35.941406 -18.554688 30.300781 -16.984375 24.71875 -16.984375 C 19.144531 -16.984375 13.96875 -19.019531 9.1875 -23.09375 C 4.40625 -27.164062 1.21875 -32.640625 -0.375 -39.515625 C -0.789062 -41.523438 -1 -43.664062 -1 -45.9375 C -1 -51.21875 0.296875 -56.960938 2.890625 -63.171875 C 5.492188 -69.378906 9.25 -75.144531 14.15625 -80.46875 C 19.0625 -85.800781 24.367188 -90.25 30.078125 -93.8125 C 35.785156 -97.382812 41.828125 -100.34375 48.203125 -102.6875 C 54.578125 -105.125 60.570312 -106.34375 66.1875 -106.34375 C 71.8125 -106.34375 76.929688 -105.457031 81.546875 -103.6875 C 89.679688 -100.164062 93.75 -92.703125 93.75 -81.296875 C 93.75 -72.898438 90.726562 -62.492188 84.6875 -50.078125 C 80.914062 -42.367188 77.5625 -34.066406 74.625 -25.171875 C 70.257812 -11.992188 68.078125 -2.847656 68.078125 2.265625 C 68.078125 6.117188 69.378906 8.046875 71.984375 8.046875 C 77.179688 8.046875 86.285156 1.296875 99.296875 -12.203125 C 108.429688 -21.679688 115.601562 -32.085938 120.8125 -43.421875 C 124.164062 -50.628906 125.84375 -57.253906 125.84375 -63.296875 C 125.84375 -66.484375 125.585938 -68.726562 125.078125 -70.03125 C 124.578125 -71.332031 124.242188 -72.171875 124.078125 -72.546875 C 123.910156 -72.921875 123.570312 -73.253906 123.0625 -73.546875 C 122.5625 -73.847656 122.226562 -74 122.0625 -74 C 120.894531 -74.332031 119.679688 -74.601562 118.421875 -74.8125 C 117.160156 -75.019531 116.425781 -75.582031 116.21875 -76.5 C 116.007812 -77.425781 116.445312 -77.976562 117.53125 -78.15625 L 119.921875 -77.890625 C 123.785156 -76.804688 127.144531 -74.082031 130 -69.71875 C 131.59375 -67.28125 132.390625 -64.363281 132.390625 -60.96875 C 132.390625 -57.570312 131.59375 -53.566406 130 -48.953125 C 126.132812 -38.710938 120.175781 -28.625 112.125 -18.6875 C 104.070312 -8.75 96.125 -1.140625 88.28125 4.140625 C 80.4375 9.429688 74.039062 12.078125 69.09375 12.078125 Z M 69.09375 12.078125 "/></g></g></g><g fill="#000000" fill-opacity="1"><g transform="translate(128.889701, 131.750542)"><g><path d="M 24.40625 -48.953125 C 23.238281 -47.941406 21.941406 -47.4375 20.515625 -47.4375 C 19.085938 -47.4375 17.953125 -47.941406 17.109375 -48.953125 C 16.273438 -49.960938 15.941406 -51.179688 16.109375 -52.609375 C 16.359375 -54.023438 17.070312 -55.238281 18.25 -56.25 C 19.425781 -57.257812 20.722656 -57.765625 22.140625 -57.765625 C 23.566406 -57.765625 24.722656 -57.257812 25.609375 -56.25 C 26.492188 -55.238281 26.804688 -54.019531 26.546875 -52.59375 C 26.296875 -51.175781 25.582031 -49.960938 24.40625 -48.953125 Z M 12.078125 -2.765625 C 13.671875 -2.765625 15.347656 -3.5625 17.109375 -5.15625 C 20.210938 -8.257812 24.15625 -14.59375 28.9375 -24.15625 C 29.53125 -25.414062 30.117188 -25.796875 30.703125 -25.296875 C 30.867188 -25.128906 30.953125 -24.851562 30.953125 -24.46875 C 30.953125 -24.09375 30.613281 -23.171875 29.9375 -21.703125 C 29.269531 -20.234375 28.664062 -18.910156 28.125 -17.734375 C 27.582031 -16.566406 26.535156 -14.660156 24.984375 -12.015625 C 23.429688 -9.367188 22.023438 -7.335938 20.765625 -5.921875 C 17.328125 -1.972656 14.078125 0 11.015625 0 C 7.953125 0 5.75 -0.921875 4.40625 -2.765625 C 3.0625 -4.609375 2.390625 -6.660156 2.390625 -8.921875 C 2.390625 -11.191406 2.9375 -13.671875 4.03125 -16.359375 L 12.078125 -36.875 C 12.242188 -37.375 12.328125 -38.039062 12.328125 -38.875 C 12.328125 -39.71875 11.828125 -40.8125 10.828125 -42.15625 L 17.75 -42.28125 C 19.675781 -42.28125 20.804688 -41.921875 21.140625 -41.203125 C 21.472656 -40.492188 21.222656 -39.382812 20.390625 -37.875 L 10.3125 -14.34375 C 8.894531 -11.238281 8.1875 -8.597656 8.1875 -6.421875 C 8.1875 -3.984375 9.484375 -2.765625 12.078125 -2.765625 Z M 12.078125 -2.765625 "/></g></g></g><g fill="#000000" fill-opacity="1"><g transform="translate(150.785664, 131.750542)"><g><path d="M 4.03125 -10.0625 C 4.03125 -17.03125 7.382812 -28.691406 14.09375 -45.046875 L 7.546875 -45.046875 C 7.128906 -45.046875 6.859375 -45.273438 6.734375 -45.734375 C 6.609375 -46.203125 6.648438 -46.664062 6.859375 -47.125 C 7.066406 -47.59375 7.378906 -47.828125 7.796875 -47.828125 L 15.359375 -47.828125 C 18.378906 -54.453125 21.1875 -59.988281 23.78125 -64.4375 C 26.382812 -68.882812 28.773438 -71.882812 30.953125 -73.4375 C 33.140625 -74.988281 34.710938 -75.765625 35.671875 -75.765625 C 36.640625 -75.765625 37.332031 -75.675781 37.75 -75.5 C 39.675781 -74.582031 40.640625 -72.675781 40.640625 -69.78125 C 40.640625 -66.882812 39.675781 -63.378906 37.75 -59.265625 C 35.820312 -55.160156 33.9375 -51.347656 32.09375 -47.828125 L 38.125 -47.828125 C 38.550781 -47.828125 38.828125 -47.59375 38.953125 -47.125 C 39.078125 -46.664062 39.035156 -46.203125 38.828125 -45.734375 C 38.617188 -45.273438 38.300781 -45.046875 37.875 -45.046875 L 30.578125 -45.046875 C 25.960938 -37.242188 20.382812 -30.320312 13.84375 -24.28125 L 10.953125 -11.453125 C 10.703125 -10.359375 10.578125 -9.285156 10.578125 -8.234375 C 10.578125 -7.191406 10.867188 -6.125 11.453125 -5.03125 C 12.035156 -3.9375 12.957031 -3.390625 14.21875 -3.390625 C 15.644531 -3.390625 17.238281 -3.894531 19 -4.90625 C 23.03125 -7.925781 27.476562 -14.257812 32.34375 -23.90625 C 32.675781 -24.664062 33.070312 -25.128906 33.53125 -25.296875 C 34 -25.460938 34.273438 -25.351562 34.359375 -24.96875 C 34.441406 -24.59375 34.316406 -23.988281 33.984375 -23.15625 C 31.210938 -17.363281 29.03125 -13.253906 27.4375 -10.828125 C 22.90625 -3.523438 18.082031 0.125 12.96875 0.125 C 10.363281 0.125 8.222656 -0.835938 6.546875 -2.765625 C 4.867188 -4.691406 4.03125 -7.125 4.03125 -10.0625 Z M 29.328125 -47.828125 C 34.859375 -57.722656 37.625 -64.597656 37.625 -68.453125 C 37.625 -70.128906 37.332031 -70.96875 36.75 -70.96875 C 35.820312 -70.96875 34.414062 -69.625 32.53125 -66.9375 C 30.644531 -64.257812 27.476562 -57.890625 23.03125 -47.828125 Z M 27.6875 -45.046875 L 21.765625 -45.046875 C 20.765625 -42.703125 18.5 -37.125 14.96875 -28.3125 C 19.5 -33.007812 23.738281 -38.585938 27.6875 -45.046875 Z M 27.6875 -45.046875 "/></g></g></g><g fill="#000000" fill-opacity="1"><g transform="translate(175.95345, 131.750542)"><g><path d="M 24.15625 -50.46875 C 24.15625 -46.6875 21.765625 -43.117188 16.984375 -39.765625 C 18.660156 -39.679688 20.90625 -39.640625 23.71875 -39.640625 C 26.53125 -39.640625 30.078125 -39.847656 34.359375 -40.265625 C 34.523438 -40.015625 34.609375 -39.34375 34.609375 -38.25 C 34.609375 -37.164062 34.101562 -35.550781 33.09375 -33.40625 C 32.09375 -31.269531 31.191406 -29.425781 30.390625 -27.875 C 29.585938 -26.320312 28.832031 -24.851562 28.125 -23.46875 C 27.414062 -22.082031 26.617188 -20.382812 25.734375 -18.375 C 24.847656 -16.363281 24.113281 -14.519531 23.53125 -12.84375 C 21.4375 -6.457031 21.769531 -3.265625 24.53125 -3.265625 C 28.0625 -3.265625 33.265625 -10.269531 40.140625 -24.28125 C 40.734375 -25.375 41.21875 -25.796875 41.59375 -25.546875 C 41.96875 -25.296875 42.15625 -24.976562 42.15625 -24.59375 C 42.15625 -24.21875 41.609375 -22.914062 40.515625 -20.6875 C 39.429688 -18.46875 38.257812 -16.179688 37 -13.828125 C 35.738281 -11.484375 33.765625 -8.757812 31.078125 -5.65625 C 27.890625 -1.800781 24.828125 0.125 21.890625 0.125 C 18.617188 0.125 16.351562 -1.84375 15.09375 -5.78125 C 14.84375 -6.539062 14.71875 -7.675781 14.71875 -9.1875 C 14.71875 -10.695312 15.203125 -12.707031 16.171875 -15.21875 C 17.140625 -17.738281 18.671875 -20.800781 20.765625 -24.40625 C 22.859375 -28.019531 24.03125 -30.140625 24.28125 -30.765625 C 24.539062 -31.398438 24.671875 -32.007812 24.671875 -32.59375 C 24.671875 -35.195312 21.3125 -36.582031 14.59375 -36.75 L 13.09375 -32.71875 C 7.800781 -18.875 2.722656 -9.601562 -2.140625 -4.90625 C -2.984375 -4.15625 -3.40625 -4.40625 -3.40625 -5.65625 C -3.40625 -5.914062 -3.316406 -6.210938 -3.140625 -6.546875 C 1.554688 -12.753906 5.625 -20.09375 9.0625 -28.5625 C 12.5 -37.039062 14.890625 -45.097656 16.234375 -52.734375 C 16.734375 -55.328125 17.90625 -56.625 19.75 -56.625 C 21.601562 -56.625 22.945312 -55.453125 23.78125 -53.109375 C 24.03125 -52.347656 24.15625 -51.46875 24.15625 -50.46875 Z M 24.15625 -50.46875 "/></g></g></g><g fill="#000000" fill-opacity="1"><g transform="translate(208.671557, 131.750542)"><g><path d="M 24.40625 -48.953125 C 23.238281 -47.941406 21.941406 -47.4375 20.515625 -47.4375 C 19.085938 -47.4375 17.953125 -47.941406 17.109375 -48.953125 C 16.273438 -49.960938 15.941406 -51.179688 16.109375 -52.609375 C 16.359375 -54.023438 17.070312 -55.238281 18.25 -56.25 C 19.425781 -57.257812 20.722656 -57.765625 22.140625 -57.765625 C 23.566406 -57.765625 24.722656 -57.257812 25.609375 -56.25 C 26.492188 -55.238281 26.804688 -54.019531 26.546875 -52.59375 C 26.296875 -51.175781 25.582031 -49.960938 24.40625 -48.953125 Z M 12.078125 -2.765625 C 13.671875 -2.765625 15.347656 -3.5625 17.109375 -5.15625 C 20.210938 -8.257812 24.15625 -14.59375 28.9375 -24.15625 C 29.53125 -25.414062 30.117188 -25.796875 30.703125 -25.296875 C 30.867188 -25.128906 30.953125 -24.851562 30.953125 -24.46875 C 30.953125 -24.09375 30.613281 -23.171875 29.9375 -21.703125 C 29.269531 -20.234375 28.664062 -18.910156 28.125 -17.734375 C 27.582031 -16.566406 26.535156 -14.660156 24.984375 -12.015625 C 23.429688 -9.367188 22.023438 -7.335938 20.765625 -5.921875 C 17.328125 -1.972656 14.078125 0 11.015625 0 C 7.953125 0 5.75 -0.921875 4.40625 -2.765625 C 3.0625 -4.609375 2.390625 -6.660156 2.390625 -8.921875 C 2.390625 -11.191406 2.9375 -13.671875 4.03125 -16.359375 L 12.078125 -36.875 C 12.242188 -37.375 12.328125 -38.039062 12.328125 -38.875 C 12.328125 -39.71875 11.828125 -40.8125 10.828125 -42.15625 L 17.75 -42.28125 C 19.675781 -42.28125 20.804688 -41.921875 21.140625 -41.203125 C 21.472656 -40.492188 21.222656 -39.382812 20.390625 -37.875 L 10.3125 -14.34375 C 8.894531 -11.238281 8.1875 -8.597656 8.1875 -6.421875 C 8.1875 -3.984375 9.484375 -2.765625 12.078125 -2.765625 Z M 12.078125 -2.765625 "/></g></g></g><g fill="#000000" fill-opacity="1"><g transform="translate(230.56752, 131.750542)"><g><path d="M 45.171875 -41.28125 C 34.859375 -23.15625 29.703125 -11.320312 29.703125 -5.78125 C 29.703125 -3.601562 30.5 -2.515625 32.09375 -2.515625 C 36.375 -2.515625 42.117188 -9.769531 49.328125 -24.28125 C 49.828125 -25.457031 50.328125 -25.921875 50.828125 -25.671875 C 51.335938 -25.421875 51.59375 -25.082031 51.59375 -24.65625 C 51.59375 -24.238281 51.425781 -23.738281 51.09375 -23.15625 C 46.644531 -14.175781 42.890625 -7.988281 39.828125 -4.59375 C 36.765625 -1.195312 33.703125 0.5 30.640625 0.5 C 27.578125 0.5 25.25 -0.671875 23.65625 -3.015625 C 22.820312 -4.109375 22.40625 -5.597656 22.40625 -7.484375 C 22.40625 -9.367188 22.820312 -11.65625 23.65625 -14.34375 C 24.5 -17.03125 26.804688 -21.394531 30.578125 -27.4375 C 31.503906 -28.945312 31.96875 -30.140625 31.96875 -31.015625 C 31.96875 -31.898438 31.253906 -32.34375 29.828125 -32.34375 C 28.398438 -32.34375 25.671875 -30.453125 21.640625 -26.671875 C 15.597656 -21.140625 9.769531 -12.835938 4.15625 -1.765625 C 3.644531 -0.921875 3.078125 -0.394531 2.453125 -0.1875 C 1.828125 0.0195312 0.59375 0.164062 -1.25 0.25 C -3.101562 0.332031 -4.320312 0.539062 -4.90625 0.875 C -3.5625 -1.800781 -0.921875 -7.296875 3.015625 -15.609375 C 10.066406 -30.285156 14.679688 -38.671875 16.859375 -40.765625 C 17.867188 -41.773438 19.253906 -42.28125 21.015625 -42.28125 C 21.347656 -42.28125 22.207031 -42.15625 23.59375 -41.90625 C 24.976562 -41.65625 26.003906 -41.613281 26.671875 -41.78125 C 23.566406 -40.101562 18.492188 -32.21875 11.453125 -18.125 C 15.390625 -22.988281 18.972656 -26.867188 22.203125 -29.765625 C 25.441406 -32.660156 29.320312 -35.34375 33.84375 -37.8125 C 38.375 -40.289062 41.691406 -41.53125 43.796875 -41.53125 C 44.296875 -41.53125 44.753906 -41.445312 45.171875 -41.28125 Z M 45.171875 -41.28125 "/></g></g></g><g fill="#000000" fill-opacity="1"><g transform="translate(272.723545, 131.750542)"><g><path d="M 12.703125 -19.375 C 11.535156 -16.519531 10.953125 -13.332031 10.953125 -9.8125 C 10.953125 -7.46875 11.472656 -5.601562 12.515625 -4.21875 C 13.566406 -2.832031 15.054688 -2.140625 16.984375 -2.140625 C 24.617188 -2.140625 31.539062 -9.3125 37.75 -23.65625 C 38.34375 -25 39.054688 -25.585938 39.890625 -25.421875 C 40.222656 -25.335938 40.390625 -25.125 40.390625 -24.78125 C 40.390625 -24.445312 39.445312 -22.242188 37.5625 -18.171875 C 35.675781 -14.109375 33.769531 -10.820312 31.84375 -8.3125 C 27.5625 -2.4375 22.273438 0.5 15.984375 0.5 C 12.628906 0.5 9.773438 -0.585938 7.421875 -2.765625 C 5.078125 -4.953125 3.90625 -7.929688 3.90625 -11.703125 C 3.90625 -15.472656 4.804688 -19.476562 6.609375 -23.71875 C 8.410156 -27.957031 10.863281 -31.898438 13.96875 -35.546875 C 17.070312 -39.203125 20.640625 -41.867188 24.671875 -43.546875 C 26.597656 -44.378906 28.441406 -44.796875 30.203125 -44.796875 C 31.960938 -44.796875 33.597656 -44.296875 35.109375 -43.296875 C 36.535156 -42.117188 37.25 -40.816406 37.25 -39.390625 C 37.25 -34.359375 34.226562 -29.535156 28.1875 -24.921875 C 26.34375 -23.492188 23.742188 -22.210938 20.390625 -21.078125 C 17.035156 -19.941406 14.472656 -19.375 12.703125 -19.375 Z M 33.859375 -39.515625 C 33.859375 -41.191406 33.1875 -42.03125 31.84375 -42.03125 C 29.488281 -42.03125 25.921875 -39.132812 21.140625 -33.34375 C 18.285156 -29.820312 15.769531 -25.878906 13.59375 -21.515625 C 15.019531 -21.515625 17.09375 -22.019531 19.8125 -23.03125 C 22.539062 -24.039062 24.914062 -25.382812 26.9375 -27.0625 C 31.550781 -31 33.859375 -35.148438 33.859375 -39.515625 Z M 33.859375 -39.515625 "/></g></g></g><g clip-path="url(#8ae05e2951)"><path fill="#5c0476" d="M 374.480469 72.007812 C 372.832031 72.136719 371.167969 72.21875 369.515625 72.417969 C 366.152344 72.816406 362.777344 73.167969 359.460938 73.777344 C 357.585938 74.117188 355.734375 74.785156 353.976562 75.535156 C 350.425781 77.046875 348.140625 79.800781 346.769531 83.363281 C 345.339844 87.039062 344.71875 90.894531 344.367188 94.796875 C 343.921875 99.824219 343.59375 104.875 343.160156 109.925781 C 343.042969 108.15625 342.925781 106.398438 342.808594 104.628906 C 342.457031 99.484375 342.222656 94.316406 341.214844 89.253906 C 340.816406 87.273438 340.289062 85.292969 339.609375 83.398438 C 338.074219 79.097656 335.007812 76.308594 330.71875 74.796875 C 327.601562 73.707031 324.355469 73.191406 321.097656 72.816406 C 318.308594 72.5 315.496094 72.335938 312.683594 72.101562 C 312.378906 72.078125 312.074219 72.03125 311.417969 71.960938 C 312.273438 71.527344 312.882812 71.609375 313.457031 71.574219 C 317.828125 71.316406 322.1875 70.929688 326.488281 70.050781 C 327.707031 69.804688 328.914062 69.453125 330.109375 69.101562 C 335.628906 67.496094 338.824219 63.675781 340.347656 58.285156 C 341.34375 54.757812 341.882812 51.160156 342.164062 47.515625 C 342.515625 42.949219 342.84375 38.378906 343.289062 33.808594 C 343.441406 36.410156 343.570312 39.023438 343.757812 41.625 C 344.097656 46.195312 344.367188 50.773438 345.316406 55.273438 C 345.796875 57.570312 346.429688 59.820312 347.484375 61.941406 C 349.183594 65.339844 351.902344 67.53125 355.429688 68.820312 C 358.734375 70.027344 362.191406 70.542969 365.660156 70.941406 C 368.296875 71.234375 370.957031 71.386719 373.605469 71.597656 C 373.910156 71.621094 374.199219 71.667969 374.492188 71.714844 C 374.480469 71.808594 374.480469 71.914062 374.480469 72.007812 Z M 374.480469 72.007812 " fill-opacity="1" fill-rule="nonzero"/></g><g clip-path="url(#8ece7b208c)"><path fill="#5c0476" d="M 321.707031 59.703125 C 321.402344 58.507812 321.179688 57.617188 320.957031 56.726562 C 320.839844 56.269531 320.722656 55.824219 320.605469 55.367188 C 319.714844 52.074219 317.652344 49.917969 314.359375 49.003906 C 313.011719 48.628906 311.617188 48.382812 310.246094 48.066406 C 309.800781 47.960938 309.378906 47.832031 308.78125 47.679688 C 310.738281 47.210938 312.519531 46.8125 314.277344 46.371094 C 317.546875 45.539062 319.609375 43.441406 320.535156 40.230469 C 320.945312 38.800781 321.285156 37.347656 321.71875 35.625 C 322.117188 37.136719 322.46875 38.378906 322.773438 39.632812 C 323.675781 43.324219 325.925781 45.644531 329.652344 46.5 C 331.222656 46.859375 332.792969 47.222656 334.585938 47.644531 C 334.070312 47.808594 333.730469 47.9375 333.367188 48.03125 C 331.609375 48.488281 329.816406 48.839844 328.082031 49.402344 C 325.457031 50.257812 323.875 52.203125 323.078125 54.78125 C 322.703125 55.976562 322.421875 57.195312 322.105469 58.402344 C 322.011719 58.742188 321.894531 59.082031 321.707031 59.703125 Z M 321.707031 59.703125 " fill-opacity="1" fill-rule="nonzero"/></g><path fill="#5c0476" d="M 362.320312 98.40625 C 362.191406 97.632812 362.0625 96.859375 361.945312 96.085938 C 361.722656 94.574219 360.925781 93.625 359.367188 93.355469 C 358.863281 93.273438 358.359375 93.121094 357.796875 92.980469 C 361.453125 92.371094 361.488281 92.335938 362.320312 87.847656 C 362.988281 92.195312 363.210938 92.453125 366.949219 92.957031 C 366.210938 93.132812 365.660156 93.296875 365.097656 93.390625 C 363.75 93.636719 362.988281 94.445312 362.753906 95.769531 C 362.613281 96.648438 362.472656 97.527344 362.320312 98.40625 Z M 362.320312 98.40625 " fill-opacity="1" fill-rule="nonzero"/></svg>