<svg xmlns="http://www.w3.org/2000/svg" xmlns:xlink="http://www.w3.org/1999/xlink" width="500" zoomAndPan="magnify" viewBox="0 0 375 187.499995" height="250" preserveAspectRatio="xMidYMid meet" version="1.0"><defs><g/><clipPath id="abedbf39df"><path d="M 325.164062 43.242188 L 374.5 43.242188 L 374.5 92.609375 L 325.164062 92.609375 Z M 325.164062 43.242188 " clip-rule="nonzero"/></clipPath></defs><g fill="#000000" fill-opacity="1"><g transform="translate(108.865204, 123.279495)"><g><path d="M 1.203125 0 L 1.203125 -0.71875 C 2.359375 -0.71875 3.242188 -0.992188 3.859375 -1.546875 C 4.484375 -2.109375 4.921875 -2.804688 5.171875 -3.640625 C 5.429688 -4.484375 5.59375 -5.375 5.65625 -6.3125 C 5.71875 -7.25 5.75 -8.078125 5.75 -8.796875 L 5.75 -32.21875 C 5.75 -33.019531 5.71875 -33.660156 5.65625 -34.140625 C 5.59375 -34.617188 5.363281 -34.859375 4.96875 -34.859375 C 4.445312 -34.859375 3.96875 -34.75 3.53125 -34.53125 C 3.09375 -34.3125 2.316406 -34.203125 1.203125 -34.203125 L 1.203125 -34.921875 C 1.921875 -34.921875 2.804688 -35.160156 3.859375 -35.640625 C 4.921875 -36.117188 5.847656 -36.65625 6.640625 -37.25 C 7.523438 -37.882812 8.222656 -38.472656 8.734375 -39.015625 C 9.253906 -39.554688 9.753906 -39.828125 10.234375 -39.828125 C 10.753906 -39.828125 11.132812 -39.585938 11.375 -39.109375 C 11.613281 -38.628906 11.734375 -37.769531 11.734375 -36.53125 L 11.734375 -8.796875 C 11.734375 -8.078125 11.765625 -7.25 11.828125 -6.3125 C 11.890625 -5.375 12.050781 -4.484375 12.3125 -3.640625 C 12.570312 -2.804688 13.019531 -2.109375 13.65625 -1.546875 C 14.289062 -0.992188 15.171875 -0.71875 16.296875 -0.71875 L 16.296875 0 Z M 5.03125 -43 C 4.269531 -43.71875 3.957031 -44.59375 4.09375 -45.625 C 4.238281 -46.664062 4.769531 -47.648438 5.6875 -48.578125 C 6.800781 -49.691406 7.941406 -50.25 9.109375 -50.25 C 9.941406 -50.25 10.660156 -49.945312 11.265625 -49.34375 C 12.054688 -48.59375 12.378906 -47.695312 12.234375 -46.65625 C 12.097656 -45.613281 11.570312 -44.632812 10.65625 -43.71875 C 9.582031 -42.601562 8.46875 -42.046875 7.3125 -42.046875 C 6.507812 -42.046875 5.75 -42.363281 5.03125 -43 Z M 5.03125 -43 "/></g></g></g><g fill="#000000" fill-opacity="1"><g transform="translate(132.520708, 123.279495)"><g><path d="M 5.921875 -37.84375 L 0 -37.90625 L 0 -38.625 C 2.195312 -38.625 3.984375 -39.101562 5.359375 -40.0625 C 6.734375 -41.019531 7.789062 -42.25 8.53125 -43.75 C 9.269531 -45.25 9.796875 -46.851562 10.109375 -48.5625 C 10.429688 -50.28125 10.613281 -51.914062 10.65625 -53.46875 C 10.695312 -55.03125 10.71875 -56.3125 10.71875 -57.3125 L 11.921875 -57.3125 L 11.921875 -38.625 L 20.484375 -38.625 L 20.484375 -36.359375 C 19.398438 -36.835938 18.097656 -37.195312 16.578125 -37.4375 C 15.066406 -37.675781 13.515625 -37.8125 11.921875 -37.84375 L 11.921875 -5.75 C 11.921875 -4.664062 12.398438 -4.125 13.359375 -4.125 C 14.035156 -4.125 14.890625 -4.441406 15.921875 -5.078125 C 16.960938 -5.722656 18.0625 -6.707031 19.21875 -8.03125 L 19.703125 -7.3125 C 18.628906 -6.226562 17.472656 -5.023438 16.234375 -3.703125 C 14.992188 -2.390625 13.722656 -1.242188 12.421875 -0.265625 C 11.128906 0.710938 9.820312 1.203125 8.5 1.203125 C 7.34375 1.203125 6.625 0.691406 6.34375 -0.328125 C 6.0625 -1.347656 5.921875 -2.597656 5.921875 -4.078125 Z M 5.921875 -37.84375 "/></g></g></g><g fill="#000000" fill-opacity="1"><g transform="translate(159.170467, 123.279495)"><g><path d="M 16.296875 0 L 1.203125 0 L 1.203125 -0.71875 C 2.359375 -0.71875 3.242188 -0.992188 3.859375 -1.546875 C 4.484375 -2.109375 4.921875 -2.804688 5.171875 -3.640625 C 5.429688 -4.484375 5.59375 -5.375 5.65625 -6.3125 C 5.71875 -7.25 5.75 -8.078125 5.75 -8.796875 L 5.75 -32.21875 C 5.75 -33.019531 5.71875 -33.660156 5.65625 -34.140625 C 5.59375 -34.617188 5.363281 -34.859375 4.96875 -34.859375 C 4.445312 -34.859375 3.96875 -34.75 3.53125 -34.53125 C 3.09375 -34.3125 2.316406 -34.203125 1.203125 -34.203125 L 1.203125 -34.921875 C 1.921875 -34.921875 2.804688 -35.160156 3.859375 -35.640625 C 4.921875 -36.117188 5.847656 -36.65625 6.640625 -37.25 C 7.523438 -37.882812 8.222656 -38.472656 8.734375 -39.015625 C 9.253906 -39.554688 9.753906 -39.828125 10.234375 -39.828125 C 10.753906 -39.828125 11.132812 -39.585938 11.375 -39.109375 C 11.613281 -38.628906 11.734375 -37.769531 11.734375 -36.53125 L 11.734375 -22.578125 C 12.691406 -25.816406 14.078125 -28.734375 15.890625 -31.328125 C 17.710938 -33.921875 19.789062 -35.984375 22.125 -37.515625 C 24.46875 -39.054688 26.875 -39.828125 29.34375 -39.828125 C 31.019531 -39.828125 32.265625 -39.644531 33.078125 -39.28125 C 33.898438 -38.925781 34.3125 -38.75 34.3125 -38.75 L 34.3125 -29.640625 L 33.59375 -29.640625 C 33.59375 -30.441406 33.363281 -31.25 32.90625 -32.0625 C 32.445312 -32.882812 31.757812 -33.570312 30.84375 -34.125 C 29.925781 -34.6875 28.75 -34.96875 27.3125 -34.96875 C 25.070312 -34.96875 23.125 -34.585938 21.46875 -33.828125 C 19.8125 -33.078125 18.40625 -32.09375 17.25 -30.875 C 16.09375 -29.65625 15.15625 -28.363281 14.4375 -27 C 13.71875 -25.644531 13.15625 -24.359375 12.75 -23.140625 C 12.351562 -21.929688 12.082031 -20.945312 11.9375 -20.1875 C 11.800781 -19.425781 11.734375 -19.046875 11.734375 -19.046875 L 11.734375 -8.796875 C 11.734375 -8.078125 11.765625 -7.25 11.828125 -6.3125 C 11.890625 -5.375 12.050781 -4.484375 12.3125 -3.640625 C 12.570312 -2.804688 13.019531 -2.109375 13.65625 -1.546875 C 14.289062 -0.992188 15.171875 -0.71875 16.296875 -0.71875 Z M 16.296875 0 "/></g></g></g><g fill="#000000" fill-opacity="1"><g transform="translate(200.851396, 123.279495)"><g><path d="M 1.203125 0 L 1.203125 -0.71875 C 2.359375 -0.71875 3.242188 -0.992188 3.859375 -1.546875 C 4.484375 -2.109375 4.921875 -2.804688 5.171875 -3.640625 C 5.429688 -4.484375 5.59375 -5.375 5.65625 -6.3125 C 5.71875 -7.25 5.75 -8.078125 5.75 -8.796875 L 5.75 -32.21875 C 5.75 -33.019531 5.71875 -33.660156 5.65625 -34.140625 C 5.59375 -34.617188 5.363281 -34.859375 4.96875 -34.859375 C 4.445312 -34.859375 3.96875 -34.75 3.53125 -34.53125 C 3.09375 -34.3125 2.316406 -34.203125 1.203125 -34.203125 L 1.203125 -34.921875 C 1.921875 -34.921875 2.804688 -35.160156 3.859375 -35.640625 C 4.921875 -36.117188 5.847656 -36.65625 6.640625 -37.25 C 7.523438 -37.882812 8.222656 -38.472656 8.734375 -39.015625 C 9.253906 -39.554688 9.753906 -39.828125 10.234375 -39.828125 C 10.753906 -39.828125 11.132812 -39.585938 11.375 -39.109375 C 11.613281 -38.628906 11.734375 -37.769531 11.734375 -36.53125 L 11.734375 -8.796875 C 11.734375 -8.078125 11.765625 -7.25 11.828125 -6.3125 C 11.890625 -5.375 12.050781 -4.484375 12.3125 -3.640625 C 12.570312 -2.804688 13.019531 -2.109375 13.65625 -1.546875 C 14.289062 -0.992188 15.171875 -0.71875 16.296875 -0.71875 L 16.296875 0 Z M 5.03125 -43 C 4.269531 -43.71875 3.957031 -44.59375 4.09375 -45.625 C 4.238281 -46.664062 4.769531 -47.648438 5.6875 -48.578125 C 6.800781 -49.691406 7.941406 -50.25 9.109375 -50.25 C 9.941406 -50.25 10.660156 -49.945312 11.265625 -49.34375 C 12.054688 -48.59375 12.378906 -47.695312 12.234375 -46.65625 C 12.097656 -45.613281 11.570312 -44.632812 10.65625 -43.71875 C 9.582031 -42.601562 8.46875 -42.046875 7.3125 -42.046875 C 6.507812 -42.046875 5.75 -42.363281 5.03125 -43 Z M 5.03125 -43 "/></g></g></g><g fill="#000000" fill-opacity="1"><g transform="translate(224.506898, 123.279495)"><g><path d="M 4.96875 -35.15625 C 4.445312 -35.15625 3.96875 -35.046875 3.53125 -34.828125 C 3.09375 -34.609375 2.316406 -34.5 1.203125 -34.5 L 1.203125 -35.21875 C 1.921875 -35.21875 2.804688 -35.457031 3.859375 -35.9375 C 4.921875 -36.414062 5.847656 -36.953125 6.640625 -37.546875 C 7.523438 -38.191406 8.222656 -38.78125 8.734375 -39.3125 C 9.253906 -39.851562 9.753906 -40.125 10.234375 -40.125 C 10.753906 -40.125 11.132812 -39.882812 11.375 -39.40625 C 11.613281 -38.925781 11.734375 -38.066406 11.734375 -36.828125 L 11.734375 -29.765625 C 13.492188 -31.597656 15.421875 -33.3125 17.515625 -34.90625 C 19.609375 -36.507812 21.789062 -37.800781 24.0625 -38.78125 C 26.34375 -39.757812 28.644531 -40.25 30.96875 -40.25 C 32.71875 -40.25 34.117188 -39.925781 35.171875 -39.28125 C 36.234375 -38.644531 37.023438 -37.773438 37.546875 -36.671875 C 38.066406 -35.578125 38.40625 -34.351562 38.5625 -33 C 38.726562 -31.644531 38.8125 -30.25 38.8125 -28.8125 L 38.8125 -5.75 C 38.8125 -4.664062 39.289062 -4.125 40.25 -4.125 C 40.925781 -4.125 41.78125 -4.441406 42.8125 -5.078125 C 43.851562 -5.722656 44.953125 -6.707031 46.109375 -8.03125 L 46.59375 -7.3125 C 45.519531 -6.226562 44.363281 -5.023438 43.125 -3.703125 C 41.882812 -2.390625 40.613281 -1.242188 39.3125 -0.265625 C 38.019531 0.710938 36.710938 1.203125 35.390625 1.203125 C 34.234375 1.203125 33.515625 0.691406 33.234375 -0.328125 C 32.953125 -1.347656 32.8125 -2.597656 32.8125 -4.078125 L 32.8125 -29.9375 C 32.8125 -30.65625 32.78125 -31.484375 32.71875 -32.421875 C 32.664062 -33.367188 32.507812 -34.257812 32.25 -35.09375 C 31.988281 -35.9375 31.546875 -36.632812 30.921875 -37.1875 C 30.304688 -37.75 29.421875 -38.03125 28.265625 -38.03125 C 26.304688 -38.03125 24.445312 -37.640625 22.6875 -36.859375 C 20.9375 -36.078125 19.332031 -35.109375 17.875 -33.953125 C 16.414062 -32.796875 15.164062 -31.660156 14.125 -30.546875 C 13.09375 -29.429688 12.296875 -28.53125 11.734375 -27.84375 L 11.734375 -8.796875 C 11.734375 -8.078125 11.765625 -7.25 11.828125 -6.3125 C 11.890625 -5.375 12.050781 -4.484375 12.3125 -3.640625 C 12.570312 -2.804688 13.019531 -2.109375 13.65625 -1.546875 C 14.289062 -0.992188 15.171875 -0.71875 16.296875 -0.71875 L 16.296875 0 L 1.203125 0 L 1.203125 -0.71875 C 2.359375 -0.71875 3.242188 -0.992188 3.859375 -1.546875 C 4.484375 -2.109375 4.921875 -2.804688 5.171875 -3.640625 C 5.429688 -4.484375 5.59375 -5.375 5.65625 -6.3125 C 5.71875 -7.25 5.75 -8.078125 5.75 -8.796875 L 5.75 -32.515625 C 5.75 -33.316406 5.71875 -33.957031 5.65625 -34.4375 C 5.59375 -34.914062 5.363281 -35.15625 4.96875 -35.15625 Z M 4.96875 -35.15625 "/></g></g></g><g fill="#000000" fill-opacity="1"><g transform="translate(277.266569, 123.279495)"><g><path d="M 3.59375 -13.296875 C 3.59375 -15.773438 3.960938 -18.28125 4.703125 -20.8125 C 5.441406 -23.34375 6.507812 -25.742188 7.90625 -28.015625 C 9.300781 -30.296875 10.96875 -32.320312 12.90625 -34.09375 C 14.84375 -35.875 17 -37.273438 19.375 -38.296875 C 21.75 -39.316406 24.316406 -39.828125 27.078125 -39.828125 C 28.910156 -39.828125 30.65625 -39.535156 32.3125 -38.953125 C 33.96875 -38.378906 35.320312 -37.460938 36.375 -36.203125 C 37.4375 -34.941406 37.96875 -33.316406 37.96875 -31.328125 C 37.96875 -28.847656 37.46875 -26.585938 36.46875 -24.546875 C 35.46875 -22.515625 34.160156 -20.707031 32.546875 -19.125 C 30.929688 -17.550781 29.175781 -16.234375 27.28125 -15.171875 C 25.382812 -14.117188 23.503906 -13.320312 21.640625 -12.78125 C 19.785156 -12.25 18.140625 -11.984375 16.703125 -11.984375 C 15.546875 -11.984375 14.640625 -12.039062 13.984375 -12.15625 C 13.328125 -12.28125 12.660156 -12.519531 11.984375 -12.875 L 12.34375 -13.65625 C 13.09375 -13.21875 14.289062 -13 15.9375 -13 C 17.726562 -13 19.453125 -13.4375 21.109375 -14.3125 C 22.765625 -15.1875 24.3125 -16.363281 25.75 -17.84375 C 27.1875 -19.320312 28.429688 -20.929688 29.484375 -22.671875 C 30.546875 -24.410156 31.375 -26.164062 31.96875 -27.9375 C 32.570312 -29.71875 32.875 -31.34375 32.875 -32.8125 C 32.875 -34.613281 32.414062 -36.101562 31.5 -37.28125 C 30.582031 -38.457031 29.109375 -39.046875 27.078125 -39.046875 C 24.515625 -39.046875 22.15625 -38.40625 20 -37.125 C 17.84375 -35.851562 15.972656 -34.148438 14.390625 -32.015625 C 12.816406 -29.878906 11.601562 -27.472656 10.75 -24.796875 C 9.894531 -22.117188 9.46875 -19.363281 9.46875 -16.53125 C 9.46875 -13.851562 9.832031 -11.347656 10.5625 -9.015625 C 11.300781 -6.679688 12.519531 -4.796875 14.21875 -3.359375 C 15.914062 -1.921875 18.222656 -1.203125 21.140625 -1.203125 C 22.816406 -1.203125 24.515625 -1.617188 26.234375 -2.453125 C 27.953125 -3.296875 29.566406 -4.363281 31.078125 -5.65625 C 32.597656 -6.957031 33.894531 -8.296875 34.96875 -9.671875 C 36.050781 -11.046875 36.753906 -12.296875 37.078125 -13.421875 L 37.90625 -13.171875 C 37.3125 -11.378906 36.394531 -9.625 35.15625 -7.90625 C 33.914062 -6.1875 32.425781 -4.644531 30.6875 -3.28125 C 28.957031 -1.925781 27.039062 -0.835938 24.9375 -0.015625 C 22.84375 0.796875 20.640625 1.203125 18.328125 1.203125 C 15.609375 1.203125 13.128906 0.710938 10.890625 -0.265625 C 8.660156 -1.242188 6.882812 -2.800781 5.5625 -4.9375 C 4.25 -7.070312 3.59375 -9.859375 3.59375 -13.296875 Z M 3.59375 -13.296875 "/></g></g></g><g fill="#000000" fill-opacity="1"><g transform="translate(6.14277, 157.206399)"><g><path d="M 120.859375 -139.71875 C 124.390625 -142.113281 128.597656 -143.984375 133.484375 -145.328125 C 138.367188 -146.679688 142.316406 -147.359375 145.328125 -147.359375 C 148.347656 -147.359375 150.273438 -147.359375 151.109375 -147.359375 L 151.109375 -145.796875 C 146.222656 -145.585938 141.644531 -144.625 137.375 -142.90625 C 133.113281 -141.195312 129.601562 -139.222656 126.84375 -136.984375 C 124.09375 -134.753906 121.414062 -131.789062 118.8125 -128.09375 C 116.21875 -124.40625 114.21875 -121.257812 112.8125 -118.65625 C 111.414062 -116.0625 109.78125 -112.738281 107.90625 -108.6875 L 64.5625 -13.875 C 60.707031 -5.457031 58.78125 -0.101562 58.78125 2.1875 L 57.390625 2.1875 L 13.5625 -97.765625 C 12.113281 -101.097656 10.113281 -103.566406 7.5625 -105.171875 C 5.019531 -106.785156 2.445312 -107.59375 -0.15625 -107.59375 L -1.40625 -107.59375 L -1.40625 -109.15625 L 33.6875 -109.15625 L 33.6875 -107.59375 L 32.28125 -107.59375 C 29.15625 -107.59375 27.078125 -106.140625 26.046875 -103.234375 C 25.835938 -102.609375 25.734375 -101.878906 25.734375 -101.046875 C 25.734375 -100.210938 25.992188 -99.171875 26.515625 -97.921875 L 59.09375 -16.21875 L 97.765625 -108.6875 C 103.898438 -123.132812 111.597656 -133.476562 120.859375 -139.71875 Z M 120.859375 -139.71875 "/></g></g></g><g clip-path="url(#abedbf39df)"><path fill="#000000" d="M 374.535156 67.925781 C 350.480469 68.273438 350.199219 68.558594 349.847656 92.609375 C 349.5 68.558594 349.214844 68.273438 325.164062 67.925781 C 349.214844 67.574219 349.5 67.292969 349.847656 43.238281 C 350.199219 67.292969 350.480469 67.574219 374.535156 67.925781 " fill-opacity="1" fill-rule="nonzero"/></g></svg>