<svg xmlns="http://www.w3.org/2000/svg" xmlns:xlink="http://www.w3.org/1999/xlink" width="500" zoomAndPan="magnify" viewBox="0 0 375 187.499995" height="250" preserveAspectRatio="xMidYMid meet" version="1.0"><defs><g/><clipPath id="7fccbb8906"><path d="M 282.871094 51.449219 L 335.644531 51.449219 L 335.644531 104.21875 L 282.871094 104.21875 Z M 282.871094 51.449219 " clip-rule="nonzero"/></clipPath></defs><g fill="#000000" fill-opacity="1"><g transform="translate(110.736178, 132.740668)"><g><path d="M 1.328125 0 L 1.328125 -0.796875 C 2.609375 -0.796875 3.59375 -1.101562 4.28125 -1.71875 C 4.96875 -2.34375 5.453125 -3.117188 5.734375 -4.046875 C 6.023438 -4.984375 6.203125 -5.972656 6.265625 -7.015625 C 6.335938 -8.054688 6.375 -8.972656 6.375 -9.765625 L 6.375 -35.75 C 6.375 -36.632812 6.335938 -37.34375 6.265625 -37.875 C 6.203125 -38.40625 5.953125 -38.671875 5.515625 -38.671875 C 4.941406 -38.671875 4.410156 -38.546875 3.921875 -38.296875 C 3.429688 -38.054688 2.566406 -37.9375 1.328125 -37.9375 L 1.328125 -38.734375 C 2.128906 -38.734375 3.113281 -39 4.28125 -39.53125 C 5.457031 -40.0625 6.488281 -40.660156 7.375 -41.328125 C 8.351562 -42.035156 9.128906 -42.6875 9.703125 -43.28125 C 10.273438 -43.882812 10.828125 -44.1875 11.359375 -44.1875 C 11.929688 -44.1875 12.347656 -43.921875 12.609375 -43.390625 C 12.878906 -42.859375 13.015625 -41.90625 13.015625 -40.53125 L 13.015625 -9.765625 C 13.015625 -8.972656 13.046875 -8.054688 13.109375 -7.015625 C 13.179688 -5.972656 13.359375 -4.984375 13.640625 -4.046875 C 13.929688 -3.117188 14.429688 -2.34375 15.140625 -1.71875 C 15.847656 -1.101562 16.828125 -0.796875 18.078125 -0.796875 L 18.078125 0 Z M 5.578125 -47.703125 C 4.734375 -48.492188 4.390625 -49.46875 4.546875 -50.625 C 4.703125 -51.78125 5.289062 -52.863281 6.3125 -53.875 C 7.550781 -55.113281 8.8125 -55.734375 10.09375 -55.734375 C 11.03125 -55.734375 11.828125 -55.40625 12.484375 -54.75 C 13.367188 -53.90625 13.734375 -52.90625 13.578125 -51.75 C 13.429688 -50.601562 12.847656 -49.519531 11.828125 -48.5 C 10.628906 -47.257812 9.390625 -46.640625 8.109375 -46.640625 C 7.222656 -46.640625 6.378906 -46.992188 5.578125 -47.703125 Z M 5.578125 -47.703125 "/></g></g></g><g fill="#000000" fill-opacity="1"><g transform="translate(128.739633, 132.740668)"><g><path d="M 6.578125 -41.984375 L 0 -42.0625 L 0 -42.859375 C 2.4375 -42.859375 4.414062 -43.390625 5.9375 -44.453125 C 7.46875 -45.515625 8.644531 -46.875 9.46875 -48.53125 C 10.289062 -50.195312 10.878906 -51.976562 11.234375 -53.875 C 11.585938 -55.78125 11.785156 -57.597656 11.828125 -59.328125 C 11.867188 -61.054688 11.890625 -62.472656 11.890625 -63.578125 L 13.21875 -63.578125 L 13.21875 -42.859375 L 22.71875 -42.859375 L 22.71875 -40.328125 C 21.519531 -40.859375 20.078125 -41.253906 18.390625 -41.515625 C 16.710938 -41.785156 14.988281 -41.941406 13.21875 -41.984375 L 13.21875 -6.375 C 13.21875 -5.175781 13.75 -4.578125 14.8125 -4.578125 C 15.5625 -4.578125 16.515625 -4.929688 17.671875 -5.640625 C 18.828125 -6.347656 20.046875 -7.4375 21.328125 -8.90625 L 21.859375 -8.109375 C 20.660156 -6.910156 19.375 -5.578125 18 -4.109375 C 16.625 -2.648438 15.21875 -1.378906 13.78125 -0.296875 C 12.34375 0.785156 10.894531 1.328125 9.4375 1.328125 C 8.144531 1.328125 7.34375 0.765625 7.03125 -0.359375 C 6.726562 -1.492188 6.578125 -2.878906 6.578125 -4.515625 Z M 6.578125 -41.984375 "/></g></g></g><g fill="#000000" fill-opacity="1"><g transform="translate(150.064794, 132.740668)"><g><path d="M 18.078125 0 L 1.328125 0 L 1.328125 -0.796875 C 2.609375 -0.796875 3.59375 -1.101562 4.28125 -1.71875 C 4.96875 -2.34375 5.453125 -3.117188 5.734375 -4.046875 C 6.023438 -4.984375 6.203125 -5.972656 6.265625 -7.015625 C 6.335938 -8.054688 6.375 -8.972656 6.375 -9.765625 L 6.375 -35.75 C 6.375 -36.632812 6.335938 -37.34375 6.265625 -37.875 C 6.203125 -38.40625 5.953125 -38.671875 5.515625 -38.671875 C 4.941406 -38.671875 4.410156 -38.546875 3.921875 -38.296875 C 3.429688 -38.054688 2.566406 -37.9375 1.328125 -37.9375 L 1.328125 -38.734375 C 2.128906 -38.734375 3.113281 -39 4.28125 -39.53125 C 5.457031 -40.0625 6.488281 -40.660156 7.375 -41.328125 C 8.351562 -42.035156 9.128906 -42.6875 9.703125 -43.28125 C 10.273438 -43.882812 10.828125 -44.1875 11.359375 -44.1875 C 11.929688 -44.1875 12.347656 -43.921875 12.609375 -43.390625 C 12.878906 -42.859375 13.015625 -41.90625 13.015625 -40.53125 L 13.015625 -25.046875 C 14.078125 -28.628906 15.613281 -31.859375 17.625 -34.734375 C 19.644531 -37.617188 21.953125 -39.914062 24.546875 -41.625 C 27.140625 -43.332031 29.804688 -44.1875 32.546875 -44.1875 C 34.410156 -44.1875 35.796875 -43.984375 36.703125 -43.578125 C 37.609375 -43.179688 38.0625 -42.984375 38.0625 -42.984375 L 38.0625 -32.890625 L 37.265625 -32.890625 C 37.265625 -33.773438 37.007812 -34.671875 36.5 -35.578125 C 36 -36.484375 35.238281 -37.242188 34.21875 -37.859375 C 33.195312 -38.484375 31.890625 -38.796875 30.296875 -38.796875 C 27.816406 -38.796875 25.65625 -38.375 23.8125 -37.53125 C 21.976562 -36.695312 20.414062 -35.601562 19.125 -34.25 C 17.84375 -32.894531 16.800781 -31.460938 16 -29.953125 C 15.207031 -28.453125 14.585938 -27.023438 14.140625 -25.671875 C 13.703125 -24.328125 13.40625 -23.234375 13.25 -22.390625 C 13.09375 -21.546875 13.015625 -21.125 13.015625 -21.125 L 13.015625 -9.765625 C 13.015625 -8.972656 13.046875 -8.054688 13.109375 -7.015625 C 13.179688 -5.972656 13.359375 -4.984375 13.640625 -4.046875 C 13.929688 -3.117188 14.429688 -2.34375 15.140625 -1.71875 C 15.847656 -1.101562 16.828125 -0.796875 18.078125 -0.796875 Z M 18.078125 0 "/></g></g></g><g fill="#000000" fill-opacity="1"><g transform="translate(188.064896, 132.740668)"><g><path d="M 1.328125 0 L 1.328125 -0.796875 C 2.609375 -0.796875 3.59375 -1.101562 4.28125 -1.71875 C 4.96875 -2.34375 5.453125 -3.117188 5.734375 -4.046875 C 6.023438 -4.984375 6.203125 -5.972656 6.265625 -7.015625 C 6.335938 -8.054688 6.375 -8.972656 6.375 -9.765625 L 6.375 -35.75 C 6.375 -36.632812 6.335938 -37.34375 6.265625 -37.875 C 6.203125 -38.40625 5.953125 -38.671875 5.515625 -38.671875 C 4.941406 -38.671875 4.410156 -38.546875 3.921875 -38.296875 C 3.429688 -38.054688 2.566406 -37.9375 1.328125 -37.9375 L 1.328125 -38.734375 C 2.128906 -38.734375 3.113281 -39 4.28125 -39.53125 C 5.457031 -40.0625 6.488281 -40.660156 7.375 -41.328125 C 8.351562 -42.035156 9.128906 -42.6875 9.703125 -43.28125 C 10.273438 -43.882812 10.828125 -44.1875 11.359375 -44.1875 C 11.929688 -44.1875 12.347656 -43.921875 12.609375 -43.390625 C 12.878906 -42.859375 13.015625 -41.90625 13.015625 -40.53125 L 13.015625 -9.765625 C 13.015625 -8.972656 13.046875 -8.054688 13.109375 -7.015625 C 13.179688 -5.972656 13.359375 -4.984375 13.640625 -4.046875 C 13.929688 -3.117188 14.429688 -2.34375 15.140625 -1.71875 C 15.847656 -1.101562 16.828125 -0.796875 18.078125 -0.796875 L 18.078125 0 Z M 5.578125 -47.703125 C 4.734375 -48.492188 4.390625 -49.46875 4.546875 -50.625 C 4.703125 -51.78125 5.289062 -52.863281 6.3125 -53.875 C 7.550781 -55.113281 8.8125 -55.734375 10.09375 -55.734375 C 11.03125 -55.734375 11.828125 -55.40625 12.484375 -54.75 C 13.367188 -53.90625 13.734375 -52.90625 13.578125 -51.75 C 13.429688 -50.601562 12.847656 -49.519531 11.828125 -48.5 C 10.628906 -47.257812 9.390625 -46.640625 8.109375 -46.640625 C 7.222656 -46.640625 6.378906 -46.992188 5.578125 -47.703125 Z M 5.578125 -47.703125 "/></g></g></g><g fill="#000000" fill-opacity="1"><g transform="translate(206.06835, 132.740668)"><g><path d="M 5.515625 -39 C 4.941406 -39 4.410156 -38.875 3.921875 -38.625 C 3.429688 -38.382812 2.566406 -38.265625 1.328125 -38.265625 L 1.328125 -39.0625 C 2.128906 -39.0625 3.113281 -39.328125 4.28125 -39.859375 C 5.457031 -40.390625 6.488281 -40.988281 7.375 -41.65625 C 8.351562 -42.363281 9.128906 -43.015625 9.703125 -43.609375 C 10.273438 -44.210938 10.828125 -44.515625 11.359375 -44.515625 C 11.929688 -44.515625 12.347656 -44.25 12.609375 -43.71875 C 12.878906 -43.1875 13.015625 -42.234375 13.015625 -40.859375 L 13.015625 -33.015625 C 14.960938 -35.054688 17.097656 -36.960938 19.421875 -38.734375 C 21.753906 -40.503906 24.179688 -41.929688 26.703125 -43.015625 C 29.234375 -44.097656 31.78125 -44.640625 34.34375 -44.640625 C 36.289062 -44.640625 37.851562 -44.285156 39.03125 -43.578125 C 40.207031 -42.867188 41.082031 -41.90625 41.65625 -40.6875 C 42.226562 -39.46875 42.601562 -38.101562 42.78125 -36.59375 C 42.957031 -35.09375 43.046875 -33.546875 43.046875 -31.953125 L 43.046875 -6.375 C 43.046875 -5.175781 43.578125 -4.578125 44.640625 -4.578125 C 45.398438 -4.578125 46.351562 -4.929688 47.5 -5.640625 C 48.65625 -6.347656 49.875 -7.4375 51.15625 -8.90625 L 51.6875 -8.109375 C 50.488281 -6.910156 49.203125 -5.578125 47.828125 -4.109375 C 46.460938 -2.648438 45.054688 -1.378906 43.609375 -0.296875 C 42.171875 0.785156 40.722656 1.328125 39.265625 1.328125 C 37.984375 1.328125 37.1875 0.765625 36.875 -0.359375 C 36.5625 -1.492188 36.40625 -2.878906 36.40625 -4.515625 L 36.40625 -33.21875 C 36.40625 -34.019531 36.367188 -34.9375 36.296875 -35.96875 C 36.234375 -37.007812 36.054688 -37.992188 35.765625 -38.921875 C 35.484375 -39.859375 35 -40.632812 34.3125 -41.25 C 33.625 -41.875 32.640625 -42.1875 31.359375 -42.1875 C 29.191406 -42.1875 27.128906 -41.753906 25.171875 -40.890625 C 23.222656 -40.023438 21.441406 -38.953125 19.828125 -37.671875 C 18.210938 -36.390625 16.828125 -35.125 15.671875 -33.875 C 14.523438 -32.632812 13.640625 -31.640625 13.015625 -30.890625 L 13.015625 -9.765625 C 13.015625 -8.972656 13.046875 -8.054688 13.109375 -7.015625 C 13.179688 -5.972656 13.359375 -4.984375 13.640625 -4.046875 C 13.929688 -3.117188 14.429688 -2.34375 15.140625 -1.71875 C 15.847656 -1.101562 16.828125 -0.796875 18.078125 -0.796875 L 18.078125 0 L 1.328125 0 L 1.328125 -0.796875 C 2.609375 -0.796875 3.59375 -1.101562 4.28125 -1.71875 C 4.96875 -2.34375 5.453125 -3.117188 5.734375 -4.046875 C 6.023438 -4.984375 6.203125 -5.972656 6.265625 -7.015625 C 6.335938 -8.054688 6.375 -8.972656 6.375 -9.765625 L 6.375 -36.078125 C 6.375 -36.960938 6.335938 -37.671875 6.265625 -38.203125 C 6.203125 -38.734375 5.953125 -39 5.515625 -39 Z M 5.515625 -39 "/></g></g></g><g fill="#000000" fill-opacity="1"><g transform="translate(256.358747, 132.740668)"><g><path d="M 3.984375 -14.75 C 3.984375 -17.5 4.390625 -20.28125 5.203125 -23.09375 C 6.023438 -25.90625 7.210938 -28.570312 8.765625 -31.09375 C 10.316406 -33.613281 12.164062 -35.859375 14.3125 -37.828125 C 16.46875 -39.804688 18.863281 -41.359375 21.5 -42.484375 C 24.132812 -43.617188 26.976562 -44.1875 30.03125 -44.1875 C 32.0625 -44.1875 33.992188 -43.863281 35.828125 -43.21875 C 37.671875 -42.570312 39.179688 -41.550781 40.359375 -40.15625 C 41.535156 -38.757812 42.125 -36.957031 42.125 -34.75 C 42.125 -32 41.566406 -29.492188 40.453125 -27.234375 C 39.347656 -24.972656 37.898438 -22.96875 36.109375 -21.21875 C 34.316406 -19.476562 32.367188 -18.019531 30.265625 -16.84375 C 28.160156 -15.664062 26.078125 -14.773438 24.015625 -14.171875 C 21.953125 -13.578125 20.125 -13.28125 18.53125 -13.28125 C 17.25 -13.28125 16.242188 -13.347656 15.515625 -13.484375 C 14.785156 -13.617188 14.039062 -13.882812 13.28125 -14.28125 L 13.6875 -15.140625 C 14.53125 -14.660156 15.859375 -14.421875 17.671875 -14.421875 C 19.660156 -14.421875 21.570312 -14.90625 23.40625 -15.875 C 25.25 -16.851562 26.96875 -18.160156 28.5625 -19.796875 C 30.15625 -21.429688 31.539062 -23.210938 32.71875 -25.140625 C 33.894531 -27.066406 34.8125 -29.015625 35.46875 -30.984375 C 36.132812 -32.960938 36.46875 -34.769531 36.46875 -36.40625 C 36.46875 -38.394531 35.957031 -40.039062 34.9375 -41.34375 C 33.925781 -42.65625 32.289062 -43.3125 30.03125 -43.3125 C 27.195312 -43.3125 24.582031 -42.601562 22.1875 -41.1875 C 19.800781 -39.769531 17.734375 -37.875 15.984375 -35.5 C 14.234375 -33.132812 12.878906 -30.46875 11.921875 -27.5 C 10.972656 -24.53125 10.5 -21.476562 10.5 -18.34375 C 10.5 -15.375 10.90625 -12.59375 11.71875 -10 C 12.539062 -7.40625 13.894531 -5.3125 15.78125 -3.71875 C 17.664062 -2.125 20.222656 -1.328125 23.453125 -1.328125 C 25.316406 -1.328125 27.195312 -1.789062 29.09375 -2.71875 C 31 -3.65625 32.789062 -4.84375 34.46875 -6.28125 C 36.15625 -7.71875 37.597656 -9.195312 38.796875 -10.71875 C 39.992188 -12.25 40.769531 -13.632812 41.125 -14.875 L 42.0625 -14.609375 C 41.394531 -12.617188 40.375 -10.671875 39 -8.765625 C 37.625 -6.859375 35.972656 -5.148438 34.046875 -3.640625 C 32.117188 -2.140625 29.992188 -0.9375 27.671875 -0.03125 C 25.347656 0.875 22.898438 1.328125 20.328125 1.328125 C 17.316406 1.328125 14.570312 0.785156 12.09375 -0.296875 C 9.613281 -1.378906 7.640625 -3.101562 6.171875 -5.46875 C 4.710938 -7.84375 3.984375 -10.9375 3.984375 -14.75 Z M 3.984375 -14.75 "/></g></g></g><g fill="#000000" fill-opacity="1"><g transform="translate(16.636367, 151.286921)"><g><path d="M 120.859375 -139.71875 C 124.390625 -142.113281 128.597656 -143.984375 133.484375 -145.328125 C 138.367188 -146.679688 142.316406 -147.359375 145.328125 -147.359375 C 148.347656 -147.359375 150.273438 -147.359375 151.109375 -147.359375 L 151.109375 -145.796875 C 146.222656 -145.585938 141.644531 -144.625 137.375 -142.90625 C 133.113281 -141.195312 129.601562 -139.222656 126.84375 -136.984375 C 124.09375 -134.753906 121.414062 -131.789062 118.8125 -128.09375 C 116.21875 -124.40625 114.21875 -121.257812 112.8125 -118.65625 C 111.414062 -116.0625 109.78125 -112.738281 107.90625 -108.6875 L 64.5625 -13.875 C 60.707031 -5.457031 58.78125 -0.101562 58.78125 2.1875 L 57.390625 2.1875 L 13.5625 -97.765625 C 12.113281 -101.097656 10.113281 -103.566406 7.5625 -105.171875 C 5.019531 -106.785156 2.445312 -107.59375 -0.15625 -107.59375 L -1.40625 -107.59375 L -1.40625 -109.15625 L 33.6875 -109.15625 L 33.6875 -107.59375 L 32.28125 -107.59375 C 29.15625 -107.59375 27.078125 -106.140625 26.046875 -103.234375 C 25.835938 -102.609375 25.734375 -101.878906 25.734375 -101.046875 C 25.734375 -100.210938 25.992188 -99.171875 26.515625 -97.921875 L 59.09375 -16.21875 L 97.765625 -108.6875 C 103.898438 -123.132812 111.597656 -133.476562 120.859375 -139.71875 Z M 120.859375 -139.71875 "/></g></g></g><g clip-path="url(#7fccbb8906)"><path fill="#000000" d="M 335.644531 77.835938 C 309.933594 78.207031 309.628906 78.511719 309.257812 104.222656 C 308.882812 78.511719 308.578125 78.207031 282.867188 77.835938 C 308.578125 77.460938 308.882812 77.15625 309.257812 51.445312 C 309.628906 77.15625 309.933594 77.460938 335.644531 77.835938 " fill-opacity="1" fill-rule="nonzero"/></g></svg>