<svg width="148" height="35" viewBox="0 0 148 35" fill="none" xmlns="http://www.w3.org/2000/svg">
<path d="M16.0938 34.4219L4.72656 4.60938C4.47656 3.92188 4.125 3.46875 3.67188 3.25C3.21875 3.01562 2.75 2.89063 2.26562 2.875C1.78125 2.85937 1.34375 2.83594 0.953125 2.80469C0.625 2.77344 0.40625 2.71094 0.296875 2.61719C0.171875 2.50781 0.109375 2.28125 0.109375 1.9375C0.109375 1.76563 0.179688 1.52344 0.320312 1.21094C0.460938 0.898438 0.65625 0.742188 0.90625 0.742188H13.2109C13.4766 0.742188 13.6719 0.898438 13.7969 1.21094C13.9375 1.52344 14.0078 1.76563 14.0078 1.9375C14.0078 2.45312 13.75 2.74219 13.2344 2.80469C12.2812 2.85156 11.4922 2.89063 10.8672 2.92188C10.2422 2.95312 9.92969 3.15625 9.92969 3.53125C9.92969 3.60937 9.95312 3.71094 10 3.83594L18.5781 28.5625L26.7109 4.53906C26.7422 4.41406 26.7578 4.32812 26.7578 4.28125C26.7578 3.8125 26.375 3.46875 25.6094 3.25C24.8438 3.01562 23.9766 2.86719 23.0078 2.80469C22.4922 2.74219 22.2344 2.45312 22.2344 1.9375C22.2344 1.76563 22.2969 1.52344 22.4219 1.21094C22.5625 0.898438 22.7656 0.742188 23.0312 0.742188H33.6953C33.9609 0.742188 34.1562 0.898438 34.2812 1.21094C34.4219 1.52344 34.4922 1.76563 34.4922 1.9375C34.4922 2.28125 34.4297 2.50781 34.3047 2.61719C34.1953 2.71094 33.9766 2.77344 33.6484 2.80469C33.2734 2.83594 32.8359 2.85937 32.3359 2.875C31.8516 2.89063 31.3828 3.01562 30.9297 3.25C30.4922 3.46875 30.1406 3.92188 29.875 4.60938L18.9766 34.4219H16.0938ZM35.4531 34C35.1875 34 34.9844 33.8828 34.8438 33.6484C34.7188 33.4141 34.6562 33.2109 34.6562 33.0391C34.6562 32.5234 34.9141 32.2344 35.4297 32.1719C36.0078 32.0938 36.6016 31.9531 37.2109 31.75C37.8203 31.5469 38.125 31.1875 38.125 30.6719L38.1484 15.7656C38.1484 14.7969 37.9453 14.1328 37.5391 13.7734C37.1328 13.4141 36.6562 13.1953 36.1094 13.1172C35.5625 13.0391 35.0781 12.9453 34.6562 12.8359C34.5 12.7578 34.3672 12.6562 34.2578 12.5312C34.1484 12.4062 34.0938 12.1953 34.0938 11.8984C34.0938 11.7109 34.1406 11.5 34.2344 11.2656C34.3281 11.0156 34.4688 10.8828 34.6562 10.8672C36.2188 10.7734 37.6328 10.7109 38.8984 10.6797C40.1641 10.6484 41.1328 10.6328 41.8047 10.6328C41.9297 10.6328 42.0703 10.6953 42.2266 10.8203C42.3828 10.9453 42.4766 11.1953 42.5078 11.5703V29.8984C42.5078 30.5703 42.6641 31.0625 42.9766 31.375C43.3047 31.6719 43.6875 31.8672 44.125 31.9609C44.5781 32.0547 44.9922 32.125 45.3672 32.1719C45.6953 32.2031 45.9141 32.2656 46.0234 32.3594C46.1484 32.4531 46.2109 32.6797 46.2109 33.0391C46.2109 33.2109 46.1406 33.4141 46 33.6484C45.875 33.8828 45.6797 34 45.4141 34H35.4531ZM40.2578 6.50781C39.3984 6.50781 38.7109 6.19531 38.1953 5.57031C37.6797 4.92969 37.4219 4.15625 37.4219 3.25C37.4219 2.32813 37.6797 1.55469 38.1953 0.929688C38.7109 0.304687 39.3984 -0.0078125 40.2578 -0.0078125C41.1172 -0.0078125 41.8047 0.304687 42.3203 0.929688C42.8359 1.55469 43.0938 2.32813 43.0938 3.25C43.0938 4.15625 42.8359 4.92969 42.3203 5.57031C41.8047 6.19531 41.1172 6.50781 40.2578 6.50781ZM57.0156 34.7031C55.6094 34.7031 54.4688 34.4922 53.5938 34.0703C52.7188 33.6641 52.0703 33.0234 51.6484 32.1484C51.2422 31.2734 51.0391 30.1484 51.0391 28.7734V12.7422H48.3438C48.1562 12.7266 48.0156 12.6406 47.9219 12.4844C47.8281 12.3125 47.7812 12.1328 47.7812 11.9453C47.7812 11.2734 48 10.9375 48.4375 10.9375C49.4375 10.8281 50.2578 10.5625 50.8984 10.1406C51.5391 9.70312 52.0781 9.01562 52.5156 8.07812C52.9531 7.14062 53.3516 5.875 53.7109 4.28125C53.7578 4.04688 53.8672 3.89844 54.0391 3.83594C54.2109 3.77344 54.4375 3.74219 54.7188 3.74219C55.0312 3.74219 55.2188 3.78125 55.2812 3.85938C55.3594 3.9375 55.3984 4.08594 55.3984 4.30469V10.7031H62.3125C62.5 10.7188 62.6406 10.8125 62.7344 10.9844C62.8281 11.1406 62.875 11.3125 62.875 11.5C62.875 11.8281 62.8047 12.1172 62.6641 12.3672C62.5391 12.6172 62.3906 12.7422 62.2188 12.7422H55.3984V27.0625C55.3984 28.3906 55.5312 29.4062 55.7969 30.1094C56.0625 30.7969 56.3984 31.2734 56.8047 31.5391C57.2109 31.7891 57.6094 31.9141 58 31.9141C59.0781 31.9141 59.9297 31.8125 60.5547 31.6094C61.1953 31.3906 61.8047 31.0859 62.3828 30.6953C62.5391 30.5859 62.6953 30.6406 62.8516 30.8594C63.0234 31.0781 63.1562 31.3281 63.25 31.6094C63.3438 31.8906 63.3359 32.0781 63.2266 32.1719C62.8984 32.4531 62.4062 32.7969 61.75 33.2031C61.0938 33.5938 60.3516 33.9375 59.5234 34.2344C58.6953 34.5469 57.8594 34.7031 57.0156 34.7031ZM66.4609 34C66.1953 34 65.9922 33.8828 65.8516 33.6484C65.7266 33.4141 65.6641 33.2109 65.6641 33.0391C65.6641 32.5234 65.9219 32.2344 66.4375 32.1719C67.0781 32.1094 67.6875 31.9766 68.2656 31.7734C68.8594 31.5547 69.1562 31.1875 69.1562 30.6719V15.7656C69.1562 14.7969 68.9531 14.1328 68.5469 13.7734C68.1406 13.4141 67.6641 13.1953 67.1172 13.1172C66.5703 13.0391 66.0859 12.9453 65.6641 12.8359C65.5078 12.7578 65.375 12.6562 65.2656 12.5312C65.1562 12.4062 65.1016 12.1953 65.1016 11.8984C65.1016 11.7109 65.1484 11.5 65.2422 11.2656C65.3516 11.0312 65.4922 10.9062 65.6641 10.8906C67.2266 10.7969 68.6016 10.7109 69.7891 10.6328C70.9766 10.5547 71.9062 10.5078 72.5781 10.4922C72.7031 10.4922 72.8438 10.5547 73 10.6797C73.1562 10.8047 73.25 11.0547 73.2812 11.4297V14.8281C73.7656 14.0625 74.2891 13.3359 74.8516 12.6484C75.4297 11.9453 76.0781 11.3672 76.7969 10.9141C77.5156 10.4609 78.3438 10.2344 79.2812 10.2344C80.2812 10.2344 81.0312 10.3984 81.5312 10.7266C82.0312 11.0547 82.3672 11.4688 82.5391 11.9688C82.7109 12.4688 82.7969 12.9922 82.7969 13.5391C82.7969 14.1328 82.6094 14.625 82.2344 15.0156C81.875 15.3906 81.4531 15.6719 80.9688 15.8594C80.5 16.0469 80.1094 16.1406 79.7969 16.1406L77.5703 13.3281C77.1016 13.3281 76.6016 13.5078 76.0703 13.8672C75.5547 14.2266 75.0703 14.7031 74.6172 15.2969C74.1641 15.8906 73.7969 16.5312 73.5156 17.2188V29.8984C73.5156 30.5703 73.7344 31.0625 74.1719 31.375C74.625 31.6719 75.1641 31.8672 75.7891 31.9609C76.4297 32.0547 77.0156 32.125 77.5469 32.1719C77.875 32.2031 78.0938 32.2656 78.2031 32.3594C78.3281 32.4531 78.3906 32.6797 78.3906 33.0391C78.3906 33.2109 78.3203 33.4141 78.1797 33.6484C78.0547 33.8828 77.8594 34 77.5938 34H66.4609ZM85.7969 34C85.5312 34 85.3281 33.8828 85.1875 33.6484C85.0625 33.4141 85 33.2109 85 33.0391C85 32.5234 85.2578 32.2344 85.7734 32.1719C86.3516 32.0938 86.9453 31.9531 87.5547 31.75C88.1641 31.5469 88.4688 31.1875 88.4688 30.6719L88.4922 15.7656C88.4922 14.7969 88.2891 14.1328 87.8828 13.7734C87.4766 13.4141 87 13.1953 86.4531 13.1172C85.9062 13.0391 85.4219 12.9453 85 12.8359C84.8438 12.7578 84.7109 12.6562 84.6016 12.5312C84.4922 12.4062 84.4375 12.1953 84.4375 11.8984C84.4375 11.7109 84.4844 11.5 84.5781 11.2656C84.6719 11.0156 84.8125 10.8828 85 10.8672C86.5625 10.7734 87.9766 10.7109 89.2422 10.6797C90.5078 10.6484 91.4766 10.6328 92.1484 10.6328C92.2734 10.6328 92.4141 10.6953 92.5703 10.8203C92.7266 10.9453 92.8203 11.1953 92.8516 11.5703V29.8984C92.8516 30.5703 93.0078 31.0625 93.3203 31.375C93.6484 31.6719 94.0312 31.8672 94.4688 31.9609C94.9219 32.0547 95.3359 32.125 95.7109 32.1719C96.0391 32.2031 96.2578 32.2656 96.3672 32.3594C96.4922 32.4531 96.5547 32.6797 96.5547 33.0391C96.5547 33.2109 96.4844 33.4141 96.3438 33.6484C96.2188 33.8828 96.0234 34 95.7578 34H85.7969ZM90.6016 6.50781C89.7422 6.50781 89.0547 6.19531 88.5391 5.57031C88.0234 4.92969 87.7656 4.15625 87.7656 3.25C87.7656 2.32813 88.0234 1.55469 88.5391 0.929688C89.0547 0.304687 89.7422 -0.0078125 90.6016 -0.0078125C91.4609 -0.0078125 92.1484 0.304687 92.6641 0.929688C93.1797 1.55469 93.4375 2.32813 93.4375 3.25C93.4375 4.15625 93.1797 4.92969 92.6641 5.57031C92.1484 6.19531 91.4609 6.50781 90.6016 6.50781ZM99.8359 34C99.5703 34 99.3672 33.8828 99.2266 33.6484C99.1016 33.4141 99.0391 33.2109 99.0391 33.0391C99.0391 32.5234 99.2969 32.2344 99.8125 32.1719C100.391 32.0938 100.984 31.9531 101.594 31.75C102.219 31.5469 102.531 31.1875 102.531 30.6719V15.7656C102.531 14.7969 102.32 14.1328 101.898 13.7734C101.477 13.4141 100.992 13.1953 100.445 13.1172C99.8984 13.0391 99.4297 12.9453 99.0391 12.8359C98.8828 12.7578 98.75 12.6562 98.6406 12.5312C98.5312 12.4062 98.4766 12.1953 98.4766 11.8984C98.4766 11.7109 98.5234 11.4922 98.6172 11.2422C98.7109 10.9922 98.8516 10.8594 99.0391 10.8438C100.555 10.75 101.922 10.6953 103.141 10.6797C104.375 10.6484 105.312 10.6328 105.953 10.6328C106.078 10.6328 106.219 10.6953 106.375 10.8203C106.531 10.9453 106.625 11.1953 106.656 11.5703V14.1953C106.938 13.9141 107.508 13.4609 108.367 12.8359C109.242 12.1953 110.312 11.6016 111.578 11.0547C112.844 10.5078 114.211 10.2344 115.68 10.2344C116.695 10.2344 117.625 10.3828 118.469 10.6797C119.328 10.9609 120.016 11.5234 120.531 12.3672C121.047 13.1953 121.305 14.4219 121.305 16.0469V29.8984C121.305 30.6484 121.492 31.1719 121.867 31.4688C122.242 31.7656 122.68 31.9453 123.18 32.0078C123.68 32.0547 124.125 32.1094 124.516 32.1719C124.781 32.2031 124.977 32.2734 125.102 32.3828C125.227 32.4766 125.289 32.6953 125.289 33.0391C125.289 33.2109 125.219 33.4141 125.078 33.6484C124.953 33.8828 124.758 34 124.492 34H114.484C114.219 34 114.016 33.8828 113.875 33.6484C113.75 33.4141 113.688 33.2109 113.688 33.0391C113.688 32.7891 113.734 32.5859 113.828 32.4297C113.922 32.2734 114.117 32.1875 114.414 32.1719C114.914 32.1406 115.453 31.9922 116.031 31.7266C116.609 31.4609 116.898 31.1094 116.898 30.6719V15.3672C116.898 15.1016 116.836 14.7812 116.711 14.4062C116.602 14.0312 116.328 13.7031 115.891 13.4219C115.469 13.1406 114.797 13 113.875 13C112.906 13 111.969 13.1641 111.062 13.4922C110.156 13.8047 109.344 14.1875 108.625 14.6406C107.906 15.0938 107.328 15.5234 106.891 15.9297V29.8984C106.891 30.8984 107.18 31.5156 107.758 31.75C108.352 31.9688 108.938 32.1094 109.516 32.1719C109.844 32.2031 110.062 32.2656 110.172 32.3594C110.297 32.4531 110.359 32.6797 110.359 33.0391C110.359 33.2109 110.289 33.4141 110.148 33.6484C110.023 33.8828 109.828 34 109.562 34H99.8359ZM138.25 34.6797C134.672 34.6797 131.969 33.5938 130.141 31.4219C128.312 29.2344 127.398 26.1875 127.398 22.2812C127.398 19.6719 127.891 17.4766 128.875 15.6953C129.859 13.8984 131.156 12.5391 132.766 11.6172C134.375 10.6953 136.109 10.2344 137.969 10.2344C139.938 10.2344 141.539 10.5781 142.773 11.2656C144.023 11.9375 144.984 12.8828 145.656 14.1016C146.344 15.3047 146.828 16.7109 147.109 18.3203C147.219 18.9141 147.289 19.5391 147.32 20.1953C147.367 20.8516 147.391 21.5234 147.391 22.2109H132.438C132.453 24.6797 132.781 26.6484 133.422 28.1172C134.062 29.5859 134.867 30.6406 135.836 31.2812C136.82 31.9219 137.828 32.2422 138.859 32.2422C140.047 32.2422 141.133 31.9766 142.117 31.4453C143.102 30.8984 143.844 30.125 144.344 29.125C144.391 29.0312 144.438 28.9375 144.484 28.8438C144.531 28.75 144.633 28.7188 144.789 28.75L145.961 29.2891C146.133 29.3516 146.219 29.4453 146.219 29.5703C146.219 29.6328 146.203 29.7031 146.172 29.7812C146.141 29.8438 146.109 29.8984 146.078 29.9453C145.391 31.3203 144.414 32.4531 143.148 33.3438C141.883 34.2344 140.25 34.6797 138.25 34.6797ZM132.484 20.1953L142.188 20.0547C142.188 17.3359 141.781 15.3984 140.969 14.2422C140.156 13.0703 139.148 12.4844 137.945 12.4844C136.836 12.4844 135.891 12.6641 135.109 13.0234C134.328 13.3828 133.719 14.1172 133.281 15.2266C132.844 16.3203 132.578 17.9766 132.484 20.1953Z" fill="black"/>
</svg>
