<svg xmlns="http://www.w3.org/2000/svg" xmlns:xlink="http://www.w3.org/1999/xlink" width="160" zoomAndPan="magnify" viewBox="0 0 120 30.000001" height="40" preserveAspectRatio="xMidYMid meet" version="1.0"><defs><g/><clipPath id="1c33fddcde"><path d="M 1.933594 0 L 118.0625 0 L 118.0625 29.03125 L 1.933594 29.03125 Z M 1.933594 0 " clip-rule="nonzero"/></clipPath><clipPath id="0aac5b394e"><path d="M 50.625 8.878906 L 59.945312 8.878906 L 59.945312 18.199219 L 50.625 18.199219 Z M 50.625 8.878906 " clip-rule="nonzero"/></clipPath></defs><g clip-path="url(#1c33fddcde)"><path fill="#ffffff" d="M 1.933594 0 L 118.066406 0 L 118.066406 29.03125 L 1.933594 29.03125 Z M 1.933594 0 " fill-opacity="1" fill-rule="nonzero"/><path fill="#ffffff" d="M 1.933594 0 L 118.066406 0 L 118.066406 29.03125 L 1.933594 29.03125 Z M 1.933594 0 " fill-opacity="1" fill-rule="nonzero"/></g><g fill="#000000" fill-opacity="1"><g transform="translate(20.223465, 23.237318)"><g><path d="M 0.234375 0 L 0.234375 -0.140625 C 0.460938 -0.140625 0.632812 -0.191406 0.75 -0.296875 C 0.875 -0.410156 0.960938 -0.550781 1.015625 -0.71875 C 1.066406 -0.882812 1.097656 -1.054688 1.109375 -1.234375 C 1.117188 -1.421875 1.125 -1.582031 1.125 -1.71875 L 1.125 -6.3125 C 1.125 -6.46875 1.117188 -6.59375 1.109375 -6.6875 C 1.097656 -6.78125 1.050781 -6.828125 0.96875 -6.828125 C 0.875 -6.828125 0.78125 -6.804688 0.6875 -6.765625 C 0.601562 -6.722656 0.453125 -6.703125 0.234375 -6.703125 L 0.234375 -6.84375 C 0.378906 -6.84375 0.550781 -6.890625 0.75 -6.984375 C 0.957031 -7.078125 1.140625 -7.179688 1.296875 -7.296875 C 1.472656 -7.421875 1.609375 -7.535156 1.703125 -7.640625 C 1.804688 -7.742188 1.90625 -7.796875 2 -7.796875 C 2.101562 -7.796875 2.175781 -7.75 2.21875 -7.65625 C 2.269531 -7.5625 2.296875 -7.394531 2.296875 -7.15625 L 2.296875 -1.71875 C 2.296875 -1.582031 2.300781 -1.421875 2.3125 -1.234375 C 2.320312 -1.054688 2.351562 -0.882812 2.40625 -0.71875 C 2.457031 -0.550781 2.546875 -0.410156 2.671875 -0.296875 C 2.796875 -0.191406 2.96875 -0.140625 3.1875 -0.140625 L 3.1875 0 Z M 0.984375 -8.421875 C 0.835938 -8.566406 0.773438 -8.738281 0.796875 -8.9375 C 0.828125 -9.144531 0.929688 -9.335938 1.109375 -9.515625 C 1.328125 -9.734375 1.550781 -9.84375 1.78125 -9.84375 C 1.945312 -9.84375 2.085938 -9.785156 2.203125 -9.671875 C 2.359375 -9.523438 2.421875 -9.347656 2.390625 -9.140625 C 2.367188 -8.941406 2.269531 -8.75 2.09375 -8.5625 C 1.875 -8.34375 1.65625 -8.234375 1.4375 -8.234375 C 1.28125 -8.234375 1.128906 -8.296875 0.984375 -8.421875 Z M 0.984375 -8.421875 "/></g></g></g><g fill="#000000" fill-opacity="1"><g transform="translate(23.403109, 23.237318)"><g><path d="M 1.15625 -7.421875 L 0 -7.421875 L 0 -7.5625 C 0.425781 -7.5625 0.773438 -7.65625 1.046875 -7.84375 C 1.316406 -8.03125 1.523438 -8.269531 1.671875 -8.5625 C 1.816406 -8.863281 1.921875 -9.179688 1.984375 -9.515625 C 2.046875 -9.847656 2.078125 -10.164062 2.078125 -10.46875 C 2.085938 -10.78125 2.09375 -11.035156 2.09375 -11.234375 L 2.328125 -11.234375 L 2.328125 -7.5625 L 4.015625 -7.5625 L 4.015625 -7.125 C 3.804688 -7.21875 3.550781 -7.285156 3.25 -7.328125 C 2.945312 -7.378906 2.640625 -7.410156 2.328125 -7.421875 L 2.328125 -1.125 C 2.328125 -0.914062 2.421875 -0.8125 2.609375 -0.8125 C 2.742188 -0.8125 2.910156 -0.875 3.109375 -1 C 3.316406 -1.125 3.535156 -1.316406 3.765625 -1.578125 L 3.859375 -1.4375 C 3.648438 -1.21875 3.421875 -0.976562 3.171875 -0.71875 C 2.929688 -0.46875 2.679688 -0.242188 2.421875 -0.046875 C 2.171875 0.140625 1.921875 0.234375 1.671875 0.234375 C 1.441406 0.234375 1.296875 0.132812 1.234375 -0.0625 C 1.179688 -0.257812 1.15625 -0.503906 1.15625 -0.796875 Z M 1.15625 -7.421875 "/></g></g></g><g fill="#000000" fill-opacity="1"><g transform="translate(27.16941, 23.237318)"><g><path d="M 3.1875 0 L 0.234375 0 L 0.234375 -0.140625 C 0.460938 -0.140625 0.632812 -0.191406 0.75 -0.296875 C 0.875 -0.410156 0.960938 -0.550781 1.015625 -0.71875 C 1.066406 -0.882812 1.097656 -1.054688 1.109375 -1.234375 C 1.117188 -1.421875 1.125 -1.582031 1.125 -1.71875 L 1.125 -6.3125 C 1.125 -6.46875 1.117188 -6.59375 1.109375 -6.6875 C 1.097656 -6.78125 1.050781 -6.828125 0.96875 -6.828125 C 0.875 -6.828125 0.78125 -6.804688 0.6875 -6.765625 C 0.601562 -6.722656 0.453125 -6.703125 0.234375 -6.703125 L 0.234375 -6.84375 C 0.378906 -6.84375 0.550781 -6.890625 0.75 -6.984375 C 0.957031 -7.078125 1.140625 -7.179688 1.296875 -7.296875 C 1.472656 -7.421875 1.609375 -7.535156 1.703125 -7.640625 C 1.804688 -7.742188 1.90625 -7.796875 2 -7.796875 C 2.101562 -7.796875 2.175781 -7.75 2.21875 -7.65625 C 2.269531 -7.5625 2.296875 -7.394531 2.296875 -7.15625 L 2.296875 -4.421875 C 2.484375 -5.054688 2.753906 -5.628906 3.109375 -6.140625 C 3.472656 -6.648438 3.878906 -7.050781 4.328125 -7.34375 C 4.785156 -7.644531 5.257812 -7.796875 5.75 -7.796875 C 6.082031 -7.796875 6.328125 -7.757812 6.484375 -7.6875 C 6.640625 -7.625 6.71875 -7.59375 6.71875 -7.59375 L 6.71875 -5.8125 L 6.578125 -5.8125 C 6.578125 -5.96875 6.53125 -6.125 6.4375 -6.28125 C 6.351562 -6.445312 6.21875 -6.582031 6.03125 -6.6875 C 5.851562 -6.800781 5.625 -6.859375 5.34375 -6.859375 C 4.90625 -6.859375 4.523438 -6.78125 4.203125 -6.625 C 3.878906 -6.476562 3.601562 -6.285156 3.375 -6.046875 C 3.15625 -5.804688 2.972656 -5.550781 2.828125 -5.28125 C 2.679688 -5.019531 2.566406 -4.769531 2.484375 -4.53125 C 2.410156 -4.289062 2.359375 -4.097656 2.328125 -3.953125 C 2.304688 -3.804688 2.296875 -3.734375 2.296875 -3.734375 L 2.296875 -1.71875 C 2.296875 -1.582031 2.300781 -1.421875 2.3125 -1.234375 C 2.320312 -1.054688 2.351562 -0.882812 2.40625 -0.71875 C 2.457031 -0.550781 2.546875 -0.410156 2.671875 -0.296875 C 2.796875 -0.191406 2.96875 -0.140625 3.1875 -0.140625 Z M 3.1875 0 "/></g></g></g><g fill="#000000" fill-opacity="1"><g transform="translate(33.880722, 23.237318)"><g><path d="M 0.234375 0 L 0.234375 -0.140625 C 0.460938 -0.140625 0.632812 -0.191406 0.75 -0.296875 C 0.875 -0.410156 0.960938 -0.550781 1.015625 -0.71875 C 1.066406 -0.882812 1.097656 -1.054688 1.109375 -1.234375 C 1.117188 -1.421875 1.125 -1.582031 1.125 -1.71875 L 1.125 -6.3125 C 1.125 -6.46875 1.117188 -6.59375 1.109375 -6.6875 C 1.097656 -6.78125 1.050781 -6.828125 0.96875 -6.828125 C 0.875 -6.828125 0.78125 -6.804688 0.6875 -6.765625 C 0.601562 -6.722656 0.453125 -6.703125 0.234375 -6.703125 L 0.234375 -6.84375 C 0.378906 -6.84375 0.550781 -6.890625 0.75 -6.984375 C 0.957031 -7.078125 1.140625 -7.179688 1.296875 -7.296875 C 1.472656 -7.421875 1.609375 -7.535156 1.703125 -7.640625 C 1.804688 -7.742188 1.90625 -7.796875 2 -7.796875 C 2.101562 -7.796875 2.175781 -7.75 2.21875 -7.65625 C 2.269531 -7.5625 2.296875 -7.394531 2.296875 -7.15625 L 2.296875 -1.71875 C 2.296875 -1.582031 2.300781 -1.421875 2.3125 -1.234375 C 2.320312 -1.054688 2.351562 -0.882812 2.40625 -0.71875 C 2.457031 -0.550781 2.546875 -0.410156 2.671875 -0.296875 C 2.796875 -0.191406 2.96875 -0.140625 3.1875 -0.140625 L 3.1875 0 Z M 0.984375 -8.421875 C 0.835938 -8.566406 0.773438 -8.738281 0.796875 -8.9375 C 0.828125 -9.144531 0.929688 -9.335938 1.109375 -9.515625 C 1.328125 -9.734375 1.550781 -9.84375 1.78125 -9.84375 C 1.945312 -9.84375 2.085938 -9.785156 2.203125 -9.671875 C 2.359375 -9.523438 2.421875 -9.347656 2.390625 -9.140625 C 2.367188 -8.941406 2.269531 -8.75 2.09375 -8.5625 C 1.875 -8.34375 1.65625 -8.234375 1.4375 -8.234375 C 1.28125 -8.234375 1.128906 -8.296875 0.984375 -8.421875 Z M 0.984375 -8.421875 "/></g></g></g><g fill="#000000" fill-opacity="1"><g transform="translate(37.060366, 23.237318)"><g><path d="M 0.96875 -6.890625 C 0.875 -6.890625 0.78125 -6.867188 0.6875 -6.828125 C 0.601562 -6.785156 0.453125 -6.765625 0.234375 -6.765625 L 0.234375 -6.90625 C 0.378906 -6.90625 0.550781 -6.953125 0.75 -7.046875 C 0.957031 -7.140625 1.140625 -7.242188 1.296875 -7.359375 C 1.472656 -7.484375 1.609375 -7.597656 1.703125 -7.703125 C 1.804688 -7.804688 1.90625 -7.859375 2 -7.859375 C 2.101562 -7.859375 2.175781 -7.8125 2.21875 -7.71875 C 2.269531 -7.625 2.296875 -7.457031 2.296875 -7.21875 L 2.296875 -5.828125 C 2.640625 -6.191406 3.015625 -6.53125 3.421875 -6.84375 C 3.835938 -7.15625 4.269531 -7.40625 4.71875 -7.59375 C 5.164062 -7.789062 5.613281 -7.890625 6.0625 -7.890625 C 6.40625 -7.890625 6.679688 -7.828125 6.890625 -7.703125 C 7.097656 -7.578125 7.253906 -7.40625 7.359375 -7.1875 C 7.460938 -6.96875 7.53125 -6.722656 7.5625 -6.453125 C 7.59375 -6.191406 7.609375 -5.921875 7.609375 -5.640625 L 7.609375 -1.125 C 7.609375 -0.914062 7.703125 -0.8125 7.890625 -0.8125 C 8.015625 -0.8125 8.175781 -0.875 8.375 -1 C 8.582031 -1.125 8.800781 -1.316406 9.03125 -1.578125 L 9.125 -1.4375 C 8.914062 -1.21875 8.6875 -0.976562 8.4375 -0.71875 C 8.195312 -0.46875 7.953125 -0.242188 7.703125 -0.046875 C 7.453125 0.140625 7.195312 0.234375 6.9375 0.234375 C 6.707031 0.234375 6.566406 0.132812 6.515625 -0.0625 C 6.460938 -0.257812 6.4375 -0.503906 6.4375 -0.796875 L 6.4375 -5.875 C 6.4375 -6.007812 6.425781 -6.164062 6.40625 -6.34375 C 6.394531 -6.53125 6.363281 -6.707031 6.3125 -6.875 C 6.269531 -7.039062 6.1875 -7.175781 6.0625 -7.28125 C 5.9375 -7.394531 5.757812 -7.453125 5.53125 -7.453125 C 5.15625 -7.453125 4.796875 -7.375 4.453125 -7.21875 C 4.109375 -7.070312 3.789062 -6.882812 3.5 -6.65625 C 3.21875 -6.425781 2.972656 -6.203125 2.765625 -5.984375 C 2.566406 -5.765625 2.410156 -5.585938 2.296875 -5.453125 L 2.296875 -1.71875 C 2.296875 -1.582031 2.300781 -1.421875 2.3125 -1.234375 C 2.320312 -1.054688 2.351562 -0.882812 2.40625 -0.71875 C 2.457031 -0.550781 2.546875 -0.410156 2.671875 -0.296875 C 2.796875 -0.191406 2.96875 -0.140625 3.1875 -0.140625 L 3.1875 0 L 0.234375 0 L 0.234375 -0.140625 C 0.460938 -0.140625 0.632812 -0.191406 0.75 -0.296875 C 0.875 -0.410156 0.960938 -0.550781 1.015625 -0.71875 C 1.066406 -0.882812 1.097656 -1.054688 1.109375 -1.234375 C 1.117188 -1.421875 1.125 -1.582031 1.125 -1.71875 L 1.125 -6.375 C 1.125 -6.53125 1.117188 -6.65625 1.109375 -6.75 C 1.097656 -6.84375 1.050781 -6.890625 0.96875 -6.890625 Z M 0.96875 -6.890625 "/></g></g></g><g fill="#000000" fill-opacity="1"><g transform="translate(45.942303, 23.237318)"><g><path d="M 0.703125 -2.609375 C 0.703125 -3.085938 0.773438 -3.578125 0.921875 -4.078125 C 1.066406 -4.578125 1.273438 -5.046875 1.546875 -5.484375 C 1.816406 -5.929688 2.140625 -6.328125 2.515625 -6.671875 C 2.898438 -7.023438 3.328125 -7.300781 3.796875 -7.5 C 4.265625 -7.695312 4.765625 -7.796875 5.296875 -7.796875 C 5.660156 -7.796875 6.003906 -7.738281 6.328125 -7.625 C 6.648438 -7.519531 6.914062 -7.34375 7.125 -7.09375 C 7.332031 -6.84375 7.4375 -6.523438 7.4375 -6.140625 C 7.4375 -5.648438 7.335938 -5.207031 7.140625 -4.8125 C 6.953125 -4.414062 6.695312 -4.0625 6.375 -3.75 C 6.0625 -3.4375 5.71875 -3.175781 5.34375 -2.96875 C 4.96875 -2.757812 4.597656 -2.601562 4.234375 -2.5 C 3.878906 -2.394531 3.5625 -2.34375 3.28125 -2.34375 C 3.050781 -2.34375 2.867188 -2.351562 2.734375 -2.375 C 2.609375 -2.40625 2.476562 -2.453125 2.34375 -2.515625 L 2.421875 -2.671875 C 2.566406 -2.585938 2.800781 -2.546875 3.125 -2.546875 C 3.476562 -2.546875 3.816406 -2.628906 4.140625 -2.796875 C 4.460938 -2.972656 4.765625 -3.207031 5.046875 -3.5 C 5.328125 -3.789062 5.570312 -4.101562 5.78125 -4.4375 C 5.988281 -4.78125 6.148438 -5.125 6.265625 -5.46875 C 6.378906 -5.820312 6.4375 -6.144531 6.4375 -6.4375 C 6.4375 -6.78125 6.347656 -7.066406 6.171875 -7.296875 C 5.992188 -7.535156 5.703125 -7.65625 5.296875 -7.65625 C 4.796875 -7.65625 4.332031 -7.53125 3.90625 -7.28125 C 3.488281 -7.03125 3.125 -6.691406 2.8125 -6.265625 C 2.507812 -5.847656 2.273438 -5.378906 2.109375 -4.859375 C 1.941406 -4.335938 1.859375 -3.796875 1.859375 -3.234375 C 1.859375 -2.710938 1.925781 -2.222656 2.0625 -1.765625 C 2.207031 -1.304688 2.445312 -0.9375 2.78125 -0.65625 C 3.113281 -0.375 3.566406 -0.234375 4.140625 -0.234375 C 4.472656 -0.234375 4.804688 -0.316406 5.140625 -0.484375 C 5.472656 -0.648438 5.785156 -0.859375 6.078125 -1.109375 C 6.378906 -1.359375 6.632812 -1.617188 6.84375 -1.890625 C 7.0625 -2.160156 7.203125 -2.40625 7.265625 -2.625 L 7.421875 -2.578125 C 7.304688 -2.222656 7.128906 -1.878906 6.890625 -1.546875 C 6.648438 -1.210938 6.359375 -0.910156 6.015625 -0.640625 C 5.671875 -0.378906 5.289062 -0.164062 4.875 0 C 4.46875 0.15625 4.039062 0.234375 3.59375 0.234375 C 3.0625 0.234375 2.578125 0.140625 2.140625 -0.046875 C 1.703125 -0.242188 1.351562 -0.550781 1.09375 -0.96875 C 0.832031 -1.382812 0.703125 -1.929688 0.703125 -2.609375 Z M 0.703125 -2.609375 "/></g></g></g><g fill="#000000" fill-opacity="1"><g transform="translate(3.604217, 26.512828)"><g><path d="M 21.359375 -24.6875 C 21.984375 -25.101562 22.722656 -25.429688 23.578125 -25.671875 C 24.441406 -25.910156 25.140625 -26.03125 25.671875 -26.03125 C 26.203125 -26.03125 26.546875 -26.03125 26.703125 -26.03125 L 26.703125 -25.75 C 25.835938 -25.71875 25.023438 -25.550781 24.265625 -25.25 C 23.515625 -24.945312 22.894531 -24.597656 22.40625 -24.203125 C 21.925781 -23.804688 21.457031 -23.28125 21 -22.625 C 20.539062 -21.976562 20.1875 -21.425781 19.9375 -20.96875 C 19.6875 -20.507812 19.394531 -19.921875 19.0625 -19.203125 L 11.40625 -2.453125 C 10.726562 -0.960938 10.390625 -0.015625 10.390625 0.390625 L 10.140625 0.390625 L 2.40625 -17.265625 C 2.144531 -17.859375 1.789062 -18.296875 1.34375 -18.578125 C 0.894531 -18.859375 0.4375 -19 -0.03125 -19 L -0.25 -19 L -0.25 -19.28125 L 5.953125 -19.28125 L 5.953125 -19 L 5.703125 -19 C 5.148438 -19 4.785156 -18.742188 4.609375 -18.234375 C 4.566406 -18.128906 4.546875 -18 4.546875 -17.84375 C 4.546875 -17.695312 4.59375 -17.515625 4.6875 -17.296875 L 10.4375 -2.859375 L 17.28125 -19.203125 C 18.363281 -21.753906 19.722656 -23.582031 21.359375 -24.6875 Z M 21.359375 -24.6875 "/></g></g></g><g clip-path="url(#0aac5b394e)"><path fill="#000000" d="M 59.945312 13.539062 C 55.402344 13.605469 55.351562 13.660156 55.285156 18.199219 C 55.21875 13.660156 55.164062 13.605469 50.625 13.539062 C 55.164062 13.472656 55.21875 13.421875 55.285156 8.878906 C 55.351562 13.421875 55.402344 13.472656 59.945312 13.539062 " fill-opacity="1" fill-rule="nonzero"/></g></svg>