<svg width="215" height="460" viewBox="0 0 430 932" fill="none" xmlns="http://www.w3.org/2000/svg">
<g clip-path="url(#clip0_4_10)">
<rect width="430" height="932" fill="white"/>
<rect width="430" height="80" fill="#D9D9D9"/>
<path d="M178.773 38H177.364C177.28 37.5947 177.134 37.2386 176.926 36.9318C176.722 36.625 176.472 36.3674 176.176 36.1591C175.884 35.947 175.561 35.7879 175.205 35.6818C174.848 35.5758 174.477 35.5227 174.091 35.5227C173.386 35.5227 172.748 35.7008 172.176 36.0568C171.608 36.4129 171.155 36.9375 170.818 37.6307C170.485 38.3239 170.318 39.1742 170.318 40.1818C170.318 41.1894 170.485 42.0398 170.818 42.733C171.155 43.4261 171.608 43.9508 172.176 44.3068C172.748 44.6629 173.386 44.8409 174.091 44.8409C174.477 44.8409 174.848 44.7879 175.205 44.6818C175.561 44.5758 175.884 44.4186 176.176 44.2102C176.472 43.9981 176.722 43.7386 176.926 43.4318C177.134 43.1212 177.28 42.7652 177.364 42.3636H178.773C178.667 42.9583 178.473 43.4905 178.193 43.9602C177.913 44.4299 177.564 44.8295 177.148 45.1591C176.731 45.4848 176.263 45.733 175.744 45.9034C175.229 46.0739 174.678 46.1591 174.091 46.1591C173.098 46.1591 172.216 45.9167 171.443 45.4318C170.67 44.947 170.063 44.2576 169.619 43.3636C169.176 42.4697 168.955 41.4091 168.955 40.1818C168.955 38.9545 169.176 37.8939 169.619 37C170.063 36.1061 170.67 35.4167 171.443 34.9318C172.216 34.447 173.098 34.2045 174.091 34.2045C174.678 34.2045 175.229 34.2898 175.744 34.4602C176.263 34.6307 176.731 34.8807 177.148 35.2102C177.564 35.536 177.913 35.9337 178.193 36.4034C178.473 36.8693 178.667 37.4015 178.773 38ZM184.413 46.1818C183.625 46.1818 182.934 45.9943 182.339 45.6193C181.749 45.2443 181.286 44.7197 180.953 44.0455C180.624 43.3712 180.459 42.5833 180.459 41.6818C180.459 40.7727 180.624 39.9792 180.953 39.3011C181.286 38.6231 181.749 38.0966 182.339 37.7216C182.934 37.3466 183.625 37.1591 184.413 37.1591C185.201 37.1591 185.891 37.3466 186.482 37.7216C187.076 38.0966 187.538 38.6231 187.868 39.3011C188.201 39.9792 188.368 40.7727 188.368 41.6818C188.368 42.5833 188.201 43.3712 187.868 44.0455C187.538 44.7197 187.076 45.2443 186.482 45.6193C185.891 45.9943 185.201 46.1818 184.413 46.1818ZM184.413 44.9773C185.012 44.9773 185.504 44.8239 185.891 44.517C186.277 44.2102 186.563 43.8068 186.749 43.3068C186.934 42.8068 187.027 42.2652 187.027 41.6818C187.027 41.0985 186.934 40.5549 186.749 40.0511C186.563 39.5473 186.277 39.1402 185.891 38.8295C185.504 38.5189 185.012 38.3636 184.413 38.3636C183.815 38.3636 183.322 38.5189 182.936 38.8295C182.55 39.1402 182.264 39.5473 182.078 40.0511C181.893 40.5549 181.8 41.0985 181.8 41.6818C181.8 42.2652 181.893 42.8068 182.078 43.3068C182.264 43.8068 182.55 44.2102 182.936 44.517C183.322 44.8239 183.815 44.9773 184.413 44.9773ZM197.239 37.2727L194.011 46H192.648L189.42 37.2727H190.875L193.284 44.2273H193.375L195.784 37.2727H197.239ZM202.355 46.1818C201.514 46.1818 200.789 45.9962 200.179 45.625C199.573 45.25 199.105 44.7273 198.776 44.0568C198.45 43.3826 198.287 42.5985 198.287 41.7045C198.287 40.8106 198.45 40.0227 198.776 39.3409C199.105 38.6553 199.563 38.1212 200.151 37.7386C200.741 37.3523 201.431 37.1591 202.219 37.1591C202.673 37.1591 203.122 37.2348 203.565 37.3864C204.009 37.5379 204.412 37.7841 204.776 38.125C205.139 38.4621 205.429 38.9091 205.645 39.4659C205.861 40.0227 205.969 40.7083 205.969 41.5227V42.0909H199.241V40.9318H204.605C204.605 40.4394 204.507 40 204.31 39.6136C204.116 39.2273 203.84 38.9223 203.48 38.6989C203.124 38.4754 202.704 38.3636 202.219 38.3636C201.685 38.3636 201.223 38.4962 200.832 38.7614C200.446 39.0227 200.149 39.3636 199.94 39.7841C199.732 40.2045 199.628 40.6553 199.628 41.1364V41.9091C199.628 42.5682 199.741 43.1269 199.969 43.5852C200.2 44.0398 200.52 44.3864 200.929 44.625C201.338 44.8598 201.813 44.9773 202.355 44.9773C202.707 44.9773 203.026 44.928 203.31 44.8295C203.598 44.7273 203.846 44.5758 204.054 44.375C204.262 44.1705 204.423 43.9167 204.537 43.6136L205.832 43.9773C205.696 44.4167 205.467 44.803 205.145 45.1364C204.823 45.4659 204.425 45.7235 203.952 45.9091C203.478 46.0909 202.946 46.1818 202.355 46.1818ZM208.009 46V37.2727H209.304V38.5909H209.395C209.554 38.1591 209.842 37.8087 210.259 37.5398C210.675 37.2708 211.145 37.1364 211.668 37.1364C211.766 37.1364 211.889 37.1383 212.037 37.142C212.185 37.1458 212.296 37.1515 212.372 37.1591V38.5227C212.327 38.5114 212.223 38.4943 212.06 38.4716C211.901 38.4451 211.732 38.4318 211.554 38.4318C211.13 38.4318 210.751 38.5208 210.418 38.6989C210.088 38.8731 209.827 39.1155 209.634 39.4261C209.444 39.733 209.349 40.0833 209.349 40.4773V46H208.009ZM218.462 49.2727V37.2727H219.757V38.6591H219.916C220.015 38.5076 220.151 38.3144 220.325 38.0795C220.503 37.8409 220.757 37.6288 221.087 37.4432C221.42 37.2538 221.871 37.1591 222.439 37.1591C223.174 37.1591 223.821 37.3428 224.382 37.7102C224.943 38.0777 225.38 38.5985 225.695 39.2727C226.009 39.947 226.166 40.7424 226.166 41.6591C226.166 42.5833 226.009 43.3845 225.695 44.0625C225.38 44.7367 224.945 45.2595 224.388 45.6307C223.831 45.9981 223.189 46.1818 222.462 46.1818C221.901 46.1818 221.452 46.089 221.115 45.9034C220.778 45.714 220.518 45.5 220.337 45.2614C220.155 45.0189 220.015 44.8182 219.916 44.6591H219.803V49.2727H218.462ZM219.78 41.6364C219.78 42.2955 219.876 42.8769 220.07 43.3807C220.263 43.8807 220.545 44.2727 220.916 44.5568C221.287 44.8371 221.742 44.9773 222.28 44.9773C222.84 44.9773 223.308 44.8295 223.683 44.5341C224.062 44.2348 224.346 43.8333 224.536 43.3295C224.729 42.822 224.825 42.2576 224.825 41.6364C224.825 41.0227 224.731 40.4697 224.541 39.9773C224.356 39.4811 224.073 39.089 223.695 38.8011C223.32 38.5095 222.848 38.3636 222.28 38.3636C221.734 38.3636 221.276 38.5019 220.905 38.7784C220.534 39.0511 220.253 39.4337 220.064 39.9261C219.875 40.4148 219.78 40.9848 219.78 41.6364ZM229.553 40.75V46H228.212V34.3636H229.553V38.6364H229.666C229.871 38.1856 230.178 37.8277 230.587 37.5625C231 37.2936 231.549 37.1591 232.234 37.1591C232.829 37.1591 233.35 37.2784 233.797 37.517C234.244 37.7519 234.59 38.1136 234.837 38.6023C235.087 39.0871 235.212 39.7045 235.212 40.4545V46H233.871V40.5455C233.871 39.8523 233.691 39.3163 233.331 38.9375C232.975 38.5549 232.481 38.3636 231.848 38.3636C231.409 38.3636 231.015 38.4564 230.666 38.642C230.321 38.8277 230.049 39.0985 229.848 39.4545C229.651 39.8106 229.553 40.2424 229.553 40.75ZM241.21 46.1818C240.422 46.1818 239.731 45.9943 239.136 45.6193C238.545 45.2443 238.083 44.7197 237.75 44.0455C237.42 43.3712 237.256 42.5833 237.256 41.6818C237.256 40.7727 237.42 39.9792 237.75 39.3011C238.083 38.6231 238.545 38.0966 239.136 37.7216C239.731 37.3466 240.422 37.1591 241.21 37.1591C241.998 37.1591 242.688 37.3466 243.278 37.7216C243.873 38.0966 244.335 38.6231 244.665 39.3011C244.998 39.9792 245.165 40.7727 245.165 41.6818C245.165 42.5833 244.998 43.3712 244.665 44.0455C244.335 44.7197 243.873 45.2443 243.278 45.6193C242.688 45.9943 241.998 46.1818 241.21 46.1818ZM241.21 44.9773C241.809 44.9773 242.301 44.8239 242.688 44.517C243.074 44.2102 243.36 43.8068 243.545 43.3068C243.731 42.8068 243.824 42.2652 243.824 41.6818C243.824 41.0985 243.731 40.5549 243.545 40.0511C243.36 39.5473 243.074 39.1402 242.688 38.8295C242.301 38.5189 241.809 38.3636 241.21 38.3636C240.612 38.3636 240.119 38.5189 239.733 38.8295C239.347 39.1402 239.061 39.5473 238.875 40.0511C238.689 40.5549 238.597 41.0985 238.597 41.6818C238.597 42.2652 238.689 42.8068 238.875 43.3068C239.061 43.8068 239.347 44.2102 239.733 44.517C240.119 44.8239 240.612 44.9773 241.21 44.9773ZM251.007 37.2727V38.4091H246.484V37.2727H251.007ZM247.803 35.1818H249.143V43.5C249.143 43.8788 249.198 44.1629 249.308 44.3523C249.422 44.5379 249.566 44.6629 249.74 44.7273C249.918 44.7879 250.106 44.8182 250.303 44.8182C250.45 44.8182 250.571 44.8106 250.666 44.7955C250.761 44.7765 250.837 44.7614 250.893 44.75L251.166 45.9545C251.075 45.9886 250.948 46.0227 250.786 46.0568C250.623 46.0947 250.416 46.1136 250.166 46.1136C249.787 46.1136 249.416 46.0322 249.053 45.8693C248.693 45.7064 248.393 45.4583 248.155 45.125C247.92 44.7917 247.803 44.3712 247.803 43.8636V35.1818ZM256.476 46.1818C255.688 46.1818 254.997 45.9943 254.402 45.6193C253.811 45.2443 253.349 44.7197 253.016 44.0455C252.686 43.3712 252.521 42.5833 252.521 41.6818C252.521 40.7727 252.686 39.9792 253.016 39.3011C253.349 38.6231 253.811 38.0966 254.402 37.7216C254.997 37.3466 255.688 37.1591 256.476 37.1591C257.264 37.1591 257.953 37.3466 258.544 37.7216C259.139 38.0966 259.601 38.6231 259.93 39.3011C260.264 39.9792 260.43 40.7727 260.43 41.6818C260.43 42.5833 260.264 43.3712 259.93 44.0455C259.601 44.7197 259.139 45.2443 258.544 45.6193C257.953 45.9943 257.264 46.1818 256.476 46.1818ZM256.476 44.9773C257.074 44.9773 257.567 44.8239 257.953 44.517C258.339 44.2102 258.625 43.8068 258.811 43.3068C258.997 42.8068 259.089 42.2652 259.089 41.6818C259.089 41.0985 258.997 40.5549 258.811 40.0511C258.625 39.5473 258.339 39.1402 257.953 38.8295C257.567 38.5189 257.074 38.3636 256.476 38.3636C255.877 38.3636 255.385 38.5189 254.999 38.8295C254.612 39.1402 254.326 39.5473 254.141 40.0511C253.955 40.5549 253.862 41.0985 253.862 41.6818C253.862 42.2652 253.955 42.8068 254.141 43.3068C254.326 43.8068 254.612 44.2102 254.999 44.517C255.385 44.8239 255.877 44.9773 256.476 44.9773Z" fill="black"/>
<circle cx="69" cy="102" r="45" fill="#D9D9D9"/>
<path d="M69.3706 57.75C57.0431 57.7627 45.2242 62.6655 36.5073 71.3823C27.7905 80.0992 22.8877 91.9181 22.875 104.246C22.875 116.669 27.7081 128.343 36.4875 137.122C40.7954 141.454 45.92 144.888 51.5645 147.226C57.209 149.564 63.2612 150.759 69.3706 150.741C81.6981 150.729 93.5171 145.826 102.234 137.109C110.951 128.392 115.854 116.573 115.866 104.246C115.854 91.9181 110.951 80.0992 102.234 71.3823C93.5171 62.6655 81.6981 57.7627 69.3706 57.75ZM41.2656 136.819C44.4792 132.639 48.5954 129.237 53.3071 126.87C58.0188 124.502 63.2044 123.229 68.4769 123.145C68.6419 123.152 68.8 123.193 68.965 123.193H69.1231C69.2744 123.193 69.4119 123.152 69.5631 123.145C74.9086 123.236 80.1621 124.551 84.9198 126.99C89.6776 129.428 93.8129 132.925 97.0081 137.211C89.2776 143.735 79.4863 147.311 69.3706 147.304C59.0428 147.322 49.0581 143.597 41.2656 136.819ZM68.9856 119.673C68.8137 119.673 68.6487 119.701 68.4769 119.708C64.464 119.572 60.6624 117.876 57.8803 114.981C55.0982 112.086 53.555 108.219 53.5788 104.204C53.5859 102.172 53.9943 100.161 54.7804 98.2867C55.5665 96.4124 56.7149 94.7118 58.1597 93.2823C59.6045 91.8528 61.3173 90.7226 63.1998 89.9566C65.0824 89.1905 67.0976 88.8036 69.13 88.8181C71.1624 88.8253 73.1734 89.2337 75.0477 90.0198C76.922 90.8059 78.6226 91.9543 80.0521 93.3991C81.4816 94.8438 82.6117 96.5566 83.3778 98.4392C84.1439 100.322 84.5307 102.337 84.5162 104.369C84.5162 112.702 77.8475 119.474 69.57 119.714C69.3775 119.707 69.185 119.673 68.9856 119.673ZM99.5588 134.901C94.2427 127.886 86.6811 122.906 78.1363 120.794C81.1096 119.164 83.59 116.765 85.3173 113.848C87.0446 110.93 87.9552 107.602 87.9537 104.211C87.9456 101.728 87.4478 99.2701 86.4886 96.9792C85.5294 94.6883 84.1278 92.609 82.364 90.8605C80.6002 89.1121 78.5088 87.7286 76.2096 86.7895C73.9104 85.8503 71.4486 85.3739 68.965 85.3875C66.4814 85.3956 64.0238 85.8935 61.7329 86.8527C59.442 87.8118 57.3628 89.2135 55.6143 90.9773C53.8658 92.7411 52.4824 94.8325 51.5432 97.1316C50.6041 99.4308 50.1277 101.893 50.1413 104.376C50.1539 107.735 51.0677 111.029 52.7872 113.914C54.5068 116.8 56.9692 119.171 59.9175 120.78C51.5169 122.843 44.0556 127.675 38.7356 134.496C30.7563 126.459 26.2909 115.585 26.3194 104.259C26.3321 92.8436 30.8727 81.899 38.9449 73.8268C47.0171 65.7545 57.9617 61.214 69.3775 61.2013C80.7933 61.214 91.7379 65.7545 99.8101 73.8268C107.882 81.899 112.423 92.8436 112.436 104.259C112.433 109.966 111.292 115.615 109.082 120.876C106.871 126.138 103.633 130.905 99.5588 134.901Z" fill="#231F20"/>
<rect x="144.5" y="92.5" width="118" height="23" rx="4.5" stroke="black"/>
<rect x="144.5" y="128.5" width="253" height="46" rx="4.5" stroke="black"/>
<g clip-path="url(#clip1_4_10)">
<path d="M378.213 117.102C374.733 117.102 371.898 114.267 371.898 110.787V98.2127C371.898 94.7327 374.732 91.8977 378.213 91.8977H390.787C394.267 91.8977 397.102 94.7327 397.102 98.2127V110.788C397.102 114.268 394.267 117.103 390.787 117.103L378.213 117.102ZM378.213 114.992H390.787C393.135 114.992 394.993 113.135 394.993 110.787V98.2127C394.993 95.8648 393.135 94.008 390.787 94.008H378.213C375.865 94.008 374.008 95.8648 374.008 98.2127V110.788C374.008 113.136 375.865 114.992 378.213 114.992ZM384.748 111.776C384.469 111.772 384.202 111.657 384.007 111.457C383.812 111.256 383.705 110.987 383.709 110.707V105.624H378.626C378.485 105.628 378.345 105.603 378.214 105.552C378.082 105.501 377.963 105.424 377.862 105.326C377.761 105.227 377.68 105.11 377.625 104.98C377.571 104.85 377.542 104.711 377.542 104.57C377.542 104.429 377.571 104.289 377.625 104.159C377.68 104.029 377.761 103.912 377.862 103.814C377.963 103.715 378.082 103.638 378.214 103.587C378.345 103.536 378.485 103.511 378.626 103.515H383.709V98.4327C383.706 98.2925 383.731 98.1531 383.783 98.0227C383.835 97.8923 383.912 97.7736 384.01 97.6734C384.108 97.5732 384.226 97.4937 384.355 97.4394C384.484 97.385 384.623 97.3571 384.763 97.3571C384.904 97.3571 385.043 97.385 385.172 97.4394C385.301 97.4937 385.419 97.5732 385.517 97.6734C385.615 97.7736 385.692 97.8923 385.744 98.0227C385.796 98.1531 385.821 98.2925 385.818 98.4327V103.515H390.901C391.042 103.511 391.182 103.536 391.313 103.587C391.445 103.638 391.564 103.715 391.665 103.814C391.766 103.912 391.847 104.029 391.902 104.159C391.956 104.289 391.985 104.429 391.985 104.57C391.985 104.711 391.956 104.85 391.902 104.98C391.847 105.11 391.766 105.227 391.665 105.326C391.564 105.424 391.445 105.501 391.313 105.552C391.182 105.603 391.042 105.628 390.901 105.624H385.818V110.707C385.82 110.848 385.794 110.988 385.741 111.119C385.688 111.25 385.609 111.368 385.509 111.468C385.409 111.568 385.291 111.646 385.16 111.699C385.029 111.752 384.889 111.778 384.748 111.776Z" fill="#D9D9D9"/>
</g>
<line y1="237.5" x2="430" y2="237.5" stroke="black"/>
<path d="M25.4091 274V262.364H29.3409C30.2538 262.364 31 262.528 31.5795 262.858C32.1629 263.184 32.5947 263.625 32.875 264.182C33.1553 264.739 33.2955 265.36 33.2955 266.045C33.2955 266.731 33.1553 267.354 32.875 267.915C32.5985 268.475 32.1705 268.922 31.5909 269.256C31.0114 269.585 30.2689 269.75 29.3636 269.75H26.5455V268.5H29.3182C29.9432 268.5 30.4451 268.392 30.8239 268.176C31.2027 267.96 31.4773 267.669 31.6477 267.301C31.822 266.93 31.9091 266.511 31.9091 266.045C31.9091 265.58 31.822 265.163 31.6477 264.795C31.4773 264.428 31.2008 264.14 30.8182 263.932C30.4356 263.72 29.928 263.614 29.2955 263.614H26.8182V274H25.4091ZM35.3835 274V265.273H36.679V266.591H36.7699C36.929 266.159 37.2169 265.809 37.6335 265.54C38.0502 265.271 38.5199 265.136 39.0426 265.136C39.1411 265.136 39.2642 265.138 39.4119 265.142C39.5597 265.146 39.6714 265.152 39.7472 265.159V266.523C39.7017 266.511 39.5975 266.494 39.4347 266.472C39.2756 266.445 39.107 266.432 38.929 266.432C38.5047 266.432 38.1259 266.521 37.7926 266.699C37.4631 266.873 37.2017 267.116 37.0085 267.426C36.8191 267.733 36.7244 268.083 36.7244 268.477V274H35.3835ZM44.6165 274.182C43.8286 274.182 43.1373 273.994 42.5426 273.619C41.9517 273.244 41.4896 272.72 41.1562 272.045C40.8267 271.371 40.6619 270.583 40.6619 269.682C40.6619 268.773 40.8267 267.979 41.1562 267.301C41.4896 266.623 41.9517 266.097 42.5426 265.722C43.1373 265.347 43.8286 265.159 44.6165 265.159C45.4044 265.159 46.0938 265.347 46.6847 265.722C47.2794 266.097 47.7415 266.623 48.071 267.301C48.4044 267.979 48.571 268.773 48.571 269.682C48.571 270.583 48.4044 271.371 48.071 272.045C47.7415 272.72 47.2794 273.244 46.6847 273.619C46.0938 273.994 45.4044 274.182 44.6165 274.182ZM44.6165 272.977C45.215 272.977 45.7074 272.824 46.0938 272.517C46.4801 272.21 46.7661 271.807 46.9517 271.307C47.1373 270.807 47.2301 270.265 47.2301 269.682C47.2301 269.098 47.1373 268.555 46.9517 268.051C46.7661 267.547 46.4801 267.14 46.0938 266.83C45.7074 266.519 45.215 266.364 44.6165 266.364C44.018 266.364 43.5256 266.519 43.1392 266.83C42.7528 267.14 42.4669 267.547 42.2812 268.051C42.0956 268.555 42.0028 269.098 42.0028 269.682C42.0028 270.265 42.0956 270.807 42.2812 271.307C42.4669 271.807 42.7528 272.21 43.1392 272.517C43.5256 272.824 44.018 272.977 44.6165 272.977ZM53.9134 274.182C53.1861 274.182 52.544 273.998 51.9872 273.631C51.4304 273.259 50.9948 272.737 50.6804 272.062C50.366 271.384 50.2088 270.583 50.2088 269.659C50.2088 268.742 50.366 267.947 50.6804 267.273C50.9948 266.598 51.4323 266.078 51.9929 265.71C52.5535 265.343 53.2012 265.159 53.9361 265.159C54.5043 265.159 54.9531 265.254 55.2827 265.443C55.616 265.629 55.8698 265.841 56.044 266.08C56.2221 266.314 56.3603 266.508 56.4588 266.659H56.5724V262.364H57.9134V274H56.6179V272.659H56.4588C56.3603 272.818 56.2202 273.019 56.0384 273.261C55.8565 273.5 55.5971 273.714 55.2599 273.903C54.9228 274.089 54.474 274.182 53.9134 274.182ZM54.0952 272.977C54.633 272.977 55.0876 272.837 55.4588 272.557C55.83 272.273 56.1122 271.881 56.3054 271.381C56.4986 270.877 56.5952 270.295 56.5952 269.636C56.5952 268.985 56.5005 268.415 56.3111 267.926C56.1217 267.434 55.8414 267.051 55.4702 266.778C55.099 266.502 54.6406 266.364 54.0952 266.364C53.527 266.364 53.0535 266.509 52.6747 266.801C52.2997 267.089 52.0175 267.481 51.8281 267.977C51.6425 268.47 51.5497 269.023 51.5497 269.636C51.5497 270.258 51.6444 270.822 51.8338 271.33C52.027 271.833 52.3111 272.235 52.6861 272.534C53.0649 272.83 53.5346 272.977 54.0952 272.977ZM66.0554 270.432V265.273H67.3963V274H66.0554V272.523H65.9645C65.7599 272.966 65.4418 273.343 65.0099 273.653C64.5781 273.96 64.0327 274.114 63.3736 274.114C62.8281 274.114 62.3433 273.994 61.919 273.756C61.4948 273.513 61.1615 273.15 60.919 272.665C60.6766 272.176 60.5554 271.561 60.5554 270.818V265.273H61.8963V270.727C61.8963 271.364 62.0743 271.871 62.4304 272.25C62.7902 272.629 63.2486 272.818 63.8054 272.818C64.1387 272.818 64.4777 272.733 64.8224 272.562C65.1709 272.392 65.4626 272.131 65.6974 271.778C65.9361 271.426 66.0554 270.977 66.0554 270.432ZM73.3977 274.182C72.5795 274.182 71.875 273.989 71.2841 273.602C70.6932 273.216 70.2386 272.684 69.9205 272.006C69.6023 271.328 69.4432 270.553 69.4432 269.682C69.4432 268.795 69.6061 268.013 69.9318 267.335C70.2614 266.653 70.7197 266.121 71.3068 265.739C71.8977 265.352 72.5871 265.159 73.375 265.159C73.9886 265.159 74.5417 265.273 75.0341 265.5C75.5265 265.727 75.9299 266.045 76.2443 266.455C76.5587 266.864 76.7538 267.341 76.8295 267.886H75.4886C75.3864 267.489 75.1591 267.136 74.8068 266.83C74.4583 266.519 73.9886 266.364 73.3977 266.364C72.875 266.364 72.4167 266.5 72.0227 266.773C71.6326 267.042 71.3277 267.422 71.108 267.915C70.892 268.403 70.7841 268.977 70.7841 269.636C70.7841 270.311 70.8902 270.898 71.1023 271.398C71.3182 271.898 71.6212 272.286 72.0114 272.562C72.4053 272.839 72.8674 272.977 73.3977 272.977C73.7462 272.977 74.0625 272.917 74.3466 272.795C74.6307 272.674 74.8712 272.5 75.0682 272.273C75.2652 272.045 75.4053 271.773 75.4886 271.455H76.8295C76.7538 271.97 76.5663 272.434 76.267 272.847C75.9716 273.256 75.5795 273.581 75.0909 273.824C74.6061 274.062 74.0417 274.182 73.3977 274.182ZM82.5852 265.273V266.409H78.0625V265.273H82.5852ZM79.3807 263.182H80.7216V271.5C80.7216 271.879 80.7765 272.163 80.8864 272.352C81 272.538 81.1439 272.663 81.3182 272.727C81.4962 272.788 81.6837 272.818 81.8807 272.818C82.0284 272.818 82.1496 272.811 82.2443 272.795C82.339 272.777 82.4148 272.761 82.4716 272.75L82.7443 273.955C82.6534 273.989 82.5265 274.023 82.3636 274.057C82.2008 274.095 81.9943 274.114 81.7443 274.114C81.3655 274.114 80.9943 274.032 80.6307 273.869C80.2708 273.706 79.9716 273.458 79.733 273.125C79.4981 272.792 79.3807 272.371 79.3807 271.864V263.182ZM90.6278 267.227L89.4233 267.568C89.3475 267.367 89.2358 267.172 89.0881 266.983C88.9441 266.79 88.7472 266.631 88.4972 266.506C88.2472 266.381 87.9271 266.318 87.5369 266.318C87.0028 266.318 86.5578 266.441 86.2017 266.688C85.8494 266.93 85.6733 267.239 85.6733 267.614C85.6733 267.947 85.7945 268.21 86.0369 268.403C86.2794 268.597 86.6581 268.758 87.1733 268.886L88.4688 269.205C89.2491 269.394 89.8305 269.684 90.2131 270.074C90.5956 270.46 90.7869 270.958 90.7869 271.568C90.7869 272.068 90.643 272.515 90.3551 272.909C90.071 273.303 89.6733 273.614 89.1619 273.841C88.6506 274.068 88.0559 274.182 87.3778 274.182C86.4877 274.182 85.7509 273.989 85.1676 273.602C84.5843 273.216 84.215 272.652 84.0597 271.909L85.3324 271.591C85.4536 272.061 85.6828 272.413 86.0199 272.648C86.3608 272.883 86.8059 273 87.3551 273C87.9801 273 88.4763 272.867 88.8438 272.602C89.215 272.333 89.4006 272.011 89.4006 271.636C89.4006 271.333 89.2945 271.08 89.0824 270.875C88.8703 270.667 88.5445 270.511 88.1051 270.409L86.6506 270.068C85.8513 269.879 85.2642 269.585 84.8892 269.188C84.518 268.786 84.3324 268.284 84.3324 267.682C84.3324 267.189 84.4706 266.754 84.7472 266.375C85.0275 265.996 85.4081 265.699 85.8892 265.483C86.3741 265.267 86.9233 265.159 87.5369 265.159C88.4006 265.159 89.0786 265.348 89.571 265.727C90.0672 266.106 90.4195 266.606 90.6278 267.227Z" fill="black"/>
<rect x="23" y="307" width="112" height="144" fill="#D9D9D9"/>
<rect x="159" y="307" width="112" height="144" fill="#D9D9D9"/>
<rect x="295" y="307" width="112" height="144" fill="#D9D9D9"/>
<rect x="23" y="307" width="112" height="144" fill="#D9D9D9"/>
<path d="M61.5 356.5H94C95.9891 356.5 97.8968 357.29 99.3033 358.697C100.71 360.103 101.5 362.011 101.5 364V396.5C101.5 398.489 100.71 400.397 99.3033 401.803C97.8968 403.21 95.9891 404 94 404H61.5C59.5109 404 57.6032 403.21 56.1967 401.803C54.7902 400.397 54 398.489 54 396.5V364C54 362.011 54.7902 360.103 56.1967 358.697C57.6032 357.29 59.5109 356.5 61.5 356.5ZM61.5 359C60.1739 359 58.9021 359.527 57.9645 360.464C57.0268 361.402 56.5 362.674 56.5 364V392.975L67.225 382.225L73.475 388.475L85.975 375.975L99 389V364C99 362.674 98.4732 361.402 97.5355 360.464C96.5979 359.527 95.3261 359 94 359H61.5ZM73.475 392.025L67.225 385.775L56.5 396.5C56.5 397.826 57.0268 399.098 57.9645 400.036C58.9021 400.973 60.1739 401.5 61.5 401.5H94C95.3261 401.5 96.5979 400.973 97.5355 400.036C98.4732 399.098 99 397.826 99 396.5V392.525L85.975 379.525L73.475 392.025ZM67.75 364C69.4076 364 70.9973 364.658 72.1694 365.831C73.3415 367.003 74 368.592 74 370.25C74 371.908 73.3415 373.497 72.1694 374.669C70.9973 375.842 69.4076 376.5 67.75 376.5C66.0924 376.5 64.5027 375.842 63.3306 374.669C62.1585 373.497 61.5 371.908 61.5 370.25C61.5 368.592 62.1585 367.003 63.3306 365.831C64.5027 364.658 66.0924 364 67.75 364ZM67.75 366.5C66.7554 366.5 65.8016 366.895 65.0983 367.598C64.3951 368.302 64 369.255 64 370.25C64 371.245 64.3951 372.198 65.0983 372.902C65.8016 373.605 66.7554 374 67.75 374C68.7446 374 69.6984 373.605 70.4017 372.902C71.1049 372.198 71.5 371.245 71.5 370.25C71.5 369.255 71.1049 368.302 70.4017 367.598C69.6984 366.895 68.7446 366.5 67.75 366.5Z" fill="black"/>
<rect x="159" y="307" width="112" height="144" fill="#D9D9D9"/>
<path d="M198.5 356.5H231C232.989 356.5 234.897 357.29 236.303 358.697C237.71 360.103 238.5 362.011 238.5 364V396.5C238.5 398.489 237.71 400.397 236.303 401.803C234.897 403.21 232.989 404 231 404H198.5C196.511 404 194.603 403.21 193.197 401.803C191.79 400.397 191 398.489 191 396.5V364C191 362.011 191.79 360.103 193.197 358.697C194.603 357.29 196.511 356.5 198.5 356.5ZM198.5 359C197.174 359 195.902 359.527 194.964 360.464C194.027 361.402 193.5 362.674 193.5 364V392.975L204.225 382.225L210.475 388.475L222.975 375.975L236 389V364C236 362.674 235.473 361.402 234.536 360.464C233.598 359.527 232.326 359 231 359H198.5ZM210.475 392.025L204.225 385.775L193.5 396.5C193.5 397.826 194.027 399.098 194.964 400.036C195.902 400.973 197.174 401.5 198.5 401.5H231C232.326 401.5 233.598 400.973 234.536 400.036C235.473 399.098 236 397.826 236 396.5V392.525L222.975 379.525L210.475 392.025ZM204.75 364C206.408 364 207.997 364.658 209.169 365.831C210.342 367.003 211 368.592 211 370.25C211 371.908 210.342 373.497 209.169 374.669C207.997 375.842 206.408 376.5 204.75 376.5C203.092 376.5 201.503 375.842 200.331 374.669C199.158 373.497 198.5 371.908 198.5 370.25C198.5 368.592 199.158 367.003 200.331 365.831C201.503 364.658 203.092 364 204.75 364ZM204.75 366.5C203.755 366.5 202.802 366.895 202.098 367.598C201.395 368.302 201 369.255 201 370.25C201 371.245 201.395 372.198 202.098 372.902C202.802 373.605 203.755 374 204.75 374C205.745 374 206.698 373.605 207.402 372.902C208.105 372.198 208.5 371.245 208.5 370.25C208.5 369.255 208.105 368.302 207.402 367.598C206.698 366.895 205.745 366.5 204.75 366.5Z" fill="black"/>
<rect x="295" y="307" width="112" height="144" fill="#D9D9D9"/>
<path d="M335.5 356.5H368C369.989 356.5 371.897 357.29 373.303 358.697C374.71 360.103 375.5 362.011 375.5 364V396.5C375.5 398.489 374.71 400.397 373.303 401.803C371.897 403.21 369.989 404 368 404H335.5C333.511 404 331.603 403.21 330.197 401.803C328.79 400.397 328 398.489 328 396.5V364C328 362.011 328.79 360.103 330.197 358.697C331.603 357.29 333.511 356.5 335.5 356.5ZM335.5 359C334.174 359 332.902 359.527 331.964 360.464C331.027 361.402 330.5 362.674 330.5 364V392.975L341.225 382.225L347.475 388.475L359.975 375.975L373 389V364C373 362.674 372.473 361.402 371.536 360.464C370.598 359.527 369.326 359 368 359H335.5ZM347.475 392.025L341.225 385.775L330.5 396.5C330.5 397.826 331.027 399.098 331.964 400.036C332.902 400.973 334.174 401.5 335.5 401.5H368C369.326 401.5 370.598 400.973 371.536 400.036C372.473 399.098 373 397.826 373 396.5V392.525L359.975 379.525L347.475 392.025ZM341.75 364C343.408 364 344.997 364.658 346.169 365.831C347.342 367.003 348 368.592 348 370.25C348 371.908 347.342 373.497 346.169 374.669C344.997 375.842 343.408 376.5 341.75 376.5C340.092 376.5 338.503 375.842 337.331 374.669C336.158 373.497 335.5 371.908 335.5 370.25C335.5 368.592 336.158 367.003 337.331 365.831C338.503 364.658 340.092 364 341.75 364ZM341.75 366.5C340.755 366.5 339.802 366.895 339.098 367.598C338.395 368.302 338 369.255 338 370.25C338 371.245 338.395 372.198 339.098 372.902C339.802 373.605 340.755 374 341.75 374C342.745 374 343.698 373.605 344.402 372.902C345.105 372.198 345.5 371.245 345.5 370.25C345.5 369.255 345.105 368.302 344.402 367.598C343.698 366.895 342.745 366.5 341.75 366.5Z" fill="black"/>
<rect y="862" width="430" height="70" fill="#D9D9D9"/>
<path d="M160.636 890.364V902H159.273L152.932 892.864H152.818V902H151.409V890.364H152.773L159.136 899.523H159.25V890.364H160.636ZM165.842 902.205C165.289 902.205 164.787 902.1 164.337 901.892C163.886 901.68 163.528 901.375 163.263 900.977C162.998 900.576 162.865 900.091 162.865 899.523C162.865 899.023 162.964 898.617 163.161 898.307C163.357 897.992 163.621 897.746 163.95 897.568C164.28 897.39 164.643 897.258 165.041 897.17C165.443 897.08 165.846 897.008 166.251 896.955C166.782 896.886 167.212 896.835 167.541 896.801C167.875 896.763 168.117 896.701 168.268 896.614C168.424 896.527 168.501 896.375 168.501 896.159V896.114C168.501 895.553 168.348 895.117 168.041 894.807C167.738 894.496 167.278 894.341 166.661 894.341C166.02 894.341 165.518 894.481 165.155 894.761C164.791 895.042 164.536 895.341 164.388 895.659L163.115 895.205C163.342 894.674 163.645 894.261 164.024 893.966C164.407 893.667 164.823 893.458 165.274 893.341C165.729 893.22 166.176 893.159 166.615 893.159C166.895 893.159 167.217 893.193 167.581 893.261C167.948 893.326 168.303 893.46 168.643 893.665C168.988 893.869 169.274 894.178 169.501 894.591C169.729 895.004 169.842 895.557 169.842 896.25V902H168.501V900.818H168.433C168.342 901.008 168.191 901.21 167.979 901.426C167.767 901.642 167.484 901.826 167.132 901.977C166.78 902.129 166.35 902.205 165.842 902.205ZM166.047 901C166.577 901 167.024 900.896 167.388 900.688C167.755 900.479 168.032 900.21 168.217 899.881C168.407 899.551 168.501 899.205 168.501 898.841V897.614C168.445 897.682 168.32 897.744 168.126 897.801C167.937 897.854 167.717 897.902 167.467 897.943C167.221 897.981 166.981 898.015 166.746 898.045C166.515 898.072 166.327 898.095 166.183 898.114C165.835 898.159 165.509 898.233 165.206 898.335C164.907 898.434 164.664 898.583 164.479 898.784C164.297 898.981 164.206 899.25 164.206 899.591C164.206 900.057 164.378 900.409 164.723 900.648C165.071 900.883 165.513 901 166.047 901ZM179.114 893.273L175.886 902H174.523L171.295 893.273H172.75L175.159 900.227H175.25L177.659 893.273H179.114ZM185.565 902V890.364H189.634C190.444 890.364 191.113 890.504 191.639 890.784C192.166 891.061 192.558 891.434 192.815 891.903C193.073 892.369 193.202 892.886 193.202 893.455C193.202 893.955 193.113 894.367 192.935 894.693C192.76 895.019 192.529 895.277 192.241 895.466C191.957 895.655 191.649 895.795 191.315 895.886V896C191.671 896.023 192.029 896.148 192.389 896.375C192.749 896.602 193.05 896.928 193.293 897.352C193.535 897.777 193.656 898.295 193.656 898.909C193.656 899.492 193.524 900.017 193.259 900.483C192.993 900.949 192.575 901.318 192.003 901.591C191.431 901.864 190.687 902 189.77 902H185.565ZM186.974 900.75H189.77C190.69 900.75 191.344 900.572 191.73 900.216C192.12 899.856 192.315 899.42 192.315 898.909C192.315 898.515 192.215 898.152 192.014 897.818C191.813 897.481 191.527 897.212 191.156 897.011C190.785 896.807 190.346 896.705 189.838 896.705H186.974V900.75ZM186.974 895.477H189.588C190.012 895.477 190.395 895.394 190.736 895.227C191.08 895.061 191.353 894.826 191.554 894.523C191.759 894.22 191.861 893.864 191.861 893.455C191.861 892.943 191.683 892.509 191.327 892.153C190.971 891.794 190.406 891.614 189.634 891.614H186.974V895.477ZM198.358 902.205C197.805 902.205 197.303 902.1 196.852 901.892C196.402 901.68 196.044 901.375 195.778 900.977C195.513 900.576 195.381 900.091 195.381 899.523C195.381 899.023 195.479 898.617 195.676 898.307C195.873 897.992 196.136 897.746 196.466 897.568C196.795 897.39 197.159 897.258 197.557 897.17C197.958 897.08 198.362 897.008 198.767 896.955C199.297 896.886 199.727 896.835 200.057 896.801C200.39 896.763 200.633 896.701 200.784 896.614C200.939 896.527 201.017 896.375 201.017 896.159V896.114C201.017 895.553 200.864 895.117 200.557 894.807C200.254 894.496 199.794 894.341 199.176 894.341C198.536 894.341 198.034 894.481 197.67 894.761C197.307 895.042 197.051 895.341 196.903 895.659L195.631 895.205C195.858 894.674 196.161 894.261 196.54 893.966C196.922 893.667 197.339 893.458 197.79 893.341C198.244 893.22 198.691 893.159 199.131 893.159C199.411 893.159 199.733 893.193 200.097 893.261C200.464 893.326 200.818 893.46 201.159 893.665C201.504 893.869 201.79 894.178 202.017 894.591C202.244 895.004 202.358 895.557 202.358 896.25V902H201.017V900.818H200.949C200.858 901.008 200.706 901.21 200.494 901.426C200.282 901.642 200 901.826 199.648 901.977C199.295 902.129 198.866 902.205 198.358 902.205ZM198.562 901C199.093 901 199.54 900.896 199.903 900.688C200.271 900.479 200.547 900.21 200.733 899.881C200.922 899.551 201.017 899.205 201.017 898.841V897.614C200.96 897.682 200.835 897.744 200.642 897.801C200.453 897.854 200.233 897.902 199.983 897.943C199.737 897.981 199.496 898.015 199.261 898.045C199.03 898.072 198.843 898.095 198.699 898.114C198.35 898.159 198.025 898.233 197.722 898.335C197.422 898.434 197.18 898.583 196.994 898.784C196.813 898.981 196.722 899.25 196.722 899.591C196.722 900.057 196.894 900.409 197.239 900.648C197.587 900.883 198.028 901 198.562 901ZM204.805 902V893.273H206.101V894.591H206.192C206.351 894.159 206.639 893.809 207.055 893.54C207.472 893.271 207.942 893.136 208.464 893.136C208.563 893.136 208.686 893.138 208.834 893.142C208.982 893.146 209.093 893.152 209.169 893.159V894.523C209.124 894.511 209.019 894.494 208.857 894.472C208.697 894.445 208.529 894.432 208.351 894.432C207.927 894.432 207.548 894.521 207.214 894.699C206.885 894.873 206.624 895.116 206.43 895.426C206.241 895.733 206.146 896.083 206.146 896.477V902H204.805Z" fill="black"/>
</g>
<defs>
<clipPath id="clip0_4_10">
<rect width="430" height="932" fill="white"/>
</clipPath>
<clipPath id="clip1_4_10">
<rect width="27" height="27" fill="white" transform="matrix(1 0 0 -1 371 118)"/>
</clipPath>
</defs>
</svg>
