<svg width="215" height="460" viewBox="0 0 430 932" fill="none" xmlns="http://www.w3.org/2000/svg">
<rect width="430" height="932" fill="white"/>
<rect x="128" y="333" width="174" height="65" fill="#D9D9D9"/>
<rect x="128" y="455" width="174" height="65" fill="#D9D9D9"/>
<path d="M176.307 222.455H178.068V232.085C178.068 233.08 177.834 233.967 177.365 234.749C176.901 235.525 176.245 236.138 175.398 236.588C174.55 237.033 173.556 237.256 172.415 237.256C171.274 237.256 170.279 237.033 169.432 236.588C168.584 236.138 167.926 235.525 167.457 234.749C166.993 233.967 166.761 233.08 166.761 232.085V222.455H168.523V231.943C168.523 232.653 168.679 233.286 168.991 233.839C169.304 234.389 169.749 234.822 170.327 235.139C170.909 235.452 171.605 235.608 172.415 235.608C173.224 235.608 173.92 235.452 174.503 235.139C175.085 234.822 175.53 234.389 175.838 233.839C176.151 233.286 176.307 232.653 176.307 231.943V222.455ZM189.086 228.534L187.58 228.96C187.485 228.709 187.346 228.465 187.161 228.229C186.981 227.987 186.735 227.788 186.422 227.632C186.11 227.476 185.71 227.398 185.222 227.398C184.554 227.398 183.998 227.552 183.553 227.859C183.113 228.162 182.892 228.548 182.892 229.017C182.892 229.434 183.044 229.763 183.347 230.004C183.65 230.246 184.123 230.447 184.767 230.608L186.387 231.006C187.362 231.242 188.089 231.605 188.567 232.092C189.045 232.575 189.284 233.198 189.284 233.96C189.284 234.585 189.105 235.144 188.745 235.636C188.39 236.129 187.892 236.517 187.253 236.801C186.614 237.085 185.871 237.227 185.023 237.227C183.91 237.227 182.989 236.986 182.26 236.503C181.531 236.02 181.069 235.314 180.875 234.386L182.466 233.989C182.618 234.576 182.904 235.016 183.326 235.31C183.752 235.603 184.308 235.75 184.995 235.75C185.776 235.75 186.396 235.584 186.855 235.253C187.319 234.917 187.551 234.514 187.551 234.045C187.551 233.667 187.419 233.349 187.154 233.094C186.889 232.833 186.481 232.639 185.932 232.511L184.114 232.085C183.115 231.848 182.381 231.482 181.912 230.984C181.448 230.482 181.216 229.855 181.216 229.102C181.216 228.487 181.389 227.942 181.735 227.469C182.085 226.995 182.561 226.624 183.162 226.354C183.768 226.084 184.455 225.949 185.222 225.949C186.301 225.949 187.149 226.186 187.765 226.659C188.385 227.133 188.825 227.758 189.086 228.534ZM196.381 237.227C195.33 237.227 194.424 236.995 193.661 236.531C192.904 236.062 192.319 235.409 191.907 234.571C191.5 233.728 191.296 232.748 191.296 231.631C191.296 230.513 191.5 229.528 191.907 228.676C192.319 227.819 192.892 227.152 193.626 226.673C194.364 226.19 195.226 225.949 196.211 225.949C196.779 225.949 197.34 226.044 197.894 226.233C198.448 226.422 198.952 226.73 199.407 227.156C199.862 227.578 200.224 228.136 200.494 228.832C200.763 229.528 200.898 230.385 200.898 231.403V232.114H192.489V230.665H199.194C199.194 230.049 199.071 229.5 198.825 229.017C198.583 228.534 198.237 228.153 197.788 227.874C197.343 227.594 196.817 227.455 196.211 227.455C195.543 227.455 194.966 227.62 194.478 227.952C193.995 228.278 193.623 228.705 193.363 229.23C193.103 229.756 192.972 230.319 192.972 230.92V231.886C192.972 232.71 193.114 233.409 193.398 233.982C193.687 234.55 194.087 234.983 194.599 235.281C195.11 235.575 195.704 235.722 196.381 235.722C196.822 235.722 197.219 235.66 197.575 235.537C197.934 235.409 198.245 235.22 198.505 234.969C198.765 234.713 198.967 234.396 199.109 234.017L200.728 234.472C200.558 235.021 200.271 235.504 199.869 235.92C199.466 236.332 198.969 236.654 198.377 236.886C197.785 237.114 197.12 237.227 196.381 237.227ZM203.448 237V226.091H205.067V227.739H205.181C205.38 227.199 205.74 226.761 206.261 226.425C206.781 226.089 207.369 225.92 208.022 225.92C208.145 225.92 208.299 225.923 208.484 225.928C208.668 225.932 208.808 225.939 208.903 225.949V227.653C208.846 227.639 208.716 227.618 208.512 227.589C208.313 227.556 208.103 227.54 207.88 227.54C207.35 227.54 206.876 227.651 206.46 227.874C206.048 228.091 205.721 228.394 205.479 228.783C205.243 229.166 205.124 229.604 205.124 230.097V237H203.448ZM218.191 222.455V237H216.515V222.455H218.191ZM225.692 237.227C224.708 237.227 223.844 236.993 223.1 236.524C222.362 236.055 221.784 235.4 221.367 234.557C220.955 233.714 220.749 232.729 220.749 231.602C220.749 230.466 220.955 229.474 221.367 228.626C221.784 227.779 222.362 227.121 223.1 226.652C223.844 226.183 224.708 225.949 225.692 225.949C226.677 225.949 227.539 226.183 228.278 226.652C229.021 227.121 229.599 227.779 230.011 228.626C230.427 229.474 230.636 230.466 230.636 231.602C230.636 232.729 230.427 233.714 230.011 234.557C229.599 235.4 229.021 236.055 228.278 236.524C227.539 236.993 226.677 237.227 225.692 237.227ZM225.692 235.722C226.441 235.722 227.056 235.53 227.539 235.146C228.022 234.763 228.379 234.259 228.612 233.634C228.844 233.009 228.96 232.331 228.96 231.602C228.96 230.873 228.844 230.194 228.612 229.564C228.379 228.934 228.022 228.425 227.539 228.037C227.056 227.649 226.441 227.455 225.692 227.455C224.944 227.455 224.329 227.649 223.846 228.037C223.363 228.425 223.005 228.934 222.773 229.564C222.541 230.194 222.425 230.873 222.425 231.602C222.425 232.331 222.541 233.009 222.773 233.634C223.005 234.259 223.363 234.763 223.846 235.146C224.329 235.53 224.944 235.722 225.692 235.722ZM237.598 241.318C236.788 241.318 236.092 241.214 235.51 241.006C234.927 240.802 234.442 240.532 234.054 240.196C233.67 239.865 233.365 239.509 233.137 239.131L234.473 238.193C234.624 238.392 234.816 238.619 235.048 238.875C235.28 239.135 235.597 239.36 236 239.55C236.407 239.744 236.94 239.841 237.598 239.841C238.478 239.841 239.205 239.628 239.778 239.202C240.351 238.776 240.637 238.108 240.637 237.199V234.983H240.495C240.372 235.182 240.197 235.428 239.97 235.722C239.747 236.01 239.425 236.268 239.004 236.496C238.587 236.718 238.024 236.83 237.314 236.83C236.433 236.83 235.642 236.621 234.941 236.205C234.245 235.788 233.694 235.182 233.287 234.386C232.884 233.591 232.683 232.625 232.683 231.489C232.683 230.371 232.879 229.398 233.272 228.57C233.665 227.736 234.212 227.092 234.913 226.638C235.614 226.179 236.423 225.949 237.342 225.949C238.052 225.949 238.616 226.067 239.032 226.304C239.454 226.536 239.776 226.801 239.998 227.099C240.225 227.393 240.401 227.634 240.524 227.824H240.694V226.091H242.314V237.312C242.314 238.25 242.1 239.012 241.674 239.599C241.253 240.191 240.685 240.625 239.97 240.899C239.26 241.179 238.469 241.318 237.598 241.318ZM237.541 235.324C238.213 235.324 238.781 235.17 239.245 234.862C239.709 234.554 240.062 234.112 240.304 233.534C240.545 232.956 240.666 232.265 240.666 231.46C240.666 230.674 240.547 229.981 240.311 229.379C240.074 228.778 239.724 228.307 239.26 227.966C238.796 227.625 238.223 227.455 237.541 227.455C236.831 227.455 236.239 227.634 235.765 227.994C235.297 228.354 234.944 228.837 234.707 229.443C234.475 230.049 234.359 230.722 234.359 231.46C234.359 232.218 234.477 232.888 234.714 233.47C234.956 234.048 235.311 234.502 235.779 234.834C236.253 235.161 236.84 235.324 237.541 235.324ZM251.007 237V226.091H252.683V237H251.007ZM251.859 224.273C251.532 224.273 251.251 224.161 251.014 223.939C250.782 223.716 250.666 223.449 250.666 223.136C250.666 222.824 250.782 222.556 251.014 222.334C251.251 222.111 251.532 222 251.859 222C252.186 222 252.465 222.111 252.697 222.334C252.934 222.556 253.052 222.824 253.052 223.136C253.052 223.449 252.934 223.716 252.697 223.939C252.465 224.161 252.186 224.273 251.859 224.273ZM257.429 230.438V237H255.753V226.091H257.372V227.795H257.514C257.77 227.241 258.158 226.796 258.679 226.46C259.2 226.119 259.872 225.949 260.696 225.949C261.435 225.949 262.081 226.1 262.635 226.403C263.189 226.702 263.62 227.156 263.928 227.767C264.235 228.373 264.389 229.14 264.389 230.068V237H262.713V230.182C262.713 229.325 262.491 228.657 262.045 228.179C261.6 227.696 260.99 227.455 260.213 227.455C259.678 227.455 259.2 227.571 258.778 227.803C258.362 228.035 258.033 228.373 257.791 228.818C257.55 229.263 257.429 229.803 257.429 230.438Z" fill="black"/>
<path d="M188.466 363H186.705C186.6 362.493 186.418 362.048 186.158 361.665C185.902 361.281 185.589 360.959 185.22 360.699C184.856 360.434 184.451 360.235 184.006 360.102C183.561 359.97 183.097 359.903 182.614 359.903C181.733 359.903 180.935 360.126 180.22 360.571C179.51 361.016 178.944 361.672 178.523 362.538C178.106 363.405 177.898 364.468 177.898 365.727C177.898 366.987 178.106 368.05 178.523 368.916C178.944 369.783 179.51 370.438 180.22 370.884C180.935 371.329 181.733 371.551 182.614 371.551C183.097 371.551 183.561 371.485 184.006 371.352C184.451 371.22 184.856 371.023 185.22 370.763C185.589 370.498 185.902 370.173 186.158 369.79C186.418 369.402 186.6 368.956 186.705 368.455H188.466C188.333 369.198 188.092 369.863 187.741 370.45C187.391 371.037 186.955 371.537 186.435 371.949C185.914 372.356 185.329 372.666 184.68 372.879C184.036 373.092 183.348 373.199 182.614 373.199C181.373 373.199 180.27 372.896 179.304 372.29C178.338 371.684 177.578 370.822 177.024 369.705C176.47 368.587 176.193 367.261 176.193 365.727C176.193 364.193 176.47 362.867 177.024 361.75C177.578 360.633 178.338 359.771 179.304 359.165C180.27 358.559 181.373 358.256 182.614 358.256C183.348 358.256 184.036 358.362 184.68 358.575C185.329 358.788 185.914 359.101 186.435 359.513C186.955 359.92 187.391 360.417 187.741 361.004C188.092 361.587 188.333 362.252 188.466 363ZM191.085 373V362.091H192.704V363.739H192.818C193.017 363.199 193.377 362.761 193.897 362.425C194.418 362.089 195.005 361.92 195.659 361.92C195.782 361.92 195.936 361.923 196.12 361.928C196.305 361.932 196.445 361.939 196.539 361.949V363.653C196.483 363.639 196.352 363.618 196.149 363.589C195.95 363.556 195.739 363.54 195.517 363.54C194.986 363.54 194.513 363.651 194.096 363.874C193.684 364.091 193.358 364.394 193.116 364.783C192.879 365.166 192.761 365.604 192.761 366.097V373H191.085ZM202.768 373.227C201.717 373.227 200.81 372.995 200.048 372.531C199.29 372.062 198.706 371.409 198.294 370.571C197.886 369.728 197.683 368.748 197.683 367.631C197.683 366.513 197.886 365.528 198.294 364.676C198.706 363.819 199.279 363.152 200.012 362.673C200.751 362.19 201.613 361.949 202.598 361.949C203.166 361.949 203.727 362.044 204.281 362.233C204.835 362.422 205.339 362.73 205.794 363.156C206.248 363.578 206.61 364.136 206.88 364.832C207.15 365.528 207.285 366.385 207.285 367.403V368.114H198.876V366.665H205.581C205.581 366.049 205.458 365.5 205.211 365.017C204.97 364.534 204.624 364.153 204.174 363.874C203.729 363.594 203.204 363.455 202.598 363.455C201.93 363.455 201.352 363.62 200.865 363.952C200.382 364.278 200.01 364.705 199.75 365.23C199.489 365.756 199.359 366.319 199.359 366.92V367.886C199.359 368.71 199.501 369.409 199.785 369.982C200.074 370.55 200.474 370.983 200.985 371.281C201.497 371.575 202.091 371.722 202.768 371.722C203.208 371.722 203.606 371.66 203.961 371.537C204.321 371.409 204.631 371.22 204.892 370.969C205.152 370.713 205.353 370.396 205.495 370.017L207.115 370.472C206.944 371.021 206.658 371.504 206.255 371.92C205.853 372.332 205.356 372.654 204.764 372.886C204.172 373.114 203.507 373.227 202.768 373.227ZM213.045 373.256C212.354 373.256 211.726 373.125 211.163 372.865C210.6 372.6 210.152 372.219 209.821 371.722C209.489 371.22 209.324 370.614 209.324 369.903C209.324 369.278 209.447 368.772 209.693 368.384C209.939 367.991 210.268 367.683 210.68 367.46C211.092 367.238 211.547 367.072 212.044 366.963C212.546 366.849 213.05 366.759 213.556 366.693C214.219 366.608 214.757 366.544 215.169 366.501C215.585 366.454 215.888 366.376 216.078 366.267C216.272 366.158 216.369 365.969 216.369 365.699V365.642C216.369 364.941 216.177 364.397 215.794 364.009C215.415 363.62 214.84 363.426 214.068 363.426C213.268 363.426 212.64 363.601 212.186 363.952C211.731 364.302 211.412 364.676 211.227 365.074L209.636 364.506C209.92 363.843 210.299 363.327 210.772 362.957C211.251 362.583 211.771 362.323 212.335 362.176C212.903 362.025 213.462 361.949 214.011 361.949C214.361 361.949 214.764 361.991 215.218 362.077C215.678 362.157 216.12 362.325 216.547 362.581C216.977 362.837 217.335 363.223 217.619 363.739C217.903 364.255 218.045 364.946 218.045 365.812V373H216.369V371.523H216.284C216.17 371.759 215.981 372.013 215.716 372.283C215.45 372.553 215.098 372.782 214.657 372.972C214.217 373.161 213.68 373.256 213.045 373.256ZM213.301 371.75C213.964 371.75 214.522 371.62 214.977 371.359C215.436 371.099 215.782 370.763 216.014 370.351C216.251 369.939 216.369 369.506 216.369 369.051V367.517C216.298 367.602 216.142 367.68 215.9 367.751C215.663 367.818 215.389 367.877 215.076 367.929C214.769 367.976 214.468 368.019 214.174 368.057C213.886 368.09 213.651 368.118 213.471 368.142C213.036 368.199 212.628 368.291 212.25 368.419C211.876 368.542 211.573 368.729 211.341 368.98C211.113 369.226 211 369.562 211 369.989C211 370.571 211.215 371.011 211.646 371.31C212.082 371.603 212.633 371.75 213.301 371.75ZM225.849 362.091V363.511H220.195V362.091H225.849ZM221.843 359.477H223.519V369.875C223.519 370.348 223.588 370.704 223.725 370.94C223.867 371.172 224.047 371.329 224.265 371.409C224.487 371.485 224.722 371.523 224.968 371.523C225.153 371.523 225.304 371.513 225.423 371.494C225.541 371.471 225.636 371.452 225.707 371.438L226.048 372.943C225.934 372.986 225.775 373.028 225.572 373.071C225.368 373.118 225.11 373.142 224.798 373.142C224.324 373.142 223.86 373.04 223.406 372.837C222.956 372.633 222.582 372.323 222.283 371.906C221.99 371.49 221.843 370.964 221.843 370.33V359.477ZM232.685 373.227C231.7 373.227 230.836 372.993 230.092 372.524C229.354 372.055 228.776 371.4 228.359 370.557C227.947 369.714 227.741 368.729 227.741 367.602C227.741 366.466 227.947 365.474 228.359 364.626C228.776 363.779 229.354 363.121 230.092 362.652C230.836 362.183 231.7 361.949 232.685 361.949C233.67 361.949 234.531 362.183 235.27 362.652C236.013 363.121 236.591 363.779 237.003 364.626C237.42 365.474 237.628 366.466 237.628 367.602C237.628 368.729 237.42 369.714 237.003 370.557C236.591 371.4 236.013 372.055 235.27 372.524C234.531 372.993 233.67 373.227 232.685 373.227ZM232.685 371.722C233.433 371.722 234.048 371.53 234.531 371.146C235.014 370.763 235.372 370.259 235.604 369.634C235.836 369.009 235.952 368.331 235.952 367.602C235.952 366.873 235.836 366.194 235.604 365.564C235.372 364.934 235.014 364.425 234.531 364.037C234.048 363.649 233.433 363.455 232.685 363.455C231.937 363.455 231.321 363.649 230.838 364.037C230.355 364.425 229.998 364.934 229.766 365.564C229.534 366.194 229.418 366.873 229.418 367.602C229.418 368.331 229.534 369.009 229.766 369.634C229.998 370.259 230.355 370.763 230.838 371.146C231.321 371.53 231.937 371.722 232.685 371.722ZM240.186 373V362.091H241.806V363.739H241.919C242.118 363.199 242.478 362.761 242.999 362.425C243.52 362.089 244.107 361.92 244.76 361.92C244.883 361.92 245.037 361.923 245.222 361.928C245.407 361.932 245.546 361.939 245.641 361.949V363.653C245.584 363.639 245.454 363.618 245.25 363.589C245.051 363.556 244.841 363.54 244.618 363.54C244.088 363.54 243.614 363.651 243.198 363.874C242.786 364.091 242.459 364.394 242.218 364.783C241.981 365.166 241.863 365.604 241.863 366.097V373H240.186Z" fill="black"/>
<path d="M184.716 484.091C184.631 483.371 184.285 482.812 183.679 482.415C183.073 482.017 182.33 481.818 181.449 481.818C180.805 481.818 180.241 481.922 179.759 482.131C179.28 482.339 178.906 482.625 178.636 482.99C178.371 483.355 178.239 483.769 178.239 484.233C178.239 484.621 178.331 484.955 178.516 485.234C178.705 485.509 178.946 485.739 179.24 485.923C179.534 486.103 179.841 486.252 180.163 486.371C180.485 486.484 180.781 486.577 181.051 486.648L182.528 487.045C182.907 487.145 183.329 487.282 183.793 487.457C184.261 487.633 184.709 487.872 185.135 488.175C185.566 488.473 185.921 488.857 186.2 489.325C186.48 489.794 186.619 490.369 186.619 491.051C186.619 491.837 186.413 492.547 186.001 493.182C185.594 493.816 184.998 494.321 184.212 494.695C183.43 495.069 182.481 495.256 181.364 495.256C180.322 495.256 179.42 495.088 178.658 494.751C177.9 494.415 177.304 493.946 176.868 493.345C176.437 492.744 176.193 492.045 176.136 491.25H177.955C178.002 491.799 178.187 492.254 178.509 492.614C178.835 492.969 179.247 493.234 179.744 493.409C180.246 493.58 180.786 493.665 181.364 493.665C182.036 493.665 182.64 493.556 183.175 493.338C183.71 493.116 184.134 492.808 184.446 492.415C184.759 492.017 184.915 491.553 184.915 491.023C184.915 490.54 184.78 490.147 184.51 489.844C184.24 489.541 183.885 489.295 183.445 489.105C183.004 488.916 182.528 488.75 182.017 488.608L180.227 488.097C179.091 487.77 178.191 487.304 177.528 486.697C176.866 486.091 176.534 485.298 176.534 484.318C176.534 483.504 176.754 482.794 177.195 482.188C177.64 481.577 178.236 481.103 178.984 480.767C179.737 480.426 180.578 480.256 181.506 480.256C182.443 480.256 183.277 480.424 184.006 480.76C184.735 481.091 185.313 481.546 185.739 482.124C186.17 482.701 186.397 483.357 186.42 484.091H184.716ZM190.964 488.438V495H189.288V480.455H190.964V485.795H191.106C191.362 485.232 191.745 484.785 192.257 484.453C192.773 484.117 193.459 483.949 194.316 483.949C195.06 483.949 195.711 484.098 196.27 484.396C196.828 484.69 197.261 485.142 197.569 485.753C197.882 486.359 198.038 487.131 198.038 488.068V495H196.362V488.182C196.362 487.315 196.137 486.645 195.687 486.172C195.242 485.694 194.624 485.455 193.833 485.455C193.284 485.455 192.792 485.571 192.356 485.803C191.925 486.035 191.584 486.373 191.333 486.818C191.087 487.263 190.964 487.803 190.964 488.438ZM205.536 495.227C204.551 495.227 203.687 494.993 202.944 494.524C202.205 494.055 201.628 493.4 201.211 492.557C200.799 491.714 200.593 490.729 200.593 489.602C200.593 488.466 200.799 487.474 201.211 486.626C201.628 485.779 202.205 485.121 202.944 484.652C203.687 484.183 204.551 483.949 205.536 483.949C206.521 483.949 207.383 484.183 208.121 484.652C208.865 485.121 209.442 485.779 209.854 486.626C210.271 487.474 210.479 488.466 210.479 489.602C210.479 490.729 210.271 491.714 209.854 492.557C209.442 493.4 208.865 494.055 208.121 494.524C207.383 494.993 206.521 495.227 205.536 495.227ZM205.536 493.722C206.284 493.722 206.9 493.53 207.383 493.146C207.866 492.763 208.223 492.259 208.455 491.634C208.687 491.009 208.803 490.331 208.803 489.602C208.803 488.873 208.687 488.194 208.455 487.564C208.223 486.934 207.866 486.425 207.383 486.037C206.9 485.649 206.284 485.455 205.536 485.455C204.788 485.455 204.173 485.649 203.69 486.037C203.207 486.425 202.849 486.934 202.617 487.564C202.385 488.194 202.269 488.873 202.269 489.602C202.269 490.331 202.385 491.009 202.617 491.634C202.849 492.259 203.207 492.763 203.69 493.146C204.173 493.53 204.788 493.722 205.536 493.722ZM213.038 499.091V484.091H214.657V485.824H214.856C214.979 485.634 215.15 485.393 215.368 485.099C215.59 484.801 215.907 484.536 216.319 484.304C216.736 484.067 217.299 483.949 218.01 483.949C218.928 483.949 219.738 484.179 220.439 484.638C221.139 485.097 221.686 485.748 222.079 486.591C222.472 487.434 222.669 488.428 222.669 489.574C222.669 490.729 222.472 491.731 222.079 492.578C221.686 493.421 221.142 494.074 220.446 494.538C219.75 494.998 218.947 495.227 218.038 495.227C217.337 495.227 216.776 495.111 216.355 494.879C215.933 494.643 215.609 494.375 215.382 494.077C215.154 493.774 214.979 493.523 214.856 493.324H214.714V499.091H213.038ZM214.686 489.545C214.686 490.369 214.806 491.096 215.048 491.726C215.289 492.351 215.642 492.841 216.106 493.196C216.57 493.546 217.138 493.722 217.811 493.722C218.511 493.722 219.096 493.537 219.565 493.168C220.038 492.794 220.394 492.292 220.63 491.662C220.872 491.027 220.993 490.322 220.993 489.545C220.993 488.778 220.874 488.087 220.637 487.472C220.405 486.851 220.053 486.361 219.579 486.001C219.11 485.637 218.521 485.455 217.811 485.455C217.129 485.455 216.556 485.627 216.092 485.973C215.628 486.314 215.278 486.792 215.041 487.408C214.804 488.018 214.686 488.731 214.686 489.545ZM225.225 499.091V484.091H226.845V485.824H227.044C227.167 485.634 227.337 485.393 227.555 485.099C227.778 484.801 228.095 484.536 228.507 484.304C228.923 484.067 229.487 483.949 230.197 483.949C231.116 483.949 231.925 484.179 232.626 484.638C233.327 485.097 233.874 485.748 234.267 486.591C234.66 487.434 234.856 488.428 234.856 489.574C234.856 490.729 234.66 491.731 234.267 492.578C233.874 493.421 233.329 494.074 232.633 494.538C231.937 494.998 231.135 495.227 230.225 495.227C229.525 495.227 228.964 495.111 228.542 494.879C228.121 494.643 227.797 494.375 227.569 494.077C227.342 493.774 227.167 493.523 227.044 493.324H226.902V499.091H225.225ZM226.873 489.545C226.873 490.369 226.994 491.096 227.235 491.726C227.477 492.351 227.83 492.841 228.294 493.196C228.758 493.546 229.326 493.722 229.998 493.722C230.699 493.722 231.284 493.537 231.752 493.168C232.226 492.794 232.581 492.292 232.818 491.662C233.059 491.027 233.18 490.322 233.18 489.545C233.18 488.778 233.062 488.087 232.825 487.472C232.593 486.851 232.24 486.361 231.767 486.001C231.298 485.637 230.708 485.455 229.998 485.455C229.316 485.455 228.743 485.627 228.279 485.973C227.815 486.314 227.465 486.792 227.228 487.408C226.992 488.018 226.873 488.731 226.873 489.545ZM241.987 495.227C240.936 495.227 240.029 494.995 239.267 494.531C238.509 494.062 237.924 493.409 237.512 492.571C237.105 491.728 236.902 490.748 236.902 489.631C236.902 488.513 237.105 487.528 237.512 486.676C237.924 485.819 238.497 485.152 239.231 484.673C239.97 484.19 240.832 483.949 241.816 483.949C242.385 483.949 242.946 484.044 243.5 484.233C244.054 484.422 244.558 484.73 245.012 485.156C245.467 485.578 245.829 486.136 246.099 486.832C246.369 487.528 246.504 488.385 246.504 489.403V490.114H238.095V488.665H244.799C244.799 488.049 244.676 487.5 244.43 487.017C244.189 486.534 243.843 486.153 243.393 485.874C242.948 485.594 242.422 485.455 241.816 485.455C241.149 485.455 240.571 485.62 240.083 485.952C239.6 486.278 239.229 486.705 238.968 487.23C238.708 487.756 238.578 488.319 238.578 488.92V489.886C238.578 490.71 238.72 491.409 239.004 491.982C239.293 492.55 239.693 492.983 240.204 493.281C240.716 493.575 241.31 493.722 241.987 493.722C242.427 493.722 242.825 493.66 243.18 493.537C243.54 493.409 243.85 493.22 244.11 492.969C244.371 492.713 244.572 492.396 244.714 492.017L246.333 492.472C246.163 493.021 245.877 493.504 245.474 493.92C245.072 494.332 244.574 494.654 243.983 494.886C243.391 495.114 242.725 495.227 241.987 495.227ZM249.054 495V484.091H250.673V485.739H250.787C250.985 485.199 251.345 484.761 251.866 484.425C252.387 484.089 252.974 483.92 253.627 483.92C253.751 483.92 253.904 483.923 254.089 483.928C254.274 483.932 254.413 483.939 254.508 483.949V485.653C254.451 485.639 254.321 485.618 254.118 485.589C253.919 485.556 253.708 485.54 253.485 485.54C252.955 485.54 252.482 485.651 252.065 485.874C251.653 486.091 251.326 486.394 251.085 486.783C250.848 487.166 250.73 487.604 250.73 488.097V495H249.054Z" fill="black"/>
</svg>
