<svg width="215" height="460" viewBox="0 0 430 932" fill="none" xmlns="http://www.w3.org/2000/svg">
<g clip-path="url(#clip0_4_11)">
<rect width="430" height="932" fill="white"/>
<rect width="430" height="497" fill="#D9D9D9"/>
<path d="M36.4091 538V526.364H40.3409C41.2538 526.364 42 526.528 42.5795 526.858C43.1629 527.184 43.5947 527.625 43.875 528.182C44.1553 528.739 44.2955 529.36 44.2955 530.045C44.2955 530.731 44.1553 531.354 43.875 531.915C43.5985 532.475 43.1705 532.922 42.5909 533.256C42.0114 533.585 41.2689 533.75 40.3636 533.75H37.5455V532.5H40.3182C40.9432 532.5 41.4451 532.392 41.8239 532.176C42.2027 531.96 42.4773 531.669 42.6477 531.301C42.822 530.93 42.9091 530.511 42.9091 530.045C42.9091 529.58 42.822 529.163 42.6477 528.795C42.4773 528.428 42.2008 528.14 41.8182 527.932C41.4356 527.72 40.928 527.614 40.2955 527.614H37.8182V538H36.4091ZM46.3835 538V529.273H47.679V530.591H47.7699C47.929 530.159 48.2169 529.809 48.6335 529.54C49.0502 529.271 49.5199 529.136 50.0426 529.136C50.1411 529.136 50.2642 529.138 50.4119 529.142C50.5597 529.146 50.6714 529.152 50.7472 529.159V530.523C50.7017 530.511 50.5975 530.494 50.4347 530.472C50.2756 530.445 50.107 530.432 49.929 530.432C49.5047 530.432 49.1259 530.521 48.7926 530.699C48.4631 530.873 48.2017 531.116 48.0085 531.426C47.8191 531.733 47.7244 532.083 47.7244 532.477V538H46.3835ZM55.6165 538.182C54.8286 538.182 54.1373 537.994 53.5426 537.619C52.9517 537.244 52.4896 536.72 52.1562 536.045C51.8267 535.371 51.6619 534.583 51.6619 533.682C51.6619 532.773 51.8267 531.979 52.1562 531.301C52.4896 530.623 52.9517 530.097 53.5426 529.722C54.1373 529.347 54.8286 529.159 55.6165 529.159C56.4044 529.159 57.0938 529.347 57.6847 529.722C58.2794 530.097 58.7415 530.623 59.071 531.301C59.4044 531.979 59.571 532.773 59.571 533.682C59.571 534.583 59.4044 535.371 59.071 536.045C58.7415 536.72 58.2794 537.244 57.6847 537.619C57.0938 537.994 56.4044 538.182 55.6165 538.182ZM55.6165 536.977C56.215 536.977 56.7074 536.824 57.0938 536.517C57.4801 536.21 57.7661 535.807 57.9517 535.307C58.1373 534.807 58.2301 534.265 58.2301 533.682C58.2301 533.098 58.1373 532.555 57.9517 532.051C57.7661 531.547 57.4801 531.14 57.0938 530.83C56.7074 530.519 56.215 530.364 55.6165 530.364C55.018 530.364 54.5256 530.519 54.1392 530.83C53.7528 531.14 53.4669 531.547 53.2812 532.051C53.0956 532.555 53.0028 533.098 53.0028 533.682C53.0028 534.265 53.0956 534.807 53.2812 535.307C53.4669 535.807 53.7528 536.21 54.1392 536.517C54.5256 536.824 55.018 536.977 55.6165 536.977ZM64.9134 538.182C64.1861 538.182 63.544 537.998 62.9872 537.631C62.4304 537.259 61.9948 536.737 61.6804 536.062C61.366 535.384 61.2088 534.583 61.2088 533.659C61.2088 532.742 61.366 531.947 61.6804 531.273C61.9948 530.598 62.4323 530.078 62.9929 529.71C63.5535 529.343 64.2012 529.159 64.9361 529.159C65.5043 529.159 65.9531 529.254 66.2827 529.443C66.616 529.629 66.8698 529.841 67.044 530.08C67.2221 530.314 67.3603 530.508 67.4588 530.659H67.5724V526.364H68.9134V538H67.6179V536.659H67.4588C67.3603 536.818 67.2202 537.019 67.0384 537.261C66.8565 537.5 66.5971 537.714 66.2599 537.903C65.9228 538.089 65.474 538.182 64.9134 538.182ZM65.0952 536.977C65.633 536.977 66.0876 536.837 66.4588 536.557C66.83 536.273 67.1122 535.881 67.3054 535.381C67.4986 534.877 67.5952 534.295 67.5952 533.636C67.5952 532.985 67.5005 532.415 67.3111 531.926C67.1217 531.434 66.8414 531.051 66.4702 530.778C66.099 530.502 65.6406 530.364 65.0952 530.364C64.527 530.364 64.0535 530.509 63.6747 530.801C63.2997 531.089 63.0175 531.481 62.8281 531.977C62.6425 532.47 62.5497 533.023 62.5497 533.636C62.5497 534.258 62.6444 534.822 62.8338 535.33C63.027 535.833 63.3111 536.235 63.6861 536.534C64.0649 536.83 64.5346 536.977 65.0952 536.977ZM77.0554 534.432V529.273H78.3963V538H77.0554V536.523H76.9645C76.7599 536.966 76.4418 537.343 76.0099 537.653C75.5781 537.96 75.0327 538.114 74.3736 538.114C73.8281 538.114 73.3433 537.994 72.919 537.756C72.4948 537.513 72.1615 537.15 71.919 536.665C71.6766 536.176 71.5554 535.561 71.5554 534.818V529.273H72.8963V534.727C72.8963 535.364 73.0743 535.871 73.4304 536.25C73.7902 536.629 74.2486 536.818 74.8054 536.818C75.1387 536.818 75.4777 536.733 75.8224 536.562C76.1709 536.392 76.4626 536.131 76.6974 535.778C76.9361 535.426 77.0554 534.977 77.0554 534.432ZM84.3977 538.182C83.5795 538.182 82.875 537.989 82.2841 537.602C81.6932 537.216 81.2386 536.684 80.9205 536.006C80.6023 535.328 80.4432 534.553 80.4432 533.682C80.4432 532.795 80.6061 532.013 80.9318 531.335C81.2614 530.653 81.7197 530.121 82.3068 529.739C82.8977 529.352 83.5871 529.159 84.375 529.159C84.9886 529.159 85.5417 529.273 86.0341 529.5C86.5265 529.727 86.9299 530.045 87.2443 530.455C87.5587 530.864 87.7538 531.341 87.8295 531.886H86.4886C86.3864 531.489 86.1591 531.136 85.8068 530.83C85.4583 530.519 84.9886 530.364 84.3977 530.364C83.875 530.364 83.4167 530.5 83.0227 530.773C82.6326 531.042 82.3277 531.422 82.108 531.915C81.892 532.403 81.7841 532.977 81.7841 533.636C81.7841 534.311 81.8902 534.898 82.1023 535.398C82.3182 535.898 82.6212 536.286 83.0114 536.562C83.4053 536.839 83.8674 536.977 84.3977 536.977C84.7462 536.977 85.0625 536.917 85.3466 536.795C85.6307 536.674 85.8712 536.5 86.0682 536.273C86.2652 536.045 86.4053 535.773 86.4886 535.455H87.8295C87.7538 535.97 87.5663 536.434 87.267 536.847C86.9716 537.256 86.5795 537.581 86.0909 537.824C85.6061 538.062 85.0417 538.182 84.3977 538.182ZM93.5852 529.273V530.409H89.0625V529.273H93.5852ZM90.3807 527.182H91.7216V535.5C91.7216 535.879 91.7765 536.163 91.8864 536.352C92 536.538 92.1439 536.663 92.3182 536.727C92.4962 536.788 92.6837 536.818 92.8807 536.818C93.0284 536.818 93.1496 536.811 93.2443 536.795C93.339 536.777 93.4148 536.761 93.4716 536.75L93.7443 537.955C93.6534 537.989 93.5265 538.023 93.3636 538.057C93.2008 538.095 92.9943 538.114 92.7443 538.114C92.3655 538.114 91.9943 538.032 91.6307 537.869C91.2708 537.706 90.9716 537.458 90.733 537.125C90.4981 536.792 90.3807 536.371 90.3807 535.864V527.182ZM109.511 526.364V538H108.148L101.807 528.864H101.693V538H100.284V526.364H101.648L108.011 535.523H108.125V526.364H109.511ZM114.717 538.205C114.164 538.205 113.662 538.1 113.212 537.892C112.761 537.68 112.403 537.375 112.138 536.977C111.873 536.576 111.74 536.091 111.74 535.523C111.74 535.023 111.839 534.617 112.036 534.307C112.232 533.992 112.496 533.746 112.825 533.568C113.155 533.39 113.518 533.258 113.916 533.17C114.318 533.08 114.721 533.008 115.126 532.955C115.657 532.886 116.087 532.835 116.416 532.801C116.75 532.763 116.992 532.701 117.143 532.614C117.299 532.527 117.376 532.375 117.376 532.159V532.114C117.376 531.553 117.223 531.117 116.916 530.807C116.613 530.496 116.153 530.341 115.536 530.341C114.895 530.341 114.393 530.481 114.03 530.761C113.666 531.042 113.411 531.341 113.263 531.659L111.99 531.205C112.217 530.674 112.52 530.261 112.899 529.966C113.282 529.667 113.698 529.458 114.149 529.341C114.604 529.22 115.051 529.159 115.49 529.159C115.77 529.159 116.092 529.193 116.456 529.261C116.823 529.326 117.178 529.46 117.518 529.665C117.863 529.869 118.149 530.178 118.376 530.591C118.604 531.004 118.717 531.557 118.717 532.25V538H117.376V536.818H117.308C117.217 537.008 117.066 537.21 116.854 537.426C116.642 537.642 116.359 537.826 116.007 537.977C115.655 538.129 115.225 538.205 114.717 538.205ZM114.922 537C115.452 537 115.899 536.896 116.263 536.688C116.63 536.479 116.907 536.21 117.092 535.881C117.282 535.551 117.376 535.205 117.376 534.841V533.614C117.32 533.682 117.195 533.744 117.001 533.801C116.812 533.854 116.592 533.902 116.342 533.943C116.096 533.981 115.856 534.015 115.621 534.045C115.39 534.072 115.202 534.095 115.058 534.114C114.71 534.159 114.384 534.233 114.081 534.335C113.782 534.434 113.539 534.583 113.354 534.784C113.172 534.981 113.081 535.25 113.081 535.591C113.081 536.057 113.253 536.409 113.598 536.648C113.946 536.883 114.388 537 114.922 537ZM121.165 538V529.273H122.46V530.636H122.574C122.756 530.17 123.049 529.809 123.455 529.551C123.86 529.29 124.347 529.159 124.915 529.159C125.491 529.159 125.97 529.29 126.352 529.551C126.739 529.809 127.04 530.17 127.256 530.636H127.347C127.57 530.186 127.905 529.828 128.352 529.562C128.799 529.294 129.335 529.159 129.96 529.159C130.741 529.159 131.379 529.403 131.875 529.892C132.371 530.377 132.619 531.133 132.619 532.159V538H131.278V532.159C131.278 531.515 131.102 531.055 130.75 530.778C130.398 530.502 129.983 530.364 129.506 530.364C128.892 530.364 128.417 530.549 128.08 530.92C127.742 531.288 127.574 531.754 127.574 532.318V538H126.21V532.023C126.21 531.527 126.049 531.127 125.727 530.824C125.405 530.517 124.991 530.364 124.483 530.364C124.134 530.364 123.809 530.456 123.506 530.642C123.206 530.828 122.964 531.085 122.778 531.415C122.597 531.741 122.506 532.117 122.506 532.545V538H121.165ZM138.73 538.182C137.889 538.182 137.164 537.996 136.554 537.625C135.948 537.25 135.48 536.727 135.151 536.057C134.825 535.383 134.662 534.598 134.662 533.705C134.662 532.811 134.825 532.023 135.151 531.341C135.48 530.655 135.938 530.121 136.526 529.739C137.116 529.352 137.806 529.159 138.594 529.159C139.048 529.159 139.497 529.235 139.94 529.386C140.384 529.538 140.787 529.784 141.151 530.125C141.514 530.462 141.804 530.909 142.02 531.466C142.236 532.023 142.344 532.708 142.344 533.523V534.091H135.616V532.932H140.98C140.98 532.439 140.882 532 140.685 531.614C140.491 531.227 140.215 530.922 139.855 530.699C139.499 530.475 139.079 530.364 138.594 530.364C138.06 530.364 137.598 530.496 137.207 530.761C136.821 531.023 136.524 531.364 136.315 531.784C136.107 532.205 136.003 532.655 136.003 533.136V533.909C136.003 534.568 136.116 535.127 136.344 535.585C136.575 536.04 136.895 536.386 137.304 536.625C137.713 536.86 138.188 536.977 138.73 536.977C139.082 536.977 139.401 536.928 139.685 536.83C139.973 536.727 140.221 536.576 140.429 536.375C140.637 536.17 140.798 535.917 140.912 535.614L142.207 535.977C142.071 536.417 141.842 536.803 141.52 537.136C141.198 537.466 140.8 537.723 140.327 537.909C139.853 538.091 139.321 538.182 138.73 538.182Z" fill="black"/>
<rect x="35.5" y="560.5" width="335" height="66" rx="4.5" stroke="black"/>
<path d="M53.5227 594.182C52.7955 594.182 52.1534 593.998 51.5966 593.631C51.0398 593.259 50.6042 592.737 50.2898 592.062C49.9754 591.384 49.8182 590.583 49.8182 589.659C49.8182 588.742 49.9754 587.947 50.2898 587.273C50.6042 586.598 51.0417 586.078 51.6023 585.71C52.1629 585.343 52.8106 585.159 53.5455 585.159C54.1136 585.159 54.5625 585.254 54.892 585.443C55.2254 585.629 55.4792 585.841 55.6534 586.08C55.8314 586.314 55.9697 586.508 56.0682 586.659H56.1818V582.364H57.5227V594H56.2273V592.659H56.0682C55.9697 592.818 55.8295 593.019 55.6477 593.261C55.4659 593.5 55.2064 593.714 54.8693 593.903C54.5322 594.089 54.0833 594.182 53.5227 594.182ZM53.7045 592.977C54.2424 592.977 54.697 592.837 55.0682 592.557C55.4394 592.273 55.7216 591.881 55.9148 591.381C56.108 590.877 56.2045 590.295 56.2045 589.636C56.2045 588.985 56.1098 588.415 55.9205 587.926C55.7311 587.434 55.4508 587.051 55.0795 586.778C54.7083 586.502 54.25 586.364 53.7045 586.364C53.1364 586.364 52.6629 586.509 52.2841 586.801C51.9091 587.089 51.6269 587.481 51.4375 587.977C51.2519 588.47 51.1591 589.023 51.1591 589.636C51.1591 590.258 51.2538 590.822 51.4432 591.33C51.6364 591.833 51.9205 592.235 52.2955 592.534C52.6742 592.83 53.1439 592.977 53.7045 592.977ZM63.8239 594.182C62.983 594.182 62.2576 593.996 61.6477 593.625C61.0417 593.25 60.5739 592.727 60.2443 592.057C59.9186 591.383 59.7557 590.598 59.7557 589.705C59.7557 588.811 59.9186 588.023 60.2443 587.341C60.5739 586.655 61.0322 586.121 61.6193 585.739C62.2102 585.352 62.8996 585.159 63.6875 585.159C64.142 585.159 64.5909 585.235 65.0341 585.386C65.4773 585.538 65.8807 585.784 66.2443 586.125C66.608 586.462 66.8977 586.909 67.1136 587.466C67.3295 588.023 67.4375 588.708 67.4375 589.523V590.091H60.7102V588.932H66.0739C66.0739 588.439 65.9754 588 65.7784 587.614C65.5852 587.227 65.3087 586.922 64.9489 586.699C64.5928 586.475 64.1723 586.364 63.6875 586.364C63.1534 586.364 62.6913 586.496 62.3011 586.761C61.9148 587.023 61.6174 587.364 61.4091 587.784C61.2008 588.205 61.0966 588.655 61.0966 589.136V589.909C61.0966 590.568 61.2102 591.127 61.4375 591.585C61.6686 592.04 61.9886 592.386 62.3977 592.625C62.8068 592.86 63.2822 592.977 63.8239 592.977C64.1761 592.977 64.4943 592.928 64.7784 592.83C65.0663 592.727 65.3144 592.576 65.5227 592.375C65.7311 592.17 65.892 591.917 66.0057 591.614L67.3011 591.977C67.1648 592.417 66.9356 592.803 66.6136 593.136C66.2917 593.466 65.8939 593.723 65.4205 593.909C64.947 594.091 64.4148 594.182 63.8239 594.182ZM75.6591 587.227L74.4545 587.568C74.3788 587.367 74.267 587.172 74.1193 586.983C73.9754 586.79 73.7784 586.631 73.5284 586.506C73.2784 586.381 72.9583 586.318 72.5682 586.318C72.0341 586.318 71.589 586.441 71.233 586.688C70.8807 586.93 70.7045 587.239 70.7045 587.614C70.7045 587.947 70.8258 588.21 71.0682 588.403C71.3106 588.597 71.6894 588.758 72.2045 588.886L73.5 589.205C74.2803 589.394 74.8617 589.684 75.2443 590.074C75.6269 590.46 75.8182 590.958 75.8182 591.568C75.8182 592.068 75.6742 592.515 75.3864 592.909C75.1023 593.303 74.7045 593.614 74.1932 593.841C73.6818 594.068 73.0871 594.182 72.4091 594.182C71.5189 594.182 70.7822 593.989 70.1989 593.602C69.6155 593.216 69.2462 592.652 69.0909 591.909L70.3636 591.591C70.4848 592.061 70.714 592.413 71.0511 592.648C71.392 592.883 71.8371 593 72.3864 593C73.0114 593 73.5076 592.867 73.875 592.602C74.2462 592.333 74.4318 592.011 74.4318 591.636C74.4318 591.333 74.3258 591.08 74.1136 590.875C73.9015 590.667 73.5758 590.511 73.1364 590.409L71.6818 590.068C70.8826 589.879 70.2955 589.585 69.9205 589.188C69.5492 588.786 69.3636 588.284 69.3636 587.682C69.3636 587.189 69.5019 586.754 69.7784 586.375C70.0587 585.996 70.4394 585.699 70.9205 585.483C71.4053 585.267 71.9545 585.159 72.5682 585.159C73.4318 585.159 74.1098 585.348 74.6023 585.727C75.0985 586.106 75.4508 586.606 75.6591 587.227ZM81.3821 594.182C80.5639 594.182 79.8594 593.989 79.2685 593.602C78.6776 593.216 78.223 592.684 77.9048 592.006C77.5866 591.328 77.4276 590.553 77.4276 589.682C77.4276 588.795 77.5904 588.013 77.9162 587.335C78.2457 586.653 78.7041 586.121 79.2912 585.739C79.8821 585.352 80.5715 585.159 81.3594 585.159C81.973 585.159 82.526 585.273 83.0185 585.5C83.5109 585.727 83.9143 586.045 84.2287 586.455C84.5431 586.864 84.7382 587.341 84.8139 587.886H83.473C83.3707 587.489 83.1435 587.136 82.7912 586.83C82.4427 586.519 81.973 586.364 81.3821 586.364C80.8594 586.364 80.401 586.5 80.0071 586.773C79.617 587.042 79.312 587.422 79.0923 587.915C78.8764 588.403 78.7685 588.977 78.7685 589.636C78.7685 590.311 78.8745 590.898 79.0866 591.398C79.3026 591.898 79.6056 592.286 79.9957 592.562C80.3897 592.839 80.8518 592.977 81.3821 592.977C81.7306 592.977 82.0469 592.917 82.331 592.795C82.6151 592.674 82.8556 592.5 83.0526 592.273C83.2495 592.045 83.3897 591.773 83.473 591.455H84.8139C84.7382 591.97 84.5507 592.434 84.2514 592.847C83.956 593.256 83.5639 593.581 83.0753 593.824C82.5904 594.062 82.026 594.182 81.3821 594.182ZM86.7741 594V585.273H88.0696V586.591H88.1605C88.3196 586.159 88.6075 585.809 89.0241 585.54C89.4408 585.271 89.9105 585.136 90.4332 585.136C90.5317 585.136 90.6548 585.138 90.8026 585.142C90.9503 585.146 91.062 585.152 91.1378 585.159V586.523C91.0923 586.511 90.9882 586.494 90.8253 586.472C90.6662 586.445 90.4976 586.432 90.3196 586.432C89.8954 586.432 89.5166 586.521 89.1832 586.699C88.8537 586.873 88.5923 587.116 88.3991 587.426C88.2098 587.733 88.1151 588.083 88.1151 588.477V594H86.7741ZM92.7273 594V585.273H94.0682V594H92.7273ZM93.4091 583.818C93.1477 583.818 92.9223 583.729 92.733 583.551C92.5473 583.373 92.4545 583.159 92.4545 582.909C92.4545 582.659 92.5473 582.445 92.733 582.267C92.9223 582.089 93.1477 582 93.4091 582C93.6705 582 93.8939 582.089 94.0795 582.267C94.2689 582.445 94.3636 582.659 94.3636 582.909C94.3636 583.159 94.2689 583.373 94.0795 583.551C93.8939 583.729 93.6705 583.818 93.4091 583.818ZM96.5241 597.273V585.273H97.8196V586.659H97.9787C98.0772 586.508 98.2135 586.314 98.3878 586.08C98.5658 585.841 98.8196 585.629 99.1491 585.443C99.4825 585.254 99.9332 585.159 100.501 585.159C101.236 585.159 101.884 585.343 102.445 585.71C103.005 586.078 103.443 586.598 103.757 587.273C104.071 587.947 104.229 588.742 104.229 589.659C104.229 590.583 104.071 591.384 103.757 592.062C103.443 592.737 103.007 593.259 102.45 593.631C101.893 593.998 101.251 594.182 100.524 594.182C99.9635 594.182 99.5147 594.089 99.1776 593.903C98.8404 593.714 98.581 593.5 98.3991 593.261C98.2173 593.019 98.0772 592.818 97.9787 592.659H97.8651V597.273H96.5241ZM97.8423 589.636C97.8423 590.295 97.9389 590.877 98.1321 591.381C98.3253 591.881 98.6075 592.273 98.9787 592.557C99.3499 592.837 99.8045 592.977 100.342 592.977C100.903 592.977 101.371 592.83 101.746 592.534C102.125 592.235 102.409 591.833 102.598 591.33C102.791 590.822 102.888 590.258 102.888 589.636C102.888 589.023 102.793 588.47 102.604 587.977C102.418 587.481 102.136 587.089 101.757 586.801C101.382 586.509 100.911 586.364 100.342 586.364C99.7969 586.364 99.3385 586.502 98.9673 586.778C98.5961 587.051 98.3158 587.434 98.1264 587.926C97.937 588.415 97.8423 588.985 97.8423 589.636ZM110.07 585.273V586.409H105.547V585.273H110.07ZM106.865 583.182H108.206V591.5C108.206 591.879 108.261 592.163 108.371 592.352C108.484 592.538 108.628 592.663 108.803 592.727C108.981 592.788 109.168 592.818 109.365 592.818C109.513 592.818 109.634 592.811 109.729 592.795C109.823 592.777 109.899 592.761 109.956 592.75L110.229 593.955C110.138 593.989 110.011 594.023 109.848 594.057C109.685 594.095 109.479 594.114 109.229 594.114C108.85 594.114 108.479 594.032 108.115 593.869C107.755 593.706 107.456 593.458 107.217 593.125C106.982 592.792 106.865 592.371 106.865 591.864V583.182ZM112.087 594V585.273H113.428V594H112.087ZM112.768 583.818C112.507 583.818 112.282 583.729 112.092 583.551C111.907 583.373 111.814 583.159 111.814 582.909C111.814 582.659 111.907 582.445 112.092 582.267C112.282 582.089 112.507 582 112.768 582C113.03 582 113.253 582.089 113.439 582.267C113.628 582.445 113.723 582.659 113.723 582.909C113.723 583.159 113.628 583.373 113.439 583.551C113.253 583.729 113.03 583.818 112.768 583.818ZM119.429 594.182C118.641 594.182 117.95 593.994 117.355 593.619C116.764 593.244 116.302 592.72 115.969 592.045C115.639 591.371 115.474 590.583 115.474 589.682C115.474 588.773 115.639 587.979 115.969 587.301C116.302 586.623 116.764 586.097 117.355 585.722C117.95 585.347 118.641 585.159 119.429 585.159C120.217 585.159 120.906 585.347 121.497 585.722C122.092 586.097 122.554 586.623 122.884 587.301C123.217 587.979 123.384 588.773 123.384 589.682C123.384 590.583 123.217 591.371 122.884 592.045C122.554 592.72 122.092 593.244 121.497 593.619C120.906 593.994 120.217 594.182 119.429 594.182ZM119.429 592.977C120.027 592.977 120.52 592.824 120.906 592.517C121.293 592.21 121.579 591.807 121.764 591.307C121.95 590.807 122.043 590.265 122.043 589.682C122.043 589.098 121.95 588.555 121.764 588.051C121.579 587.547 121.293 587.14 120.906 586.83C120.52 586.519 120.027 586.364 119.429 586.364C118.83 586.364 118.338 586.519 117.952 586.83C117.565 587.14 117.279 587.547 117.094 588.051C116.908 588.555 116.815 589.098 116.815 589.682C116.815 590.265 116.908 590.807 117.094 591.307C117.279 591.807 117.565 592.21 117.952 592.517C118.338 592.824 118.83 592.977 119.429 592.977ZM126.771 588.75V594H125.43V585.273H126.726V586.636H126.839C127.044 586.193 127.355 585.837 127.771 585.568C128.188 585.295 128.726 585.159 129.385 585.159C129.976 585.159 130.493 585.28 130.936 585.523C131.379 585.761 131.724 586.125 131.97 586.614C132.216 587.098 132.339 587.712 132.339 588.455V594H130.999V588.545C130.999 587.86 130.821 587.326 130.464 586.943C130.108 586.557 129.62 586.364 128.999 586.364C128.571 586.364 128.188 586.456 127.851 586.642C127.518 586.828 127.254 587.098 127.061 587.455C126.868 587.811 126.771 588.242 126.771 588.75Z" fill="black"/>
<rect x="37.5" y="653.5" width="165" height="49" fill="#D9D9D9" stroke="black"/>
<path d="M64.4091 683V671.364H68.3409C69.2538 671.364 70 671.528 70.5795 671.858C71.1629 672.184 71.5947 672.625 71.875 673.182C72.1553 673.739 72.2955 674.36 72.2955 675.045C72.2955 675.731 72.1553 676.354 71.875 676.915C71.5985 677.475 71.1705 677.922 70.5909 678.256C70.0114 678.585 69.2689 678.75 68.3636 678.75H65.5455V677.5H68.3182C68.9432 677.5 69.4451 677.392 69.8239 677.176C70.2027 676.96 70.4773 676.669 70.6477 676.301C70.822 675.93 70.9091 675.511 70.9091 675.045C70.9091 674.58 70.822 674.163 70.6477 673.795C70.4773 673.428 70.2008 673.14 69.8182 672.932C69.4356 672.72 68.928 672.614 68.2955 672.614H65.8182V683H64.4091ZM74.3835 683V674.273H75.679V675.591H75.7699C75.929 675.159 76.2169 674.809 76.6335 674.54C77.0502 674.271 77.5199 674.136 78.0426 674.136C78.1411 674.136 78.2642 674.138 78.4119 674.142C78.5597 674.146 78.6714 674.152 78.7472 674.159V675.523C78.7017 675.511 78.5975 675.494 78.4347 675.472C78.2756 675.445 78.107 675.432 77.929 675.432C77.5047 675.432 77.1259 675.521 76.7926 675.699C76.4631 675.873 76.2017 676.116 76.0085 676.426C75.8191 676.733 75.7244 677.083 75.7244 677.477V683H74.3835ZM83.6165 683.182C82.8286 683.182 82.1373 682.994 81.5426 682.619C80.9517 682.244 80.4896 681.72 80.1562 681.045C79.8267 680.371 79.6619 679.583 79.6619 678.682C79.6619 677.773 79.8267 676.979 80.1562 676.301C80.4896 675.623 80.9517 675.097 81.5426 674.722C82.1373 674.347 82.8286 674.159 83.6165 674.159C84.4044 674.159 85.0938 674.347 85.6847 674.722C86.2794 675.097 86.7415 675.623 87.071 676.301C87.4044 676.979 87.571 677.773 87.571 678.682C87.571 679.583 87.4044 680.371 87.071 681.045C86.7415 681.72 86.2794 682.244 85.6847 682.619C85.0938 682.994 84.4044 683.182 83.6165 683.182ZM83.6165 681.977C84.215 681.977 84.7074 681.824 85.0938 681.517C85.4801 681.21 85.7661 680.807 85.9517 680.307C86.1373 679.807 86.2301 679.265 86.2301 678.682C86.2301 678.098 86.1373 677.555 85.9517 677.051C85.7661 676.547 85.4801 676.14 85.0938 675.83C84.7074 675.519 84.215 675.364 83.6165 675.364C83.018 675.364 82.5256 675.519 82.1392 675.83C81.7528 676.14 81.4669 676.547 81.2812 677.051C81.0956 677.555 81.0028 678.098 81.0028 678.682C81.0028 679.265 81.0956 679.807 81.2812 680.307C81.4669 680.807 81.7528 681.21 82.1392 681.517C82.5256 681.824 83.018 681.977 83.6165 681.977ZM92.9134 683.182C92.1861 683.182 91.544 682.998 90.9872 682.631C90.4304 682.259 89.9948 681.737 89.6804 681.062C89.366 680.384 89.2088 679.583 89.2088 678.659C89.2088 677.742 89.366 676.947 89.6804 676.273C89.9948 675.598 90.4323 675.078 90.9929 674.71C91.5535 674.343 92.2012 674.159 92.9361 674.159C93.5043 674.159 93.9531 674.254 94.2827 674.443C94.616 674.629 94.8698 674.841 95.044 675.08C95.2221 675.314 95.3603 675.508 95.4588 675.659H95.5724V671.364H96.9134V683H95.6179V681.659H95.4588C95.3603 681.818 95.2202 682.019 95.0384 682.261C94.8565 682.5 94.5971 682.714 94.2599 682.903C93.9228 683.089 93.474 683.182 92.9134 683.182ZM93.0952 681.977C93.633 681.977 94.0876 681.837 94.4588 681.557C94.83 681.273 95.1122 680.881 95.3054 680.381C95.4986 679.877 95.5952 679.295 95.5952 678.636C95.5952 677.985 95.5005 677.415 95.3111 676.926C95.1217 676.434 94.8414 676.051 94.4702 675.778C94.099 675.502 93.6406 675.364 93.0952 675.364C92.527 675.364 92.0535 675.509 91.6747 675.801C91.2997 676.089 91.0175 676.481 90.8281 676.977C90.6425 677.47 90.5497 678.023 90.5497 678.636C90.5497 679.258 90.6444 679.822 90.8338 680.33C91.027 680.833 91.3111 681.235 91.6861 681.534C92.0649 681.83 92.5346 681.977 93.0952 681.977ZM105.055 679.432V674.273H106.396V683H105.055V681.523H104.964C104.76 681.966 104.442 682.343 104.01 682.653C103.578 682.96 103.033 683.114 102.374 683.114C101.828 683.114 101.343 682.994 100.919 682.756C100.495 682.513 100.161 682.15 99.919 681.665C99.6766 681.176 99.5554 680.561 99.5554 679.818V674.273H100.896V679.727C100.896 680.364 101.074 680.871 101.43 681.25C101.79 681.629 102.249 681.818 102.805 681.818C103.139 681.818 103.478 681.733 103.822 681.562C104.171 681.392 104.463 681.131 104.697 680.778C104.936 680.426 105.055 679.977 105.055 679.432ZM112.398 683.182C111.58 683.182 110.875 682.989 110.284 682.602C109.693 682.216 109.239 681.684 108.92 681.006C108.602 680.328 108.443 679.553 108.443 678.682C108.443 677.795 108.606 677.013 108.932 676.335C109.261 675.653 109.72 675.121 110.307 674.739C110.898 674.352 111.587 674.159 112.375 674.159C112.989 674.159 113.542 674.273 114.034 674.5C114.527 674.727 114.93 675.045 115.244 675.455C115.559 675.864 115.754 676.341 115.83 676.886H114.489C114.386 676.489 114.159 676.136 113.807 675.83C113.458 675.519 112.989 675.364 112.398 675.364C111.875 675.364 111.417 675.5 111.023 675.773C110.633 676.042 110.328 676.422 110.108 676.915C109.892 677.403 109.784 677.977 109.784 678.636C109.784 679.311 109.89 679.898 110.102 680.398C110.318 680.898 110.621 681.286 111.011 681.562C111.405 681.839 111.867 681.977 112.398 681.977C112.746 681.977 113.062 681.917 113.347 681.795C113.631 681.674 113.871 681.5 114.068 681.273C114.265 681.045 114.405 680.773 114.489 680.455H115.83C115.754 680.97 115.566 681.434 115.267 681.847C114.972 682.256 114.58 682.581 114.091 682.824C113.606 683.062 113.042 683.182 112.398 683.182ZM121.585 674.273V675.409H117.062V674.273H121.585ZM118.381 672.182H119.722V680.5C119.722 680.879 119.777 681.163 119.886 681.352C120 681.538 120.144 681.663 120.318 681.727C120.496 681.788 120.684 681.818 120.881 681.818C121.028 681.818 121.15 681.811 121.244 681.795C121.339 681.777 121.415 681.761 121.472 681.75L121.744 682.955C121.653 682.989 121.527 683.023 121.364 683.057C121.201 683.095 120.994 683.114 120.744 683.114C120.366 683.114 119.994 683.032 119.631 682.869C119.271 682.706 118.972 682.458 118.733 682.125C118.498 681.792 118.381 681.371 118.381 680.864V672.182ZM128.284 683V671.364H129.693V681.75H135.102V683H128.284ZM137.102 683V674.273H138.443V683H137.102ZM137.784 672.818C137.523 672.818 137.297 672.729 137.108 672.551C136.922 672.373 136.83 672.159 136.83 671.909C136.83 671.659 136.922 671.445 137.108 671.267C137.297 671.089 137.523 671 137.784 671C138.045 671 138.269 671.089 138.455 671.267C138.644 671.445 138.739 671.659 138.739 671.909C138.739 672.159 138.644 672.373 138.455 672.551C138.269 672.729 138.045 672.818 137.784 672.818ZM142.24 677.75V683H140.899V674.273H142.195V675.636H142.308C142.513 675.193 142.823 674.837 143.24 674.568C143.657 674.295 144.195 674.159 144.854 674.159C145.445 674.159 145.962 674.28 146.405 674.523C146.848 674.761 147.193 675.125 147.439 675.614C147.685 676.098 147.808 676.712 147.808 677.455V683H146.467V677.545C146.467 676.86 146.289 676.326 145.933 675.943C145.577 675.557 145.089 675.364 144.467 675.364C144.039 675.364 143.657 675.456 143.32 675.642C142.986 675.828 142.723 676.098 142.53 676.455C142.337 676.811 142.24 677.242 142.24 677.75ZM151.509 679.818L151.486 678.159H151.759L155.577 674.273H157.236L153.168 678.386H153.054L151.509 679.818ZM150.259 683V671.364H151.599V683H150.259ZM155.804 683L152.395 678.682L153.349 677.75L157.509 683H155.804Z" fill="black"/>
<path d="M141.542 170.125H254.75C261.679 170.125 268.324 172.877 273.223 177.777C278.123 182.676 280.875 189.321 280.875 196.25V309.458C280.875 316.387 278.123 323.032 273.223 327.931C268.324 332.831 261.679 335.583 254.75 335.583H141.542C134.613 335.583 127.968 332.831 123.069 327.931C118.169 323.032 115.417 316.387 115.417 309.458V196.25C115.417 189.321 118.169 182.676 123.069 177.777C127.968 172.877 134.613 170.125 141.542 170.125ZM141.542 178.833C136.922 178.833 132.493 180.668 129.226 183.935C125.96 187.201 124.125 191.631 124.125 196.25V297.18L161.484 259.734L183.255 281.505L226.796 237.963L272.167 283.333V196.25C272.167 191.631 270.332 187.201 267.065 183.935C263.799 180.668 259.369 178.833 254.75 178.833H141.542ZM183.255 293.87L161.484 272.1L124.125 309.458C124.125 314.078 125.96 318.508 129.226 321.774C132.493 325.04 136.922 326.875 141.542 326.875H254.75C259.369 326.875 263.799 325.04 267.065 321.774C270.332 318.508 272.167 314.078 272.167 309.458V295.612L226.796 250.329L183.255 293.87ZM163.313 196.25C169.087 196.25 174.624 198.544 178.707 202.627C182.79 206.709 185.083 212.247 185.083 218.021C185.083 223.795 182.79 229.332 178.707 233.415C174.624 237.498 169.087 239.792 163.313 239.792C157.539 239.792 152.001 237.498 147.918 233.415C143.835 229.332 141.542 223.795 141.542 218.021C141.542 212.247 143.835 206.709 147.918 202.627C152.001 198.544 157.539 196.25 163.313 196.25ZM163.313 204.958C159.848 204.958 156.526 206.335 154.076 208.784C151.626 211.234 150.25 214.556 150.25 218.021C150.25 221.485 151.626 224.808 154.076 227.257C156.526 229.707 159.848 231.083 163.313 231.083C166.777 231.083 170.099 229.707 172.549 227.257C174.999 224.808 176.375 221.485 176.375 218.021C176.375 214.556 174.999 211.234 172.549 208.784C170.099 206.335 166.777 204.958 163.313 204.958Z" fill="black"/>
<path fill-rule="evenodd" clip-rule="evenodd" d="M364.124 679.441C365.155 678.393 365.728 676.979 365.716 675.509C365.705 674.04 365.11 672.635 364.063 671.604C363.544 671.093 362.93 670.69 362.255 670.416C361.581 670.143 360.859 670.005 360.131 670.011C358.662 670.023 357.257 670.617 356.226 671.665C355.946 671.945 355.59 672.288 355.158 672.696L353.958 673.826L352.758 672.696C352.325 672.288 351.969 671.944 351.689 671.665C350.649 670.626 349.24 670.042 347.77 670.042C346.3 670.042 344.891 670.626 343.852 671.665C341.711 673.807 341.686 677.271 343.773 679.423L353.958 689.608L364.124 679.441ZM342.614 670.428C343.291 669.751 344.095 669.214 344.979 668.847C345.864 668.48 346.812 668.292 347.77 668.292C348.728 668.292 349.676 668.48 350.561 668.847C351.446 669.214 352.25 669.751 352.927 670.428C353.192 670.695 353.536 671.026 353.958 671.423C354.378 671.026 354.722 670.694 354.989 670.427C356.346 669.049 358.195 668.266 360.129 668.252C362.062 668.237 363.923 668.991 365.301 670.348C366.679 671.705 367.461 673.554 367.476 675.488C367.491 677.421 366.737 679.282 365.38 680.66L354.989 691.052C354.715 691.325 354.345 691.479 353.958 691.479C353.571 691.479 353.2 691.325 352.927 691.052L342.533 680.658C341.2 679.284 340.462 677.44 340.477 675.525C340.492 673.611 341.259 671.779 342.614 670.425V670.428Z" fill="black"/>
<path d="M310.385 678L303.5 671.115V674.805L302.21 675C295.745 675.915 291.365 679.305 288.86 684.495C292.34 682.035 296.66 680.85 302 680.85H303.5V684.885M300.5 682.38C293.795 682.695 288.995 685.11 285.5 690C287 682.5 291.5 675 302 673.5V667.5L312.5 678L302 688.5V682.35C301.505 682.35 301.01 682.365 300.5 682.38Z" fill="black"/>
<rect y="862" width="430" height="70" fill="#D9D9D9"/>
<path d="M195.636 890.364V902H194.273L187.932 892.864H187.818V902H186.409V890.364H187.773L194.136 899.523H194.25V890.364H195.636ZM200.842 902.205C200.289 902.205 199.787 902.1 199.337 901.892C198.886 901.68 198.528 901.375 198.263 900.977C197.998 900.576 197.865 900.091 197.865 899.523C197.865 899.023 197.964 898.617 198.161 898.307C198.357 897.992 198.621 897.746 198.95 897.568C199.28 897.39 199.643 897.258 200.041 897.17C200.443 897.08 200.846 897.008 201.251 896.955C201.782 896.886 202.212 896.835 202.541 896.801C202.875 896.763 203.117 896.701 203.268 896.614C203.424 896.527 203.501 896.375 203.501 896.159V896.114C203.501 895.553 203.348 895.117 203.041 894.807C202.738 894.496 202.278 894.341 201.661 894.341C201.02 894.341 200.518 894.481 200.155 894.761C199.791 895.042 199.536 895.341 199.388 895.659L198.115 895.205C198.342 894.674 198.645 894.261 199.024 893.966C199.407 893.667 199.823 893.458 200.274 893.341C200.729 893.22 201.176 893.159 201.615 893.159C201.895 893.159 202.217 893.193 202.581 893.261C202.948 893.326 203.303 893.46 203.643 893.665C203.988 893.869 204.274 894.178 204.501 894.591C204.729 895.004 204.842 895.557 204.842 896.25V902H203.501V900.818H203.433C203.342 901.008 203.191 901.21 202.979 901.426C202.767 901.642 202.484 901.826 202.132 901.977C201.78 902.129 201.35 902.205 200.842 902.205ZM201.047 901C201.577 901 202.024 900.896 202.388 900.688C202.755 900.479 203.032 900.21 203.217 899.881C203.407 899.551 203.501 899.205 203.501 898.841V897.614C203.445 897.682 203.32 897.744 203.126 897.801C202.937 897.854 202.717 897.902 202.467 897.943C202.221 897.981 201.981 898.015 201.746 898.045C201.515 898.072 201.327 898.095 201.183 898.114C200.835 898.159 200.509 898.233 200.206 898.335C199.907 898.434 199.664 898.583 199.479 898.784C199.297 898.981 199.206 899.25 199.206 899.591C199.206 900.057 199.378 900.409 199.723 900.648C200.071 900.883 200.513 901 201.047 901ZM214.114 893.273L210.886 902H209.523L206.295 893.273H207.75L210.159 900.227H210.25L212.659 893.273H214.114ZM220.565 902V890.364H224.634C225.444 890.364 226.113 890.504 226.639 890.784C227.166 891.061 227.558 891.434 227.815 891.903C228.073 892.369 228.202 892.886 228.202 893.455C228.202 893.955 228.113 894.367 227.935 894.693C227.76 895.019 227.529 895.277 227.241 895.466C226.957 895.655 226.649 895.795 226.315 895.886V896C226.671 896.023 227.029 896.148 227.389 896.375C227.749 896.602 228.05 896.928 228.293 897.352C228.535 897.777 228.656 898.295 228.656 898.909C228.656 899.492 228.524 900.017 228.259 900.483C227.993 900.949 227.575 901.318 227.003 901.591C226.431 901.864 225.687 902 224.77 902H220.565ZM221.974 900.75H224.77C225.69 900.75 226.344 900.572 226.73 900.216C227.12 899.856 227.315 899.42 227.315 898.909C227.315 898.515 227.215 898.152 227.014 897.818C226.813 897.481 226.527 897.212 226.156 897.011C225.785 896.807 225.346 896.705 224.838 896.705H221.974V900.75ZM221.974 895.477H224.588C225.012 895.477 225.395 895.394 225.736 895.227C226.08 895.061 226.353 894.826 226.554 894.523C226.759 894.22 226.861 893.864 226.861 893.455C226.861 892.943 226.683 892.509 226.327 892.153C225.971 891.794 225.406 891.614 224.634 891.614H221.974V895.477ZM233.358 902.205C232.805 902.205 232.303 902.1 231.852 901.892C231.402 901.68 231.044 901.375 230.778 900.977C230.513 900.576 230.381 900.091 230.381 899.523C230.381 899.023 230.479 898.617 230.676 898.307C230.873 897.992 231.136 897.746 231.466 897.568C231.795 897.39 232.159 897.258 232.557 897.17C232.958 897.08 233.362 897.008 233.767 896.955C234.297 896.886 234.727 896.835 235.057 896.801C235.39 896.763 235.633 896.701 235.784 896.614C235.939 896.527 236.017 896.375 236.017 896.159V896.114C236.017 895.553 235.864 895.117 235.557 894.807C235.254 894.496 234.794 894.341 234.176 894.341C233.536 894.341 233.034 894.481 232.67 894.761C232.307 895.042 232.051 895.341 231.903 895.659L230.631 895.205C230.858 894.674 231.161 894.261 231.54 893.966C231.922 893.667 232.339 893.458 232.79 893.341C233.244 893.22 233.691 893.159 234.131 893.159C234.411 893.159 234.733 893.193 235.097 893.261C235.464 893.326 235.818 893.46 236.159 893.665C236.504 893.869 236.79 894.178 237.017 894.591C237.244 895.004 237.358 895.557 237.358 896.25V902H236.017V900.818H235.949C235.858 901.008 235.706 901.21 235.494 901.426C235.282 901.642 235 901.826 234.648 901.977C234.295 902.129 233.866 902.205 233.358 902.205ZM233.562 901C234.093 901 234.54 900.896 234.903 900.688C235.271 900.479 235.547 900.21 235.733 899.881C235.922 899.551 236.017 899.205 236.017 898.841V897.614C235.96 897.682 235.835 897.744 235.642 897.801C235.453 897.854 235.233 897.902 234.983 897.943C234.737 897.981 234.496 898.015 234.261 898.045C234.03 898.072 233.843 898.095 233.699 898.114C233.35 898.159 233.025 898.233 232.722 898.335C232.422 898.434 232.18 898.583 231.994 898.784C231.813 898.981 231.722 899.25 231.722 899.591C231.722 900.057 231.894 900.409 232.239 900.648C232.587 900.883 233.028 901 233.562 901ZM239.805 902V893.273H241.101V894.591H241.192C241.351 894.159 241.639 893.809 242.055 893.54C242.472 893.271 242.942 893.136 243.464 893.136C243.563 893.136 243.686 893.138 243.834 893.142C243.982 893.146 244.093 893.152 244.169 893.159V894.523C244.124 894.511 244.019 894.494 243.857 894.472C243.697 894.445 243.529 894.432 243.351 894.432C242.927 894.432 242.548 894.521 242.214 894.699C241.885 894.873 241.624 895.116 241.43 895.426C241.241 895.733 241.146 896.083 241.146 896.477V902H239.805Z" fill="black"/>
<rect x="35.5" y="759.5" width="335" height="45" rx="4.5" stroke="black"/>
<path d="M39.375 743H36.233V732.818H39.5142C40.5019 732.818 41.3471 733.022 42.0497 733.43C42.7524 733.834 43.291 734.416 43.6655 735.175C44.04 735.93 44.2273 736.835 44.2273 737.889C44.2273 738.95 44.0384 739.863 43.6605 740.629C43.2827 741.391 42.7325 741.978 42.0099 742.388C41.2874 742.796 40.4091 743 39.375 743ZM37.4659 741.906H39.2955C40.1373 741.906 40.835 741.744 41.3885 741.419C41.942 741.094 42.3546 740.632 42.6264 740.032C42.8982 739.432 43.0341 738.718 43.0341 737.889C43.0341 737.067 42.8999 736.36 42.6314 735.766C42.3629 735.17 41.9619 734.712 41.4283 734.394C40.8946 734.073 40.2301 733.912 39.4347 733.912H37.4659V741.906ZM46.1364 743V735.364H47.3097V743H46.1364ZM46.733 734.091C46.5043 734.091 46.3071 734.013 46.1413 733.857C45.9789 733.701 45.8977 733.514 45.8977 733.295C45.8977 733.077 45.9789 732.889 46.1413 732.734C46.3071 732.578 46.5043 732.5 46.733 732.5C46.9616 732.5 47.1572 732.578 47.3196 732.734C47.4853 732.889 47.5682 733.077 47.5682 733.295C47.5682 733.514 47.4853 733.701 47.3196 733.857C47.1572 734.013 46.9616 734.091 46.733 734.091ZM54.8677 737.074L53.8137 737.372C53.7475 737.196 53.6497 737.026 53.5204 736.86C53.3945 736.691 53.2221 736.552 53.0034 736.442C52.7846 736.333 52.5046 736.278 52.1632 736.278C51.6958 736.278 51.3064 736.386 50.9949 736.602C50.6866 736.814 50.5325 737.084 50.5325 737.412C50.5325 737.704 50.6386 737.934 50.8507 738.103C51.0628 738.272 51.3942 738.413 51.845 738.526L52.9785 738.804C53.6613 738.97 54.17 739.223 54.5048 739.565C54.8395 739.903 55.0069 740.339 55.0069 740.872C55.0069 741.31 54.881 741.701 54.6291 742.045C54.3805 742.39 54.0325 742.662 53.585 742.861C53.1376 743.06 52.6172 743.159 52.024 743.159C51.2451 743.159 50.6004 742.99 50.09 742.652C49.5796 742.314 49.2565 741.82 49.1206 741.17L50.2342 740.892C50.3403 741.303 50.5408 741.611 50.8358 741.817C51.1341 742.022 51.5235 742.125 52.0041 742.125C52.551 742.125 52.9851 742.009 53.3066 741.777C53.6315 741.542 53.7939 741.26 53.7939 740.932C53.7939 740.667 53.7011 740.445 53.5154 740.266C53.3298 740.083 53.0448 739.947 52.6603 739.858L51.3876 739.56C50.6883 739.394 50.1745 739.137 49.8464 738.789C49.5216 738.438 49.3592 737.999 49.3592 737.472C49.3592 737.041 49.4802 736.66 49.7221 736.328C49.9674 735.997 50.3005 735.737 50.7214 735.548C51.1457 735.359 51.6262 735.264 52.1632 735.264C52.9189 735.264 53.5121 735.43 53.943 735.761C54.3772 736.093 54.6854 736.53 54.8677 737.074ZM59.8754 743.159C59.1594 743.159 58.543 742.99 58.0259 742.652C57.5089 742.314 57.1112 741.848 56.8327 741.255C56.5543 740.662 56.4151 739.984 56.4151 739.222C56.4151 738.446 56.5576 737.762 56.8427 737.168C57.131 736.572 57.5321 736.106 58.0458 735.771C58.5629 735.433 59.1661 735.264 59.8555 735.264C60.3924 735.264 60.8763 735.364 61.3072 735.562C61.738 735.761 62.091 736.04 62.3661 736.398C62.6412 736.756 62.8119 737.173 62.8782 737.651H61.7049C61.6154 737.303 61.4165 736.994 61.1083 736.726C60.8034 736.454 60.3924 736.318 59.8754 736.318C59.418 736.318 59.0169 736.437 58.6722 736.676C58.3308 736.911 58.064 737.245 57.8718 737.675C57.6829 738.103 57.5884 738.605 57.5884 739.182C57.5884 739.772 57.6812 740.286 57.8668 740.723C58.0558 741.161 58.3209 741.5 58.6623 741.742C59.007 741.984 59.4113 742.105 59.8754 742.105C60.1803 742.105 60.457 742.052 60.7056 741.946C60.9542 741.84 61.1647 741.688 61.337 741.489C61.5094 741.29 61.632 741.051 61.7049 740.773H62.8782C62.8119 741.223 62.6478 741.629 62.386 741.991C62.1275 742.349 61.7844 742.634 61.3569 742.846C60.9326 743.055 60.4388 743.159 59.8754 743.159ZM67.6957 743.159C67.0063 743.159 66.4014 742.995 65.881 742.667C65.364 742.339 64.9596 741.88 64.668 741.29C64.3796 740.7 64.2354 740.01 64.2354 739.222C64.2354 738.426 64.3796 737.732 64.668 737.138C64.9596 736.545 65.364 736.085 65.881 735.756C66.4014 735.428 67.0063 735.264 67.6957 735.264C68.3851 735.264 68.9883 735.428 69.5053 735.756C70.0257 736.085 70.43 736.545 70.7184 737.138C71.0101 737.732 71.1559 738.426 71.1559 739.222C71.1559 740.01 71.0101 740.7 70.7184 741.29C70.43 741.88 70.0257 742.339 69.5053 742.667C68.9883 742.995 68.3851 743.159 67.6957 743.159ZM67.6957 742.105C68.2193 742.105 68.6502 741.971 68.9883 741.702C69.3263 741.434 69.5766 741.081 69.739 740.643C69.9014 740.206 69.9826 739.732 69.9826 739.222C69.9826 738.711 69.9014 738.236 69.739 737.795C69.5766 737.354 69.3263 736.998 68.9883 736.726C68.6502 736.454 68.2193 736.318 67.6957 736.318C67.172 736.318 66.7411 736.454 66.4031 736.726C66.065 736.998 65.8147 737.354 65.6523 737.795C65.4899 738.236 65.4087 738.711 65.4087 739.222C65.4087 739.732 65.4899 740.206 65.6523 740.643C65.8147 741.081 66.065 741.434 66.4031 741.702C66.7411 741.971 67.172 742.105 67.6957 742.105ZM77.7594 739.878V735.364H78.9327V743H77.7594V741.707H77.6799C77.5009 742.095 77.2225 742.425 76.8446 742.697C76.4668 742.965 75.9895 743.099 75.4128 743.099C74.9355 743.099 74.5113 742.995 74.1401 742.786C73.7689 742.574 73.4772 742.256 73.2651 741.832C73.053 741.404 72.9469 740.866 72.9469 740.216V735.364H74.1202V740.136C74.1202 740.693 74.276 741.137 74.5875 741.469C74.9024 741.8 75.3034 741.966 75.7907 741.966C76.0823 741.966 76.379 741.891 76.6806 741.742C76.9855 741.593 77.2407 741.364 77.4462 741.056C77.655 740.748 77.7594 740.355 77.7594 739.878ZM82.255 738.406V743H81.0817V735.364H82.2152V736.557H82.3146C82.4936 736.169 82.7654 735.857 83.13 735.622C83.4946 735.384 83.9652 735.264 84.5419 735.264C85.0589 735.264 85.5114 735.37 85.8991 735.582C86.2869 735.791 86.5885 736.109 86.804 736.537C87.0194 736.961 87.1271 737.498 87.1271 738.148V743H85.9538V738.227C85.9538 737.627 85.7981 737.16 85.4865 736.825C85.175 736.487 84.7474 736.318 84.2038 736.318C83.8293 736.318 83.4946 736.399 83.1996 736.562C82.9079 736.724 82.6776 736.961 82.5085 737.273C82.3395 737.584 82.255 737.962 82.255 738.406ZM92.5922 735.364V736.358H88.6348V735.364H92.5922ZM89.7882 733.534H90.9615V740.812C90.9615 741.144 91.0095 741.393 91.1056 741.558C91.2051 741.721 91.331 741.83 91.4835 741.886C91.6393 741.939 91.8033 741.966 91.9757 741.966C92.1049 741.966 92.211 741.959 92.2939 741.946C92.3767 741.929 92.443 741.916 92.4927 741.906L92.7314 742.96C92.6518 742.99 92.5408 743.02 92.3983 743.05C92.2557 743.083 92.0751 743.099 91.8564 743.099C91.5249 743.099 91.2001 743.028 90.8819 742.886C90.5671 742.743 90.3052 742.526 90.0964 742.234C89.8909 741.943 89.7882 741.575 89.7882 741.131V733.534ZM106.647 736H105.414C105.341 735.645 105.213 735.334 105.031 735.065C104.852 734.797 104.633 734.571 104.375 734.389C104.12 734.204 103.836 734.064 103.525 733.972C103.213 733.879 102.888 733.832 102.55 733.832C101.934 733.832 101.375 733.988 100.875 734.3C100.378 734.611 99.9816 735.07 99.6866 735.677C99.3949 736.283 99.2491 737.027 99.2491 737.909C99.2491 738.791 99.3949 739.535 99.6866 740.141C99.9816 740.748 100.378 741.207 100.875 741.518C101.375 741.83 101.934 741.986 102.55 741.986C102.888 741.986 103.213 741.939 103.525 741.847C103.836 741.754 104.12 741.616 104.375 741.434C104.633 741.248 104.852 741.021 105.031 740.753C105.213 740.481 105.341 740.17 105.414 739.818H106.647C106.554 740.339 106.385 740.804 106.14 741.215C105.894 741.626 105.59 741.976 105.225 742.264C104.86 742.549 104.451 742.766 103.997 742.915C103.546 743.065 103.064 743.139 102.55 743.139C101.682 743.139 100.91 742.927 100.233 742.503C99.5574 742.079 99.0254 741.475 98.6376 740.693C98.2498 739.911 98.0559 738.983 98.0559 737.909C98.0559 736.835 98.2498 735.907 98.6376 735.125C99.0254 734.343 99.5574 733.74 100.233 733.315C100.91 732.891 101.682 732.679 102.55 732.679C103.064 732.679 103.546 732.754 103.997 732.903C104.451 733.052 104.86 733.271 105.225 733.559C105.59 733.844 105.894 734.192 106.14 734.603C106.385 735.011 106.554 735.476 106.647 736ZM111.582 743.159C110.893 743.159 110.288 742.995 109.768 742.667C109.251 742.339 108.846 741.88 108.555 741.29C108.266 740.7 108.122 740.01 108.122 739.222C108.122 738.426 108.266 737.732 108.555 737.138C108.846 736.545 109.251 736.085 109.768 735.756C110.288 735.428 110.893 735.264 111.582 735.264C112.272 735.264 112.875 735.428 113.392 735.756C113.912 736.085 114.317 736.545 114.605 737.138C114.897 737.732 115.043 738.426 115.043 739.222C115.043 740.01 114.897 740.7 114.605 741.29C114.317 741.88 113.912 742.339 113.392 742.667C112.875 742.995 112.272 743.159 111.582 743.159ZM111.582 742.105C112.106 742.105 112.537 741.971 112.875 741.702C113.213 741.434 113.463 741.081 113.626 740.643C113.788 740.206 113.869 739.732 113.869 739.222C113.869 738.711 113.788 738.236 113.626 737.795C113.463 737.354 113.213 736.998 112.875 736.726C112.537 736.454 112.106 736.318 111.582 736.318C111.059 736.318 110.628 736.454 110.29 736.726C109.952 736.998 109.701 737.354 109.539 737.795C109.377 738.236 109.295 738.711 109.295 739.222C109.295 739.732 109.377 740.206 109.539 740.643C109.701 741.081 109.952 741.434 110.29 741.702C110.628 741.971 111.059 742.105 111.582 742.105ZM119.717 743.159C119.081 743.159 118.519 742.998 118.032 742.677C117.545 742.352 117.163 741.895 116.888 741.305C116.613 740.711 116.476 740.01 116.476 739.202C116.476 738.4 116.613 737.704 116.888 737.114C117.163 736.524 117.546 736.068 118.037 735.746C118.527 735.425 119.094 735.264 119.737 735.264C120.234 735.264 120.627 735.347 120.915 735.513C121.207 735.675 121.429 735.861 121.581 736.07C121.737 736.275 121.858 736.444 121.944 736.577H122.044V732.818H123.217V743H122.084V741.827H121.944C121.858 741.966 121.736 742.142 121.577 742.354C121.417 742.562 121.19 742.75 120.895 742.915C120.6 743.078 120.208 743.159 119.717 743.159ZM119.876 742.105C120.347 742.105 120.745 741.982 121.069 741.737C121.394 741.489 121.641 741.146 121.81 740.708C121.979 740.267 122.064 739.759 122.064 739.182C122.064 738.612 121.981 738.113 121.815 737.685C121.649 737.254 121.404 736.92 121.079 736.681C120.755 736.439 120.354 736.318 119.876 736.318C119.379 736.318 118.965 736.446 118.633 736.701C118.305 736.953 118.058 737.296 117.893 737.73C117.73 738.161 117.649 738.645 117.649 739.182C117.649 739.725 117.732 740.219 117.898 740.663C118.067 741.104 118.315 741.455 118.643 741.717C118.975 741.976 119.386 742.105 119.876 742.105ZM128.731 743.159C127.995 743.159 127.36 742.997 126.827 742.672C126.296 742.344 125.887 741.886 125.599 741.3C125.314 740.71 125.171 740.024 125.171 739.241C125.171 738.459 125.314 737.77 125.599 737.173C125.887 736.573 126.288 736.106 126.802 735.771C127.319 735.433 127.922 735.264 128.611 735.264C129.009 735.264 129.402 735.33 129.79 735.463C130.177 735.596 130.53 735.811 130.849 736.109C131.167 736.404 131.42 736.795 131.609 737.283C131.798 737.77 131.893 738.37 131.893 739.082V739.58H126.006V738.565H130.699C130.699 738.134 130.613 737.75 130.441 737.412C130.272 737.074 130.03 736.807 129.715 736.612C129.403 736.416 129.036 736.318 128.611 736.318C128.144 736.318 127.74 736.434 127.398 736.666C127.06 736.895 126.8 737.193 126.618 737.561C126.435 737.929 126.344 738.323 126.344 738.744V739.42C126.344 739.997 126.444 740.486 126.643 740.887C126.845 741.285 127.125 741.588 127.483 741.797C127.841 742.002 128.257 742.105 128.731 742.105C129.039 742.105 129.317 742.062 129.566 741.976C129.818 741.886 130.035 741.754 130.217 741.578C130.399 741.399 130.54 741.177 130.64 740.912L131.773 741.23C131.654 741.615 131.453 741.953 131.172 742.244C130.89 742.533 130.542 742.758 130.128 742.92C129.713 743.08 129.248 743.159 128.731 743.159Z" fill="black"/>
</g>
<defs>
<clipPath id="clip0_4_11">
<rect width="430" height="932" fill="white"/>
</clipPath>
</defs>
</svg>
