<svg width="215" height="460" viewBox="0 0 430 932" fill="none" xmlns="http://www.w3.org/2000/svg">
<rect width="430" height="932" fill="white"/>
<rect x="38.5" y="66.5" width="335" height="45" rx="4.5" stroke="black"/>
<path d="M39.233 50V39.8182H42.6733C43.4721 39.8182 44.125 39.9624 44.6321 40.2507C45.1425 40.5357 45.5204 40.9219 45.7656 41.4091C46.0109 41.8963 46.1335 42.4399 46.1335 43.0398C46.1335 43.6397 46.0109 44.1849 45.7656 44.6754C45.5237 45.166 45.1491 45.5571 44.642 45.8487C44.1349 46.1371 43.4853 46.2812 42.6932 46.2812H40.2273V45.1875H42.6534C43.2003 45.1875 43.6394 45.093 43.9709 44.9041C44.3023 44.7152 44.5426 44.46 44.6918 44.1385C44.8442 43.8137 44.9205 43.4474 44.9205 43.0398C44.9205 42.6321 44.8442 42.2675 44.6918 41.946C44.5426 41.6245 44.3007 41.3726 43.9659 41.1903C43.6312 41.0047 43.187 40.9119 42.6335 40.9119H40.4659V50H39.233ZM47.9606 50V42.3636H49.0941V43.517H49.1737C49.3129 43.1392 49.5647 42.8326 49.9293 42.5973C50.2939 42.362 50.7049 42.2443 51.1623 42.2443C51.2485 42.2443 51.3562 42.246 51.4854 42.2493C51.6147 42.2526 51.7125 42.2576 51.7788 42.2642V43.4574C51.739 43.4474 51.6478 43.4325 51.5053 43.4126C51.3661 43.3894 51.2186 43.3778 51.0629 43.3778C50.6916 43.3778 50.3602 43.4557 50.0685 43.6115C49.7802 43.764 49.5515 43.9761 49.3825 44.2479C49.2167 44.5163 49.1339 44.8229 49.1339 45.1676V50H47.9606ZM56.0394 50.1591C55.35 50.1591 54.7451 49.995 54.2248 49.6669C53.7077 49.3388 53.3034 48.8797 53.0117 48.2898C52.7234 47.6998 52.5792 47.0104 52.5792 46.2216C52.5792 45.4261 52.7234 44.7318 53.0117 44.1385C53.3034 43.5452 53.7077 43.0845 54.2248 42.7564C54.7451 42.4283 55.35 42.2642 56.0394 42.2642C56.7288 42.2642 57.332 42.4283 57.8491 42.7564C58.3694 43.0845 58.7738 43.5452 59.0621 44.1385C59.3538 44.7318 59.4996 45.4261 59.4996 46.2216C59.4996 47.0104 59.3538 47.6998 59.0621 48.2898C58.7738 48.8797 58.3694 49.3388 57.8491 49.6669C57.332 49.995 56.7288 50.1591 56.0394 50.1591ZM56.0394 49.1051C56.5631 49.1051 56.994 48.9709 57.332 48.7024C57.6701 48.4339 57.9203 48.081 58.0827 47.6435C58.2451 47.206 58.3263 46.732 58.3263 46.2216C58.3263 45.7112 58.2451 45.2356 58.0827 44.7947C57.9203 44.3539 57.6701 43.9976 57.332 43.7259C56.994 43.4541 56.5631 43.3182 56.0394 43.3182C55.5157 43.3182 55.0849 43.4541 54.7468 43.7259C54.4087 43.9976 54.1585 44.3539 53.9961 44.7947C53.8337 45.2356 53.7525 45.7112 53.7525 46.2216C53.7525 46.732 53.8337 47.206 53.9961 47.6435C54.1585 48.081 54.4087 48.4339 54.7468 48.7024C55.0849 48.9709 55.5157 49.1051 56.0394 49.1051ZM64.1742 50.1591C63.5378 50.1591 62.976 49.9983 62.4888 49.6768C62.0016 49.352 61.6204 48.8946 61.3453 48.3047C61.0703 47.7114 60.9327 47.0104 60.9327 46.2017C60.9327 45.3996 61.0703 44.7036 61.3453 44.1136C61.6204 43.5237 62.0033 43.0679 62.4938 42.7464C62.9843 42.425 63.5511 42.2642 64.1941 42.2642C64.6912 42.2642 65.084 42.3471 65.3723 42.5128C65.664 42.6752 65.8861 42.8608 66.0385 43.0696C66.1943 43.2751 66.3153 43.4441 66.4015 43.5767H66.5009V39.8182H67.6742V50H66.5407V48.8267H66.4015C66.3153 48.9659 66.1926 49.1416 66.0336 49.3537C65.8745 49.5625 65.6474 49.7498 65.3525 49.9155C65.0575 50.0779 64.6647 50.1591 64.1742 50.1591ZM64.3333 49.1051C64.8039 49.1051 65.2016 48.9825 65.5265 48.7372C65.8513 48.4886 66.0982 48.1456 66.2672 47.7081C66.4363 47.2673 66.5208 46.7585 66.5208 46.1818C66.5208 45.6117 66.4379 45.1129 66.2722 44.6854C66.1065 44.2545 65.8612 43.9197 65.5364 43.6811C65.2116 43.4392 64.8105 43.3182 64.3333 43.3182C63.8361 43.3182 63.4218 43.4458 63.0904 43.701C62.7623 43.9529 62.5153 44.2959 62.3496 44.7301C62.1872 45.161 62.106 45.6449 62.106 46.1818C62.106 46.7254 62.1889 47.2192 62.3546 47.6634C62.5236 48.1042 62.7722 48.4555 63.1003 48.7173C63.4318 48.9759 63.8427 49.1051 64.3333 49.1051ZM74.7985 46.8778V42.3636H75.9718V50H74.7985V48.7074H74.7189C74.54 49.0952 74.2615 49.425 73.8837 49.6967C73.5059 49.9652 73.0286 50.0994 72.4519 50.0994C71.9746 50.0994 71.5504 49.995 71.1792 49.7862C70.8079 49.5741 70.5163 49.2559 70.3042 48.8317C70.092 48.4041 69.986 47.8655 69.986 47.2159V42.3636H71.1593V47.1364C71.1593 47.6932 71.315 48.1373 71.6266 48.4688C71.9415 48.8002 72.3425 48.9659 72.8297 48.9659C73.1214 48.9659 73.418 48.8913 73.7196 48.7422C74.0246 48.593 74.2798 48.3643 74.4853 48.0561C74.6941 47.7479 74.7985 47.3551 74.7985 46.8778ZM81.223 50.1591C80.5071 50.1591 79.8906 49.9901 79.3736 49.652C78.8565 49.3139 78.4588 48.8482 78.1804 48.255C77.902 47.6617 77.7628 46.9839 77.7628 46.2216C77.7628 45.446 77.9053 44.7616 78.1903 44.1683C78.4787 43.5717 78.8797 43.1061 79.3935 42.7713C79.9105 42.4332 80.5137 42.2642 81.2031 42.2642C81.7401 42.2642 82.224 42.3636 82.6548 42.5625C83.0857 42.7614 83.4387 43.0398 83.7138 43.3977C83.9889 43.7557 84.1596 44.1733 84.2259 44.6506H83.0526C82.9631 44.3026 82.7642 43.9943 82.456 43.7259C82.151 43.4541 81.7401 43.3182 81.223 43.3182C80.7656 43.3182 80.3646 43.4375 80.0199 43.6761C79.6785 43.9115 79.4117 44.2446 79.2195 44.6754C79.0305 45.103 78.9361 45.6051 78.9361 46.1818C78.9361 46.7718 79.0289 47.2855 79.2145 47.723C79.4034 48.1605 79.6686 48.5002 80.0099 48.7422C80.3546 48.9841 80.759 49.1051 81.223 49.1051C81.5279 49.1051 81.8047 49.0521 82.0533 48.946C82.3018 48.84 82.5123 48.6875 82.6847 48.4886C82.857 48.2898 82.9796 48.0511 83.0526 47.7727H84.2259C84.1596 48.2235 83.9955 48.6295 83.7337 48.9908C83.4751 49.3487 83.1321 49.6338 82.7045 49.8459C82.2803 50.0547 81.7865 50.1591 81.223 50.1591ZM89.2621 42.3636V43.358H85.3047V42.3636H89.2621ZM86.4581 40.5341H87.6314V47.8125C87.6314 48.1439 87.6795 48.3925 87.7756 48.5582C87.875 48.7206 88.0009 48.83 88.1534 48.8864C88.3092 48.9394 88.4732 48.9659 88.6456 48.9659C88.7749 48.9659 88.8809 48.9593 88.9638 48.946C89.0466 48.9295 89.1129 48.9162 89.1626 48.9062L89.4013 49.9602C89.3217 49.9901 89.2107 50.0199 89.0682 50.0497C88.9257 50.0829 88.745 50.0994 88.5263 50.0994C88.1948 50.0994 87.87 50.0282 87.5518 49.8857C87.237 49.7431 86.9751 49.526 86.7663 49.2344C86.5608 48.9427 86.4581 48.5748 86.4581 48.1307V40.5341ZM103.197 39.8182V50H102.004L96.456 42.0057H96.3565V50H95.1236V39.8182H96.3168L101.885 47.8324H101.984V39.8182H103.197ZM107.753 50.179C107.269 50.179 106.83 50.0878 106.435 49.9055C106.041 49.7199 105.728 49.4531 105.496 49.1051C105.264 48.7538 105.148 48.3295 105.148 47.8324C105.148 47.3949 105.234 47.0402 105.406 46.7685C105.578 46.4934 105.809 46.2779 106.097 46.1222C106.385 45.9664 106.704 45.8504 107.052 45.7741C107.403 45.6946 107.756 45.6316 108.111 45.5852C108.575 45.5256 108.951 45.4808 109.239 45.451C109.531 45.4179 109.743 45.3632 109.876 45.2869C110.011 45.2107 110.079 45.0781 110.079 44.8892V44.8494C110.079 44.3589 109.945 43.9777 109.677 43.706C109.412 43.4342 109.009 43.2983 108.469 43.2983C107.908 43.2983 107.469 43.4209 107.151 43.6662C106.833 43.9115 106.609 44.1733 106.48 44.4517L105.366 44.054C105.565 43.59 105.83 43.2287 106.162 42.9702C106.497 42.7083 106.861 42.526 107.256 42.4233C107.653 42.3172 108.044 42.2642 108.429 42.2642C108.674 42.2642 108.956 42.294 109.274 42.3537C109.595 42.41 109.905 42.5277 110.204 42.7067C110.505 42.8857 110.756 43.1558 110.954 43.517C111.153 43.8783 111.253 44.3622 111.253 44.9688V50H110.079V48.9659H110.02C109.94 49.1316 109.808 49.3089 109.622 49.4979C109.436 49.6868 109.189 49.8475 108.881 49.9801C108.573 50.1127 108.197 50.179 107.753 50.179ZM107.932 49.125C108.396 49.125 108.787 49.0339 109.105 48.8516C109.426 48.6693 109.668 48.4339 109.831 48.1456C109.997 47.8572 110.079 47.554 110.079 47.2358V46.1619C110.03 46.2216 109.92 46.2763 109.751 46.326C109.586 46.3724 109.393 46.4138 109.175 46.4503C108.959 46.4834 108.749 46.5133 108.543 46.5398C108.341 46.563 108.177 46.5829 108.051 46.5994C107.746 46.6392 107.461 46.7038 107.196 46.7933C106.934 46.8795 106.722 47.0104 106.559 47.1861C106.4 47.3584 106.321 47.5937 106.321 47.892C106.321 48.2997 106.472 48.608 106.773 48.8168C107.078 49.0223 107.464 49.125 107.932 49.125ZM113.394 50V42.3636H114.528V43.5568H114.627C114.786 43.1491 115.043 42.8326 115.398 42.6072C115.752 42.3786 116.178 42.2642 116.675 42.2642C117.179 42.2642 117.598 42.3786 117.933 42.6072C118.271 42.8326 118.535 43.1491 118.724 43.5568H118.803C118.999 43.1624 119.292 42.8492 119.683 42.6172C120.074 42.3819 120.543 42.2642 121.09 42.2642C121.773 42.2642 122.331 42.478 122.766 42.9055C123.2 43.3298 123.417 43.991 123.417 44.8892V50H122.244V44.8892C122.244 44.3258 122.089 43.9231 121.781 43.6811C121.473 43.4392 121.11 43.3182 120.692 43.3182C120.156 43.3182 119.74 43.4806 119.445 43.8054C119.15 44.1269 119.002 44.5346 119.002 45.0284V50H117.809V44.7699C117.809 44.3357 117.668 43.986 117.386 43.7209C117.105 43.4524 116.742 43.3182 116.298 43.3182C115.993 43.3182 115.708 43.3994 115.442 43.5618C115.181 43.7242 114.969 43.9496 114.806 44.2379C114.647 44.523 114.567 44.8527 114.567 45.2273V50H113.394ZM128.764 50.1591C128.028 50.1591 127.393 49.9967 126.86 49.6719C126.329 49.3438 125.92 48.8864 125.632 48.2997C125.347 47.7098 125.204 47.0237 125.204 46.2415C125.204 45.4593 125.347 44.7699 125.632 44.1733C125.92 43.5734 126.321 43.1061 126.835 42.7713C127.352 42.4332 127.955 42.2642 128.645 42.2642C129.042 42.2642 129.435 42.3305 129.823 42.4631C130.211 42.5956 130.564 42.8111 130.882 43.1094C131.2 43.4044 131.453 43.7955 131.642 44.2827C131.831 44.7699 131.926 45.3698 131.926 46.0824V46.5795H126.039V45.5653H130.733C130.733 45.1345 130.646 44.75 130.474 44.4119C130.305 44.0739 130.063 43.8071 129.748 43.6115C129.437 43.416 129.069 43.3182 128.645 43.3182C128.177 43.3182 127.773 43.4342 127.431 43.6662C127.093 43.8949 126.833 44.1932 126.651 44.5611C126.469 44.929 126.377 45.3234 126.377 45.7443V46.4205C126.377 46.9972 126.477 47.486 126.676 47.8871C126.878 48.2848 127.158 48.5881 127.516 48.7969C127.874 49.0024 128.29 49.1051 128.764 49.1051C129.072 49.1051 129.35 49.062 129.599 48.9759C129.851 48.8864 130.068 48.7538 130.25 48.5781C130.433 48.3991 130.574 48.1771 130.673 47.9119L131.806 48.2301C131.687 48.6146 131.487 48.9527 131.205 49.2443C130.923 49.5327 130.575 49.758 130.161 49.9205C129.747 50.0795 129.281 50.1591 128.764 50.1591Z" fill="black"/>
<rect x="38.5" y="164.5" width="335" height="121" rx="4.5" stroke="black"/>
<path d="M39.233 148V137.818H42.6733C43.4721 137.818 44.125 137.962 44.6321 138.251C45.1425 138.536 45.5204 138.922 45.7656 139.409C46.0109 139.896 46.1335 140.44 46.1335 141.04C46.1335 141.64 46.0109 142.185 45.7656 142.675C45.5237 143.166 45.1491 143.557 44.642 143.849C44.1349 144.137 43.4853 144.281 42.6932 144.281H40.2273V143.188H42.6534C43.2003 143.188 43.6394 143.093 43.9709 142.904C44.3023 142.715 44.5426 142.46 44.6918 142.138C44.8442 141.814 44.9205 141.447 44.9205 141.04C44.9205 140.632 44.8442 140.268 44.6918 139.946C44.5426 139.625 44.3007 139.373 43.9659 139.19C43.6312 139.005 43.187 138.912 42.6335 138.912H40.4659V148H39.233ZM47.9606 148V140.364H49.0941V141.517H49.1737C49.3129 141.139 49.5647 140.833 49.9293 140.597C50.2939 140.362 50.7049 140.244 51.1623 140.244C51.2485 140.244 51.3562 140.246 51.4854 140.249C51.6147 140.253 51.7125 140.258 51.7788 140.264V141.457C51.739 141.447 51.6478 141.433 51.5053 141.413C51.3661 141.389 51.2186 141.378 51.0629 141.378C50.6916 141.378 50.3602 141.456 50.0685 141.612C49.7802 141.764 49.5515 141.976 49.3825 142.248C49.2167 142.516 49.1339 142.823 49.1339 143.168V148H47.9606ZM56.0394 148.159C55.35 148.159 54.7451 147.995 54.2248 147.667C53.7077 147.339 53.3034 146.88 53.0117 146.29C52.7234 145.7 52.5792 145.01 52.5792 144.222C52.5792 143.426 52.7234 142.732 53.0117 142.138C53.3034 141.545 53.7077 141.085 54.2248 140.756C54.7451 140.428 55.35 140.264 56.0394 140.264C56.7288 140.264 57.332 140.428 57.8491 140.756C58.3694 141.085 58.7738 141.545 59.0621 142.138C59.3538 142.732 59.4996 143.426 59.4996 144.222C59.4996 145.01 59.3538 145.7 59.0621 146.29C58.7738 146.88 58.3694 147.339 57.8491 147.667C57.332 147.995 56.7288 148.159 56.0394 148.159ZM56.0394 147.105C56.5631 147.105 56.994 146.971 57.332 146.702C57.6701 146.434 57.9203 146.081 58.0827 145.643C58.2451 145.206 58.3263 144.732 58.3263 144.222C58.3263 143.711 58.2451 143.236 58.0827 142.795C57.9203 142.354 57.6701 141.998 57.332 141.726C56.994 141.454 56.5631 141.318 56.0394 141.318C55.5157 141.318 55.0849 141.454 54.7468 141.726C54.4087 141.998 54.1585 142.354 53.9961 142.795C53.8337 143.236 53.7525 143.711 53.7525 144.222C53.7525 144.732 53.8337 145.206 53.9961 145.643C54.1585 146.081 54.4087 146.434 54.7468 146.702C55.0849 146.971 55.5157 147.105 56.0394 147.105ZM64.1742 148.159C63.5378 148.159 62.976 147.998 62.4888 147.677C62.0016 147.352 61.6204 146.895 61.3453 146.305C61.0703 145.711 60.9327 145.01 60.9327 144.202C60.9327 143.4 61.0703 142.704 61.3453 142.114C61.6204 141.524 62.0033 141.068 62.4938 140.746C62.9843 140.425 63.5511 140.264 64.1941 140.264C64.6912 140.264 65.084 140.347 65.3723 140.513C65.664 140.675 65.8861 140.861 66.0385 141.07C66.1943 141.275 66.3153 141.444 66.4015 141.577H66.5009V137.818H67.6742V148H66.5407V146.827H66.4015C66.3153 146.966 66.1926 147.142 66.0336 147.354C65.8745 147.562 65.6474 147.75 65.3525 147.915C65.0575 148.078 64.6647 148.159 64.1742 148.159ZM64.3333 147.105C64.8039 147.105 65.2016 146.982 65.5265 146.737C65.8513 146.489 66.0982 146.146 66.2672 145.708C66.4363 145.267 66.5208 144.759 66.5208 144.182C66.5208 143.612 66.4379 143.113 66.2722 142.685C66.1065 142.254 65.8612 141.92 65.5364 141.681C65.2116 141.439 64.8105 141.318 64.3333 141.318C63.8361 141.318 63.4218 141.446 63.0904 141.701C62.7623 141.953 62.5153 142.296 62.3496 142.73C62.1872 143.161 62.106 143.645 62.106 144.182C62.106 144.725 62.1889 145.219 62.3546 145.663C62.5236 146.104 62.7722 146.455 63.1003 146.717C63.4318 146.976 63.8427 147.105 64.3333 147.105ZM74.7985 144.878V140.364H75.9718V148H74.7985V146.707H74.7189C74.54 147.095 74.2615 147.425 73.8837 147.697C73.5059 147.965 73.0286 148.099 72.4519 148.099C71.9746 148.099 71.5504 147.995 71.1792 147.786C70.8079 147.574 70.5163 147.256 70.3042 146.832C70.092 146.404 69.986 145.866 69.986 145.216V140.364H71.1593V145.136C71.1593 145.693 71.315 146.137 71.6266 146.469C71.9415 146.8 72.3425 146.966 72.8297 146.966C73.1214 146.966 73.418 146.891 73.7196 146.742C74.0246 146.593 74.2798 146.364 74.4853 146.056C74.6941 145.748 74.7985 145.355 74.7985 144.878ZM81.223 148.159C80.5071 148.159 79.8906 147.99 79.3736 147.652C78.8565 147.314 78.4588 146.848 78.1804 146.255C77.902 145.662 77.7628 144.984 77.7628 144.222C77.7628 143.446 77.9053 142.762 78.1903 142.168C78.4787 141.572 78.8797 141.106 79.3935 140.771C79.9105 140.433 80.5137 140.264 81.2031 140.264C81.7401 140.264 82.224 140.364 82.6548 140.562C83.0857 140.761 83.4387 141.04 83.7138 141.398C83.9889 141.756 84.1596 142.173 84.2259 142.651H83.0526C82.9631 142.303 82.7642 141.994 82.456 141.726C82.151 141.454 81.7401 141.318 81.223 141.318C80.7656 141.318 80.3646 141.437 80.0199 141.676C79.6785 141.911 79.4117 142.245 79.2195 142.675C79.0305 143.103 78.9361 143.605 78.9361 144.182C78.9361 144.772 79.0289 145.286 79.2145 145.723C79.4034 146.161 79.6686 146.5 80.0099 146.742C80.3546 146.984 80.759 147.105 81.223 147.105C81.5279 147.105 81.8047 147.052 82.0533 146.946C82.3018 146.84 82.5123 146.688 82.6847 146.489C82.857 146.29 82.9796 146.051 83.0526 145.773H84.2259C84.1596 146.223 83.9955 146.629 83.7337 146.991C83.4751 147.349 83.1321 147.634 82.7045 147.846C82.2803 148.055 81.7865 148.159 81.223 148.159ZM89.2621 140.364V141.358H85.3047V140.364H89.2621ZM86.4581 138.534H87.6314V145.812C87.6314 146.144 87.6795 146.393 87.7756 146.558C87.875 146.721 88.0009 146.83 88.1534 146.886C88.3092 146.939 88.4732 146.966 88.6456 146.966C88.7749 146.966 88.8809 146.959 88.9638 146.946C89.0466 146.929 89.1129 146.916 89.1626 146.906L89.4013 147.96C89.3217 147.99 89.2107 148.02 89.0682 148.05C88.9257 148.083 88.745 148.099 88.5263 148.099C88.1948 148.099 87.87 148.028 87.5518 147.886C87.237 147.743 86.9751 147.526 86.7663 147.234C86.5608 146.943 86.4581 146.575 86.4581 146.131V138.534ZM98.2656 148H95.1236V137.818H98.4048C99.3925 137.818 100.238 138.022 100.94 138.43C101.643 138.834 102.182 139.416 102.556 140.175C102.931 140.93 103.118 141.835 103.118 142.889C103.118 143.95 102.929 144.863 102.551 145.629C102.173 146.391 101.623 146.978 100.901 147.388C100.178 147.796 99.2997 148 98.2656 148ZM96.3565 146.906H98.1861C99.0279 146.906 99.7256 146.744 100.279 146.419C100.833 146.094 101.245 145.632 101.517 145.032C101.789 144.432 101.925 143.718 101.925 142.889C101.925 142.067 101.79 141.36 101.522 140.766C101.254 140.17 100.853 139.712 100.319 139.394C99.7853 139.073 99.1207 138.912 98.3253 138.912H96.3565V146.906ZM108.229 148.159C107.493 148.159 106.858 147.997 106.325 147.672C105.794 147.344 105.385 146.886 105.097 146.3C104.812 145.71 104.669 145.024 104.669 144.241C104.669 143.459 104.812 142.77 105.097 142.173C105.385 141.573 105.786 141.106 106.3 140.771C106.817 140.433 107.42 140.264 108.109 140.264C108.507 140.264 108.9 140.33 109.288 140.463C109.675 140.596 110.028 140.811 110.347 141.109C110.665 141.404 110.918 141.795 111.107 142.283C111.296 142.77 111.391 143.37 111.391 144.082V144.58H105.504V143.565H110.197C110.197 143.134 110.111 142.75 109.939 142.412C109.77 142.074 109.528 141.807 109.213 141.612C108.902 141.416 108.534 141.318 108.109 141.318C107.642 141.318 107.238 141.434 106.896 141.666C106.558 141.895 106.298 142.193 106.116 142.561C105.933 142.929 105.842 143.323 105.842 143.744V144.42C105.842 144.997 105.942 145.486 106.141 145.887C106.343 146.285 106.623 146.588 106.981 146.797C107.339 147.002 107.755 147.105 108.229 147.105C108.537 147.105 108.815 147.062 109.064 146.976C109.316 146.886 109.533 146.754 109.715 146.578C109.897 146.399 110.038 146.177 110.138 145.912L111.271 146.23C111.152 146.615 110.951 146.953 110.67 147.244C110.388 147.533 110.04 147.758 109.626 147.92C109.211 148.08 108.746 148.159 108.229 148.159ZM118.585 142.074L117.531 142.372C117.464 142.196 117.366 142.026 117.237 141.86C117.111 141.691 116.939 141.552 116.72 141.442C116.501 141.333 116.221 141.278 115.88 141.278C115.413 141.278 115.023 141.386 114.712 141.602C114.403 141.814 114.249 142.084 114.249 142.412C114.249 142.704 114.355 142.934 114.567 143.103C114.78 143.272 115.111 143.413 115.562 143.526L116.695 143.804C117.378 143.97 117.887 144.223 118.222 144.565C118.556 144.903 118.724 145.339 118.724 145.872C118.724 146.31 118.598 146.701 118.346 147.045C118.097 147.39 117.749 147.662 117.302 147.861C116.854 148.06 116.334 148.159 115.741 148.159C114.962 148.159 114.317 147.99 113.807 147.652C113.296 147.314 112.973 146.82 112.837 146.17L113.951 145.892C114.057 146.303 114.258 146.611 114.553 146.817C114.851 147.022 115.24 147.125 115.721 147.125C116.268 147.125 116.702 147.009 117.023 146.777C117.348 146.542 117.511 146.26 117.511 145.932C117.511 145.667 117.418 145.445 117.232 145.266C117.047 145.083 116.762 144.947 116.377 144.858L115.104 144.56C114.405 144.394 113.891 144.137 113.563 143.789C113.238 143.438 113.076 142.999 113.076 142.472C113.076 142.041 113.197 141.66 113.439 141.328C113.684 140.997 114.017 140.737 114.438 140.548C114.862 140.359 115.343 140.264 115.88 140.264C116.636 140.264 117.229 140.43 117.66 140.761C118.094 141.093 118.402 141.53 118.585 142.074ZM123.592 148.159C122.876 148.159 122.26 147.99 121.743 147.652C121.226 147.314 120.828 146.848 120.55 146.255C120.271 145.662 120.132 144.984 120.132 144.222C120.132 143.446 120.274 142.762 120.559 142.168C120.848 141.572 121.249 141.106 121.763 140.771C122.28 140.433 122.883 140.264 123.572 140.264C124.109 140.264 124.593 140.364 125.024 140.562C125.455 140.761 125.808 141.04 126.083 141.398C126.358 141.756 126.529 142.173 126.595 142.651H125.422C125.332 142.303 125.133 141.994 124.825 141.726C124.52 141.454 124.109 141.318 123.592 141.318C123.135 141.318 122.734 141.437 122.389 141.676C122.048 141.911 121.781 142.245 121.589 142.675C121.4 143.103 121.305 143.605 121.305 144.182C121.305 144.772 121.398 145.286 121.584 145.723C121.773 146.161 122.038 146.5 122.379 146.742C122.724 146.984 123.128 147.105 123.592 147.105C123.897 147.105 124.174 147.052 124.422 146.946C124.671 146.84 124.881 146.688 125.054 146.489C125.226 146.29 125.349 146.051 125.422 145.773H126.595C126.529 146.223 126.365 146.629 126.103 146.991C125.844 147.349 125.501 147.634 125.074 147.846C124.649 148.055 124.156 148.159 123.592 148.159ZM128.31 148V140.364H129.444V141.517H129.523C129.662 141.139 129.914 140.833 130.279 140.597C130.644 140.362 131.055 140.244 131.512 140.244C131.598 140.244 131.706 140.246 131.835 140.249C131.964 140.253 132.062 140.258 132.128 140.264V141.457C132.089 141.447 131.997 141.433 131.855 141.413C131.716 141.389 131.568 141.378 131.412 141.378C131.041 141.378 130.71 141.456 130.418 141.612C130.13 141.764 129.901 141.976 129.732 142.248C129.566 142.516 129.483 142.823 129.483 143.168V148H128.31ZM133.519 148V140.364H134.692V148H133.519ZM134.116 139.091C133.887 139.091 133.69 139.013 133.524 138.857C133.362 138.701 133.281 138.514 133.281 138.295C133.281 138.077 133.362 137.889 133.524 137.734C133.69 137.578 133.887 137.5 134.116 137.5C134.344 137.5 134.54 137.578 134.702 137.734C134.868 137.889 134.951 138.077 134.951 138.295C134.951 138.514 134.868 138.701 134.702 138.857C134.54 139.013 134.344 139.091 134.116 139.091ZM136.841 150.864V140.364H137.975V141.577H138.114C138.2 141.444 138.32 141.275 138.472 141.07C138.628 140.861 138.85 140.675 139.138 140.513C139.43 140.347 139.824 140.264 140.322 140.264C140.965 140.264 141.531 140.425 142.022 140.746C142.512 141.068 142.895 141.524 143.17 142.114C143.445 142.704 143.583 143.4 143.583 144.202C143.583 145.01 143.445 145.711 143.17 146.305C142.895 146.895 142.514 147.352 142.027 147.677C141.54 147.998 140.978 148.159 140.341 148.159C139.851 148.159 139.458 148.078 139.163 147.915C138.868 147.75 138.641 147.562 138.482 147.354C138.323 147.142 138.2 146.966 138.114 146.827H138.015V150.864H136.841ZM137.995 144.182C137.995 144.759 138.079 145.267 138.248 145.708C138.417 146.146 138.664 146.489 138.989 146.737C139.314 146.982 139.712 147.105 140.182 147.105C140.673 147.105 141.082 146.976 141.41 146.717C141.742 146.455 141.99 146.104 142.156 145.663C142.325 145.219 142.41 144.725 142.41 144.182C142.41 143.645 142.327 143.161 142.161 142.73C141.999 142.296 141.752 141.953 141.42 141.701C141.092 141.446 140.68 141.318 140.182 141.318C139.705 141.318 139.304 141.439 138.979 141.681C138.654 141.92 138.409 142.254 138.243 142.685C138.078 143.113 137.995 143.612 137.995 144.182ZM148.694 140.364V141.358H144.736V140.364H148.694ZM145.89 138.534H147.063V145.812C147.063 146.144 147.111 146.393 147.207 146.558C147.307 146.721 147.433 146.83 147.585 146.886C147.741 146.939 147.905 146.966 148.077 146.966C148.206 146.966 148.313 146.959 148.395 146.946C148.478 146.929 148.545 146.916 148.594 146.906L148.833 147.96C148.753 147.99 148.642 148.02 148.5 148.05C148.357 148.083 148.177 148.099 147.958 148.099C147.626 148.099 147.302 148.028 146.983 147.886C146.669 147.743 146.407 147.526 146.198 147.234C145.992 146.943 145.89 146.575 145.89 146.131V138.534ZM150.459 148V140.364H151.632V148H150.459ZM151.055 139.091C150.827 139.091 150.629 139.013 150.464 138.857C150.301 138.701 150.22 138.514 150.22 138.295C150.22 138.077 150.301 137.889 150.464 137.734C150.629 137.578 150.827 137.5 151.055 137.5C151.284 137.5 151.479 137.578 151.642 137.734C151.808 137.889 151.89 138.077 151.89 138.295C151.89 138.514 151.808 138.701 151.642 138.857C151.479 139.013 151.284 139.091 151.055 139.091ZM156.883 148.159C156.194 148.159 155.589 147.995 155.069 147.667C154.551 147.339 154.147 146.88 153.855 146.29C153.567 145.7 153.423 145.01 153.423 144.222C153.423 143.426 153.567 142.732 153.855 142.138C154.147 141.545 154.551 141.085 155.069 140.756C155.589 140.428 156.194 140.264 156.883 140.264C157.573 140.264 158.176 140.428 158.693 140.756C159.213 141.085 159.618 141.545 159.906 142.138C160.198 142.732 160.343 143.426 160.343 144.222C160.343 145.01 160.198 145.7 159.906 146.29C159.618 146.88 159.213 147.339 158.693 147.667C158.176 147.995 157.573 148.159 156.883 148.159ZM156.883 147.105C157.407 147.105 157.838 146.971 158.176 146.702C158.514 146.434 158.764 146.081 158.926 145.643C159.089 145.206 159.17 144.732 159.17 144.222C159.17 143.711 159.089 143.236 158.926 142.795C158.764 142.354 158.514 141.998 158.176 141.726C157.838 141.454 157.407 141.318 156.883 141.318C156.359 141.318 155.929 141.454 155.591 141.726C155.252 141.998 155.002 142.354 154.84 142.795C154.677 143.236 154.596 143.711 154.596 144.222C154.596 144.732 154.677 145.206 154.84 145.643C155.002 146.081 155.252 146.434 155.591 146.702C155.929 146.971 156.359 147.105 156.883 147.105ZM163.308 143.406V148H162.134V140.364H163.268V141.557H163.367C163.546 141.169 163.818 140.857 164.183 140.622C164.547 140.384 165.018 140.264 165.595 140.264C166.112 140.264 166.564 140.37 166.952 140.582C167.34 140.791 167.641 141.109 167.857 141.537C168.072 141.961 168.18 142.498 168.18 143.148V148H167.007V143.227C167.007 142.627 166.851 142.16 166.539 141.825C166.228 141.487 165.8 141.318 165.257 141.318C164.882 141.318 164.547 141.399 164.252 141.562C163.961 141.724 163.73 141.961 163.561 142.273C163.392 142.584 163.308 142.962 163.308 143.406Z" fill="black"/>
<rect x="38.5" y="334.5" width="335" height="45" rx="4.5" stroke="black"/>
<path d="M39.233 318V307.818H42.6733C43.4721 307.818 44.125 307.962 44.6321 308.251C45.1425 308.536 45.5204 308.922 45.7656 309.409C46.0109 309.896 46.1335 310.44 46.1335 311.04C46.1335 311.64 46.0109 312.185 45.7656 312.675C45.5237 313.166 45.1491 313.557 44.642 313.849C44.1349 314.137 43.4853 314.281 42.6932 314.281H40.2273V313.188H42.6534C43.2003 313.188 43.6394 313.093 43.9709 312.904C44.3023 312.715 44.5426 312.46 44.6918 312.138C44.8442 311.814 44.9205 311.447 44.9205 311.04C44.9205 310.632 44.8442 310.268 44.6918 309.946C44.5426 309.625 44.3007 309.373 43.9659 309.19C43.6312 309.005 43.187 308.912 42.6335 308.912H40.4659V318H39.233ZM47.9606 318V310.364H49.0941V311.517H49.1737C49.3129 311.139 49.5647 310.833 49.9293 310.597C50.2939 310.362 50.7049 310.244 51.1623 310.244C51.2485 310.244 51.3562 310.246 51.4854 310.249C51.6147 310.253 51.7125 310.258 51.7788 310.264V311.457C51.739 311.447 51.6478 311.433 51.5053 311.413C51.3661 311.389 51.2186 311.378 51.0629 311.378C50.6916 311.378 50.3602 311.456 50.0685 311.612C49.7802 311.764 49.5515 311.976 49.3825 312.248C49.2167 312.516 49.1339 312.823 49.1339 313.168V318H47.9606ZM56.0394 318.159C55.35 318.159 54.7451 317.995 54.2248 317.667C53.7077 317.339 53.3034 316.88 53.0117 316.29C52.7234 315.7 52.5792 315.01 52.5792 314.222C52.5792 313.426 52.7234 312.732 53.0117 312.138C53.3034 311.545 53.7077 311.085 54.2248 310.756C54.7451 310.428 55.35 310.264 56.0394 310.264C56.7288 310.264 57.332 310.428 57.8491 310.756C58.3694 311.085 58.7738 311.545 59.0621 312.138C59.3538 312.732 59.4996 313.426 59.4996 314.222C59.4996 315.01 59.3538 315.7 59.0621 316.29C58.7738 316.88 58.3694 317.339 57.8491 317.667C57.332 317.995 56.7288 318.159 56.0394 318.159ZM56.0394 317.105C56.5631 317.105 56.994 316.971 57.332 316.702C57.6701 316.434 57.9203 316.081 58.0827 315.643C58.2451 315.206 58.3263 314.732 58.3263 314.222C58.3263 313.711 58.2451 313.236 58.0827 312.795C57.9203 312.354 57.6701 311.998 57.332 311.726C56.994 311.454 56.5631 311.318 56.0394 311.318C55.5157 311.318 55.0849 311.454 54.7468 311.726C54.4087 311.998 54.1585 312.354 53.9961 312.795C53.8337 313.236 53.7525 313.711 53.7525 314.222C53.7525 314.732 53.8337 315.206 53.9961 315.643C54.1585 316.081 54.4087 316.434 54.7468 316.702C55.0849 316.971 55.5157 317.105 56.0394 317.105ZM64.1742 318.159C63.5378 318.159 62.976 317.998 62.4888 317.677C62.0016 317.352 61.6204 316.895 61.3453 316.305C61.0703 315.711 60.9327 315.01 60.9327 314.202C60.9327 313.4 61.0703 312.704 61.3453 312.114C61.6204 311.524 62.0033 311.068 62.4938 310.746C62.9843 310.425 63.5511 310.264 64.1941 310.264C64.6912 310.264 65.084 310.347 65.3723 310.513C65.664 310.675 65.8861 310.861 66.0385 311.07C66.1943 311.275 66.3153 311.444 66.4015 311.577H66.5009V307.818H67.6742V318H66.5407V316.827H66.4015C66.3153 316.966 66.1926 317.142 66.0336 317.354C65.8745 317.562 65.6474 317.75 65.3525 317.915C65.0575 318.078 64.6647 318.159 64.1742 318.159ZM64.3333 317.105C64.8039 317.105 65.2016 316.982 65.5265 316.737C65.8513 316.489 66.0982 316.146 66.2672 315.708C66.4363 315.267 66.5208 314.759 66.5208 314.182C66.5208 313.612 66.4379 313.113 66.2722 312.685C66.1065 312.254 65.8612 311.92 65.5364 311.681C65.2116 311.439 64.8105 311.318 64.3333 311.318C63.8361 311.318 63.4218 311.446 63.0904 311.701C62.7623 311.953 62.5153 312.296 62.3496 312.73C62.1872 313.161 62.106 313.645 62.106 314.182C62.106 314.725 62.1889 315.219 62.3546 315.663C62.5236 316.104 62.7722 316.455 63.1003 316.717C63.4318 316.976 63.8427 317.105 64.3333 317.105ZM74.7985 314.878V310.364H75.9718V318H74.7985V316.707H74.7189C74.54 317.095 74.2615 317.425 73.8837 317.697C73.5059 317.965 73.0286 318.099 72.4519 318.099C71.9746 318.099 71.5504 317.995 71.1792 317.786C70.8079 317.574 70.5163 317.256 70.3042 316.832C70.092 316.404 69.986 315.866 69.986 315.216V310.364H71.1593V315.136C71.1593 315.693 71.315 316.137 71.6266 316.469C71.9415 316.8 72.3425 316.966 72.8297 316.966C73.1214 316.966 73.418 316.891 73.7196 316.742C74.0246 316.593 74.2798 316.364 74.4853 316.056C74.6941 315.748 74.7985 315.355 74.7985 314.878ZM81.223 318.159C80.5071 318.159 79.8906 317.99 79.3736 317.652C78.8565 317.314 78.4588 316.848 78.1804 316.255C77.902 315.662 77.7628 314.984 77.7628 314.222C77.7628 313.446 77.9053 312.762 78.1903 312.168C78.4787 311.572 78.8797 311.106 79.3935 310.771C79.9105 310.433 80.5137 310.264 81.2031 310.264C81.7401 310.264 82.224 310.364 82.6548 310.562C83.0857 310.761 83.4387 311.04 83.7138 311.398C83.9889 311.756 84.1596 312.173 84.2259 312.651H83.0526C82.9631 312.303 82.7642 311.994 82.456 311.726C82.151 311.454 81.7401 311.318 81.223 311.318C80.7656 311.318 80.3646 311.437 80.0199 311.676C79.6785 311.911 79.4117 312.245 79.2195 312.675C79.0305 313.103 78.9361 313.605 78.9361 314.182C78.9361 314.772 79.0289 315.286 79.2145 315.723C79.4034 316.161 79.6686 316.5 80.0099 316.742C80.3546 316.984 80.759 317.105 81.223 317.105C81.5279 317.105 81.8047 317.052 82.0533 316.946C82.3018 316.84 82.5123 316.688 82.6847 316.489C82.857 316.29 82.9796 316.051 83.0526 315.773H84.2259C84.1596 316.223 83.9955 316.629 83.7337 316.991C83.4751 317.349 83.1321 317.634 82.7045 317.846C82.2803 318.055 81.7865 318.159 81.223 318.159ZM89.2621 310.364V311.358H85.3047V310.364H89.2621ZM86.4581 308.534H87.6314V315.812C87.6314 316.144 87.6795 316.393 87.7756 316.558C87.875 316.721 88.0009 316.83 88.1534 316.886C88.3092 316.939 88.4732 316.966 88.6456 316.966C88.7749 316.966 88.8809 316.959 88.9638 316.946C89.0466 316.929 89.1129 316.916 89.1626 316.906L89.4013 317.96C89.3217 317.99 89.2107 318.02 89.0682 318.05C88.9257 318.083 88.745 318.099 88.5263 318.099C88.1948 318.099 87.87 318.028 87.5518 317.886C87.237 317.743 86.9751 317.526 86.7663 317.234C86.5608 316.943 86.4581 316.575 86.4581 316.131V308.534ZM95.1236 318V307.818H96.3565V316.906H101.089V318H95.1236ZM102.839 318V310.364H104.013V318H102.839ZM103.436 309.091C103.207 309.091 103.01 309.013 102.844 308.857C102.682 308.701 102.601 308.514 102.601 308.295C102.601 308.077 102.682 307.889 102.844 307.734C103.01 307.578 103.207 307.5 103.436 307.5C103.665 307.5 103.86 307.578 104.023 307.734C104.188 307.889 104.271 308.077 104.271 308.295C104.271 308.514 104.188 308.701 104.023 308.857C103.86 309.013 103.665 309.091 103.436 309.091ZM107.335 313.406V318H106.162V310.364H107.295V311.557H107.395C107.574 311.169 107.845 310.857 108.21 310.622C108.575 310.384 109.045 310.264 109.622 310.264C110.139 310.264 110.591 310.37 110.979 310.582C111.367 310.791 111.669 311.109 111.884 311.537C112.099 311.961 112.207 312.498 112.207 313.148V318H111.034V313.227C111.034 312.627 110.878 312.16 110.567 311.825C110.255 311.487 109.827 311.318 109.284 311.318C108.909 311.318 108.575 311.399 108.28 311.562C107.988 311.724 107.758 311.961 107.589 312.273C107.42 312.584 107.335 312.962 107.335 313.406ZM115.445 315.216L115.425 313.764H115.664L119.005 310.364H120.456L116.897 313.963H116.797L115.445 315.216ZM114.351 318V307.818H115.525V318H114.351ZM119.203 318L116.221 314.222L117.056 313.406L120.695 318H119.203Z" fill="black"/>
<rect x="38.5" y="643.5" width="335" height="45" rx="4.5" stroke="black"/>
<path d="M42.375 627H39.233V616.818H42.5142C43.5019 616.818 44.3471 617.022 45.0497 617.43C45.7524 617.834 46.291 618.416 46.6655 619.175C47.04 619.93 47.2273 620.835 47.2273 621.889C47.2273 622.95 47.0384 623.863 46.6605 624.629C46.2827 625.391 45.7325 625.978 45.0099 626.388C44.2874 626.796 43.4091 627 42.375 627ZM40.4659 625.906H42.2955C43.1373 625.906 43.835 625.744 44.3885 625.419C44.942 625.094 45.3546 624.632 45.6264 624.032C45.8982 623.432 46.0341 622.718 46.0341 621.889C46.0341 621.067 45.8999 620.36 45.6314 619.766C45.3629 619.17 44.9619 618.712 44.4283 618.394C43.8946 618.073 43.2301 617.912 42.4347 617.912H40.4659V625.906ZM49.1364 627V619.364H50.3097V627H49.1364ZM49.733 618.091C49.5043 618.091 49.3071 618.013 49.1413 617.857C48.9789 617.701 48.8977 617.514 48.8977 617.295C48.8977 617.077 48.9789 616.889 49.1413 616.734C49.3071 616.578 49.5043 616.5 49.733 616.5C49.9616 616.5 50.1572 616.578 50.3196 616.734C50.4853 616.889 50.5682 617.077 50.5682 617.295C50.5682 617.514 50.4853 617.701 50.3196 617.857C50.1572 618.013 49.9616 618.091 49.733 618.091ZM57.8677 621.074L56.8137 621.372C56.7475 621.196 56.6497 621.026 56.5204 620.86C56.3945 620.691 56.2221 620.552 56.0034 620.442C55.7846 620.333 55.5046 620.278 55.1632 620.278C54.6958 620.278 54.3064 620.386 53.9949 620.602C53.6866 620.814 53.5325 621.084 53.5325 621.412C53.5325 621.704 53.6386 621.934 53.8507 622.103C54.0628 622.272 54.3942 622.413 54.845 622.526L55.9785 622.804C56.6613 622.97 57.17 623.223 57.5048 623.565C57.8395 623.903 58.0069 624.339 58.0069 624.872C58.0069 625.31 57.881 625.701 57.6291 626.045C57.3805 626.39 57.0325 626.662 56.585 626.861C56.1376 627.06 55.6172 627.159 55.024 627.159C54.2451 627.159 53.6004 626.99 53.09 626.652C52.5796 626.314 52.2565 625.82 52.1206 625.17L53.2342 624.892C53.3403 625.303 53.5408 625.611 53.8358 625.817C54.1341 626.022 54.5235 626.125 55.0041 626.125C55.551 626.125 55.9851 626.009 56.3066 625.777C56.6315 625.542 56.7939 625.26 56.7939 624.932C56.7939 624.667 56.7011 624.445 56.5154 624.266C56.3298 624.083 56.0448 623.947 55.6603 623.858L54.3876 623.56C53.6883 623.394 53.1745 623.137 52.8464 622.789C52.5216 622.438 52.3592 621.999 52.3592 621.472C52.3592 621.041 52.4802 620.66 52.7221 620.328C52.9674 619.997 53.3005 619.737 53.7214 619.548C54.1457 619.359 54.6262 619.264 55.1632 619.264C55.9189 619.264 56.5121 619.43 56.943 619.761C57.3772 620.093 57.6854 620.53 57.8677 621.074ZM62.8754 627.159C62.1594 627.159 61.543 626.99 61.0259 626.652C60.5089 626.314 60.1112 625.848 59.8327 625.255C59.5543 624.662 59.4151 623.984 59.4151 623.222C59.4151 622.446 59.5576 621.762 59.8427 621.168C60.131 620.572 60.5321 620.106 61.0458 619.771C61.5629 619.433 62.1661 619.264 62.8555 619.264C63.3924 619.264 63.8763 619.364 64.3072 619.562C64.738 619.761 65.091 620.04 65.3661 620.398C65.6412 620.756 65.8119 621.173 65.8782 621.651H64.7049C64.6154 621.303 64.4165 620.994 64.1083 620.726C63.8034 620.454 63.3924 620.318 62.8754 620.318C62.418 620.318 62.0169 620.437 61.6722 620.676C61.3308 620.911 61.064 621.245 60.8718 621.675C60.6829 622.103 60.5884 622.605 60.5884 623.182C60.5884 623.772 60.6812 624.286 60.8668 624.723C61.0558 625.161 61.3209 625.5 61.6623 625.742C62.007 625.984 62.4113 626.105 62.8754 626.105C63.1803 626.105 63.457 626.052 63.7056 625.946C63.9542 625.84 64.1647 625.688 64.337 625.489C64.5094 625.29 64.632 625.051 64.7049 624.773H65.8782C65.8119 625.223 65.6478 625.629 65.386 625.991C65.1275 626.349 64.7844 626.634 64.3569 626.846C63.9326 627.055 63.4388 627.159 62.8754 627.159ZM70.6957 627.159C70.0063 627.159 69.4014 626.995 68.881 626.667C68.364 626.339 67.9596 625.88 67.668 625.29C67.3796 624.7 67.2354 624.01 67.2354 623.222C67.2354 622.426 67.3796 621.732 67.668 621.138C67.9596 620.545 68.364 620.085 68.881 619.756C69.4014 619.428 70.0063 619.264 70.6957 619.264C71.3851 619.264 71.9883 619.428 72.5053 619.756C73.0257 620.085 73.43 620.545 73.7184 621.138C74.0101 621.732 74.1559 622.426 74.1559 623.222C74.1559 624.01 74.0101 624.7 73.7184 625.29C73.43 625.88 73.0257 626.339 72.5053 626.667C71.9883 626.995 71.3851 627.159 70.6957 627.159ZM70.6957 626.105C71.2193 626.105 71.6502 625.971 71.9883 625.702C72.3263 625.434 72.5766 625.081 72.739 624.643C72.9014 624.206 72.9826 623.732 72.9826 623.222C72.9826 622.711 72.9014 622.236 72.739 621.795C72.5766 621.354 72.3263 620.998 71.9883 620.726C71.6502 620.454 71.2193 620.318 70.6957 620.318C70.172 620.318 69.7411 620.454 69.4031 620.726C69.065 620.998 68.8147 621.354 68.6523 621.795C68.4899 622.236 68.4087 622.711 68.4087 623.222C68.4087 623.732 68.4899 624.206 68.6523 624.643C68.8147 625.081 69.065 625.434 69.4031 625.702C69.7411 625.971 70.172 626.105 70.6957 626.105ZM80.7594 623.878V619.364H81.9327V627H80.7594V625.707H80.6799C80.5009 626.095 80.2225 626.425 79.8446 626.697C79.4668 626.965 78.9895 627.099 78.4128 627.099C77.9355 627.099 77.5113 626.995 77.1401 626.786C76.7689 626.574 76.4772 626.256 76.2651 625.832C76.053 625.404 75.9469 624.866 75.9469 624.216V619.364H77.1202V624.136C77.1202 624.693 77.276 625.137 77.5875 625.469C77.9024 625.8 78.3034 625.966 78.7907 625.966C79.0823 625.966 79.379 625.891 79.6806 625.742C79.9855 625.593 80.2407 625.364 80.4462 625.056C80.655 624.748 80.7594 624.355 80.7594 623.878ZM85.255 622.406V627H84.0817V619.364H85.2152V620.557H85.3146C85.4936 620.169 85.7654 619.857 86.13 619.622C86.4946 619.384 86.9652 619.264 87.5419 619.264C88.0589 619.264 88.5114 619.37 88.8991 619.582C89.2869 619.791 89.5885 620.109 89.804 620.537C90.0194 620.961 90.1271 621.498 90.1271 622.148V627H88.9538V622.227C88.9538 621.627 88.7981 621.16 88.4865 620.825C88.175 620.487 87.7474 620.318 87.2038 620.318C86.8293 620.318 86.4946 620.399 86.1996 620.562C85.9079 620.724 85.6776 620.961 85.5085 621.273C85.3395 621.584 85.255 621.962 85.255 622.406ZM95.5922 619.364V620.358H91.6348V619.364H95.5922ZM92.7882 617.534H93.9615V624.812C93.9615 625.144 94.0095 625.393 94.1056 625.558C94.2051 625.721 94.331 625.83 94.4835 625.886C94.6393 625.939 94.8033 625.966 94.9757 625.966C95.1049 625.966 95.211 625.959 95.2939 625.946C95.3767 625.929 95.443 625.916 95.4927 625.906L95.7314 626.96C95.6518 626.99 95.5408 627.02 95.3983 627.05C95.2557 627.083 95.0751 627.099 94.8564 627.099C94.5249 627.099 94.2001 627.028 93.8819 626.886C93.5671 626.743 93.3052 626.526 93.0964 626.234C92.8909 625.943 92.7882 625.575 92.7882 625.131V617.534ZM109.647 620H108.414C108.341 619.645 108.213 619.334 108.031 619.065C107.852 618.797 107.633 618.571 107.375 618.389C107.12 618.204 106.836 618.064 106.525 617.972C106.213 617.879 105.888 617.832 105.55 617.832C104.934 617.832 104.375 617.988 103.875 618.3C103.378 618.611 102.982 619.07 102.687 619.677C102.395 620.283 102.249 621.027 102.249 621.909C102.249 622.791 102.395 623.535 102.687 624.141C102.982 624.748 103.378 625.207 103.875 625.518C104.375 625.83 104.934 625.986 105.55 625.986C105.888 625.986 106.213 625.939 106.525 625.847C106.836 625.754 107.12 625.616 107.375 625.434C107.633 625.248 107.852 625.021 108.031 624.753C108.213 624.481 108.341 624.17 108.414 623.818H109.647C109.554 624.339 109.385 624.804 109.14 625.215C108.894 625.626 108.59 625.976 108.225 626.264C107.86 626.549 107.451 626.766 106.997 626.915C106.546 627.065 106.064 627.139 105.55 627.139C104.682 627.139 103.91 626.927 103.233 626.503C102.557 626.079 102.025 625.475 101.638 624.693C101.25 623.911 101.056 622.983 101.056 621.909C101.056 620.835 101.25 619.907 101.638 619.125C102.025 618.343 102.557 617.74 103.233 617.315C103.91 616.891 104.682 616.679 105.55 616.679C106.064 616.679 106.546 616.754 106.997 616.903C107.451 617.052 107.86 617.271 108.225 617.559C108.59 617.844 108.894 618.192 109.14 618.603C109.385 619.011 109.554 619.476 109.647 620ZM114.582 627.159C113.893 627.159 113.288 626.995 112.768 626.667C112.251 626.339 111.846 625.88 111.555 625.29C111.266 624.7 111.122 624.01 111.122 623.222C111.122 622.426 111.266 621.732 111.555 621.138C111.846 620.545 112.251 620.085 112.768 619.756C113.288 619.428 113.893 619.264 114.582 619.264C115.272 619.264 115.875 619.428 116.392 619.756C116.912 620.085 117.317 620.545 117.605 621.138C117.897 621.732 118.043 622.426 118.043 623.222C118.043 624.01 117.897 624.7 117.605 625.29C117.317 625.88 116.912 626.339 116.392 626.667C115.875 626.995 115.272 627.159 114.582 627.159ZM114.582 626.105C115.106 626.105 115.537 625.971 115.875 625.702C116.213 625.434 116.463 625.081 116.626 624.643C116.788 624.206 116.869 623.732 116.869 623.222C116.869 622.711 116.788 622.236 116.626 621.795C116.463 621.354 116.213 620.998 115.875 620.726C115.537 620.454 115.106 620.318 114.582 620.318C114.059 620.318 113.628 620.454 113.29 620.726C112.952 620.998 112.701 621.354 112.539 621.795C112.377 622.236 112.295 622.711 112.295 623.222C112.295 623.732 112.377 624.206 112.539 624.643C112.701 625.081 112.952 625.434 113.29 625.702C113.628 625.971 114.059 626.105 114.582 626.105ZM122.717 627.159C122.081 627.159 121.519 626.998 121.032 626.677C120.545 626.352 120.163 625.895 119.888 625.305C119.613 624.711 119.476 624.01 119.476 623.202C119.476 622.4 119.613 621.704 119.888 621.114C120.163 620.524 120.546 620.068 121.037 619.746C121.527 619.425 122.094 619.264 122.737 619.264C123.234 619.264 123.627 619.347 123.915 619.513C124.207 619.675 124.429 619.861 124.581 620.07C124.737 620.275 124.858 620.444 124.944 620.577H125.044V616.818H126.217V627H125.084V625.827H124.944C124.858 625.966 124.736 626.142 124.577 626.354C124.417 626.562 124.19 626.75 123.895 626.915C123.6 627.078 123.208 627.159 122.717 627.159ZM122.876 626.105C123.347 626.105 123.745 625.982 124.069 625.737C124.394 625.489 124.641 625.146 124.81 624.708C124.979 624.267 125.064 623.759 125.064 623.182C125.064 622.612 124.981 622.113 124.815 621.685C124.649 621.254 124.404 620.92 124.079 620.681C123.755 620.439 123.354 620.318 122.876 620.318C122.379 620.318 121.965 620.446 121.633 620.701C121.305 620.953 121.058 621.296 120.893 621.73C120.73 622.161 120.649 622.645 120.649 623.182C120.649 623.725 120.732 624.219 120.898 624.663C121.067 625.104 121.315 625.455 121.643 625.717C121.975 625.976 122.386 626.105 122.876 626.105ZM131.731 627.159C130.995 627.159 130.36 626.997 129.827 626.672C129.296 626.344 128.887 625.886 128.599 625.3C128.314 624.71 128.171 624.024 128.171 623.241C128.171 622.459 128.314 621.77 128.599 621.173C128.887 620.573 129.288 620.106 129.802 619.771C130.319 619.433 130.922 619.264 131.611 619.264C132.009 619.264 132.402 619.33 132.79 619.463C133.177 619.596 133.53 619.811 133.849 620.109C134.167 620.404 134.42 620.795 134.609 621.283C134.798 621.77 134.893 622.37 134.893 623.082V623.58H129.006V622.565H133.699C133.699 622.134 133.613 621.75 133.441 621.412C133.272 621.074 133.03 620.807 132.715 620.612C132.403 620.416 132.036 620.318 131.611 620.318C131.144 620.318 130.74 620.434 130.398 620.666C130.06 620.895 129.8 621.193 129.618 621.561C129.435 621.929 129.344 622.323 129.344 622.744V623.42C129.344 623.997 129.444 624.486 129.643 624.887C129.845 625.285 130.125 625.588 130.483 625.797C130.841 626.002 131.257 626.105 131.731 626.105C132.039 626.105 132.317 626.062 132.566 625.976C132.818 625.886 133.035 625.754 133.217 625.578C133.399 625.399 133.54 625.177 133.64 624.912L134.773 625.23C134.654 625.615 134.453 625.953 134.172 626.244C133.89 626.533 133.542 626.758 133.128 626.92C132.713 627.08 132.248 627.159 131.731 627.159Z" fill="black"/>
<rect width="127" height="127" transform="translate(38 461)" fill="#D9D9D9"/>
<path d="M64.4584 476.875H133.25C137.46 476.875 141.498 478.548 144.475 481.525C147.452 484.502 149.125 488.54 149.125 492.75V561.542C149.125 565.752 147.452 569.79 144.475 572.767C141.498 575.744 137.46 577.417 133.25 577.417H64.4584C60.2481 577.417 56.2102 575.744 53.2331 572.767C50.2559 569.79 48.5834 565.752 48.5834 561.542V492.75C48.5834 488.54 50.2559 484.502 53.2331 481.525C56.2102 478.548 60.2481 476.875 64.4584 476.875ZM64.4584 482.167C61.6515 482.167 58.9596 483.282 56.9748 485.266C54.9901 487.251 53.875 489.943 53.875 492.75V554.08L76.5763 531.326L89.8055 544.555L116.264 518.097L143.833 545.667V492.75C143.833 489.943 142.718 487.251 140.734 485.266C138.749 483.282 136.057 482.167 133.25 482.167H64.4584ZM89.8055 552.07L76.5763 538.84L53.875 561.542C53.875 564.349 54.9901 567.04 56.9748 569.025C58.9596 571.01 61.6515 572.125 64.4584 572.125H133.25C136.057 572.125 138.749 571.01 140.734 569.025C142.718 567.04 143.833 564.349 143.833 561.542V553.128L116.264 525.611L89.8055 552.07ZM77.6875 492.75C81.1961 492.75 84.561 494.144 87.042 496.625C89.5229 499.106 90.9167 502.471 90.9167 505.979C90.9167 509.488 89.5229 512.853 87.042 515.334C84.561 517.815 81.1961 519.208 77.6875 519.208C74.1789 519.208 70.8141 517.815 68.3331 515.334C65.8522 512.853 64.4584 509.488 64.4584 505.979C64.4584 502.471 65.8522 499.106 68.3331 496.625C70.8141 494.144 74.1789 492.75 77.6875 492.75ZM77.6875 498.042C75.5824 498.042 73.5634 498.878 72.0749 500.367C70.5863 501.855 69.75 503.874 69.75 505.979C69.75 508.084 70.5863 510.103 72.0749 511.592C73.5634 513.08 75.5824 513.917 77.6875 513.917C79.7927 513.917 81.8116 513.08 83.3002 511.592C84.7888 510.103 85.625 508.084 85.625 505.979C85.625 503.874 84.7888 501.855 83.3002 500.367C81.8116 498.878 79.7927 498.042 77.6875 498.042Z" fill="black"/>
<path d="M45.9148 414.818H47.1477V421.56C47.1477 422.256 46.9837 422.877 46.6555 423.424C46.3307 423.968 45.8717 424.397 45.2784 424.712C44.6851 425.023 43.9891 425.179 43.1903 425.179C42.3916 425.179 41.6955 425.023 41.1023 424.712C40.509 424.397 40.0483 423.968 39.7202 423.424C39.3954 422.877 39.233 422.256 39.233 421.56V414.818H40.4659V421.46C40.4659 421.957 40.5753 422.4 40.794 422.788C41.0128 423.172 41.3243 423.475 41.7287 423.697C42.1364 423.916 42.6236 424.026 43.1903 424.026C43.7571 424.026 44.2443 423.916 44.652 423.697C45.0597 423.475 45.3712 423.172 45.5866 422.788C45.8054 422.4 45.9148 421.957 45.9148 421.46V414.818ZM49.4508 427.864V417.364H50.5843V418.577H50.7235C50.8097 418.444 50.929 418.275 51.0815 418.07C51.2373 417.861 51.4593 417.675 51.7477 417.513C52.0394 417.347 52.4338 417.264 52.9309 417.264C53.5739 417.264 54.1407 417.425 54.6312 417.746C55.1217 418.068 55.5046 418.524 55.7797 419.114C56.0547 419.704 56.1923 420.4 56.1923 421.202C56.1923 422.01 56.0547 422.711 55.7797 423.305C55.5046 423.895 55.1234 424.352 54.6362 424.677C54.149 424.998 53.5872 425.159 52.9508 425.159C52.4603 425.159 52.0675 425.078 51.7725 424.915C51.4776 424.75 51.2505 424.562 51.0914 424.354C50.9324 424.142 50.8097 423.966 50.7235 423.827H50.6241V427.864H49.4508ZM50.6042 421.182C50.6042 421.759 50.6887 422.267 50.8578 422.708C51.0268 423.146 51.2737 423.489 51.5985 423.737C51.9234 423.982 52.3211 424.105 52.7917 424.105C53.2823 424.105 53.6916 423.976 54.0197 423.717C54.3511 423.455 54.5997 423.104 54.7654 422.663C54.9345 422.219 55.019 421.725 55.019 421.182C55.019 420.645 54.9361 420.161 54.7704 419.73C54.608 419.296 54.3611 418.953 54.0297 418.701C53.7015 418.446 53.2889 418.318 52.7917 418.318C52.3145 418.318 51.9134 418.439 51.5886 418.681C51.2638 418.92 51.0185 419.254 50.8528 419.685C50.6871 420.113 50.6042 420.612 50.6042 421.182ZM59.1554 414.818V425H57.9821V414.818H59.1554ZM64.4066 425.159C63.7172 425.159 63.1123 424.995 62.592 424.667C62.0749 424.339 61.6706 423.88 61.3789 423.29C61.0906 422.7 60.9464 422.01 60.9464 421.222C60.9464 420.426 61.0906 419.732 61.3789 419.138C61.6706 418.545 62.0749 418.085 62.592 417.756C63.1123 417.428 63.7172 417.264 64.4066 417.264C65.096 417.264 65.6992 417.428 66.2163 417.756C66.7366 418.085 67.141 418.545 67.4293 419.138C67.721 419.732 67.8668 420.426 67.8668 421.222C67.8668 422.01 67.721 422.7 67.4293 423.29C67.141 423.88 66.7366 424.339 66.2163 424.667C65.6992 424.995 65.096 425.159 64.4066 425.159ZM64.4066 424.105C64.9303 424.105 65.3612 423.971 65.6992 423.702C66.0373 423.434 66.2875 423.081 66.4499 422.643C66.6123 422.206 66.6935 421.732 66.6935 421.222C66.6935 420.711 66.6123 420.236 66.4499 419.795C66.2875 419.354 66.0373 418.998 65.6992 418.726C65.3612 418.454 64.9303 418.318 64.4066 418.318C63.8829 418.318 63.4521 418.454 63.114 418.726C62.7759 418.998 62.5257 419.354 62.3633 419.795C62.2009 420.236 62.1197 420.711 62.1197 421.222C62.1197 421.732 62.2009 422.206 62.3633 422.643C62.5257 423.081 62.7759 423.434 63.114 423.702C63.4521 423.971 63.8829 424.105 64.4066 424.105ZM71.905 425.179C71.4211 425.179 70.9819 425.088 70.5875 424.906C70.1931 424.72 69.8799 424.453 69.6479 424.105C69.4159 423.754 69.2999 423.33 69.2999 422.832C69.2999 422.395 69.3861 422.04 69.5584 421.768C69.7308 421.493 69.9611 421.278 70.2495 421.122C70.5378 420.966 70.856 420.85 71.204 420.774C71.5553 420.695 71.9083 420.632 72.263 420.585C72.727 420.526 73.1032 420.481 73.3915 420.451C73.6832 420.418 73.8953 420.363 74.0279 420.287C74.1638 420.211 74.2317 420.078 74.2317 419.889V419.849C74.2317 419.359 74.0975 418.978 73.829 418.706C73.5639 418.434 73.1612 418.298 72.6209 418.298C72.0608 418.298 71.6216 418.421 71.3034 418.666C70.9853 418.911 70.7615 419.173 70.6323 419.452L69.5186 419.054C69.7175 418.59 69.9827 418.229 70.3141 417.97C70.6489 417.708 71.0134 417.526 71.4078 417.423C71.8056 417.317 72.1967 417.264 72.5811 417.264C72.8264 417.264 73.1081 417.294 73.4263 417.354C73.7478 417.41 74.0577 417.528 74.356 417.707C74.6576 417.886 74.9078 418.156 75.1067 418.517C75.3056 418.878 75.405 419.362 75.405 419.969V425H74.2317V423.966H74.1721C74.0925 424.132 73.9599 424.309 73.7743 424.498C73.5887 424.687 73.3418 424.848 73.0336 424.98C72.7253 425.113 72.3491 425.179 71.905 425.179ZM72.084 424.125C72.548 424.125 72.9391 424.034 73.2573 423.852C73.5788 423.669 73.8207 423.434 73.9831 423.146C74.1489 422.857 74.2317 422.554 74.2317 422.236V421.162C74.182 421.222 74.0726 421.276 73.9036 421.326C73.7379 421.372 73.5456 421.414 73.3269 421.45C73.1114 421.483 72.901 421.513 72.6955 421.54C72.4933 421.563 72.3292 421.583 72.2033 421.599C71.8984 421.639 71.6133 421.704 71.3482 421.793C71.0864 421.879 70.8742 422.01 70.7118 422.186C70.5527 422.358 70.4732 422.594 70.4732 422.892C70.4732 423.3 70.624 423.608 70.9256 423.817C71.2305 424.022 71.6167 424.125 72.084 424.125ZM80.43 425.159C79.7937 425.159 79.2319 424.998 78.7447 424.677C78.2575 424.352 77.8763 423.895 77.6012 423.305C77.3261 422.711 77.1886 422.01 77.1886 421.202C77.1886 420.4 77.3261 419.704 77.6012 419.114C77.8763 418.524 78.2591 418.068 78.7496 417.746C79.2402 417.425 79.8069 417.264 80.4499 417.264C80.9471 417.264 81.3398 417.347 81.6282 417.513C81.9199 417.675 82.1419 417.861 82.2944 418.07C82.4502 418.275 82.5711 418.444 82.6573 418.577H82.7567V414.818H83.93V425H82.7965V423.827H82.6573C82.5711 423.966 82.4485 424.142 82.2894 424.354C82.1303 424.562 81.9033 424.75 81.6083 424.915C81.3133 425.078 80.9206 425.159 80.43 425.159ZM80.5891 424.105C81.0598 424.105 81.4575 423.982 81.7823 423.737C82.1071 423.489 82.354 423.146 82.5231 422.708C82.6921 422.267 82.7766 421.759 82.7766 421.182C82.7766 420.612 82.6938 420.113 82.5281 419.685C82.3623 419.254 82.1171 418.92 81.7923 418.681C81.4674 418.439 81.0664 418.318 80.5891 418.318C80.092 418.318 79.6777 418.446 79.3462 418.701C79.0181 418.953 78.7712 419.296 78.6055 419.73C78.4431 420.161 78.3619 420.645 78.3619 421.182C78.3619 421.725 78.4447 422.219 78.6104 422.663C78.7795 423.104 79.0281 423.455 79.3562 423.717C79.6876 423.976 80.0986 424.105 80.5891 424.105ZM90.3384 425V414.818H93.7788C94.5775 414.818 95.2305 414.962 95.7376 415.251C96.248 415.536 96.6258 415.922 96.8711 416.409C97.1164 416.896 97.239 417.44 97.239 418.04C97.239 418.64 97.1164 419.185 96.8711 419.675C96.6291 420.166 96.2546 420.557 95.7475 420.849C95.2404 421.137 94.5908 421.281 93.7987 421.281H91.3327V420.188H93.7589C94.3058 420.188 94.7449 420.093 95.0763 419.904C95.4078 419.715 95.6481 419.46 95.7972 419.138C95.9497 418.814 96.0259 418.447 96.0259 418.04C96.0259 417.632 95.9497 417.268 95.7972 416.946C95.6481 416.625 95.4061 416.373 95.0714 416.19C94.7366 416.005 94.2925 415.912 93.739 415.912H91.5714V425H90.3384ZM99.0661 425V417.364H100.2V418.517H100.279C100.418 418.139 100.67 417.833 101.035 417.597C101.399 417.362 101.81 417.244 102.268 417.244C102.354 417.244 102.462 417.246 102.591 417.249C102.72 417.253 102.818 417.258 102.884 417.264V418.457C102.844 418.447 102.753 418.433 102.611 418.413C102.472 418.389 102.324 418.378 102.168 418.378C101.797 418.378 101.466 418.456 101.174 418.612C100.886 418.764 100.657 418.976 100.488 419.248C100.322 419.516 100.239 419.823 100.239 420.168V425H99.0661ZM107.145 425.159C106.455 425.159 105.851 424.995 105.33 424.667C104.813 424.339 104.409 423.88 104.117 423.29C103.829 422.7 103.685 422.01 103.685 421.222C103.685 420.426 103.829 419.732 104.117 419.138C104.409 418.545 104.813 418.085 105.33 417.756C105.851 417.428 106.455 417.264 107.145 417.264C107.834 417.264 108.438 417.428 108.955 417.756C109.475 418.085 109.879 418.545 110.168 419.138C110.459 419.732 110.605 420.426 110.605 421.222C110.605 422.01 110.459 422.7 110.168 423.29C109.879 423.88 109.475 424.339 108.955 424.667C108.438 424.995 107.834 425.159 107.145 425.159ZM107.145 424.105C107.669 424.105 108.099 423.971 108.438 423.702C108.776 423.434 109.026 423.081 109.188 422.643C109.351 422.206 109.432 421.732 109.432 421.222C109.432 420.711 109.351 420.236 109.188 419.795C109.026 419.354 108.776 418.998 108.438 418.726C108.099 418.454 107.669 418.318 107.145 418.318C106.621 418.318 106.19 418.454 105.852 418.726C105.514 418.998 105.264 419.354 105.102 419.795C104.939 420.236 104.858 420.711 104.858 421.222C104.858 421.732 104.939 422.206 105.102 422.643C105.264 423.081 105.514 423.434 105.852 423.702C106.19 423.971 106.621 424.105 107.145 424.105ZM115.28 425.159C114.643 425.159 114.081 424.998 113.594 424.677C113.107 424.352 112.726 423.895 112.451 423.305C112.176 422.711 112.038 422.01 112.038 421.202C112.038 420.4 112.176 419.704 112.451 419.114C112.726 418.524 113.109 418.068 113.599 417.746C114.09 417.425 114.657 417.264 115.3 417.264C115.797 417.264 116.189 417.347 116.478 417.513C116.769 417.675 116.992 417.861 117.144 418.07C117.3 418.275 117.421 418.444 117.507 418.577H117.606V414.818H118.78V425H117.646V423.827H117.507C117.421 423.966 117.298 424.142 117.139 424.354C116.98 424.562 116.753 424.75 116.458 424.915C116.163 425.078 115.77 425.159 115.28 425.159ZM115.439 424.105C115.909 424.105 116.307 423.982 116.632 423.737C116.957 423.489 117.204 423.146 117.373 422.708C117.542 422.267 117.626 421.759 117.626 421.182C117.626 420.612 117.543 420.113 117.378 419.685C117.212 419.254 116.967 418.92 116.642 418.681C116.317 418.439 115.916 418.318 115.439 418.318C114.942 418.318 114.527 418.446 114.196 418.701C113.868 418.953 113.621 419.296 113.455 419.73C113.293 420.161 113.211 420.645 113.211 421.182C113.211 421.725 113.294 422.219 113.46 422.663C113.629 423.104 113.878 423.455 114.206 423.717C114.537 423.976 114.948 424.105 115.439 424.105ZM125.904 421.878V417.364H127.077V425H125.904V423.707H125.824C125.645 424.095 125.367 424.425 124.989 424.697C124.611 424.965 124.134 425.099 123.557 425.099C123.08 425.099 122.656 424.995 122.285 424.786C121.913 424.574 121.622 424.256 121.41 423.832C121.198 423.404 121.091 422.866 121.091 422.216V417.364H122.265V422.136C122.265 422.693 122.421 423.137 122.732 423.469C123.047 423.8 123.448 423.966 123.935 423.966C124.227 423.966 124.523 423.891 124.825 423.742C125.13 423.593 125.385 423.364 125.591 423.056C125.8 422.748 125.904 422.355 125.904 421.878ZM132.328 425.159C131.613 425.159 130.996 424.99 130.479 424.652C129.962 424.314 129.564 423.848 129.286 423.255C129.007 422.662 128.868 421.984 128.868 421.222C128.868 420.446 129.011 419.762 129.296 419.168C129.584 418.572 129.985 418.106 130.499 417.771C131.016 417.433 131.619 417.264 132.309 417.264C132.846 417.264 133.329 417.364 133.76 417.562C134.191 417.761 134.544 418.04 134.819 418.398C135.094 418.756 135.265 419.173 135.331 419.651H134.158C134.069 419.303 133.87 418.994 133.561 418.726C133.257 418.454 132.846 418.318 132.328 418.318C131.871 418.318 131.47 418.437 131.125 418.676C130.784 418.911 130.517 419.245 130.325 419.675C130.136 420.103 130.042 420.605 130.042 421.182C130.042 421.772 130.134 422.286 130.32 422.723C130.509 423.161 130.774 423.5 131.115 423.742C131.46 423.984 131.864 424.105 132.328 424.105C132.633 424.105 132.91 424.052 133.159 423.946C133.407 423.84 133.618 423.688 133.79 423.489C133.962 423.29 134.085 423.051 134.158 422.773H135.331C135.265 423.223 135.101 423.629 134.839 423.991C134.581 424.349 134.238 424.634 133.81 424.846C133.386 425.055 132.892 425.159 132.328 425.159ZM140.368 417.364V418.358H136.41V417.364H140.368ZM137.564 415.534H138.737V422.812C138.737 423.144 138.785 423.393 138.881 423.558C138.98 423.721 139.106 423.83 139.259 423.886C139.415 423.939 139.579 423.966 139.751 423.966C139.88 423.966 139.986 423.959 140.069 423.946C140.152 423.929 140.218 423.916 140.268 423.906L140.507 424.96C140.427 424.99 140.316 425.02 140.174 425.05C140.031 425.083 139.85 425.099 139.632 425.099C139.3 425.099 138.975 425.028 138.657 424.886C138.342 424.743 138.081 424.526 137.872 424.234C137.666 423.943 137.564 423.575 137.564 423.131V415.534ZM147.462 414.818V425H146.229V414.818H147.462ZM149.775 425V417.364H150.909V418.557H151.008C151.167 418.149 151.424 417.833 151.779 417.607C152.133 417.379 152.559 417.264 153.056 417.264C153.56 417.264 153.979 417.379 154.314 417.607C154.652 417.833 154.916 418.149 155.105 418.557H155.184C155.38 418.162 155.673 417.849 156.064 417.617C156.455 417.382 156.924 417.264 157.471 417.264C158.154 417.264 158.712 417.478 159.146 417.906C159.581 418.33 159.798 418.991 159.798 419.889V425H158.624V419.889C158.624 419.326 158.47 418.923 158.162 418.681C157.854 418.439 157.491 418.318 157.073 418.318C156.536 418.318 156.12 418.481 155.825 418.805C155.53 419.127 155.383 419.535 155.383 420.028V425H154.19V419.77C154.19 419.336 154.049 418.986 153.767 418.721C153.485 418.452 153.123 418.318 152.678 418.318C152.374 418.318 152.088 418.399 151.823 418.562C151.561 418.724 151.349 418.95 151.187 419.238C151.028 419.523 150.948 419.853 150.948 420.227V425H149.775ZM164.19 425.179C163.706 425.179 163.267 425.088 162.873 424.906C162.478 424.72 162.165 424.453 161.933 424.105C161.701 423.754 161.585 423.33 161.585 422.832C161.585 422.395 161.671 422.04 161.844 421.768C162.016 421.493 162.246 421.278 162.535 421.122C162.823 420.966 163.141 420.85 163.489 420.774C163.84 420.695 164.193 420.632 164.548 420.585C165.012 420.526 165.388 420.481 165.677 420.451C165.968 420.418 166.18 420.363 166.313 420.287C166.449 420.211 166.517 420.078 166.517 419.889V419.849C166.517 419.359 166.383 418.978 166.114 418.706C165.849 418.434 165.446 418.298 164.906 418.298C164.346 418.298 163.907 418.421 163.589 418.666C163.27 418.911 163.047 419.173 162.917 419.452L161.804 419.054C162.003 418.59 162.268 418.229 162.599 417.97C162.934 417.708 163.299 417.526 163.693 417.423C164.091 417.317 164.482 417.264 164.866 417.264C165.112 417.264 165.393 417.294 165.711 417.354C166.033 417.41 166.343 417.528 166.641 417.707C166.943 417.886 167.193 418.156 167.392 418.517C167.591 418.878 167.69 419.362 167.69 419.969V425H166.517V423.966H166.457C166.378 424.132 166.245 424.309 166.059 424.498C165.874 424.687 165.627 424.848 165.319 424.98C165.01 425.113 164.634 425.179 164.19 425.179ZM164.369 424.125C164.833 424.125 165.224 424.034 165.542 423.852C165.864 423.669 166.106 423.434 166.268 423.146C166.434 422.857 166.517 422.554 166.517 422.236V421.162C166.467 421.222 166.358 421.276 166.189 421.326C166.023 421.372 165.831 421.414 165.612 421.45C165.397 421.483 165.186 421.513 164.981 421.54C164.778 421.563 164.614 421.583 164.488 421.599C164.184 421.639 163.898 421.704 163.633 421.793C163.372 421.879 163.159 422.01 162.997 422.186C162.838 422.358 162.758 422.594 162.758 422.892C162.758 423.3 162.909 423.608 163.211 423.817C163.516 424.022 163.902 424.125 164.369 424.125ZM172.914 428.023C172.347 428.023 171.86 427.95 171.452 427.804C171.045 427.661 170.705 427.473 170.433 427.237C170.165 427.005 169.951 426.757 169.792 426.491L170.727 425.835C170.833 425.974 170.967 426.134 171.129 426.312C171.292 426.495 171.514 426.652 171.795 426.785C172.08 426.921 172.453 426.989 172.914 426.989C173.531 426.989 174.039 426.839 174.44 426.541C174.841 426.243 175.042 425.776 175.042 425.139V423.588H174.942C174.856 423.727 174.734 423.9 174.575 424.105C174.419 424.307 174.193 424.488 173.898 424.647C173.607 424.803 173.212 424.881 172.715 424.881C172.099 424.881 171.545 424.735 171.055 424.443C170.567 424.152 170.181 423.727 169.896 423.17C169.615 422.614 169.474 421.937 169.474 421.142C169.474 420.36 169.611 419.679 169.886 419.099C170.161 418.515 170.544 418.065 171.035 417.746C171.525 417.425 172.092 417.264 172.735 417.264C173.232 417.264 173.627 417.347 173.918 417.513C174.213 417.675 174.439 417.861 174.594 418.07C174.754 418.275 174.876 418.444 174.962 418.577H175.082V417.364H176.215V425.219C176.215 425.875 176.066 426.409 175.768 426.82C175.473 427.234 175.075 427.537 174.575 427.729C174.077 427.925 173.524 428.023 172.914 428.023ZM172.874 423.827C173.345 423.827 173.743 423.719 174.067 423.504C174.392 423.288 174.639 422.978 174.808 422.574C174.977 422.17 175.062 421.686 175.062 421.122C175.062 420.572 174.979 420.086 174.813 419.665C174.647 419.245 174.402 418.915 174.077 418.676C173.753 418.437 173.352 418.318 172.874 418.318C172.377 418.318 171.963 418.444 171.631 418.696C171.303 418.948 171.056 419.286 170.891 419.71C170.728 420.134 170.647 420.605 170.647 421.122C170.647 421.652 170.73 422.121 170.896 422.529C171.065 422.933 171.313 423.252 171.641 423.484C171.973 423.712 172.384 423.827 172.874 423.827ZM181.565 425.159C180.829 425.159 180.194 424.997 179.661 424.672C179.13 424.344 178.721 423.886 178.433 423.3C178.147 422.71 178.005 422.024 178.005 421.241C178.005 420.459 178.147 419.77 178.433 419.173C178.721 418.573 179.122 418.106 179.636 417.771C180.153 417.433 180.756 417.264 181.445 417.264C181.843 417.264 182.236 417.33 182.624 417.463C183.011 417.596 183.364 417.811 183.683 418.109C184.001 418.404 184.254 418.795 184.443 419.283C184.632 419.77 184.727 420.37 184.727 421.082V421.58H178.84V420.565H183.533C183.533 420.134 183.447 419.75 183.275 419.412C183.106 419.074 182.864 418.807 182.549 418.612C182.237 418.416 181.87 418.318 181.445 418.318C180.978 418.318 180.574 418.434 180.232 418.666C179.894 418.895 179.634 419.193 179.452 419.561C179.269 419.929 179.178 420.323 179.178 420.744V421.42C179.178 421.997 179.278 422.486 179.477 422.887C179.679 423.285 179.959 423.588 180.317 423.797C180.675 424.002 181.091 424.105 181.565 424.105C181.873 424.105 182.151 424.062 182.4 423.976C182.652 423.886 182.869 423.754 183.051 423.578C183.233 423.399 183.374 423.177 183.474 422.912L184.607 423.23C184.488 423.615 184.287 423.953 184.006 424.244C183.724 424.533 183.376 424.758 182.962 424.92C182.547 425.08 182.082 425.159 181.565 425.159Z" fill="black"/>
<rect x="213.5" y="726.5" width="165" height="49" fill="#D9D9D9" stroke="black"/>
<path d="M248.045 744.364H249.455V752.068C249.455 752.864 249.267 753.574 248.892 754.199C248.521 754.82 247.996 755.311 247.318 755.67C246.64 756.027 245.845 756.205 244.932 756.205C244.019 756.205 243.223 756.027 242.545 755.67C241.867 755.311 241.341 754.82 240.966 754.199C240.595 753.574 240.409 752.864 240.409 752.068V744.364H241.818V751.955C241.818 752.523 241.943 753.028 242.193 753.472C242.443 753.911 242.799 754.258 243.261 754.511C243.727 754.761 244.284 754.886 244.932 754.886C245.58 754.886 246.136 754.761 246.602 754.511C247.068 754.258 247.424 753.911 247.67 753.472C247.92 753.028 248.045 752.523 248.045 751.955V744.364ZM252.087 759.273V747.273H253.382V748.659H253.541C253.64 748.508 253.776 748.314 253.95 748.08C254.128 747.841 254.382 747.629 254.712 747.443C255.045 747.254 255.496 747.159 256.064 747.159C256.799 747.159 257.446 747.343 258.007 747.71C258.568 748.078 259.005 748.598 259.32 749.273C259.634 749.947 259.791 750.742 259.791 751.659C259.791 752.583 259.634 753.384 259.32 754.062C259.005 754.737 258.57 755.259 258.013 755.631C257.456 755.998 256.814 756.182 256.087 756.182C255.526 756.182 255.077 756.089 254.74 755.903C254.403 755.714 254.143 755.5 253.962 755.261C253.78 755.019 253.64 754.818 253.541 754.659H253.428V759.273H252.087ZM253.405 751.636C253.405 752.295 253.501 752.877 253.695 753.381C253.888 753.881 254.17 754.273 254.541 754.557C254.912 754.837 255.367 754.977 255.905 754.977C256.465 754.977 256.933 754.83 257.308 754.534C257.687 754.235 257.971 753.833 258.161 753.33C258.354 752.822 258.45 752.258 258.45 751.636C258.45 751.023 258.356 750.47 258.166 749.977C257.981 749.481 257.698 749.089 257.32 748.801C256.945 748.509 256.473 748.364 255.905 748.364C255.359 748.364 254.901 748.502 254.53 748.778C254.159 749.051 253.878 749.434 253.689 749.926C253.5 750.415 253.405 750.985 253.405 751.636ZM263.178 744.364V756H261.837V744.364H263.178ZM269.179 756.182C268.391 756.182 267.7 755.994 267.105 755.619C266.514 755.244 266.052 754.72 265.719 754.045C265.389 753.371 265.224 752.583 265.224 751.682C265.224 750.773 265.389 749.979 265.719 749.301C266.052 748.623 266.514 748.097 267.105 747.722C267.7 747.347 268.391 747.159 269.179 747.159C269.967 747.159 270.656 747.347 271.247 747.722C271.842 748.097 272.304 748.623 272.634 749.301C272.967 749.979 273.134 750.773 273.134 751.682C273.134 752.583 272.967 753.371 272.634 754.045C272.304 754.72 271.842 755.244 271.247 755.619C270.656 755.994 269.967 756.182 269.179 756.182ZM269.179 754.977C269.777 754.977 270.27 754.824 270.656 754.517C271.043 754.21 271.329 753.807 271.514 753.307C271.7 752.807 271.793 752.265 271.793 751.682C271.793 751.098 271.7 750.555 271.514 750.051C271.329 749.547 271.043 749.14 270.656 748.83C270.27 748.519 269.777 748.364 269.179 748.364C268.58 748.364 268.088 748.519 267.702 748.83C267.315 749.14 267.029 749.547 266.844 750.051C266.658 750.555 266.565 751.098 266.565 751.682C266.565 752.265 266.658 752.807 266.844 753.307C267.029 753.807 267.315 754.21 267.702 754.517C268.088 754.824 268.58 754.977 269.179 754.977ZM277.749 756.205C277.196 756.205 276.694 756.1 276.243 755.892C275.792 755.68 275.434 755.375 275.169 754.977C274.904 754.576 274.771 754.091 274.771 753.523C274.771 753.023 274.87 752.617 275.067 752.307C275.264 751.992 275.527 751.746 275.857 751.568C276.186 751.39 276.55 751.258 276.947 751.17C277.349 751.08 277.752 751.008 278.158 750.955C278.688 750.886 279.118 750.835 279.447 750.801C279.781 750.763 280.023 750.701 280.175 750.614C280.33 750.527 280.408 750.375 280.408 750.159V750.114C280.408 749.553 280.254 749.117 279.947 748.807C279.644 748.496 279.184 748.341 278.567 748.341C277.927 748.341 277.425 748.481 277.061 748.761C276.697 749.042 276.442 749.341 276.294 749.659L275.021 749.205C275.249 748.674 275.552 748.261 275.93 747.966C276.313 747.667 276.73 747.458 277.18 747.341C277.635 747.22 278.082 747.159 278.521 747.159C278.802 747.159 279.124 747.193 279.487 747.261C279.855 747.326 280.209 747.46 280.55 747.665C280.894 747.869 281.18 748.178 281.408 748.591C281.635 749.004 281.749 749.557 281.749 750.25V756H280.408V754.818H280.339C280.249 755.008 280.097 755.21 279.885 755.426C279.673 755.642 279.391 755.826 279.038 755.977C278.686 756.129 278.256 756.205 277.749 756.205ZM277.953 755C278.483 755 278.93 754.896 279.294 754.688C279.661 754.479 279.938 754.21 280.124 753.881C280.313 753.551 280.408 753.205 280.408 752.841V751.614C280.351 751.682 280.226 751.744 280.033 751.801C279.843 751.854 279.624 751.902 279.374 751.943C279.127 751.981 278.887 752.015 278.652 752.045C278.421 752.072 278.233 752.095 278.089 752.114C277.741 752.159 277.415 752.233 277.112 752.335C276.813 752.434 276.571 752.583 276.385 752.784C276.203 752.981 276.112 753.25 276.112 753.591C276.112 754.057 276.285 754.409 276.629 754.648C276.978 754.883 277.419 755 277.953 755ZM287.491 756.182C286.764 756.182 286.122 755.998 285.565 755.631C285.009 755.259 284.573 754.737 284.259 754.062C283.944 753.384 283.787 752.583 283.787 751.659C283.787 750.742 283.944 749.947 284.259 749.273C284.573 748.598 285.01 748.078 285.571 747.71C286.132 747.343 286.779 747.159 287.514 747.159C288.082 747.159 288.531 747.254 288.861 747.443C289.194 747.629 289.448 747.841 289.622 748.08C289.8 748.314 289.938 748.508 290.037 748.659H290.151V744.364H291.491V756H290.196V754.659H290.037C289.938 754.818 289.798 755.019 289.616 755.261C289.435 755.5 289.175 755.714 288.838 755.903C288.501 756.089 288.052 756.182 287.491 756.182ZM287.673 754.977C288.211 754.977 288.666 754.837 289.037 754.557C289.408 754.273 289.69 753.881 289.884 753.381C290.077 752.877 290.173 752.295 290.173 751.636C290.173 750.985 290.079 750.415 289.889 749.926C289.7 749.434 289.42 749.051 289.048 748.778C288.677 748.502 288.219 748.364 287.673 748.364C287.105 748.364 286.632 748.509 286.253 748.801C285.878 749.089 285.596 749.481 285.406 749.977C285.221 750.47 285.128 751.023 285.128 751.636C285.128 752.258 285.223 752.822 285.412 753.33C285.605 753.833 285.889 754.235 286.264 754.534C286.643 754.83 287.113 754.977 287.673 754.977ZM298.815 756V744.364H302.747C303.66 744.364 304.406 744.528 304.986 744.858C305.569 745.184 306.001 745.625 306.281 746.182C306.562 746.739 306.702 747.36 306.702 748.045C306.702 748.731 306.562 749.354 306.281 749.915C306.005 750.475 305.577 750.922 304.997 751.256C304.418 751.585 303.675 751.75 302.77 751.75H299.952V750.5H302.724C303.349 750.5 303.851 750.392 304.23 750.176C304.609 749.96 304.884 749.669 305.054 749.301C305.228 748.93 305.315 748.511 305.315 748.045C305.315 747.58 305.228 747.163 305.054 746.795C304.884 746.428 304.607 746.14 304.224 745.932C303.842 745.72 303.334 745.614 302.702 745.614H300.224V756H298.815ZM308.79 756V747.273H310.085V748.591H310.176C310.335 748.159 310.623 747.809 311.04 747.54C311.456 747.271 311.926 747.136 312.449 747.136C312.547 747.136 312.67 747.138 312.818 747.142C312.966 747.146 313.078 747.152 313.153 747.159V748.523C313.108 748.511 313.004 748.494 312.841 748.472C312.682 748.445 312.513 748.432 312.335 748.432C311.911 748.432 311.532 748.521 311.199 748.699C310.869 748.873 310.608 749.116 310.415 749.426C310.225 749.733 310.131 750.083 310.131 750.477V756H308.79ZM318.023 756.182C317.235 756.182 316.544 755.994 315.949 755.619C315.358 755.244 314.896 754.72 314.562 754.045C314.233 753.371 314.068 752.583 314.068 751.682C314.068 750.773 314.233 749.979 314.562 749.301C314.896 748.623 315.358 748.097 315.949 747.722C316.544 747.347 317.235 747.159 318.023 747.159C318.811 747.159 319.5 747.347 320.091 747.722C320.686 748.097 321.148 748.623 321.477 749.301C321.811 749.979 321.977 750.773 321.977 751.682C321.977 752.583 321.811 753.371 321.477 754.045C321.148 754.72 320.686 755.244 320.091 755.619C319.5 755.994 318.811 756.182 318.023 756.182ZM318.023 754.977C318.621 754.977 319.114 754.824 319.5 754.517C319.886 754.21 320.172 753.807 320.358 753.307C320.544 752.807 320.636 752.265 320.636 751.682C320.636 751.098 320.544 750.555 320.358 750.051C320.172 749.547 319.886 749.14 319.5 748.83C319.114 748.519 318.621 748.364 318.023 748.364C317.424 748.364 316.932 748.519 316.545 748.83C316.159 749.14 315.873 749.547 315.688 750.051C315.502 750.555 315.409 751.098 315.409 751.682C315.409 752.265 315.502 752.807 315.688 753.307C315.873 753.807 316.159 754.21 316.545 754.517C316.932 754.824 317.424 754.977 318.023 754.977ZM327.32 756.182C326.592 756.182 325.95 755.998 325.393 755.631C324.837 755.259 324.401 754.737 324.087 754.062C323.772 753.384 323.615 752.583 323.615 751.659C323.615 750.742 323.772 749.947 324.087 749.273C324.401 748.598 324.839 748.078 325.399 747.71C325.96 747.343 326.607 747.159 327.342 747.159C327.911 747.159 328.359 747.254 328.689 747.443C329.022 747.629 329.276 747.841 329.45 748.08C329.628 748.314 329.767 748.508 329.865 748.659H329.979V744.364H331.32V756H330.024V754.659H329.865C329.767 754.818 329.626 755.019 329.445 755.261C329.263 755.5 329.003 755.714 328.666 755.903C328.329 756.089 327.88 756.182 327.32 756.182ZM327.501 754.977C328.039 754.977 328.494 754.837 328.865 754.557C329.236 754.273 329.518 753.881 329.712 753.381C329.905 752.877 330.001 752.295 330.001 751.636C330.001 750.985 329.907 750.415 329.717 749.926C329.528 749.434 329.248 749.051 328.876 748.778C328.505 748.502 328.047 748.364 327.501 748.364C326.933 748.364 326.46 748.509 326.081 748.801C325.706 749.089 325.424 749.481 325.234 749.977C325.049 750.47 324.956 751.023 324.956 751.636C324.956 752.258 325.051 752.822 325.24 753.33C325.433 753.833 325.717 754.235 326.092 754.534C326.471 754.83 326.941 754.977 327.501 754.977ZM339.462 752.432V747.273H340.803V756H339.462V754.523H339.371C339.166 754.966 338.848 755.343 338.416 755.653C337.984 755.96 337.439 756.114 336.78 756.114C336.234 756.114 335.75 755.994 335.325 755.756C334.901 755.513 334.568 755.15 334.325 754.665C334.083 754.176 333.962 753.561 333.962 752.818V747.273H335.303V752.727C335.303 753.364 335.481 753.871 335.837 754.25C336.196 754.629 336.655 754.818 337.212 754.818C337.545 754.818 337.884 754.733 338.229 754.562C338.577 754.392 338.869 754.131 339.104 753.778C339.342 753.426 339.462 752.977 339.462 752.432ZM346.804 756.182C345.986 756.182 345.281 755.989 344.69 755.602C344.099 755.216 343.645 754.684 343.327 754.006C343.009 753.328 342.849 752.553 342.849 751.682C342.849 750.795 343.012 750.013 343.338 749.335C343.668 748.653 344.126 748.121 344.713 747.739C345.304 747.352 345.993 747.159 346.781 747.159C347.395 747.159 347.948 747.273 348.44 747.5C348.933 747.727 349.336 748.045 349.651 748.455C349.965 748.864 350.16 749.341 350.236 749.886H348.895C348.793 749.489 348.565 749.136 348.213 748.83C347.865 748.519 347.395 748.364 346.804 748.364C346.281 748.364 345.823 748.5 345.429 748.773C345.039 749.042 344.734 749.422 344.514 749.915C344.298 750.403 344.19 750.977 344.19 751.636C344.19 752.311 344.296 752.898 344.509 753.398C344.724 753.898 345.027 754.286 345.418 754.562C345.812 754.839 346.274 754.977 346.804 754.977C347.152 754.977 347.469 754.917 347.753 754.795C348.037 754.674 348.277 754.5 348.474 754.273C348.671 754.045 348.812 753.773 348.895 753.455H350.236C350.16 753.97 349.973 754.434 349.673 754.847C349.378 755.256 348.986 755.581 348.497 755.824C348.012 756.062 347.448 756.182 346.804 756.182ZM355.991 747.273V748.409H351.469V747.273H355.991ZM352.787 745.182H354.128V753.5C354.128 753.879 354.183 754.163 354.293 754.352C354.406 754.538 354.55 754.663 354.724 754.727C354.902 754.788 355.09 754.818 355.287 754.818C355.435 754.818 355.556 754.811 355.651 754.795C355.745 754.777 355.821 754.761 355.878 754.75L356.151 755.955C356.06 755.989 355.933 756.023 355.77 756.057C355.607 756.095 355.401 756.114 355.151 756.114C354.772 756.114 354.401 756.032 354.037 755.869C353.677 755.706 353.378 755.458 353.139 755.125C352.904 754.792 352.787 754.371 352.787 753.864V745.182Z" fill="black"/>
<rect x="32.5" y="726.5" width="165" height="49" fill="white" stroke="black"/>
<path d="M90.7727 748H89.3636C89.2803 747.595 89.1345 747.239 88.9261 746.932C88.7216 746.625 88.4716 746.367 88.1761 746.159C87.8845 745.947 87.5606 745.788 87.2045 745.682C86.8485 745.576 86.4773 745.523 86.0909 745.523C85.3864 745.523 84.7481 745.701 84.1761 746.057C83.608 746.413 83.1553 746.938 82.8182 747.631C82.4848 748.324 82.3182 749.174 82.3182 750.182C82.3182 751.189 82.4848 752.04 82.8182 752.733C83.1553 753.426 83.608 753.951 84.1761 754.307C84.7481 754.663 85.3864 754.841 86.0909 754.841C86.4773 754.841 86.8485 754.788 87.2045 754.682C87.5606 754.576 87.8845 754.419 88.1761 754.21C88.4716 753.998 88.7216 753.739 88.9261 753.432C89.1345 753.121 89.2803 752.765 89.3636 752.364H90.7727C90.6667 752.958 90.4735 753.491 90.1932 753.96C89.9129 754.43 89.5644 754.83 89.1477 755.159C88.7311 755.485 88.2633 755.733 87.7443 755.903C87.2292 756.074 86.678 756.159 86.0909 756.159C85.0985 756.159 84.2159 755.917 83.4432 755.432C82.6705 754.947 82.0625 754.258 81.6193 753.364C81.1761 752.47 80.9545 751.409 80.9545 750.182C80.9545 748.955 81.1761 747.894 81.6193 747C82.0625 746.106 82.6705 745.417 83.4432 744.932C84.2159 744.447 85.0985 744.205 86.0909 744.205C86.678 744.205 87.2292 744.29 87.7443 744.46C88.2633 744.631 88.7311 744.881 89.1477 745.21C89.5644 745.536 89.9129 745.934 90.1932 746.403C90.4735 746.869 90.6667 747.402 90.7727 748ZM95.4361 756.205C94.883 756.205 94.3812 756.1 93.9304 755.892C93.4796 755.68 93.1217 755.375 92.8565 754.977C92.5914 754.576 92.4588 754.091 92.4588 753.523C92.4588 753.023 92.5573 752.617 92.7543 752.307C92.9512 751.992 93.2145 751.746 93.544 751.568C93.8736 751.39 94.2372 751.258 94.6349 751.17C95.0365 751.08 95.4399 751.008 95.8452 750.955C96.3755 750.886 96.8054 750.835 97.1349 750.801C97.4683 750.763 97.7107 750.701 97.8622 750.614C98.0175 750.527 98.0952 750.375 98.0952 750.159V750.114C98.0952 749.553 97.9418 749.117 97.6349 748.807C97.3319 748.496 96.8717 748.341 96.2543 748.341C95.6141 748.341 95.1122 748.481 94.7486 748.761C94.3849 749.042 94.1293 749.341 93.9815 749.659L92.7088 749.205C92.9361 748.674 93.2391 748.261 93.6179 747.966C94.0005 747.667 94.4171 747.458 94.8679 747.341C95.3224 747.22 95.7694 747.159 96.2088 747.159C96.4891 747.159 96.8111 747.193 97.1747 747.261C97.5421 747.326 97.8963 747.46 98.2372 747.665C98.5819 747.869 98.8679 748.178 99.0952 748.591C99.3224 749.004 99.4361 749.557 99.4361 750.25V756H98.0952V754.818H98.027C97.9361 755.008 97.7846 755.21 97.5724 755.426C97.3603 755.642 97.0781 755.826 96.7259 755.977C96.3736 756.129 95.9437 756.205 95.4361 756.205ZM95.6406 755C96.1709 755 96.6179 754.896 96.9815 754.688C97.349 754.479 97.6255 754.21 97.8111 753.881C98.0005 753.551 98.0952 753.205 98.0952 752.841V751.614C98.0384 751.682 97.9134 751.744 97.7202 751.801C97.5308 751.854 97.3111 751.902 97.0611 751.943C96.8149 751.981 96.5743 752.015 96.3395 752.045C96.1084 752.072 95.9209 752.095 95.777 752.114C95.4285 752.159 95.1027 752.233 94.7997 752.335C94.5005 752.434 94.258 752.583 94.0724 752.784C93.8906 752.981 93.7997 753.25 93.7997 753.591C93.7997 754.057 93.9721 754.409 94.3168 754.648C94.6652 754.883 95.1065 755 95.6406 755ZM103.224 750.75V756H101.884V747.273H103.179V748.636H103.293C103.497 748.193 103.808 747.837 104.224 747.568C104.641 747.295 105.179 747.159 105.838 747.159C106.429 747.159 106.946 747.28 107.389 747.523C107.832 747.761 108.177 748.125 108.423 748.614C108.67 749.098 108.793 749.712 108.793 750.455V756H107.452V750.545C107.452 749.86 107.274 749.326 106.918 748.943C106.562 748.557 106.073 748.364 105.452 748.364C105.024 748.364 104.641 748.456 104.304 748.642C103.971 748.828 103.707 749.098 103.514 749.455C103.321 749.811 103.224 750.242 103.224 750.75ZM114.788 756.182C113.97 756.182 113.266 755.989 112.675 755.602C112.084 755.216 111.629 754.684 111.311 754.006C110.993 753.328 110.834 752.553 110.834 751.682C110.834 750.795 110.997 750.013 111.322 749.335C111.652 748.653 112.11 748.121 112.697 747.739C113.288 747.352 113.978 747.159 114.766 747.159C115.379 747.159 115.932 747.273 116.425 747.5C116.917 747.727 117.321 748.045 117.635 748.455C117.949 748.864 118.144 749.341 118.22 749.886H116.879C116.777 749.489 116.55 749.136 116.197 748.83C115.849 748.519 115.379 748.364 114.788 748.364C114.266 748.364 113.807 748.5 113.413 748.773C113.023 749.042 112.718 749.422 112.499 749.915C112.283 750.403 112.175 750.977 112.175 751.636C112.175 752.311 112.281 752.898 112.493 753.398C112.709 753.898 113.012 754.286 113.402 754.562C113.796 754.839 114.258 754.977 114.788 754.977C115.137 754.977 115.453 754.917 115.737 754.795C116.021 754.674 116.262 754.5 116.459 754.273C116.656 754.045 116.796 753.773 116.879 753.455H118.22C118.144 753.97 117.957 754.434 117.658 754.847C117.362 755.256 116.97 755.581 116.482 755.824C115.997 756.062 115.432 756.182 114.788 756.182ZM123.839 756.182C122.999 756.182 122.273 755.996 121.663 755.625C121.057 755.25 120.589 754.727 120.26 754.057C119.934 753.383 119.771 752.598 119.771 751.705C119.771 750.811 119.934 750.023 120.26 749.341C120.589 748.655 121.048 748.121 121.635 747.739C122.226 747.352 122.915 747.159 123.703 747.159C124.158 747.159 124.607 747.235 125.05 747.386C125.493 747.538 125.896 747.784 126.26 748.125C126.624 748.462 126.913 748.909 127.129 749.466C127.345 750.023 127.453 750.708 127.453 751.523V752.091H120.726V750.932H126.089C126.089 750.439 125.991 750 125.794 749.614C125.601 749.227 125.324 748.922 124.964 748.699C124.608 748.475 124.188 748.364 123.703 748.364C123.169 748.364 122.707 748.496 122.317 748.761C121.93 749.023 121.633 749.364 121.425 749.784C121.216 750.205 121.112 750.655 121.112 751.136V751.909C121.112 752.568 121.226 753.127 121.453 753.585C121.684 754.04 122.004 754.386 122.413 754.625C122.822 754.86 123.298 754.977 123.839 754.977C124.192 754.977 124.51 754.928 124.794 754.83C125.082 754.727 125.33 754.576 125.538 754.375C125.747 754.17 125.908 753.917 126.021 753.614L127.317 753.977C127.18 754.417 126.951 754.803 126.629 755.136C126.307 755.466 125.91 755.723 125.436 755.909C124.963 756.091 124.43 756.182 123.839 756.182ZM130.834 744.364V756H129.493V744.364H130.834Z" fill="black"/>
<rect y="862" width="430" height="70" fill="#D9D9D9"/>
<path d="M184.636 890.364V902H183.273L176.932 892.864H176.818V902H175.409V890.364H176.773L183.136 899.523H183.25V890.364H184.636ZM189.842 902.205C189.289 902.205 188.787 902.1 188.337 901.892C187.886 901.68 187.528 901.375 187.263 900.977C186.998 900.576 186.865 900.091 186.865 899.523C186.865 899.023 186.964 898.617 187.161 898.307C187.357 897.992 187.621 897.746 187.95 897.568C188.28 897.39 188.643 897.258 189.041 897.17C189.443 897.08 189.846 897.008 190.251 896.955C190.782 896.886 191.212 896.835 191.541 896.801C191.875 896.763 192.117 896.701 192.268 896.614C192.424 896.527 192.501 896.375 192.501 896.159V896.114C192.501 895.553 192.348 895.117 192.041 894.807C191.738 894.496 191.278 894.341 190.661 894.341C190.02 894.341 189.518 894.481 189.155 894.761C188.791 895.042 188.536 895.341 188.388 895.659L187.115 895.205C187.342 894.674 187.645 894.261 188.024 893.966C188.407 893.667 188.823 893.458 189.274 893.341C189.729 893.22 190.176 893.159 190.615 893.159C190.895 893.159 191.217 893.193 191.581 893.261C191.948 893.326 192.303 893.46 192.643 893.665C192.988 893.869 193.274 894.178 193.501 894.591C193.729 895.004 193.842 895.557 193.842 896.25V902H192.501V900.818H192.433C192.342 901.008 192.191 901.21 191.979 901.426C191.767 901.642 191.484 901.826 191.132 901.977C190.78 902.129 190.35 902.205 189.842 902.205ZM190.047 901C190.577 901 191.024 900.896 191.388 900.688C191.755 900.479 192.032 900.21 192.217 899.881C192.407 899.551 192.501 899.205 192.501 898.841V897.614C192.445 897.682 192.32 897.744 192.126 897.801C191.937 897.854 191.717 897.902 191.467 897.943C191.221 897.981 190.981 898.015 190.746 898.045C190.515 898.072 190.327 898.095 190.183 898.114C189.835 898.159 189.509 898.233 189.206 898.335C188.907 898.434 188.664 898.583 188.479 898.784C188.297 898.981 188.206 899.25 188.206 899.591C188.206 900.057 188.378 900.409 188.723 900.648C189.071 900.883 189.513 901 190.047 901ZM203.114 893.273L199.886 902H198.523L195.295 893.273H196.75L199.159 900.227H199.25L201.659 893.273H203.114ZM209.565 902V890.364H213.634C214.444 890.364 215.113 890.504 215.639 890.784C216.166 891.061 216.558 891.434 216.815 891.903C217.073 892.369 217.202 892.886 217.202 893.455C217.202 893.955 217.113 894.367 216.935 894.693C216.76 895.019 216.529 895.277 216.241 895.466C215.957 895.655 215.649 895.795 215.315 895.886V896C215.671 896.023 216.029 896.148 216.389 896.375C216.749 896.602 217.05 896.928 217.293 897.352C217.535 897.777 217.656 898.295 217.656 898.909C217.656 899.492 217.524 900.017 217.259 900.483C216.993 900.949 216.575 901.318 216.003 901.591C215.431 901.864 214.687 902 213.77 902H209.565ZM210.974 900.75H213.77C214.69 900.75 215.344 900.572 215.73 900.216C216.12 899.856 216.315 899.42 216.315 898.909C216.315 898.515 216.215 898.152 216.014 897.818C215.813 897.481 215.527 897.212 215.156 897.011C214.785 896.807 214.346 896.705 213.838 896.705H210.974V900.75ZM210.974 895.477H213.588C214.012 895.477 214.395 895.394 214.736 895.227C215.08 895.061 215.353 894.826 215.554 894.523C215.759 894.22 215.861 893.864 215.861 893.455C215.861 892.943 215.683 892.509 215.327 892.153C214.971 891.794 214.406 891.614 213.634 891.614H210.974V895.477ZM222.358 902.205C221.805 902.205 221.303 902.1 220.852 901.892C220.402 901.68 220.044 901.375 219.778 900.977C219.513 900.576 219.381 900.091 219.381 899.523C219.381 899.023 219.479 898.617 219.676 898.307C219.873 897.992 220.136 897.746 220.466 897.568C220.795 897.39 221.159 897.258 221.557 897.17C221.958 897.08 222.362 897.008 222.767 896.955C223.297 896.886 223.727 896.835 224.057 896.801C224.39 896.763 224.633 896.701 224.784 896.614C224.939 896.527 225.017 896.375 225.017 896.159V896.114C225.017 895.553 224.864 895.117 224.557 894.807C224.254 894.496 223.794 894.341 223.176 894.341C222.536 894.341 222.034 894.481 221.67 894.761C221.307 895.042 221.051 895.341 220.903 895.659L219.631 895.205C219.858 894.674 220.161 894.261 220.54 893.966C220.922 893.667 221.339 893.458 221.79 893.341C222.244 893.22 222.691 893.159 223.131 893.159C223.411 893.159 223.733 893.193 224.097 893.261C224.464 893.326 224.818 893.46 225.159 893.665C225.504 893.869 225.79 894.178 226.017 894.591C226.244 895.004 226.358 895.557 226.358 896.25V902H225.017V900.818H224.949C224.858 901.008 224.706 901.21 224.494 901.426C224.282 901.642 224 901.826 223.648 901.977C223.295 902.129 222.866 902.205 222.358 902.205ZM222.562 901C223.093 901 223.54 900.896 223.903 900.688C224.271 900.479 224.547 900.21 224.733 899.881C224.922 899.551 225.017 899.205 225.017 898.841V897.614C224.96 897.682 224.835 897.744 224.642 897.801C224.453 897.854 224.233 897.902 223.983 897.943C223.737 897.981 223.496 898.015 223.261 898.045C223.03 898.072 222.843 898.095 222.699 898.114C222.35 898.159 222.025 898.233 221.722 898.335C221.422 898.434 221.18 898.583 220.994 898.784C220.813 898.981 220.722 899.25 220.722 899.591C220.722 900.057 220.894 900.409 221.239 900.648C221.587 900.883 222.028 901 222.562 901ZM228.805 902V893.273H230.101V894.591H230.192C230.351 894.159 230.639 893.809 231.055 893.54C231.472 893.271 231.942 893.136 232.464 893.136C232.563 893.136 232.686 893.138 232.834 893.142C232.982 893.146 233.093 893.152 233.169 893.159V894.523C233.124 894.511 233.019 894.494 232.857 894.472C232.697 894.445 232.529 894.432 232.351 894.432C231.927 894.432 231.548 894.521 231.214 894.699C230.885 894.873 230.624 895.116 230.43 895.426C230.241 895.733 230.146 896.083 230.146 896.477V902H228.805Z" fill="black"/>
</svg>
