<svg width="215" height="460" viewBox="0 0 430 932" fill="none" xmlns="http://www.w3.org/2000/svg">
<rect width="430" height="932" fill="white"/>
<rect y="862" width="430" height="70" fill="#D9D9D9"/>
<path d="M160.636 890.364V902H159.273L152.932 892.864H152.818V902H151.409V890.364H152.773L159.136 899.523H159.25V890.364H160.636ZM165.842 902.205C165.289 902.205 164.787 902.1 164.337 901.892C163.886 901.68 163.528 901.375 163.263 900.977C162.998 900.576 162.865 900.091 162.865 899.523C162.865 899.023 162.964 898.617 163.161 898.307C163.357 897.992 163.621 897.746 163.95 897.568C164.28 897.39 164.643 897.258 165.041 897.17C165.443 897.08 165.846 897.008 166.251 896.955C166.782 896.886 167.212 896.835 167.541 896.801C167.875 896.763 168.117 896.701 168.268 896.614C168.424 896.527 168.501 896.375 168.501 896.159V896.114C168.501 895.553 168.348 895.117 168.041 894.807C167.738 894.496 167.278 894.341 166.661 894.341C166.02 894.341 165.518 894.481 165.155 894.761C164.791 895.042 164.536 895.341 164.388 895.659L163.115 895.205C163.342 894.674 163.645 894.261 164.024 893.966C164.407 893.667 164.823 893.458 165.274 893.341C165.729 893.22 166.176 893.159 166.615 893.159C166.895 893.159 167.217 893.193 167.581 893.261C167.948 893.326 168.303 893.46 168.643 893.665C168.988 893.869 169.274 894.178 169.501 894.591C169.729 895.004 169.842 895.557 169.842 896.25V902H168.501V900.818H168.433C168.342 901.008 168.191 901.21 167.979 901.426C167.767 901.642 167.484 901.826 167.132 901.977C166.78 902.129 166.35 902.205 165.842 902.205ZM166.047 901C166.577 901 167.024 900.896 167.388 900.688C167.755 900.479 168.032 900.21 168.217 899.881C168.407 899.551 168.501 899.205 168.501 898.841V897.614C168.445 897.682 168.32 897.744 168.126 897.801C167.937 897.854 167.717 897.902 167.467 897.943C167.221 897.981 166.981 898.015 166.746 898.045C166.515 898.072 166.327 898.095 166.183 898.114C165.835 898.159 165.509 898.233 165.206 898.335C164.907 898.434 164.664 898.583 164.479 898.784C164.297 898.981 164.206 899.25 164.206 899.591C164.206 900.057 164.378 900.409 164.723 900.648C165.071 900.883 165.513 901 166.047 901ZM179.114 893.273L175.886 902H174.523L171.295 893.273H172.75L175.159 900.227H175.25L177.659 893.273H179.114ZM185.565 902V890.364H189.634C190.444 890.364 191.113 890.504 191.639 890.784C192.166 891.061 192.558 891.434 192.815 891.903C193.073 892.369 193.202 892.886 193.202 893.455C193.202 893.955 193.113 894.367 192.935 894.693C192.76 895.019 192.529 895.277 192.241 895.466C191.957 895.655 191.649 895.795 191.315 895.886V896C191.671 896.023 192.029 896.148 192.389 896.375C192.749 896.602 193.05 896.928 193.293 897.352C193.535 897.777 193.656 898.295 193.656 898.909C193.656 899.492 193.524 900.017 193.259 900.483C192.993 900.949 192.575 901.318 192.003 901.591C191.431 901.864 190.687 902 189.77 902H185.565ZM186.974 900.75H189.77C190.69 900.75 191.344 900.572 191.73 900.216C192.12 899.856 192.315 899.42 192.315 898.909C192.315 898.515 192.215 898.152 192.014 897.818C191.813 897.481 191.527 897.212 191.156 897.011C190.785 896.807 190.346 896.705 189.838 896.705H186.974V900.75ZM186.974 895.477H189.588C190.012 895.477 190.395 895.394 190.736 895.227C191.08 895.061 191.353 894.826 191.554 894.523C191.759 894.22 191.861 893.864 191.861 893.455C191.861 892.943 191.683 892.509 191.327 892.153C190.971 891.794 190.406 891.614 189.634 891.614H186.974V895.477ZM198.358 902.205C197.805 902.205 197.303 902.1 196.852 901.892C196.402 901.68 196.044 901.375 195.778 900.977C195.513 900.576 195.381 900.091 195.381 899.523C195.381 899.023 195.479 898.617 195.676 898.307C195.873 897.992 196.136 897.746 196.466 897.568C196.795 897.39 197.159 897.258 197.557 897.17C197.958 897.08 198.362 897.008 198.767 896.955C199.297 896.886 199.727 896.835 200.057 896.801C200.39 896.763 200.633 896.701 200.784 896.614C200.939 896.527 201.017 896.375 201.017 896.159V896.114C201.017 895.553 200.864 895.117 200.557 894.807C200.254 894.496 199.794 894.341 199.176 894.341C198.536 894.341 198.034 894.481 197.67 894.761C197.307 895.042 197.051 895.341 196.903 895.659L195.631 895.205C195.858 894.674 196.161 894.261 196.54 893.966C196.922 893.667 197.339 893.458 197.79 893.341C198.244 893.22 198.691 893.159 199.131 893.159C199.411 893.159 199.733 893.193 200.097 893.261C200.464 893.326 200.818 893.46 201.159 893.665C201.504 893.869 201.79 894.178 202.017 894.591C202.244 895.004 202.358 895.557 202.358 896.25V902H201.017V900.818H200.949C200.858 901.008 200.706 901.21 200.494 901.426C200.282 901.642 200 901.826 199.648 901.977C199.295 902.129 198.866 902.205 198.358 902.205ZM198.562 901C199.093 901 199.54 900.896 199.903 900.688C200.271 900.479 200.547 900.21 200.733 899.881C200.922 899.551 201.017 899.205 201.017 898.841V897.614C200.96 897.682 200.835 897.744 200.642 897.801C200.453 897.854 200.233 897.902 199.983 897.943C199.737 897.981 199.496 898.015 199.261 898.045C199.03 898.072 198.843 898.095 198.699 898.114C198.35 898.159 198.025 898.233 197.722 898.335C197.422 898.434 197.18 898.583 196.994 898.784C196.813 898.981 196.722 899.25 196.722 899.591C196.722 900.057 196.894 900.409 197.239 900.648C197.587 900.883 198.028 901 198.562 901ZM204.805 902V893.273H206.101V894.591H206.192C206.351 894.159 206.639 893.809 207.055 893.54C207.472 893.271 207.942 893.136 208.464 893.136C208.563 893.136 208.686 893.138 208.834 893.142C208.982 893.146 209.093 893.152 209.169 893.159V894.523C209.124 894.511 209.019 894.494 208.857 894.472C208.697 894.445 208.529 894.432 208.351 894.432C207.927 894.432 207.548 894.521 207.214 894.699C206.885 894.873 206.624 895.116 206.43 895.426C206.241 895.733 206.146 896.083 206.146 896.477V902H204.805Z" fill="black"/>
<rect x="38" y="94" width="112" height="144" fill="#D9D9D9"/>
<path d="M76.5 143.5H109C110.989 143.5 112.897 144.29 114.303 145.697C115.71 147.103 116.5 149.011 116.5 151V183.5C116.5 185.489 115.71 187.397 114.303 188.803C112.897 190.21 110.989 191 109 191H76.5C74.5109 191 72.6032 190.21 71.1967 188.803C69.7902 187.397 69 185.489 69 183.5V151C69 149.011 69.7902 147.103 71.1967 145.697C72.6032 144.29 74.5109 143.5 76.5 143.5ZM76.5 146C75.1739 146 73.9021 146.527 72.9645 147.464C72.0268 148.402 71.5 149.674 71.5 151V179.975L82.225 169.225L88.475 175.475L100.975 162.975L114 176V151C114 149.674 113.473 148.402 112.536 147.464C111.598 146.527 110.326 146 109 146H76.5ZM88.475 179.025L82.225 172.775L71.5 183.5C71.5 184.826 72.0268 186.098 72.9645 187.036C73.9021 187.973 75.1739 188.5 76.5 188.5H109C110.326 188.5 111.598 187.973 112.536 187.036C113.473 186.098 114 184.826 114 183.5V179.525L100.975 166.525L88.475 179.025ZM82.75 151C84.4076 151 85.9973 151.658 87.1694 152.831C88.3415 154.003 89 155.592 89 157.25C89 158.908 88.3415 160.497 87.1694 161.669C85.9973 162.842 84.4076 163.5 82.75 163.5C81.0924 163.5 79.5027 162.842 78.3306 161.669C77.1585 160.497 76.5 158.908 76.5 157.25C76.5 155.592 77.1585 154.003 78.3306 152.831C79.5027 151.658 81.0924 151 82.75 151ZM82.75 153.5C81.7554 153.5 80.8016 153.895 80.0983 154.598C79.3951 155.302 79 156.255 79 157.25C79 158.245 79.3951 159.198 80.0983 159.902C80.8016 160.605 81.7554 161 82.75 161C83.7446 161 84.6984 160.605 85.4017 159.902C86.1049 159.198 86.5 158.245 86.5 157.25C86.5 156.255 86.1049 155.302 85.4017 154.598C84.6984 153.895 83.7446 153.5 82.75 153.5Z" fill="black"/>
<rect x="37" y="275" width="112" height="144" fill="#D9D9D9"/>
<path d="M75.5 324.5H108C109.989 324.5 111.897 325.29 113.303 326.697C114.71 328.103 115.5 330.011 115.5 332V364.5C115.5 366.489 114.71 368.397 113.303 369.803C111.897 371.21 109.989 372 108 372H75.5C73.5109 372 71.6032 371.21 70.1967 369.803C68.7902 368.397 68 366.489 68 364.5V332C68 330.011 68.7902 328.103 70.1967 326.697C71.6032 325.29 73.5109 324.5 75.5 324.5ZM75.5 327C74.1739 327 72.9021 327.527 71.9645 328.464C71.0268 329.402 70.5 330.674 70.5 332V360.975L81.225 350.225L87.475 356.475L99.975 343.975L113 357V332C113 330.674 112.473 329.402 111.536 328.464C110.598 327.527 109.326 327 108 327H75.5ZM87.475 360.025L81.225 353.775L70.5 364.5C70.5 365.826 71.0268 367.098 71.9645 368.036C72.9021 368.973 74.1739 369.5 75.5 369.5H108C109.326 369.5 110.598 368.973 111.536 368.036C112.473 367.098 113 365.826 113 364.5V360.525L99.975 347.525L87.475 360.025ZM81.75 332C83.4076 332 84.9973 332.658 86.1694 333.831C87.3415 335.003 88 336.592 88 338.25C88 339.908 87.3415 341.497 86.1694 342.669C84.9973 343.842 83.4076 344.5 81.75 344.5C80.0924 344.5 78.5027 343.842 77.3306 342.669C76.1585 341.497 75.5 339.908 75.5 338.25C75.5 336.592 76.1585 335.003 77.3306 333.831C78.5027 332.658 80.0924 332 81.75 332ZM81.75 334.5C80.7554 334.5 79.8016 334.895 79.0983 335.598C78.3951 336.302 78 337.255 78 338.25C78 339.245 78.3951 340.198 79.0983 340.902C79.8016 341.605 80.7554 342 81.75 342C82.7446 342 83.6984 341.605 84.4017 340.902C85.1049 340.198 85.5 339.245 85.5 338.25C85.5 337.255 85.1049 336.302 84.4017 335.598C83.6984 334.895 82.7446 334.5 81.75 334.5Z" fill="black"/>
<rect x="36" y="456" width="112" height="144" fill="#D9D9D9"/>
<path d="M74.5 505.5H107C108.989 505.5 110.897 506.29 112.303 507.697C113.71 509.103 114.5 511.011 114.5 513V545.5C114.5 547.489 113.71 549.397 112.303 550.803C110.897 552.21 108.989 553 107 553H74.5C72.5109 553 70.6032 552.21 69.1967 550.803C67.7902 549.397 67 547.489 67 545.5V513C67 511.011 67.7902 509.103 69.1967 507.697C70.6032 506.29 72.5109 505.5 74.5 505.5ZM74.5 508C73.1739 508 71.9021 508.527 70.9645 509.464C70.0268 510.402 69.5 511.674 69.5 513V541.975L80.225 531.225L86.475 537.475L98.975 524.975L112 538V513C112 511.674 111.473 510.402 110.536 509.464C109.598 508.527 108.326 508 107 508H74.5ZM86.475 541.025L80.225 534.775L69.5 545.5C69.5 546.826 70.0268 548.098 70.9645 549.036C71.9021 549.973 73.1739 550.5 74.5 550.5H107C108.326 550.5 109.598 549.973 110.536 549.036C111.473 548.098 112 546.826 112 545.5V541.525L98.975 528.525L86.475 541.025ZM80.75 513C82.4076 513 83.9973 513.658 85.1694 514.831C86.3415 516.003 87 517.592 87 519.25C87 520.908 86.3415 522.497 85.1694 523.669C83.9973 524.842 82.4076 525.5 80.75 525.5C79.0924 525.5 77.5027 524.842 76.3306 523.669C75.1585 522.497 74.5 520.908 74.5 519.25C74.5 517.592 75.1585 516.003 76.3306 514.831C77.5027 513.658 79.0924 513 80.75 513ZM80.75 515.5C79.7554 515.5 78.8016 515.895 78.0983 516.598C77.3951 517.302 77 518.255 77 519.25C77 520.245 77.3951 521.198 78.0983 521.902C78.8016 522.605 79.7554 523 80.75 523C81.7446 523 82.6984 522.605 83.4017 521.902C84.1049 521.198 84.5 520.245 84.5 519.25C84.5 518.255 84.1049 517.302 83.4017 516.598C82.6984 515.895 81.7446 515.5 80.75 515.5Z" fill="black"/>
<rect x="167.5" y="94.5" width="223" height="85" rx="4.5" stroke="black"/>
<rect x="167.5" y="94.5" width="223" height="85" rx="4.5" stroke="black"/>
<rect x="167.5" y="276.5" width="223" height="85" rx="4.5" stroke="black"/>
<rect x="167.5" y="458.5" width="223" height="85" rx="4.5" stroke="black"/>
<rect x="167.5" y="188.5" width="133" height="49" fill="#D9D9D9" stroke="black"/>
<path d="M189.233 217V206.818H192.673C193.472 206.818 194.125 206.962 194.632 207.251C195.143 207.536 195.52 207.922 195.766 208.409C196.011 208.896 196.134 209.44 196.134 210.04C196.134 210.64 196.011 211.185 195.766 211.675C195.524 212.166 195.149 212.557 194.642 212.849C194.135 213.137 193.485 213.281 192.693 213.281H190.227V212.188H192.653C193.2 212.188 193.639 212.093 193.971 211.904C194.302 211.715 194.543 211.46 194.692 211.138C194.844 210.814 194.92 210.447 194.92 210.04C194.92 209.632 194.844 209.268 194.692 208.946C194.543 208.625 194.301 208.373 193.966 208.19C193.631 208.005 193.187 207.912 192.634 207.912H190.466V217H189.233ZM197.961 217V209.364H199.094V210.517H199.174C199.313 210.139 199.565 209.833 199.929 209.597C200.294 209.362 200.705 209.244 201.162 209.244C201.248 209.244 201.356 209.246 201.485 209.249C201.615 209.253 201.712 209.258 201.779 209.264V210.457C201.739 210.447 201.648 210.433 201.505 210.413C201.366 210.389 201.219 210.378 201.063 210.378C200.692 210.378 200.36 210.456 200.069 210.612C199.78 210.764 199.551 210.976 199.382 211.248C199.217 211.516 199.134 211.823 199.134 212.168V217H197.961ZM206.039 217.159C205.35 217.159 204.745 216.995 204.225 216.667C203.708 216.339 203.303 215.88 203.012 215.29C202.723 214.7 202.579 214.01 202.579 213.222C202.579 212.426 202.723 211.732 203.012 211.138C203.303 210.545 203.708 210.085 204.225 209.756C204.745 209.428 205.35 209.264 206.039 209.264C206.729 209.264 207.332 209.428 207.849 209.756C208.369 210.085 208.774 210.545 209.062 211.138C209.354 211.732 209.5 212.426 209.5 213.222C209.5 214.01 209.354 214.7 209.062 215.29C208.774 215.88 208.369 216.339 207.849 216.667C207.332 216.995 206.729 217.159 206.039 217.159ZM206.039 216.105C206.563 216.105 206.994 215.971 207.332 215.702C207.67 215.434 207.92 215.081 208.083 214.643C208.245 214.206 208.326 213.732 208.326 213.222C208.326 212.711 208.245 212.236 208.083 211.795C207.92 211.354 207.67 210.998 207.332 210.726C206.994 210.454 206.563 210.318 206.039 210.318C205.516 210.318 205.085 210.454 204.747 210.726C204.409 210.998 204.158 211.354 203.996 211.795C203.834 212.236 203.752 212.711 203.752 213.222C203.752 213.732 203.834 214.206 203.996 214.643C204.158 215.081 204.409 215.434 204.747 215.702C205.085 215.971 205.516 216.105 206.039 216.105ZM214.174 217.159C213.538 217.159 212.976 216.998 212.489 216.677C212.002 216.352 211.62 215.895 211.345 215.305C211.07 214.711 210.933 214.01 210.933 213.202C210.933 212.4 211.07 211.704 211.345 211.114C211.62 210.524 212.003 210.068 212.494 209.746C212.984 209.425 213.551 209.264 214.194 209.264C214.691 209.264 215.084 209.347 215.372 209.513C215.664 209.675 215.886 209.861 216.039 210.07C216.194 210.275 216.315 210.444 216.401 210.577H216.501V206.818H217.674V217H216.541V215.827H216.401C216.315 215.966 216.193 216.142 216.034 216.354C215.874 216.562 215.647 216.75 215.352 216.915C215.057 217.078 214.665 217.159 214.174 217.159ZM214.333 216.105C214.804 216.105 215.202 215.982 215.526 215.737C215.851 215.489 216.098 215.146 216.267 214.708C216.436 214.267 216.521 213.759 216.521 213.182C216.521 212.612 216.438 212.113 216.272 211.685C216.106 211.254 215.861 210.92 215.536 210.681C215.212 210.439 214.811 210.318 214.333 210.318C213.836 210.318 213.422 210.446 213.09 210.701C212.762 210.953 212.515 211.296 212.35 211.73C212.187 212.161 212.106 212.645 212.106 213.182C212.106 213.725 212.189 214.219 212.355 214.663C212.524 215.104 212.772 215.455 213.1 215.717C213.432 215.976 213.843 216.105 214.333 216.105ZM224.798 213.878V209.364H225.972V217H224.798V215.707H224.719C224.54 216.095 224.262 216.425 223.884 216.697C223.506 216.965 223.029 217.099 222.452 217.099C221.975 217.099 221.55 216.995 221.179 216.786C220.808 216.574 220.516 216.256 220.304 215.832C220.092 215.404 219.986 214.866 219.986 214.216V209.364H221.159V214.136C221.159 214.693 221.315 215.137 221.627 215.469C221.941 215.8 222.343 215.966 222.83 215.966C223.121 215.966 223.418 215.891 223.72 215.742C224.025 215.593 224.28 215.364 224.485 215.056C224.694 214.748 224.798 214.355 224.798 213.878ZM231.223 217.159C230.507 217.159 229.891 216.99 229.374 216.652C228.857 216.314 228.459 215.848 228.18 215.255C227.902 214.662 227.763 213.984 227.763 213.222C227.763 212.446 227.905 211.762 228.19 211.168C228.479 210.572 228.88 210.106 229.393 209.771C229.911 209.433 230.514 209.264 231.203 209.264C231.74 209.264 232.224 209.364 232.655 209.562C233.086 209.761 233.439 210.04 233.714 210.398C233.989 210.756 234.16 211.173 234.226 211.651H233.053C232.963 211.303 232.764 210.994 232.456 210.726C232.151 210.454 231.74 210.318 231.223 210.318C230.766 210.318 230.365 210.437 230.02 210.676C229.679 210.911 229.412 211.245 229.219 211.675C229.031 212.103 228.936 212.605 228.936 213.182C228.936 213.772 229.029 214.286 229.214 214.723C229.403 215.161 229.669 215.5 230.01 215.742C230.355 215.984 230.759 216.105 231.223 216.105C231.528 216.105 231.805 216.052 232.053 215.946C232.302 215.84 232.512 215.688 232.685 215.489C232.857 215.29 232.98 215.051 233.053 214.773H234.226C234.16 215.223 233.996 215.629 233.734 215.991C233.475 216.349 233.132 216.634 232.705 216.846C232.28 217.055 231.786 217.159 231.223 217.159ZM239.262 209.364V210.358H235.305V209.364H239.262ZM236.458 207.534H237.631V214.812C237.631 215.144 237.679 215.393 237.776 215.558C237.875 215.721 238.001 215.83 238.153 215.886C238.309 215.939 238.473 215.966 238.646 215.966C238.775 215.966 238.881 215.959 238.964 215.946C239.047 215.929 239.113 215.916 239.163 215.906L239.401 216.96C239.322 216.99 239.211 217.02 239.068 217.05C238.926 217.083 238.745 217.099 238.526 217.099C238.195 217.099 237.87 217.028 237.552 216.886C237.237 216.743 236.975 216.526 236.766 216.234C236.561 215.943 236.458 215.575 236.458 215.131V207.534ZM245.124 217V206.818H246.357V215.906H251.089V217H245.124ZM252.839 217V209.364H254.013V217H252.839ZM253.436 208.091C253.207 208.091 253.01 208.013 252.844 207.857C252.682 207.701 252.601 207.514 252.601 207.295C252.601 207.077 252.682 206.889 252.844 206.734C253.01 206.578 253.207 206.5 253.436 206.5C253.665 206.5 253.86 206.578 254.023 206.734C254.188 206.889 254.271 207.077 254.271 207.295C254.271 207.514 254.188 207.701 254.023 207.857C253.86 208.013 253.665 208.091 253.436 208.091ZM257.335 212.406V217H256.162V209.364H257.295V210.557H257.395C257.574 210.169 257.845 209.857 258.21 209.622C258.575 209.384 259.045 209.264 259.622 209.264C260.139 209.264 260.591 209.37 260.979 209.582C261.367 209.791 261.669 210.109 261.884 210.537C262.099 210.961 262.207 211.498 262.207 212.148V217H261.034V212.227C261.034 211.627 260.878 211.16 260.567 210.825C260.255 210.487 259.827 210.318 259.284 210.318C258.909 210.318 258.575 210.399 258.28 210.562C257.988 210.724 257.758 210.961 257.589 211.273C257.42 211.584 257.335 211.962 257.335 212.406ZM265.445 214.216L265.425 212.764H265.664L269.005 209.364H270.456L266.897 212.963H266.797L265.445 214.216ZM264.351 217V206.818H265.525V217H264.351ZM269.203 217L266.221 213.222L267.056 212.406L270.695 217H269.203Z" fill="black"/>
<rect x="167.5" y="188.5" width="133" height="49" fill="#D9D9D9" stroke="black"/>
<path d="M189.233 217V206.818H192.673C193.472 206.818 194.125 206.962 194.632 207.251C195.143 207.536 195.52 207.922 195.766 208.409C196.011 208.896 196.134 209.44 196.134 210.04C196.134 210.64 196.011 211.185 195.766 211.675C195.524 212.166 195.149 212.557 194.642 212.849C194.135 213.137 193.485 213.281 192.693 213.281H190.227V212.188H192.653C193.2 212.188 193.639 212.093 193.971 211.904C194.302 211.715 194.543 211.46 194.692 211.138C194.844 210.814 194.92 210.447 194.92 210.04C194.92 209.632 194.844 209.268 194.692 208.946C194.543 208.625 194.301 208.373 193.966 208.19C193.631 208.005 193.187 207.912 192.634 207.912H190.466V217H189.233ZM197.961 217V209.364H199.094V210.517H199.174C199.313 210.139 199.565 209.833 199.929 209.597C200.294 209.362 200.705 209.244 201.162 209.244C201.248 209.244 201.356 209.246 201.485 209.249C201.615 209.253 201.712 209.258 201.779 209.264V210.457C201.739 210.447 201.648 210.433 201.505 210.413C201.366 210.389 201.219 210.378 201.063 210.378C200.692 210.378 200.36 210.456 200.069 210.612C199.78 210.764 199.551 210.976 199.382 211.248C199.217 211.516 199.134 211.823 199.134 212.168V217H197.961ZM206.039 217.159C205.35 217.159 204.745 216.995 204.225 216.667C203.708 216.339 203.303 215.88 203.012 215.29C202.723 214.7 202.579 214.01 202.579 213.222C202.579 212.426 202.723 211.732 203.012 211.138C203.303 210.545 203.708 210.085 204.225 209.756C204.745 209.428 205.35 209.264 206.039 209.264C206.729 209.264 207.332 209.428 207.849 209.756C208.369 210.085 208.774 210.545 209.062 211.138C209.354 211.732 209.5 212.426 209.5 213.222C209.5 214.01 209.354 214.7 209.062 215.29C208.774 215.88 208.369 216.339 207.849 216.667C207.332 216.995 206.729 217.159 206.039 217.159ZM206.039 216.105C206.563 216.105 206.994 215.971 207.332 215.702C207.67 215.434 207.92 215.081 208.083 214.643C208.245 214.206 208.326 213.732 208.326 213.222C208.326 212.711 208.245 212.236 208.083 211.795C207.92 211.354 207.67 210.998 207.332 210.726C206.994 210.454 206.563 210.318 206.039 210.318C205.516 210.318 205.085 210.454 204.747 210.726C204.409 210.998 204.158 211.354 203.996 211.795C203.834 212.236 203.752 212.711 203.752 213.222C203.752 213.732 203.834 214.206 203.996 214.643C204.158 215.081 204.409 215.434 204.747 215.702C205.085 215.971 205.516 216.105 206.039 216.105ZM214.174 217.159C213.538 217.159 212.976 216.998 212.489 216.677C212.002 216.352 211.62 215.895 211.345 215.305C211.07 214.711 210.933 214.01 210.933 213.202C210.933 212.4 211.07 211.704 211.345 211.114C211.62 210.524 212.003 210.068 212.494 209.746C212.984 209.425 213.551 209.264 214.194 209.264C214.691 209.264 215.084 209.347 215.372 209.513C215.664 209.675 215.886 209.861 216.039 210.07C216.194 210.275 216.315 210.444 216.401 210.577H216.501V206.818H217.674V217H216.541V215.827H216.401C216.315 215.966 216.193 216.142 216.034 216.354C215.874 216.562 215.647 216.75 215.352 216.915C215.057 217.078 214.665 217.159 214.174 217.159ZM214.333 216.105C214.804 216.105 215.202 215.982 215.526 215.737C215.851 215.489 216.098 215.146 216.267 214.708C216.436 214.267 216.521 213.759 216.521 213.182C216.521 212.612 216.438 212.113 216.272 211.685C216.106 211.254 215.861 210.92 215.536 210.681C215.212 210.439 214.811 210.318 214.333 210.318C213.836 210.318 213.422 210.446 213.09 210.701C212.762 210.953 212.515 211.296 212.35 211.73C212.187 212.161 212.106 212.645 212.106 213.182C212.106 213.725 212.189 214.219 212.355 214.663C212.524 215.104 212.772 215.455 213.1 215.717C213.432 215.976 213.843 216.105 214.333 216.105ZM224.798 213.878V209.364H225.972V217H224.798V215.707H224.719C224.54 216.095 224.262 216.425 223.884 216.697C223.506 216.965 223.029 217.099 222.452 217.099C221.975 217.099 221.55 216.995 221.179 216.786C220.808 216.574 220.516 216.256 220.304 215.832C220.092 215.404 219.986 214.866 219.986 214.216V209.364H221.159V214.136C221.159 214.693 221.315 215.137 221.627 215.469C221.941 215.8 222.343 215.966 222.83 215.966C223.121 215.966 223.418 215.891 223.72 215.742C224.025 215.593 224.28 215.364 224.485 215.056C224.694 214.748 224.798 214.355 224.798 213.878ZM231.223 217.159C230.507 217.159 229.891 216.99 229.374 216.652C228.857 216.314 228.459 215.848 228.18 215.255C227.902 214.662 227.763 213.984 227.763 213.222C227.763 212.446 227.905 211.762 228.19 211.168C228.479 210.572 228.88 210.106 229.393 209.771C229.911 209.433 230.514 209.264 231.203 209.264C231.74 209.264 232.224 209.364 232.655 209.562C233.086 209.761 233.439 210.04 233.714 210.398C233.989 210.756 234.16 211.173 234.226 211.651H233.053C232.963 211.303 232.764 210.994 232.456 210.726C232.151 210.454 231.74 210.318 231.223 210.318C230.766 210.318 230.365 210.437 230.02 210.676C229.679 210.911 229.412 211.245 229.219 211.675C229.031 212.103 228.936 212.605 228.936 213.182C228.936 213.772 229.029 214.286 229.214 214.723C229.403 215.161 229.669 215.5 230.01 215.742C230.355 215.984 230.759 216.105 231.223 216.105C231.528 216.105 231.805 216.052 232.053 215.946C232.302 215.84 232.512 215.688 232.685 215.489C232.857 215.29 232.98 215.051 233.053 214.773H234.226C234.16 215.223 233.996 215.629 233.734 215.991C233.475 216.349 233.132 216.634 232.705 216.846C232.28 217.055 231.786 217.159 231.223 217.159ZM239.262 209.364V210.358H235.305V209.364H239.262ZM236.458 207.534H237.631V214.812C237.631 215.144 237.679 215.393 237.776 215.558C237.875 215.721 238.001 215.83 238.153 215.886C238.309 215.939 238.473 215.966 238.646 215.966C238.775 215.966 238.881 215.959 238.964 215.946C239.047 215.929 239.113 215.916 239.163 215.906L239.401 216.96C239.322 216.99 239.211 217.02 239.068 217.05C238.926 217.083 238.745 217.099 238.526 217.099C238.195 217.099 237.87 217.028 237.552 216.886C237.237 216.743 236.975 216.526 236.766 216.234C236.561 215.943 236.458 215.575 236.458 215.131V207.534ZM245.124 217V206.818H246.357V215.906H251.089V217H245.124ZM252.839 217V209.364H254.013V217H252.839ZM253.436 208.091C253.207 208.091 253.01 208.013 252.844 207.857C252.682 207.701 252.601 207.514 252.601 207.295C252.601 207.077 252.682 206.889 252.844 206.734C253.01 206.578 253.207 206.5 253.436 206.5C253.665 206.5 253.86 206.578 254.023 206.734C254.188 206.889 254.271 207.077 254.271 207.295C254.271 207.514 254.188 207.701 254.023 207.857C253.86 208.013 253.665 208.091 253.436 208.091ZM257.335 212.406V217H256.162V209.364H257.295V210.557H257.395C257.574 210.169 257.845 209.857 258.21 209.622C258.575 209.384 259.045 209.264 259.622 209.264C260.139 209.264 260.591 209.37 260.979 209.582C261.367 209.791 261.669 210.109 261.884 210.537C262.099 210.961 262.207 211.498 262.207 212.148V217H261.034V212.227C261.034 211.627 260.878 211.16 260.567 210.825C260.255 210.487 259.827 210.318 259.284 210.318C258.909 210.318 258.575 210.399 258.28 210.562C257.988 210.724 257.758 210.961 257.589 211.273C257.42 211.584 257.335 211.962 257.335 212.406ZM265.445 214.216L265.425 212.764H265.664L269.005 209.364H270.456L266.897 212.963H266.797L265.445 214.216ZM264.351 217V206.818H265.525V217H264.351ZM269.203 217L266.221 213.222L267.056 212.406L270.695 217H269.203Z" fill="black"/>
<rect x="167.5" y="370.5" width="133" height="49" fill="#D9D9D9" stroke="black"/>
<path d="M189.233 399V388.818H192.673C193.472 388.818 194.125 388.962 194.632 389.251C195.143 389.536 195.52 389.922 195.766 390.409C196.011 390.896 196.134 391.44 196.134 392.04C196.134 392.64 196.011 393.185 195.766 393.675C195.524 394.166 195.149 394.557 194.642 394.849C194.135 395.137 193.485 395.281 192.693 395.281H190.227V394.188H192.653C193.2 394.188 193.639 394.093 193.971 393.904C194.302 393.715 194.543 393.46 194.692 393.138C194.844 392.814 194.92 392.447 194.92 392.04C194.92 391.632 194.844 391.268 194.692 390.946C194.543 390.625 194.301 390.373 193.966 390.19C193.631 390.005 193.187 389.912 192.634 389.912H190.466V399H189.233ZM197.961 399V391.364H199.094V392.517H199.174C199.313 392.139 199.565 391.833 199.929 391.597C200.294 391.362 200.705 391.244 201.162 391.244C201.248 391.244 201.356 391.246 201.485 391.249C201.615 391.253 201.712 391.258 201.779 391.264V392.457C201.739 392.447 201.648 392.433 201.505 392.413C201.366 392.389 201.219 392.378 201.063 392.378C200.692 392.378 200.36 392.456 200.069 392.612C199.78 392.764 199.551 392.976 199.382 393.248C199.217 393.516 199.134 393.823 199.134 394.168V399H197.961ZM206.039 399.159C205.35 399.159 204.745 398.995 204.225 398.667C203.708 398.339 203.303 397.88 203.012 397.29C202.723 396.7 202.579 396.01 202.579 395.222C202.579 394.426 202.723 393.732 203.012 393.138C203.303 392.545 203.708 392.085 204.225 391.756C204.745 391.428 205.35 391.264 206.039 391.264C206.729 391.264 207.332 391.428 207.849 391.756C208.369 392.085 208.774 392.545 209.062 393.138C209.354 393.732 209.5 394.426 209.5 395.222C209.5 396.01 209.354 396.7 209.062 397.29C208.774 397.88 208.369 398.339 207.849 398.667C207.332 398.995 206.729 399.159 206.039 399.159ZM206.039 398.105C206.563 398.105 206.994 397.971 207.332 397.702C207.67 397.434 207.92 397.081 208.083 396.643C208.245 396.206 208.326 395.732 208.326 395.222C208.326 394.711 208.245 394.236 208.083 393.795C207.92 393.354 207.67 392.998 207.332 392.726C206.994 392.454 206.563 392.318 206.039 392.318C205.516 392.318 205.085 392.454 204.747 392.726C204.409 392.998 204.158 393.354 203.996 393.795C203.834 394.236 203.752 394.711 203.752 395.222C203.752 395.732 203.834 396.206 203.996 396.643C204.158 397.081 204.409 397.434 204.747 397.702C205.085 397.971 205.516 398.105 206.039 398.105ZM214.174 399.159C213.538 399.159 212.976 398.998 212.489 398.677C212.002 398.352 211.62 397.895 211.345 397.305C211.07 396.711 210.933 396.01 210.933 395.202C210.933 394.4 211.07 393.704 211.345 393.114C211.62 392.524 212.003 392.068 212.494 391.746C212.984 391.425 213.551 391.264 214.194 391.264C214.691 391.264 215.084 391.347 215.372 391.513C215.664 391.675 215.886 391.861 216.039 392.07C216.194 392.275 216.315 392.444 216.401 392.577H216.501V388.818H217.674V399H216.541V397.827H216.401C216.315 397.966 216.193 398.142 216.034 398.354C215.874 398.562 215.647 398.75 215.352 398.915C215.057 399.078 214.665 399.159 214.174 399.159ZM214.333 398.105C214.804 398.105 215.202 397.982 215.526 397.737C215.851 397.489 216.098 397.146 216.267 396.708C216.436 396.267 216.521 395.759 216.521 395.182C216.521 394.612 216.438 394.113 216.272 393.685C216.106 393.254 215.861 392.92 215.536 392.681C215.212 392.439 214.811 392.318 214.333 392.318C213.836 392.318 213.422 392.446 213.09 392.701C212.762 392.953 212.515 393.296 212.35 393.73C212.187 394.161 212.106 394.645 212.106 395.182C212.106 395.725 212.189 396.219 212.355 396.663C212.524 397.104 212.772 397.455 213.1 397.717C213.432 397.976 213.843 398.105 214.333 398.105ZM224.798 395.878V391.364H225.972V399H224.798V397.707H224.719C224.54 398.095 224.262 398.425 223.884 398.697C223.506 398.965 223.029 399.099 222.452 399.099C221.975 399.099 221.55 398.995 221.179 398.786C220.808 398.574 220.516 398.256 220.304 397.832C220.092 397.404 219.986 396.866 219.986 396.216V391.364H221.159V396.136C221.159 396.693 221.315 397.137 221.627 397.469C221.941 397.8 222.343 397.966 222.83 397.966C223.121 397.966 223.418 397.891 223.72 397.742C224.025 397.593 224.28 397.364 224.485 397.056C224.694 396.748 224.798 396.355 224.798 395.878ZM231.223 399.159C230.507 399.159 229.891 398.99 229.374 398.652C228.857 398.314 228.459 397.848 228.18 397.255C227.902 396.662 227.763 395.984 227.763 395.222C227.763 394.446 227.905 393.762 228.19 393.168C228.479 392.572 228.88 392.106 229.393 391.771C229.911 391.433 230.514 391.264 231.203 391.264C231.74 391.264 232.224 391.364 232.655 391.562C233.086 391.761 233.439 392.04 233.714 392.398C233.989 392.756 234.16 393.173 234.226 393.651H233.053C232.963 393.303 232.764 392.994 232.456 392.726C232.151 392.454 231.74 392.318 231.223 392.318C230.766 392.318 230.365 392.437 230.02 392.676C229.679 392.911 229.412 393.245 229.219 393.675C229.031 394.103 228.936 394.605 228.936 395.182C228.936 395.772 229.029 396.286 229.214 396.723C229.403 397.161 229.669 397.5 230.01 397.742C230.355 397.984 230.759 398.105 231.223 398.105C231.528 398.105 231.805 398.052 232.053 397.946C232.302 397.84 232.512 397.688 232.685 397.489C232.857 397.29 232.98 397.051 233.053 396.773H234.226C234.16 397.223 233.996 397.629 233.734 397.991C233.475 398.349 233.132 398.634 232.705 398.846C232.28 399.055 231.786 399.159 231.223 399.159ZM239.262 391.364V392.358H235.305V391.364H239.262ZM236.458 389.534H237.631V396.812C237.631 397.144 237.679 397.393 237.776 397.558C237.875 397.721 238.001 397.83 238.153 397.886C238.309 397.939 238.473 397.966 238.646 397.966C238.775 397.966 238.881 397.959 238.964 397.946C239.047 397.929 239.113 397.916 239.163 397.906L239.401 398.96C239.322 398.99 239.211 399.02 239.068 399.05C238.926 399.083 238.745 399.099 238.526 399.099C238.195 399.099 237.87 399.028 237.552 398.886C237.237 398.743 236.975 398.526 236.766 398.234C236.561 397.943 236.458 397.575 236.458 397.131V389.534ZM245.124 399V388.818H246.357V397.906H251.089V399H245.124ZM252.839 399V391.364H254.013V399H252.839ZM253.436 390.091C253.207 390.091 253.01 390.013 252.844 389.857C252.682 389.701 252.601 389.514 252.601 389.295C252.601 389.077 252.682 388.889 252.844 388.734C253.01 388.578 253.207 388.5 253.436 388.5C253.665 388.5 253.86 388.578 254.023 388.734C254.188 388.889 254.271 389.077 254.271 389.295C254.271 389.514 254.188 389.701 254.023 389.857C253.86 390.013 253.665 390.091 253.436 390.091ZM257.335 394.406V399H256.162V391.364H257.295V392.557H257.395C257.574 392.169 257.845 391.857 258.21 391.622C258.575 391.384 259.045 391.264 259.622 391.264C260.139 391.264 260.591 391.37 260.979 391.582C261.367 391.791 261.669 392.109 261.884 392.537C262.099 392.961 262.207 393.498 262.207 394.148V399H261.034V394.227C261.034 393.627 260.878 393.16 260.567 392.825C260.255 392.487 259.827 392.318 259.284 392.318C258.909 392.318 258.575 392.399 258.28 392.562C257.988 392.724 257.758 392.961 257.589 393.273C257.42 393.584 257.335 393.962 257.335 394.406ZM265.445 396.216L265.425 394.764H265.664L269.005 391.364H270.456L266.897 394.963H266.797L265.445 396.216ZM264.351 399V388.818H265.525V399H264.351ZM269.203 399L266.221 395.222L267.056 394.406L270.695 399H269.203Z" fill="black"/>
<rect x="167.5" y="552.5" width="133" height="49" fill="#D9D9D9" stroke="black"/>
<path d="M189.233 581V570.818H192.673C193.472 570.818 194.125 570.962 194.632 571.251C195.143 571.536 195.52 571.922 195.766 572.409C196.011 572.896 196.134 573.44 196.134 574.04C196.134 574.64 196.011 575.185 195.766 575.675C195.524 576.166 195.149 576.557 194.642 576.849C194.135 577.137 193.485 577.281 192.693 577.281H190.227V576.188H192.653C193.2 576.188 193.639 576.093 193.971 575.904C194.302 575.715 194.543 575.46 194.692 575.138C194.844 574.814 194.92 574.447 194.92 574.04C194.92 573.632 194.844 573.268 194.692 572.946C194.543 572.625 194.301 572.373 193.966 572.19C193.631 572.005 193.187 571.912 192.634 571.912H190.466V581H189.233ZM197.961 581V573.364H199.094V574.517H199.174C199.313 574.139 199.565 573.833 199.929 573.597C200.294 573.362 200.705 573.244 201.162 573.244C201.248 573.244 201.356 573.246 201.485 573.249C201.615 573.253 201.712 573.258 201.779 573.264V574.457C201.739 574.447 201.648 574.433 201.505 574.413C201.366 574.389 201.219 574.378 201.063 574.378C200.692 574.378 200.36 574.456 200.069 574.612C199.78 574.764 199.551 574.976 199.382 575.248C199.217 575.516 199.134 575.823 199.134 576.168V581H197.961ZM206.039 581.159C205.35 581.159 204.745 580.995 204.225 580.667C203.708 580.339 203.303 579.88 203.012 579.29C202.723 578.7 202.579 578.01 202.579 577.222C202.579 576.426 202.723 575.732 203.012 575.138C203.303 574.545 203.708 574.085 204.225 573.756C204.745 573.428 205.35 573.264 206.039 573.264C206.729 573.264 207.332 573.428 207.849 573.756C208.369 574.085 208.774 574.545 209.062 575.138C209.354 575.732 209.5 576.426 209.5 577.222C209.5 578.01 209.354 578.7 209.062 579.29C208.774 579.88 208.369 580.339 207.849 580.667C207.332 580.995 206.729 581.159 206.039 581.159ZM206.039 580.105C206.563 580.105 206.994 579.971 207.332 579.702C207.67 579.434 207.92 579.081 208.083 578.643C208.245 578.206 208.326 577.732 208.326 577.222C208.326 576.711 208.245 576.236 208.083 575.795C207.92 575.354 207.67 574.998 207.332 574.726C206.994 574.454 206.563 574.318 206.039 574.318C205.516 574.318 205.085 574.454 204.747 574.726C204.409 574.998 204.158 575.354 203.996 575.795C203.834 576.236 203.752 576.711 203.752 577.222C203.752 577.732 203.834 578.206 203.996 578.643C204.158 579.081 204.409 579.434 204.747 579.702C205.085 579.971 205.516 580.105 206.039 580.105ZM214.174 581.159C213.538 581.159 212.976 580.998 212.489 580.677C212.002 580.352 211.62 579.895 211.345 579.305C211.07 578.711 210.933 578.01 210.933 577.202C210.933 576.4 211.07 575.704 211.345 575.114C211.62 574.524 212.003 574.068 212.494 573.746C212.984 573.425 213.551 573.264 214.194 573.264C214.691 573.264 215.084 573.347 215.372 573.513C215.664 573.675 215.886 573.861 216.039 574.07C216.194 574.275 216.315 574.444 216.401 574.577H216.501V570.818H217.674V581H216.541V579.827H216.401C216.315 579.966 216.193 580.142 216.034 580.354C215.874 580.562 215.647 580.75 215.352 580.915C215.057 581.078 214.665 581.159 214.174 581.159ZM214.333 580.105C214.804 580.105 215.202 579.982 215.526 579.737C215.851 579.489 216.098 579.146 216.267 578.708C216.436 578.267 216.521 577.759 216.521 577.182C216.521 576.612 216.438 576.113 216.272 575.685C216.106 575.254 215.861 574.92 215.536 574.681C215.212 574.439 214.811 574.318 214.333 574.318C213.836 574.318 213.422 574.446 213.09 574.701C212.762 574.953 212.515 575.296 212.35 575.73C212.187 576.161 212.106 576.645 212.106 577.182C212.106 577.725 212.189 578.219 212.355 578.663C212.524 579.104 212.772 579.455 213.1 579.717C213.432 579.976 213.843 580.105 214.333 580.105ZM224.798 577.878V573.364H225.972V581H224.798V579.707H224.719C224.54 580.095 224.262 580.425 223.884 580.697C223.506 580.965 223.029 581.099 222.452 581.099C221.975 581.099 221.55 580.995 221.179 580.786C220.808 580.574 220.516 580.256 220.304 579.832C220.092 579.404 219.986 578.866 219.986 578.216V573.364H221.159V578.136C221.159 578.693 221.315 579.137 221.627 579.469C221.941 579.8 222.343 579.966 222.83 579.966C223.121 579.966 223.418 579.891 223.72 579.742C224.025 579.593 224.28 579.364 224.485 579.056C224.694 578.748 224.798 578.355 224.798 577.878ZM231.223 581.159C230.507 581.159 229.891 580.99 229.374 580.652C228.857 580.314 228.459 579.848 228.18 579.255C227.902 578.662 227.763 577.984 227.763 577.222C227.763 576.446 227.905 575.762 228.19 575.168C228.479 574.572 228.88 574.106 229.393 573.771C229.911 573.433 230.514 573.264 231.203 573.264C231.74 573.264 232.224 573.364 232.655 573.562C233.086 573.761 233.439 574.04 233.714 574.398C233.989 574.756 234.16 575.173 234.226 575.651H233.053C232.963 575.303 232.764 574.994 232.456 574.726C232.151 574.454 231.74 574.318 231.223 574.318C230.766 574.318 230.365 574.437 230.02 574.676C229.679 574.911 229.412 575.245 229.219 575.675C229.031 576.103 228.936 576.605 228.936 577.182C228.936 577.772 229.029 578.286 229.214 578.723C229.403 579.161 229.669 579.5 230.01 579.742C230.355 579.984 230.759 580.105 231.223 580.105C231.528 580.105 231.805 580.052 232.053 579.946C232.302 579.84 232.512 579.688 232.685 579.489C232.857 579.29 232.98 579.051 233.053 578.773H234.226C234.16 579.223 233.996 579.629 233.734 579.991C233.475 580.349 233.132 580.634 232.705 580.846C232.28 581.055 231.786 581.159 231.223 581.159ZM239.262 573.364V574.358H235.305V573.364H239.262ZM236.458 571.534H237.631V578.812C237.631 579.144 237.679 579.393 237.776 579.558C237.875 579.721 238.001 579.83 238.153 579.886C238.309 579.939 238.473 579.966 238.646 579.966C238.775 579.966 238.881 579.959 238.964 579.946C239.047 579.929 239.113 579.916 239.163 579.906L239.401 580.96C239.322 580.99 239.211 581.02 239.068 581.05C238.926 581.083 238.745 581.099 238.526 581.099C238.195 581.099 237.87 581.028 237.552 580.886C237.237 580.743 236.975 580.526 236.766 580.234C236.561 579.943 236.458 579.575 236.458 579.131V571.534ZM245.124 581V570.818H246.357V579.906H251.089V581H245.124ZM252.839 581V573.364H254.013V581H252.839ZM253.436 572.091C253.207 572.091 253.01 572.013 252.844 571.857C252.682 571.701 252.601 571.514 252.601 571.295C252.601 571.077 252.682 570.889 252.844 570.734C253.01 570.578 253.207 570.5 253.436 570.5C253.665 570.5 253.86 570.578 254.023 570.734C254.188 570.889 254.271 571.077 254.271 571.295C254.271 571.514 254.188 571.701 254.023 571.857C253.86 572.013 253.665 572.091 253.436 572.091ZM257.335 576.406V581H256.162V573.364H257.295V574.557H257.395C257.574 574.169 257.845 573.857 258.21 573.622C258.575 573.384 259.045 573.264 259.622 573.264C260.139 573.264 260.591 573.37 260.979 573.582C261.367 573.791 261.669 574.109 261.884 574.537C262.099 574.961 262.207 575.498 262.207 576.148V581H261.034V576.227C261.034 575.627 260.878 575.16 260.567 574.825C260.255 574.487 259.827 574.318 259.284 574.318C258.909 574.318 258.575 574.399 258.28 574.562C257.988 574.724 257.758 574.961 257.589 575.273C257.42 575.584 257.335 575.962 257.335 576.406ZM265.445 578.216L265.425 576.764H265.664L269.005 573.364H270.456L266.897 576.963H266.797L265.445 578.216ZM264.351 581V570.818H265.525V581H264.351ZM269.203 581L266.221 577.222L267.056 576.406L270.695 581H269.203Z" fill="black"/>
<path d="M347.385 209L340.5 202.115V205.805L339.21 206C332.745 206.915 328.365 210.305 325.86 215.495C329.34 213.035 333.66 211.85 339 211.85H340.5V215.885M337.5 213.38C330.795 213.695 325.995 216.11 322.5 221C324 213.5 328.5 206 339 204.5V198.5L349.5 209L339 219.5V213.35C338.505 213.35 338.01 213.365 337.5 213.38Z" fill="black"/>
<path d="M347.385 209L340.5 202.115V205.805L339.21 206C332.745 206.915 328.365 210.305 325.86 215.495C329.34 213.035 333.66 211.85 339 211.85H340.5V215.885M337.5 213.38C330.795 213.695 325.995 216.11 322.5 221C324 213.5 328.5 206 339 204.5V198.5L349.5 209L339 219.5V213.35C338.505 213.35 338.01 213.365 337.5 213.38Z" fill="black"/>
<path d="M347.385 391L340.5 384.115V387.805L339.21 388C332.745 388.915 328.365 392.305 325.86 397.495C329.34 395.035 333.66 393.85 339 393.85H340.5V397.885M337.5 395.38C330.795 395.695 325.995 398.11 322.5 403C324 395.5 328.5 388 339 386.5V380.5L349.5 391L339 401.5V395.35C338.505 395.35 338.01 395.365 337.5 395.38Z" fill="black"/>
<path d="M347.385 573L340.5 566.115V569.805L339.21 570C332.745 570.915 328.365 574.305 325.86 579.495C329.34 577.035 333.66 575.85 339 575.85H340.5V579.885M337.5 577.38C330.795 577.695 325.995 580.11 322.5 585C324 577.5 328.5 570 339 568.5V562.5L349.5 573L339 583.5V577.35C338.505 577.35 338.01 577.365 337.5 577.38Z" fill="black"/>
<path d="M366.859 203.766L369.5 219.72C369.621 220.45 369.997 221.114 370.562 221.593C371.126 222.072 371.842 222.335 372.582 222.335H376.768M385.14 203.766L382.5 219.72C382.379 220.45 382.003 221.114 381.438 221.593C380.874 222.072 380.158 222.335 379.418 222.335H375.232M373.528 209.895V216.206M378.472 209.895V216.206M364.438 203.766H387.562M379.471 203.766V201.541C379.471 201.044 379.274 200.567 378.922 200.215C378.57 199.864 378.094 199.666 377.596 199.666H374.404C373.906 199.666 373.43 199.864 373.078 200.215C372.726 200.567 372.529 201.044 372.529 201.541V203.766H379.471Z" stroke="black" stroke-width="1.5" stroke-linecap="round" stroke-linejoin="round"/>
<path d="M366.859 385.766L369.5 401.72C369.621 402.45 369.997 403.114 370.562 403.593C371.126 404.072 371.842 404.335 372.582 404.335H376.768M385.14 385.766L382.5 401.72C382.379 402.45 382.003 403.114 381.438 403.593C380.874 404.072 380.158 404.335 379.418 404.335H375.232M373.528 391.895V398.206M378.472 391.895V398.206M364.438 385.766H387.562M379.471 385.766V383.541C379.471 383.044 379.274 382.567 378.922 382.215C378.57 381.864 378.094 381.666 377.596 381.666H374.404C373.906 381.666 373.43 381.864 373.078 382.215C372.726 382.567 372.529 383.044 372.529 383.541V385.766H379.471Z" stroke="black" stroke-width="1.5" stroke-linecap="round" stroke-linejoin="round"/>
<path d="M366.859 567.766L369.5 583.72C369.621 584.45 369.997 585.114 370.562 585.593C371.126 586.072 371.842 586.335 372.582 586.335H376.768M385.14 567.766L382.5 583.72C382.379 584.45 382.003 585.114 381.438 585.593C380.874 586.072 380.158 586.335 379.418 586.335H375.232M373.528 573.895V580.206M378.472 573.895V580.206M364.438 567.766H387.562M379.471 567.766V565.541C379.471 565.044 379.274 564.567 378.922 564.215C378.57 563.864 378.094 563.666 377.596 563.666H374.404C373.906 563.666 373.43 563.864 373.078 564.215C372.726 564.567 372.529 565.044 372.529 565.541V567.766H379.471Z" stroke="black" stroke-width="1.5" stroke-linecap="round" stroke-linejoin="round"/>
</svg>
