<svg width="215" height="460" viewBox="0 0 430 932" fill="none" xmlns="http://www.w3.org/2000/svg">
<rect width="430" height="932" fill="white"/>
<path d="M75.485 217.154L69.223 210.892C68.723 211.318 68.148 211.648 67.498 211.881C66.848 212.114 66.1947 212.231 65.538 212.231C63.9367 212.231 62.5813 211.677 61.472 210.568C60.3627 209.459 59.808 208.104 59.808 206.503C59.808 204.902 60.362 203.546 61.47 202.436C62.578 201.326 63.9327 200.77 65.534 200.769C67.1353 200.768 68.4913 201.322 69.602 202.433C70.7127 203.544 71.268 204.899 71.268 206.5C71.268 207.195 71.145 207.867 70.899 208.517C70.653 209.167 70.3297 209.723 69.929 210.185L76.191 216.446L75.485 217.154ZM65.539 211.23C66.8657 211.23 67.9857 210.773 68.899 209.86C69.8123 208.947 70.269 207.826 70.269 206.499C70.269 205.172 69.8123 204.052 68.899 203.139C67.9857 202.226 66.8657 201.77 65.539 201.769C64.2123 201.768 63.092 202.225 62.178 203.139C61.264 204.053 60.8073 205.173 60.808 206.499C60.8087 207.825 61.2653 208.945 62.178 209.859C63.0907 210.773 64.2107 211.23 65.538 211.229" fill="black"/>
<rect x="43.5" y="185.5" width="342" height="46" rx="4.5" stroke="black"/>
<rect x="43.5" y="296.5" width="160" height="111" rx="4.5" stroke="black"/>
<rect x="43.5" y="429.5" width="160" height="111" rx="4.5" stroke="black"/>
<rect x="43.5" y="562.5" width="160" height="111" rx="4.5" stroke="black"/>
<rect x="225.5" y="296.5" width="160" height="111" rx="4.5" stroke="black"/>
<rect x="225.5" y="429.5" width="160" height="111" rx="4.5" stroke="black"/>
<rect x="225.5" y="562.5" width="160" height="111" rx="4.5" stroke="black"/>
<path d="M46.0824 172L43.2983 161.818H44.5511L46.679 170.111H46.7784L48.946 161.818H50.3381L52.5057 170.111H52.6051L54.733 161.818H55.9858L53.2017 172H51.929L49.6818 163.886H49.6023L47.3551 172H46.0824ZM58.5362 167.406V172H57.3629V161.818H58.5362V165.557H58.6357C58.8146 165.162 59.0831 164.849 59.4411 164.617C59.8023 164.382 60.2829 164.264 60.8828 164.264C61.4032 164.264 61.8589 164.369 62.25 164.577C62.6411 164.783 62.9444 165.099 63.1598 165.527C63.3786 165.951 63.4879 166.491 63.4879 167.148V172H62.3146V167.227C62.3146 166.621 62.1572 166.152 61.8423 165.82C61.5308 165.486 61.0982 165.318 60.5447 165.318C60.1603 165.318 59.8156 165.399 59.5107 165.562C59.209 165.724 58.9704 165.961 58.7947 166.273C58.6224 166.584 58.5362 166.962 58.5362 167.406ZM67.8816 172.179C67.3977 172.179 66.9585 172.088 66.5641 171.906C66.1697 171.72 65.8565 171.453 65.6245 171.105C65.3925 170.754 65.2765 170.33 65.2765 169.832C65.2765 169.395 65.3626 169.04 65.535 168.768C65.7073 168.493 65.9377 168.278 66.226 168.122C66.5144 167.966 66.8326 167.85 67.1806 167.774C67.5319 167.695 67.8849 167.632 68.2395 167.585C68.7035 167.526 69.0797 167.481 69.3681 167.451C69.6597 167.418 69.8719 167.363 70.0044 167.287C70.1403 167.211 70.2083 167.078 70.2083 166.889V166.849C70.2083 166.359 70.074 165.978 69.8056 165.706C69.5404 165.434 69.1377 165.298 68.5975 165.298C68.0373 165.298 67.5982 165.421 67.28 165.666C66.9618 165.911 66.7381 166.173 66.6088 166.452L65.4952 166.054C65.6941 165.59 65.9592 165.229 66.2907 164.97C66.6254 164.708 66.99 164.526 67.3844 164.423C67.7821 164.317 68.1732 164.264 68.5577 164.264C68.803 164.264 69.0847 164.294 69.4029 164.354C69.7244 164.41 70.0343 164.528 70.3326 164.707C70.6342 164.886 70.8844 165.156 71.0833 165.517C71.2821 165.878 71.3816 166.362 71.3816 166.969V172H70.2083V170.966H70.1486C70.0691 171.132 69.9365 171.309 69.7509 171.498C69.5653 171.687 69.3184 171.848 69.0101 171.98C68.7019 172.113 68.3257 172.179 67.8816 172.179ZM68.0605 171.125C68.5246 171.125 68.9157 171.034 69.2338 170.852C69.5553 170.669 69.7973 170.434 69.9597 170.146C70.1254 169.857 70.2083 169.554 70.2083 169.236V168.162C70.1586 168.222 70.0492 168.276 69.8801 168.326C69.7144 168.372 69.5222 168.414 69.3034 168.45C69.088 168.483 68.8775 168.513 68.6721 168.54C68.4699 168.563 68.3058 168.583 68.1799 168.599C67.8749 168.639 67.5899 168.704 67.3248 168.793C67.0629 168.879 66.8508 169.01 66.6884 169.186C66.5293 169.358 66.4498 169.594 66.4498 169.892C66.4498 170.3 66.6006 170.608 66.9022 170.817C67.2071 171.022 67.5932 171.125 68.0605 171.125ZM76.8441 164.364V165.358H72.8867V164.364H76.8441ZM74.0401 162.534H75.2134V169.812C75.2134 170.144 75.2615 170.393 75.3576 170.558C75.457 170.721 75.583 170.83 75.7354 170.886C75.8912 170.939 76.0553 170.966 76.2276 170.966C76.3569 170.966 76.463 170.959 76.5458 170.946C76.6287 170.929 76.695 170.916 76.7447 170.906L76.9833 171.96C76.9038 171.99 76.7927 172.02 76.6502 172.05C76.5077 172.083 76.3271 172.099 76.1083 172.099C75.7769 172.099 75.4521 172.028 75.1339 171.886C74.819 171.743 74.5572 171.526 74.3484 171.234C74.1429 170.943 74.0401 170.575 74.0401 170.131V162.534ZM84.7937 172.179C84.3098 172.179 83.8706 172.088 83.4762 171.906C83.0818 171.72 82.7686 171.453 82.5366 171.105C82.3046 170.754 82.1886 170.33 82.1886 169.832C82.1886 169.395 82.2747 169.04 82.4471 168.768C82.6194 168.493 82.8498 168.278 83.1381 168.122C83.4265 167.966 83.7447 167.85 84.0927 167.774C84.444 167.695 84.797 167.632 85.1516 167.585C85.6156 167.526 85.9918 167.481 86.2802 167.451C86.5719 167.418 86.784 167.363 86.9165 167.287C87.0524 167.211 87.1204 167.078 87.1204 166.889V166.849C87.1204 166.359 86.9862 165.978 86.7177 165.706C86.4525 165.434 86.0498 165.298 85.5096 165.298C84.9495 165.298 84.5103 165.421 84.1921 165.666C83.8739 165.911 83.6502 166.173 83.521 166.452L82.4073 166.054C82.6062 165.59 82.8713 165.229 83.2028 164.97C83.5375 164.708 83.9021 164.526 84.2965 164.423C84.6942 164.317 85.0853 164.264 85.4698 164.264C85.7151 164.264 85.9968 164.294 86.315 164.354C86.6365 164.41 86.9464 164.528 87.2447 164.707C87.5463 164.886 87.7965 165.156 87.9954 165.517C88.1942 165.878 88.2937 166.362 88.2937 166.969V172H87.1204V170.966H87.0607C86.9812 171.132 86.8486 171.309 86.663 171.498C86.4774 171.687 86.2305 171.848 85.9222 171.98C85.614 172.113 85.2378 172.179 84.7937 172.179ZM84.9727 171.125C85.4367 171.125 85.8278 171.034 86.146 170.852C86.4674 170.669 86.7094 170.434 86.8718 170.146C87.0375 169.857 87.1204 169.554 87.1204 169.236V168.162C87.0707 168.222 86.9613 168.276 86.7923 168.326C86.6265 168.372 86.4343 168.414 86.2156 168.45C86.0001 168.483 85.7897 168.513 85.5842 168.54C85.382 168.563 85.2179 168.583 85.092 168.599C84.7871 168.639 84.502 168.704 84.2369 168.793C83.975 168.879 83.7629 169.01 83.6005 169.186C83.4414 169.358 83.3619 169.594 83.3619 169.892C83.3619 170.3 83.5127 170.608 83.8143 170.817C84.1192 171.022 84.5053 171.125 84.9727 171.125ZM90.4352 172V164.364H91.5687V165.517H91.6483C91.7875 165.139 92.0394 164.833 92.4039 164.597C92.7685 164.362 93.1795 164.244 93.6369 164.244C93.7231 164.244 93.8308 164.246 93.96 164.249C94.0893 164.253 94.1871 164.258 94.2534 164.264V165.457C94.2136 165.447 94.1225 165.433 93.9799 165.413C93.8407 165.389 93.6932 165.378 93.5375 165.378C93.1663 165.378 92.8348 165.456 92.5431 165.612C92.2548 165.764 92.0261 165.976 91.8571 166.248C91.6913 166.516 91.6085 166.823 91.6085 167.168V172H90.4352ZM98.6135 172.159C97.8777 172.159 97.243 171.997 96.7093 171.672C96.179 171.344 95.7697 170.886 95.4814 170.3C95.1963 169.71 95.0538 169.024 95.0538 168.241C95.0538 167.459 95.1963 166.77 95.4814 166.173C95.7697 165.573 96.1708 165.106 96.6845 164.771C97.2015 164.433 97.8047 164.264 98.4941 164.264C98.8919 164.264 99.2846 164.33 99.6724 164.463C100.06 164.596 100.413 164.811 100.731 165.109C101.05 165.404 101.303 165.795 101.492 166.283C101.681 166.77 101.775 167.37 101.775 168.082V168.58H95.889V167.565H100.582C100.582 167.134 100.496 166.75 100.324 166.412C100.155 166.074 99.9127 165.807 99.5978 165.612C99.2863 165.416 98.9184 165.318 98.4941 165.318C98.0268 165.318 97.6225 165.434 97.2811 165.666C96.943 165.895 96.6828 166.193 96.5005 166.561C96.3182 166.929 96.2271 167.323 96.2271 167.744V168.42C96.2271 168.997 96.3265 169.486 96.5254 169.887C96.7276 170.285 97.0076 170.588 97.3656 170.797C97.7235 171.002 98.1395 171.105 98.6135 171.105C98.9217 171.105 99.2001 171.062 99.4487 170.976C99.7006 170.886 99.9177 170.754 100.1 170.578C100.282 170.399 100.423 170.177 100.523 169.912L101.656 170.23C101.537 170.615 101.336 170.953 101.055 171.244C100.773 171.533 100.425 171.758 100.01 171.92C99.5962 172.08 99.1305 172.159 98.6135 172.159ZM108.253 174.864C108.055 174.864 107.877 174.847 107.721 174.814C107.566 174.784 107.458 174.754 107.398 174.724L107.697 173.69C107.982 173.763 108.233 173.79 108.452 173.77C108.671 173.75 108.865 173.652 109.034 173.477C109.206 173.304 109.364 173.024 109.506 172.636L109.725 172.04L106.901 164.364H108.174L110.282 170.449H110.361L112.469 164.364H113.742L110.501 173.114C110.355 173.508 110.174 173.835 109.959 174.093C109.743 174.355 109.493 174.549 109.208 174.675C108.926 174.801 108.608 174.864 108.253 174.864ZM118.119 172.159C117.43 172.159 116.825 171.995 116.305 171.667C115.788 171.339 115.383 170.88 115.092 170.29C114.803 169.7 114.659 169.01 114.659 168.222C114.659 167.426 114.803 166.732 115.092 166.138C115.383 165.545 115.788 165.085 116.305 164.756C116.825 164.428 117.43 164.264 118.119 164.264C118.809 164.264 119.412 164.428 119.929 164.756C120.45 165.085 120.854 165.545 121.142 166.138C121.434 166.732 121.58 167.426 121.58 168.222C121.58 169.01 121.434 169.7 121.142 170.29C120.854 170.88 120.45 171.339 119.929 171.667C119.412 171.995 118.809 172.159 118.119 172.159ZM118.119 171.105C118.643 171.105 119.074 170.971 119.412 170.702C119.75 170.434 120 170.081 120.163 169.643C120.325 169.206 120.406 168.732 120.406 168.222C120.406 167.711 120.325 167.236 120.163 166.795C120 166.354 119.75 165.998 119.412 165.726C119.074 165.454 118.643 165.318 118.119 165.318C117.596 165.318 117.165 165.454 116.827 165.726C116.489 165.998 116.239 166.354 116.076 166.795C115.914 167.236 115.833 167.711 115.833 168.222C115.833 168.732 115.914 169.206 116.076 169.643C116.239 170.081 116.489 170.434 116.827 170.702C117.165 170.971 117.596 171.105 118.119 171.105ZM128.183 168.878V164.364H129.357V172H128.183V170.707H128.104C127.925 171.095 127.646 171.425 127.268 171.697C126.891 171.965 126.413 172.099 125.837 172.099C125.359 172.099 124.935 171.995 124.564 171.786C124.193 171.574 123.901 171.256 123.689 170.832C123.477 170.404 123.371 169.866 123.371 169.216V164.364H124.544V169.136C124.544 169.693 124.7 170.137 125.011 170.469C125.326 170.8 125.727 170.966 126.214 170.966C126.506 170.966 126.803 170.891 127.104 170.742C127.409 170.593 127.665 170.364 127.87 170.056C128.079 169.748 128.183 169.355 128.183 168.878ZM136.616 161.818V172H135.443V161.818H136.616ZM141.868 172.159C141.178 172.159 140.573 171.995 140.053 171.667C139.536 171.339 139.132 170.88 138.84 170.29C138.551 169.7 138.407 169.01 138.407 168.222C138.407 167.426 138.551 166.732 138.84 166.138C139.132 165.545 139.536 165.085 140.053 164.756C140.573 164.428 141.178 164.264 141.868 164.264C142.557 164.264 143.16 164.428 143.677 164.756C144.198 165.085 144.602 165.545 144.89 166.138C145.182 166.732 145.328 167.426 145.328 168.222C145.328 169.01 145.182 169.7 144.89 170.29C144.602 170.88 144.198 171.339 143.677 171.667C143.16 171.995 142.557 172.159 141.868 172.159ZM141.868 171.105C142.391 171.105 142.822 170.971 143.16 170.702C143.498 170.434 143.748 170.081 143.911 169.643C144.073 169.206 144.154 168.732 144.154 168.222C144.154 167.711 144.073 167.236 143.911 166.795C143.748 166.354 143.498 165.998 143.16 165.726C142.822 165.454 142.391 165.318 141.868 165.318C141.344 165.318 140.913 165.454 140.575 165.726C140.237 165.998 139.987 166.354 139.824 166.795C139.662 167.236 139.581 167.711 139.581 168.222C139.581 168.732 139.662 169.206 139.824 169.643C139.987 170.081 140.237 170.434 140.575 170.702C140.913 170.971 141.344 171.105 141.868 171.105ZM150.221 172.159C149.532 172.159 148.927 171.995 148.406 171.667C147.889 171.339 147.485 170.88 147.193 170.29C146.905 169.7 146.761 169.01 146.761 168.222C146.761 167.426 146.905 166.732 147.193 166.138C147.485 165.545 147.889 165.085 148.406 164.756C148.927 164.428 149.532 164.264 150.221 164.264C150.91 164.264 151.514 164.428 152.031 164.756C152.551 165.085 152.955 165.545 153.244 166.138C153.535 166.732 153.681 167.426 153.681 168.222C153.681 169.01 153.535 169.7 153.244 170.29C152.955 170.88 152.551 171.339 152.031 171.667C151.514 171.995 150.91 172.159 150.221 172.159ZM150.221 171.105C150.745 171.105 151.176 170.971 151.514 170.702C151.852 170.434 152.102 170.081 152.264 169.643C152.427 169.206 152.508 168.732 152.508 168.222C152.508 167.711 152.427 167.236 152.264 166.795C152.102 166.354 151.852 165.998 151.514 165.726C151.176 165.454 150.745 165.318 150.221 165.318C149.697 165.318 149.267 165.454 148.928 165.726C148.59 165.998 148.34 166.354 148.178 166.795C148.015 167.236 147.934 167.711 147.934 168.222C147.934 168.732 148.015 169.206 148.178 169.643C148.34 170.081 148.59 170.434 148.928 170.702C149.267 170.971 149.697 171.105 150.221 171.105ZM156.566 169.216L156.546 167.764H156.785L160.126 164.364H161.577L158.018 167.963H157.918L156.566 169.216ZM155.472 172V161.818H156.646V172H155.472ZM160.325 172L157.342 168.222L158.177 167.406L161.816 172H160.325ZM163.088 172V164.364H164.261V172H163.088ZM163.684 163.091C163.455 163.091 163.258 163.013 163.093 162.857C162.93 162.701 162.849 162.514 162.849 162.295C162.849 162.077 162.93 161.889 163.093 161.734C163.258 161.578 163.455 161.5 163.684 161.5C163.913 161.5 164.108 161.578 164.271 161.734C164.436 161.889 164.519 162.077 164.519 162.295C164.519 162.514 164.436 162.701 164.271 162.857C164.108 163.013 163.913 163.091 163.684 163.091ZM167.583 167.406V172H166.41V164.364H167.543V165.557H167.643C167.822 165.169 168.094 164.857 168.458 164.622C168.823 164.384 169.293 164.264 169.87 164.264C170.387 164.264 170.839 164.37 171.227 164.582C171.615 164.791 171.917 165.109 172.132 165.537C172.348 165.961 172.455 166.498 172.455 167.148V172H171.282V167.227C171.282 166.627 171.126 166.16 170.815 165.825C170.503 165.487 170.076 165.318 169.532 165.318C169.157 165.318 168.823 165.399 168.528 165.562C168.236 165.724 168.006 165.961 167.837 166.273C167.668 166.584 167.583 166.962 167.583 167.406ZM177.682 175.023C177.115 175.023 176.628 174.95 176.22 174.804C175.812 174.661 175.473 174.473 175.201 174.237C174.932 174.005 174.719 173.757 174.559 173.491L175.494 172.835C175.6 172.974 175.734 173.134 175.897 173.312C176.059 173.495 176.281 173.652 176.563 173.785C176.848 173.921 177.221 173.989 177.682 173.989C178.298 173.989 178.807 173.839 179.208 173.541C179.609 173.243 179.809 172.776 179.809 172.139V170.588H179.71C179.624 170.727 179.501 170.9 179.342 171.105C179.186 171.307 178.961 171.488 178.666 171.647C178.374 171.803 177.98 171.881 177.483 171.881C176.866 171.881 176.313 171.735 175.822 171.443C175.335 171.152 174.949 170.727 174.664 170.17C174.382 169.614 174.241 168.937 174.241 168.142C174.241 167.36 174.379 166.679 174.654 166.099C174.929 165.515 175.312 165.065 175.802 164.746C176.293 164.425 176.86 164.264 177.503 164.264C178 164.264 178.394 164.347 178.686 164.513C178.981 164.675 179.206 164.861 179.362 165.07C179.521 165.275 179.644 165.444 179.73 165.577H179.849V164.364H180.983V172.219C180.983 172.875 180.834 173.409 180.535 173.82C180.24 174.234 179.843 174.537 179.342 174.729C178.845 174.925 178.291 175.023 177.682 175.023ZM177.642 170.827C178.113 170.827 178.51 170.719 178.835 170.504C179.16 170.288 179.407 169.978 179.576 169.574C179.745 169.17 179.829 168.686 179.829 168.122C179.829 167.572 179.747 167.086 179.581 166.665C179.415 166.245 179.17 165.915 178.845 165.676C178.52 165.437 178.119 165.318 177.642 165.318C177.145 165.318 176.73 165.444 176.399 165.696C176.071 165.948 175.824 166.286 175.658 166.71C175.496 167.134 175.415 167.605 175.415 168.122C175.415 168.652 175.497 169.121 175.663 169.529C175.832 169.933 176.081 170.252 176.409 170.484C176.74 170.712 177.151 170.827 177.642 170.827ZM190.469 164.364V165.358H186.352V164.364H190.469ZM187.585 172V163.31C187.585 162.872 187.688 162.508 187.893 162.216C188.099 161.924 188.366 161.705 188.694 161.56C189.022 161.414 189.368 161.341 189.733 161.341C190.021 161.341 190.256 161.364 190.439 161.411C190.621 161.457 190.757 161.5 190.846 161.54L190.508 162.554C190.449 162.534 190.366 162.509 190.26 162.479C190.157 162.45 190.021 162.435 189.852 162.435C189.464 162.435 189.184 162.532 189.012 162.728C188.843 162.924 188.758 163.21 188.758 163.588V172H187.585ZM194.901 172.159C194.211 172.159 193.606 171.995 193.086 171.667C192.569 171.339 192.165 170.88 191.873 170.29C191.585 169.7 191.441 169.01 191.441 168.222C191.441 167.426 191.585 166.732 191.873 166.138C192.165 165.545 192.569 165.085 193.086 164.756C193.606 164.428 194.211 164.264 194.901 164.264C195.59 164.264 196.193 164.428 196.71 164.756C197.231 165.085 197.635 165.545 197.923 166.138C198.215 166.732 198.361 167.426 198.361 168.222C198.361 169.01 198.215 169.7 197.923 170.29C197.635 170.88 197.231 171.339 196.71 171.667C196.193 171.995 195.59 172.159 194.901 172.159ZM194.901 171.105C195.424 171.105 195.855 170.971 196.193 170.702C196.531 170.434 196.782 170.081 196.944 169.643C197.106 169.206 197.188 168.732 197.188 168.222C197.188 167.711 197.106 167.236 196.944 166.795C196.782 166.354 196.531 165.998 196.193 165.726C195.855 165.454 195.424 165.318 194.901 165.318C194.377 165.318 193.946 165.454 193.608 165.726C193.27 165.998 193.02 166.354 192.857 166.795C192.695 167.236 192.614 167.711 192.614 168.222C192.614 168.732 192.695 169.206 192.857 169.643C193.02 170.081 193.27 170.434 193.608 170.702C193.946 170.971 194.377 171.105 194.901 171.105ZM200.152 172V164.364H201.286V165.517H201.365C201.504 165.139 201.756 164.833 202.121 164.597C202.485 164.362 202.896 164.244 203.354 164.244C203.44 164.244 203.548 164.246 203.677 164.249C203.806 164.253 203.904 164.258 203.97 164.264V165.457C203.93 165.447 203.839 165.433 203.697 165.413C203.558 165.389 203.41 165.378 203.254 165.378C202.883 165.378 202.552 165.456 202.26 165.612C201.972 165.764 201.743 165.976 201.574 166.248C201.408 166.516 201.325 166.823 201.325 167.168V172H200.152ZM212.619 164.364V165.358H208.662V164.364H212.619ZM209.816 162.534H210.989V169.812C210.989 170.144 211.037 170.393 211.133 170.558C211.232 170.721 211.358 170.83 211.511 170.886C211.667 170.939 211.831 170.966 212.003 170.966C212.132 170.966 212.238 170.959 212.321 170.946C212.404 170.929 212.47 170.916 212.52 170.906L212.759 171.96C212.679 171.99 212.568 172.02 212.426 172.05C212.283 172.083 212.102 172.099 211.884 172.099C211.552 172.099 211.227 172.028 210.909 171.886C210.594 171.743 210.333 171.526 210.124 171.234C209.918 170.943 209.816 170.575 209.816 170.131V162.534ZM217.405 172.159C216.715 172.159 216.11 171.995 215.59 171.667C215.073 171.339 214.669 170.88 214.377 170.29C214.089 169.7 213.944 169.01 213.944 168.222C213.944 167.426 214.089 166.732 214.377 166.138C214.669 165.545 215.073 165.085 215.59 164.756C216.11 164.428 216.715 164.264 217.405 164.264C218.094 164.264 218.697 164.428 219.214 164.756C219.735 165.085 220.139 165.545 220.427 166.138C220.719 166.732 220.865 167.426 220.865 168.222C220.865 169.01 220.719 169.7 220.427 170.29C220.139 170.88 219.735 171.339 219.214 171.667C218.697 171.995 218.094 172.159 217.405 172.159ZM217.405 171.105C217.928 171.105 218.359 170.971 218.697 170.702C219.035 170.434 219.286 170.081 219.448 169.643C219.61 169.206 219.692 168.732 219.692 168.222C219.692 167.711 219.61 167.236 219.448 166.795C219.286 166.354 219.035 165.998 218.697 165.726C218.359 165.454 217.928 165.318 217.405 165.318C216.881 165.318 216.45 165.454 216.112 165.726C215.774 165.998 215.524 166.354 215.361 166.795C215.199 167.236 215.118 167.711 215.118 168.222C215.118 168.732 215.199 169.206 215.361 169.643C215.524 170.081 215.774 170.434 216.112 170.702C216.45 170.971 216.881 171.105 217.405 171.105ZM225.539 172.159C224.903 172.159 224.341 171.998 223.854 171.677C223.367 171.352 222.986 170.895 222.711 170.305C222.435 169.711 222.298 169.01 222.298 168.202C222.298 167.4 222.435 166.704 222.711 166.114C222.986 165.524 223.368 165.068 223.859 164.746C224.35 164.425 224.916 164.264 225.559 164.264C226.056 164.264 226.449 164.347 226.738 164.513C227.029 164.675 227.251 164.861 227.404 165.07C227.56 165.275 227.681 165.444 227.767 165.577H227.866V161.818H229.039V172H227.906V170.827H227.767C227.681 170.966 227.558 171.142 227.399 171.354C227.24 171.562 227.013 171.75 226.718 171.915C226.423 172.078 226.03 172.159 225.539 172.159ZM225.699 171.105C226.169 171.105 226.567 170.982 226.892 170.737C227.217 170.489 227.463 170.146 227.632 169.708C227.801 169.267 227.886 168.759 227.886 168.182C227.886 167.612 227.803 167.113 227.637 166.685C227.472 166.254 227.226 165.92 226.902 165.681C226.577 165.439 226.176 165.318 225.699 165.318C225.201 165.318 224.787 165.446 224.456 165.701C224.127 165.953 223.881 166.296 223.715 166.73C223.552 167.161 223.471 167.645 223.471 168.182C223.471 168.725 223.554 169.219 223.72 169.663C223.889 170.104 224.137 170.455 224.466 170.717C224.797 170.976 225.208 171.105 225.699 171.105ZM233.598 172.179C233.114 172.179 232.675 172.088 232.281 171.906C231.886 171.72 231.573 171.453 231.341 171.105C231.109 170.754 230.993 170.33 230.993 169.832C230.993 169.395 231.079 169.04 231.252 168.768C231.424 168.493 231.654 168.278 231.943 168.122C232.231 167.966 232.549 167.85 232.897 167.774C233.249 167.695 233.602 167.632 233.956 167.585C234.42 167.526 234.797 167.481 235.085 167.451C235.377 167.418 235.589 167.363 235.721 167.287C235.857 167.211 235.925 167.078 235.925 166.889V166.849C235.925 166.359 235.791 165.978 235.522 165.706C235.257 165.434 234.855 165.298 234.314 165.298C233.754 165.298 233.315 165.421 232.997 165.666C232.679 165.911 232.455 166.173 232.326 166.452L231.212 166.054C231.411 165.59 231.676 165.229 232.007 164.97C232.342 164.708 232.707 164.526 233.101 164.423C233.499 164.317 233.89 164.264 234.275 164.264C234.52 164.264 234.801 164.294 235.12 164.354C235.441 164.41 235.751 164.528 236.049 164.707C236.351 164.886 236.601 165.156 236.8 165.517C236.999 165.878 237.098 166.362 237.098 166.969V172H235.925V170.966H235.865C235.786 171.132 235.653 171.309 235.468 171.498C235.282 171.687 235.035 171.848 234.727 171.98C234.419 172.113 234.042 172.179 233.598 172.179ZM233.777 171.125C234.241 171.125 234.632 171.034 234.951 170.852C235.272 170.669 235.514 170.434 235.676 170.146C235.842 169.857 235.925 169.554 235.925 169.236V168.162C235.875 168.222 235.766 168.276 235.597 168.326C235.431 168.372 235.239 168.414 235.02 168.45C234.805 168.483 234.594 168.513 234.389 168.54C234.187 168.563 234.023 168.583 233.897 168.599C233.592 168.639 233.307 168.704 233.042 168.793C232.78 168.879 232.568 169.01 232.405 169.186C232.246 169.358 232.167 169.594 232.167 169.892C232.167 170.3 232.317 170.608 232.619 170.817C232.924 171.022 233.31 171.125 233.777 171.125ZM239.722 174.864C239.523 174.864 239.346 174.847 239.19 174.814C239.034 174.784 238.927 174.754 238.867 174.724L239.165 173.69C239.45 173.763 239.702 173.79 239.921 173.77C240.14 173.75 240.334 173.652 240.503 173.477C240.675 173.304 240.832 173.024 240.975 172.636L241.194 172.04L238.37 164.364H239.643L241.751 170.449H241.83L243.938 164.364H245.211L241.969 173.114C241.823 173.508 241.643 173.835 241.427 174.093C241.212 174.355 240.962 174.549 240.677 174.675C240.395 174.801 240.077 174.864 239.722 174.864ZM248.291 169.136V169.077C248.297 168.444 248.364 167.94 248.49 167.565C248.615 167.191 248.794 166.888 249.026 166.656C249.258 166.424 249.537 166.21 249.862 166.014C250.057 165.895 250.233 165.754 250.389 165.592C250.544 165.426 250.667 165.235 250.757 165.02C250.849 164.804 250.896 164.566 250.896 164.304C250.896 163.979 250.82 163.697 250.667 163.459C250.515 163.22 250.311 163.036 250.056 162.907C249.8 162.778 249.517 162.713 249.205 162.713C248.934 162.713 248.672 162.769 248.42 162.882C248.168 162.995 247.958 163.172 247.789 163.414C247.619 163.656 247.522 163.973 247.495 164.364H246.242C246.269 163.8 246.415 163.318 246.68 162.917C246.948 162.516 247.301 162.209 247.739 161.997C248.18 161.785 248.669 161.679 249.205 161.679C249.789 161.679 250.296 161.795 250.727 162.027C251.161 162.259 251.496 162.577 251.731 162.982C251.97 163.386 252.089 163.847 252.089 164.364C252.089 164.728 252.033 165.058 251.92 165.353C251.811 165.648 251.651 165.911 251.443 166.143C251.237 166.375 250.989 166.581 250.697 166.76C250.405 166.942 250.172 167.134 249.996 167.337C249.82 167.536 249.693 167.772 249.613 168.048C249.534 168.323 249.49 168.666 249.484 169.077V169.136H248.291ZM248.927 172.08C248.682 172.08 248.471 171.992 248.296 171.816C248.12 171.64 248.032 171.43 248.032 171.185C248.032 170.939 248.12 170.729 248.296 170.553C248.471 170.378 248.682 170.29 248.927 170.29C249.172 170.29 249.383 170.378 249.558 170.553C249.734 170.729 249.822 170.939 249.822 171.185C249.822 171.347 249.78 171.496 249.698 171.632C249.618 171.768 249.51 171.877 249.374 171.96C249.242 172.04 249.093 172.08 248.927 172.08Z" fill="black"/>
<path d="M94.6548 357V346.818H98.2145C98.9238 346.818 99.5088 346.941 99.9695 347.186C100.43 347.428 100.773 347.754 100.999 348.165C101.224 348.573 101.337 349.026 101.337 349.523C101.337 349.96 101.259 350.321 101.103 350.607C100.951 350.892 100.748 351.117 100.496 351.283C100.248 351.448 99.9777 351.571 99.6861 351.651V351.75C99.9976 351.77 100.311 351.879 100.626 352.078C100.941 352.277 101.204 352.562 101.416 352.933C101.628 353.304 101.734 353.759 101.734 354.295C101.734 354.806 101.618 355.265 101.386 355.673C101.154 356.08 100.788 356.403 100.288 356.642C99.7872 356.881 99.1359 357 98.3338 357H94.6548ZM95.8878 355.906H98.3338C99.1392 355.906 99.7109 355.75 100.049 355.439C100.39 355.124 100.561 354.743 100.561 354.295C100.561 353.951 100.473 353.633 100.298 353.341C100.122 353.046 99.8717 352.811 99.5469 352.635C99.2221 352.456 98.8376 352.366 98.3935 352.366H95.8878V355.906ZM95.8878 351.293H98.1747C98.5459 351.293 98.8807 351.22 99.179 351.074C99.4806 350.928 99.7192 350.723 99.8949 350.457C100.074 350.192 100.163 349.881 100.163 349.523C100.163 349.075 100.008 348.696 99.696 348.384C99.3845 348.069 98.8906 347.912 98.2145 347.912H95.8878V351.293ZM106.803 357.159C106.067 357.159 105.432 356.997 104.899 356.672C104.368 356.344 103.959 355.886 103.671 355.3C103.386 354.71 103.243 354.024 103.243 353.241C103.243 352.459 103.386 351.77 103.671 351.173C103.959 350.573 104.36 350.106 104.874 349.771C105.391 349.433 105.994 349.264 106.684 349.264C107.081 349.264 107.474 349.33 107.862 349.463C108.25 349.596 108.603 349.811 108.921 350.109C109.239 350.404 109.493 350.795 109.681 351.283C109.87 351.77 109.965 352.37 109.965 353.082V353.58H104.078V352.565H108.772C108.772 352.134 108.685 351.75 108.513 351.412C108.344 351.074 108.102 350.807 107.787 350.612C107.476 350.416 107.108 350.318 106.684 350.318C106.216 350.318 105.812 350.434 105.471 350.666C105.132 350.895 104.872 351.193 104.69 351.561C104.508 351.929 104.417 352.323 104.417 352.744V353.42C104.417 353.997 104.516 354.486 104.715 354.887C104.917 355.285 105.197 355.588 105.555 355.797C105.913 356.002 106.329 356.105 106.803 356.105C107.111 356.105 107.39 356.062 107.638 355.976C107.89 355.886 108.107 355.754 108.289 355.578C108.472 355.399 108.613 355.177 108.712 354.912L109.846 355.23C109.726 355.615 109.526 355.953 109.244 356.244C108.962 356.533 108.614 356.758 108.2 356.92C107.786 357.08 107.32 357.159 106.803 357.159ZM113.997 357.179C113.513 357.179 113.074 357.088 112.679 356.906C112.285 356.72 111.972 356.453 111.74 356.105C111.508 355.754 111.392 355.33 111.392 354.832C111.392 354.395 111.478 354.04 111.65 353.768C111.823 353.493 112.053 353.278 112.341 353.122C112.63 352.966 112.948 352.85 113.296 352.774C113.647 352.695 114 352.632 114.355 352.585C114.819 352.526 115.195 352.481 115.483 352.451C115.775 352.418 115.987 352.363 116.12 352.287C116.256 352.211 116.324 352.078 116.324 351.889V351.849C116.324 351.359 116.189 350.978 115.921 350.706C115.656 350.434 115.253 350.298 114.713 350.298C114.153 350.298 113.713 350.421 113.395 350.666C113.077 350.911 112.853 351.173 112.724 351.452L111.61 351.054C111.809 350.59 112.074 350.229 112.406 349.97C112.741 349.708 113.105 349.526 113.5 349.423C113.897 349.317 114.288 349.264 114.673 349.264C114.918 349.264 115.2 349.294 115.518 349.354C115.84 349.41 116.15 349.528 116.448 349.707C116.749 349.886 117 350.156 117.199 350.517C117.397 350.878 117.497 351.362 117.497 351.969V357H116.324V355.966H116.264C116.184 356.132 116.052 356.309 115.866 356.498C115.681 356.687 115.434 356.848 115.125 356.98C114.817 357.113 114.441 357.179 113.997 357.179ZM114.176 356.125C114.64 356.125 115.031 356.034 115.349 355.852C115.671 355.669 115.913 355.434 116.075 355.146C116.241 354.857 116.324 354.554 116.324 354.236V353.162C116.274 353.222 116.164 353.276 115.995 353.326C115.83 353.372 115.637 353.414 115.419 353.45C115.203 353.483 114.993 353.513 114.787 353.54C114.585 353.563 114.421 353.583 114.295 353.599C113.99 353.639 113.705 353.704 113.44 353.793C113.178 353.879 112.966 354.01 112.804 354.186C112.645 354.358 112.565 354.594 112.565 354.892C112.565 355.3 112.716 355.608 113.017 355.817C113.322 356.022 113.708 356.125 114.176 356.125ZM124.451 353.878V349.364H125.624V357H124.451V355.707H124.371C124.192 356.095 123.914 356.425 123.536 356.697C123.158 356.965 122.681 357.099 122.104 357.099C121.627 357.099 121.203 356.995 120.831 356.786C120.46 356.574 120.169 356.256 119.956 355.832C119.744 355.404 119.638 354.866 119.638 354.216V349.364H120.812V354.136C120.812 354.693 120.967 355.137 121.279 355.469C121.594 355.8 121.995 355.966 122.482 355.966C122.774 355.966 123.07 355.891 123.372 355.742C123.677 355.593 123.932 355.364 124.138 355.056C124.346 354.748 124.451 354.355 124.451 353.878ZM131.094 349.364V350.358H127.137V349.364H131.094ZM128.29 347.534H129.463V354.812C129.463 355.144 129.511 355.393 129.608 355.558C129.707 355.721 129.833 355.83 129.985 355.886C130.141 355.939 130.305 355.966 130.478 355.966C130.607 355.966 130.713 355.959 130.796 355.946C130.879 355.929 130.945 355.916 130.995 355.906L131.233 356.96C131.154 356.99 131.043 357.02 130.9 357.05C130.758 357.083 130.577 357.099 130.358 357.099C130.027 357.099 129.702 357.028 129.384 356.886C129.069 356.743 128.807 356.526 128.598 356.234C128.393 355.943 128.29 355.575 128.29 355.131V347.534ZM133.615 359.864C133.416 359.864 133.239 359.847 133.083 359.814C132.927 359.784 132.819 359.754 132.76 359.724L133.058 358.69C133.343 358.763 133.595 358.79 133.814 358.77C134.032 358.75 134.226 358.652 134.395 358.477C134.568 358.304 134.725 358.024 134.868 357.636L135.086 357.04L132.262 349.364H133.535L135.643 355.449H135.723L137.831 349.364H139.103L135.862 358.114C135.716 358.508 135.535 358.835 135.32 359.093C135.105 359.355 134.854 359.549 134.569 359.675C134.288 359.801 133.969 359.864 133.615 359.864Z" fill="black"/>
<path d="M282.233 357V346.818H283.466V351.352H288.895V346.818H290.128V357H288.895V352.446H283.466V357H282.233ZM295.539 357.159C294.85 357.159 294.245 356.995 293.725 356.667C293.208 356.339 292.803 355.88 292.512 355.29C292.223 354.7 292.079 354.01 292.079 353.222C292.079 352.426 292.223 351.732 292.512 351.138C292.803 350.545 293.208 350.085 293.725 349.756C294.245 349.428 294.85 349.264 295.539 349.264C296.229 349.264 296.832 349.428 297.349 349.756C297.869 350.085 298.274 350.545 298.562 351.138C298.854 351.732 299 352.426 299 353.222C299 354.01 298.854 354.7 298.562 355.29C298.274 355.88 297.869 356.339 297.349 356.667C296.832 356.995 296.229 357.159 295.539 357.159ZM295.539 356.105C296.063 356.105 296.494 355.971 296.832 355.702C297.17 355.434 297.42 355.081 297.583 354.643C297.745 354.206 297.826 353.732 297.826 353.222C297.826 352.711 297.745 352.236 297.583 351.795C297.42 351.354 297.17 350.998 296.832 350.726C296.494 350.454 296.063 350.318 295.539 350.318C295.016 350.318 294.585 350.454 294.247 350.726C293.909 350.998 293.658 351.354 293.496 351.795C293.334 352.236 293.252 352.711 293.252 353.222C293.252 353.732 293.334 354.206 293.496 354.643C293.658 355.081 293.909 355.434 294.247 355.702C294.585 355.971 295.016 356.105 295.539 356.105ZM300.791 357V349.364H301.924V350.557H302.024C302.183 350.149 302.44 349.833 302.794 349.607C303.149 349.379 303.575 349.264 304.072 349.264C304.576 349.264 304.995 349.379 305.33 349.607C305.668 349.833 305.931 350.149 306.12 350.557H306.2C306.395 350.162 306.689 349.849 307.08 349.617C307.471 349.382 307.94 349.264 308.487 349.264C309.169 349.264 309.728 349.478 310.162 349.906C310.596 350.33 310.813 350.991 310.813 351.889V357H309.64V351.889C309.64 351.326 309.486 350.923 309.178 350.681C308.869 350.439 308.507 350.318 308.089 350.318C307.552 350.318 307.136 350.481 306.841 350.805C306.546 351.127 306.399 351.535 306.399 352.028V357H305.205V351.77C305.205 351.336 305.065 350.986 304.783 350.721C304.501 350.452 304.138 350.318 303.694 350.318C303.389 350.318 303.104 350.399 302.839 350.562C302.577 350.724 302.365 350.95 302.203 351.238C302.044 351.523 301.964 351.853 301.964 352.227V357H300.791ZM316.16 357.159C315.425 357.159 314.79 356.997 314.256 356.672C313.726 356.344 313.317 355.886 313.028 355.3C312.743 354.71 312.601 354.024 312.601 353.241C312.601 352.459 312.743 351.77 313.028 351.173C313.317 350.573 313.718 350.106 314.231 349.771C314.748 349.433 315.352 349.264 316.041 349.264C316.439 349.264 316.831 349.33 317.219 349.463C317.607 349.596 317.96 349.811 318.278 350.109C318.596 350.404 318.85 350.795 319.039 351.283C319.228 351.77 319.322 352.37 319.322 353.082V353.58H313.436V352.565H318.129C318.129 352.134 318.043 351.75 317.871 351.412C317.702 351.074 317.46 350.807 317.145 350.612C316.833 350.416 316.465 350.318 316.041 350.318C315.574 350.318 315.169 350.434 314.828 350.666C314.49 350.895 314.23 351.193 314.047 351.561C313.865 351.929 313.774 352.323 313.774 352.744V353.42C313.774 353.997 313.873 354.486 314.072 354.887C314.274 355.285 314.555 355.588 314.912 355.797C315.27 356.002 315.686 356.105 316.16 356.105C316.469 356.105 316.747 356.062 316.996 355.976C317.247 355.886 317.465 355.754 317.647 355.578C317.829 355.399 317.97 355.177 318.069 354.912L319.203 355.23C319.084 355.615 318.883 355.953 318.601 356.244C318.32 356.533 317.972 356.758 317.557 356.92C317.143 357.08 316.677 357.159 316.16 357.159Z" fill="black"/>
<path d="M94.233 490V479.818H100.338V480.912H95.4659V484.352H99.8807V485.446H95.4659V490H94.233ZM104.538 490.179C104.054 490.179 103.615 490.088 103.22 489.906C102.826 489.72 102.513 489.453 102.281 489.105C102.049 488.754 101.933 488.33 101.933 487.832C101.933 487.395 102.019 487.04 102.191 486.768C102.364 486.493 102.594 486.278 102.882 486.122C103.171 485.966 103.489 485.85 103.837 485.774C104.188 485.695 104.541 485.632 104.896 485.585C105.36 485.526 105.736 485.481 106.024 485.451C106.316 485.418 106.528 485.363 106.661 485.287C106.797 485.211 106.865 485.078 106.865 484.889V484.849C106.865 484.359 106.73 483.978 106.462 483.706C106.197 483.434 105.794 483.298 105.254 483.298C104.694 483.298 104.254 483.421 103.936 483.666C103.618 483.911 103.394 484.173 103.265 484.452L102.151 484.054C102.35 483.59 102.615 483.229 102.947 482.97C103.282 482.708 103.646 482.526 104.041 482.423C104.438 482.317 104.829 482.264 105.214 482.264C105.459 482.264 105.741 482.294 106.059 482.354C106.381 482.41 106.691 482.528 106.989 482.707C107.29 482.886 107.541 483.156 107.74 483.517C107.938 483.878 108.038 484.362 108.038 484.969V490H106.865V488.966H106.805C106.725 489.132 106.593 489.309 106.407 489.498C106.222 489.687 105.975 489.848 105.666 489.98C105.358 490.113 104.982 490.179 104.538 490.179ZM104.717 489.125C105.181 489.125 105.572 489.034 105.89 488.852C106.212 488.669 106.454 488.434 106.616 488.146C106.782 487.857 106.865 487.554 106.865 487.236V486.162C106.815 486.222 106.705 486.276 106.536 486.326C106.371 486.372 106.178 486.414 105.96 486.45C105.744 486.483 105.534 486.513 105.328 486.54C105.126 486.563 104.962 486.583 104.836 486.599C104.531 486.639 104.246 486.704 103.981 486.793C103.719 486.879 103.507 487.01 103.345 487.186C103.186 487.358 103.106 487.594 103.106 487.892C103.106 488.3 103.257 488.608 103.558 488.817C103.863 489.022 104.249 489.125 104.717 489.125ZM115.588 484.074L114.534 484.372C114.468 484.196 114.37 484.026 114.241 483.86C114.115 483.691 113.943 483.552 113.724 483.442C113.505 483.333 113.225 483.278 112.884 483.278C112.417 483.278 112.027 483.386 111.716 483.602C111.407 483.814 111.253 484.084 111.253 484.412C111.253 484.704 111.359 484.934 111.571 485.103C111.783 485.272 112.115 485.413 112.566 485.526L113.699 485.804C114.382 485.97 114.891 486.223 115.225 486.565C115.56 486.903 115.728 487.339 115.728 487.872C115.728 488.31 115.602 488.701 115.35 489.045C115.101 489.39 114.753 489.662 114.306 489.861C113.858 490.06 113.338 490.159 112.745 490.159C111.966 490.159 111.321 489.99 110.811 489.652C110.3 489.314 109.977 488.82 109.841 488.17L110.955 487.892C111.061 488.303 111.261 488.611 111.556 488.817C111.855 489.022 112.244 489.125 112.725 489.125C113.272 489.125 113.706 489.009 114.027 488.777C114.352 488.542 114.515 488.26 114.515 487.932C114.515 487.667 114.422 487.445 114.236 487.266C114.051 487.083 113.766 486.947 113.381 486.858L112.108 486.56C111.409 486.394 110.895 486.137 110.567 485.789C110.242 485.438 110.08 484.999 110.08 484.472C110.08 484.041 110.201 483.66 110.443 483.328C110.688 482.997 111.021 482.737 111.442 482.548C111.866 482.359 112.347 482.264 112.884 482.264C113.64 482.264 114.233 482.43 114.664 482.761C115.098 483.093 115.406 483.53 115.588 484.074ZM118.667 485.406V490H117.494V479.818H118.667V483.557H118.767C118.945 483.162 119.214 482.849 119.572 482.617C119.933 482.382 120.414 482.264 121.014 482.264C121.534 482.264 121.99 482.369 122.381 482.577C122.772 482.783 123.075 483.099 123.291 483.527C123.509 483.951 123.619 484.491 123.619 485.148V490H122.445V485.227C122.445 484.621 122.288 484.152 121.973 483.82C121.662 483.486 121.229 483.318 120.676 483.318C120.291 483.318 119.946 483.399 119.642 483.562C119.34 483.724 119.101 483.961 118.926 484.273C118.753 484.584 118.667 484.962 118.667 485.406ZM125.765 490V482.364H126.939V490H125.765ZM126.362 481.091C126.133 481.091 125.936 481.013 125.77 480.857C125.608 480.701 125.527 480.514 125.527 480.295C125.527 480.077 125.608 479.889 125.77 479.734C125.936 479.578 126.133 479.5 126.362 479.5C126.591 479.5 126.786 479.578 126.949 479.734C127.114 479.889 127.197 480.077 127.197 480.295C127.197 480.514 127.114 480.701 126.949 480.857C126.786 481.013 126.591 481.091 126.362 481.091ZM132.19 490.159C131.5 490.159 130.896 489.995 130.375 489.667C129.858 489.339 129.454 488.88 129.162 488.29C128.874 487.7 128.73 487.01 128.73 486.222C128.73 485.426 128.874 484.732 129.162 484.138C129.454 483.545 129.858 483.085 130.375 482.756C130.896 482.428 131.5 482.264 132.19 482.264C132.879 482.264 133.482 482.428 133.999 482.756C134.52 483.085 134.924 483.545 135.213 484.138C135.504 484.732 135.65 485.426 135.65 486.222C135.65 487.01 135.504 487.7 135.213 488.29C134.924 488.88 134.52 489.339 133.999 489.667C133.482 489.995 132.879 490.159 132.19 490.159ZM132.19 489.105C132.713 489.105 133.144 488.971 133.482 488.702C133.82 488.434 134.071 488.081 134.233 487.643C134.396 487.206 134.477 486.732 134.477 486.222C134.477 485.711 134.396 485.236 134.233 484.795C134.071 484.354 133.82 483.998 133.482 483.726C133.144 483.454 132.713 483.318 132.19 483.318C131.666 483.318 131.235 483.454 130.897 483.726C130.559 483.998 130.309 484.354 130.146 484.795C129.984 485.236 129.903 485.711 129.903 486.222C129.903 486.732 129.984 487.206 130.146 487.643C130.309 488.081 130.559 488.434 130.897 488.702C131.235 488.971 131.666 489.105 132.19 489.105ZM138.614 485.406V490H137.441V482.364H138.575V483.557H138.674C138.853 483.169 139.125 482.857 139.489 482.622C139.854 482.384 140.325 482.264 140.901 482.264C141.418 482.264 141.871 482.37 142.259 482.582C142.646 482.791 142.948 483.109 143.163 483.537C143.379 483.961 143.487 484.498 143.487 485.148V490H142.313V485.227C142.313 484.627 142.157 484.16 141.846 483.825C141.534 483.487 141.107 483.318 140.563 483.318C140.189 483.318 139.854 483.399 139.559 483.562C139.267 483.724 139.037 483.961 138.868 484.273C138.699 484.584 138.614 484.962 138.614 485.406Z" fill="black"/>
<path d="M92.233 623V612.818H93.4659V617.352H98.8949V612.818H100.128V623H98.8949V618.446H93.4659V623H92.233ZM105.639 623.159C104.903 623.159 104.268 622.997 103.735 622.672C103.204 622.344 102.795 621.886 102.507 621.3C102.222 620.71 102.079 620.024 102.079 619.241C102.079 618.459 102.222 617.77 102.507 617.173C102.795 616.573 103.196 616.106 103.71 615.771C104.227 615.433 104.83 615.264 105.52 615.264C105.917 615.264 106.31 615.33 106.698 615.463C107.086 615.596 107.439 615.811 107.757 616.109C108.075 616.404 108.328 616.795 108.517 617.283C108.706 617.77 108.801 618.37 108.801 619.082V619.58H102.914V618.565H107.608C107.608 618.134 107.521 617.75 107.349 617.412C107.18 617.074 106.938 616.807 106.623 616.612C106.312 616.416 105.944 616.318 105.52 616.318C105.052 616.318 104.648 616.434 104.306 616.666C103.968 616.895 103.708 617.193 103.526 617.561C103.344 617.929 103.252 618.323 103.252 618.744V619.42C103.252 619.997 103.352 620.486 103.551 620.887C103.753 621.285 104.033 621.588 104.391 621.797C104.749 622.002 105.165 622.105 105.639 622.105C105.947 622.105 106.225 622.062 106.474 621.976C106.726 621.886 106.943 621.754 107.125 621.578C107.308 621.399 107.449 621.177 107.548 620.912L108.681 621.23C108.562 621.615 108.362 621.953 108.08 622.244C107.798 622.533 107.45 622.758 107.036 622.92C106.622 623.08 106.156 623.159 105.639 623.159ZM112.833 623.179C112.349 623.179 111.91 623.088 111.515 622.906C111.121 622.72 110.808 622.453 110.576 622.105C110.344 621.754 110.228 621.33 110.228 620.832C110.228 620.395 110.314 620.04 110.486 619.768C110.658 619.493 110.889 619.278 111.177 619.122C111.466 618.966 111.784 618.85 112.132 618.774C112.483 618.695 112.836 618.632 113.191 618.585C113.655 618.526 114.031 618.481 114.319 618.451C114.611 618.418 114.823 618.363 114.956 618.287C115.092 618.211 115.159 618.078 115.159 617.889V617.849C115.159 617.359 115.025 616.978 114.757 616.706C114.492 616.434 114.089 616.298 113.549 616.298C112.989 616.298 112.549 616.421 112.231 616.666C111.913 616.911 111.689 617.173 111.56 617.452L110.446 617.054C110.645 616.59 110.91 616.229 111.242 615.97C111.577 615.708 111.941 615.526 112.336 615.423C112.733 615.317 113.124 615.264 113.509 615.264C113.754 615.264 114.036 615.294 114.354 615.354C114.676 615.41 114.985 615.528 115.284 615.707C115.585 615.886 115.836 616.156 116.034 616.517C116.233 616.878 116.333 617.362 116.333 617.969V623H115.159V621.966H115.1C115.02 622.132 114.888 622.309 114.702 622.498C114.516 622.687 114.27 622.848 113.961 622.98C113.653 623.113 113.277 623.179 112.833 623.179ZM113.012 622.125C113.476 622.125 113.867 622.034 114.185 621.852C114.507 621.669 114.748 621.434 114.911 621.146C115.077 620.857 115.159 620.554 115.159 620.236V619.162C115.11 619.222 115 619.276 114.831 619.326C114.666 619.372 114.473 619.414 114.255 619.45C114.039 619.483 113.829 619.513 113.623 619.54C113.421 619.563 113.257 619.583 113.131 619.599C112.826 619.639 112.541 619.704 112.276 619.793C112.014 619.879 111.802 620.01 111.64 620.186C111.48 620.358 111.401 620.594 111.401 620.892C111.401 621.3 111.552 621.608 111.853 621.817C112.158 622.022 112.544 622.125 113.012 622.125ZM119.648 612.818V623H118.474V612.818H119.648ZM125.118 615.364V616.358H121.16V615.364H125.118ZM122.314 613.534H123.487V620.812C123.487 621.144 123.535 621.393 123.631 621.558C123.73 621.721 123.856 621.83 124.009 621.886C124.165 621.939 124.329 621.966 124.501 621.966C124.63 621.966 124.736 621.959 124.819 621.946C124.902 621.929 124.968 621.916 125.018 621.906L125.257 622.96C125.177 622.99 125.066 623.02 124.924 623.05C124.781 623.083 124.6 623.099 124.382 623.099C124.05 623.099 123.725 623.028 123.407 622.886C123.092 622.743 122.831 622.526 122.622 622.234C122.416 621.943 122.314 621.575 122.314 621.131V613.534ZM128.22 618.406V623H127.047V612.818H128.22V616.557H128.319C128.498 616.162 128.767 615.849 129.125 615.617C129.486 615.382 129.967 615.264 130.566 615.264C131.087 615.264 131.542 615.369 131.934 615.577C132.325 615.783 132.628 616.099 132.843 616.527C133.062 616.951 133.172 617.491 133.172 618.148V623H131.998V618.227C131.998 617.621 131.841 617.152 131.526 616.82C131.214 616.486 130.782 616.318 130.228 616.318C129.844 616.318 129.499 616.399 129.194 616.562C128.893 616.724 128.654 616.961 128.478 617.273C128.306 617.584 128.22 617.962 128.22 618.406Z" fill="black"/>
<path d="M296.801 616.364C296.741 615.86 296.5 615.469 296.075 615.19C295.651 614.912 295.131 614.773 294.514 614.773C294.063 614.773 293.669 614.846 293.331 614.991C292.996 615.137 292.734 615.338 292.545 615.593C292.36 615.848 292.267 616.138 292.267 616.463C292.267 616.735 292.332 616.969 292.461 617.164C292.594 617.356 292.763 617.517 292.968 617.646C293.174 617.772 293.389 617.877 293.614 617.96C293.84 618.039 294.047 618.104 294.236 618.153L295.27 618.432C295.535 618.501 295.83 618.598 296.155 618.72C296.483 618.843 296.796 619.01 297.094 619.222C297.396 619.431 297.645 619.7 297.84 620.028C298.036 620.356 298.134 620.759 298.134 621.236C298.134 621.786 297.989 622.283 297.701 622.727C297.416 623.171 296.998 623.524 296.448 623.786C295.901 624.048 295.237 624.179 294.455 624.179C293.725 624.179 293.094 624.061 292.56 623.826C292.03 623.591 291.612 623.263 291.308 622.842C291.006 622.421 290.835 621.932 290.795 621.375H292.068C292.101 621.759 292.231 622.078 292.456 622.33C292.685 622.578 292.973 622.764 293.321 622.886C293.672 623.006 294.05 623.065 294.455 623.065C294.925 623.065 295.348 622.989 295.722 622.837C296.097 622.681 296.393 622.465 296.612 622.19C296.831 621.912 296.94 621.587 296.94 621.216C296.94 620.878 296.846 620.603 296.657 620.391C296.468 620.179 296.219 620.006 295.911 619.874C295.603 619.741 295.27 619.625 294.912 619.526L293.659 619.168C292.864 618.939 292.234 618.612 291.77 618.188C291.306 617.764 291.074 617.209 291.074 616.523C291.074 615.953 291.228 615.455 291.536 615.031C291.848 614.604 292.265 614.272 292.789 614.037C293.316 613.798 293.904 613.679 294.554 613.679C295.21 613.679 295.794 613.797 296.304 614.032C296.814 614.264 297.219 614.582 297.517 614.987C297.819 615.391 297.978 615.85 297.994 616.364H296.801ZM300.002 626.864V616.364H301.135V617.577H301.274C301.36 617.444 301.48 617.275 301.632 617.07C301.788 616.861 302.01 616.675 302.298 616.513C302.59 616.347 302.985 616.264 303.482 616.264C304.125 616.264 304.691 616.425 305.182 616.746C305.673 617.068 306.055 617.524 306.33 618.114C306.606 618.704 306.743 619.4 306.743 620.202C306.743 621.01 306.606 621.711 306.33 622.305C306.055 622.895 305.674 623.352 305.187 623.677C304.7 623.998 304.138 624.159 303.502 624.159C303.011 624.159 302.618 624.078 302.323 623.915C302.028 623.75 301.801 623.562 301.642 623.354C301.483 623.142 301.36 622.966 301.274 622.827H301.175V626.864H300.002ZM301.155 620.182C301.155 620.759 301.24 621.267 301.409 621.708C301.578 622.146 301.825 622.489 302.149 622.737C302.474 622.982 302.872 623.105 303.343 623.105C303.833 623.105 304.242 622.976 304.57 622.717C304.902 622.455 305.151 622.104 305.316 621.663C305.485 621.219 305.57 620.725 305.57 620.182C305.57 619.645 305.487 619.161 305.321 618.73C305.159 618.296 304.912 617.953 304.58 617.701C304.252 617.446 303.84 617.318 303.343 617.318C302.865 617.318 302.464 617.439 302.139 617.681C301.815 617.92 301.569 618.254 301.404 618.685C301.238 619.113 301.155 619.612 301.155 620.182ZM311.635 624.159C310.946 624.159 310.341 623.995 309.82 623.667C309.303 623.339 308.899 622.88 308.607 622.29C308.319 621.7 308.175 621.01 308.175 620.222C308.175 619.426 308.319 618.732 308.607 618.138C308.899 617.545 309.303 617.085 309.82 616.756C310.341 616.428 310.946 616.264 311.635 616.264C312.325 616.264 312.928 616.428 313.445 616.756C313.965 617.085 314.369 617.545 314.658 618.138C314.95 618.732 315.095 619.426 315.095 620.222C315.095 621.01 314.95 621.7 314.658 622.29C314.369 622.88 313.965 623.339 313.445 623.667C312.928 623.995 312.325 624.159 311.635 624.159ZM311.635 623.105C312.159 623.105 312.59 622.971 312.928 622.702C313.266 622.434 313.516 622.081 313.678 621.643C313.841 621.206 313.922 620.732 313.922 620.222C313.922 619.711 313.841 619.236 313.678 618.795C313.516 618.354 313.266 617.998 312.928 617.726C312.59 617.454 312.159 617.318 311.635 617.318C311.111 617.318 310.681 617.454 310.343 617.726C310.004 617.998 309.754 618.354 309.592 618.795C309.429 619.236 309.348 619.711 309.348 620.222C309.348 620.732 309.429 621.206 309.592 621.643C309.754 622.081 310.004 622.434 310.343 622.702C310.681 622.971 311.111 623.105 311.635 623.105ZM316.886 624V616.364H318.02V617.517H318.099C318.239 617.139 318.491 616.833 318.855 616.597C319.22 616.362 319.631 616.244 320.088 616.244C320.174 616.244 320.282 616.246 320.411 616.249C320.54 616.253 320.638 616.258 320.705 616.264V617.457C320.665 617.447 320.574 617.433 320.431 617.413C320.292 617.389 320.144 617.378 319.989 617.378C319.617 617.378 319.286 617.456 318.994 617.612C318.706 617.764 318.477 617.976 318.308 618.248C318.143 618.516 318.06 618.823 318.06 619.168V624H316.886ZM325.895 616.364V617.358H321.938V616.364H325.895ZM323.091 614.534H324.264V621.812C324.264 622.144 324.312 622.393 324.408 622.558C324.508 622.721 324.634 622.83 324.786 622.886C324.942 622.939 325.106 622.966 325.278 622.966C325.408 622.966 325.514 622.959 325.597 622.946C325.679 622.929 325.746 622.916 325.795 622.906L326.034 623.96C325.955 623.99 325.844 624.02 325.701 624.05C325.558 624.083 325.378 624.099 325.159 624.099C324.828 624.099 324.503 624.028 324.185 623.886C323.87 623.743 323.608 623.526 323.399 623.234C323.194 622.943 323.091 622.575 323.091 622.131V614.534Z" fill="black"/>
<path d="M276.233 490V479.818H282.378V480.912H277.466V484.352H282.06V485.446H277.466V488.906H282.457V490H276.233ZM285.614 479.818V490H284.441V479.818H285.614ZM290.965 490.159C290.229 490.159 289.595 489.997 289.061 489.672C288.531 489.344 288.121 488.886 287.833 488.3C287.548 487.71 287.405 487.024 287.405 486.241C287.405 485.459 287.548 484.77 287.833 484.173C288.121 483.573 288.522 483.106 289.036 482.771C289.553 482.433 290.156 482.264 290.846 482.264C291.243 482.264 291.636 482.33 292.024 482.463C292.412 482.596 292.765 482.811 293.083 483.109C293.401 483.404 293.655 483.795 293.844 484.283C294.032 484.77 294.127 485.37 294.127 486.082V486.58H288.241V485.565H292.934C292.934 485.134 292.848 484.75 292.675 484.412C292.506 484.074 292.264 483.807 291.949 483.612C291.638 483.416 291.27 483.318 290.846 483.318C290.378 483.318 289.974 483.434 289.633 483.666C289.295 483.895 289.034 484.193 288.852 484.561C288.67 484.929 288.579 485.323 288.579 485.744V486.42C288.579 486.997 288.678 487.486 288.877 487.887C289.079 488.285 289.359 488.588 289.717 488.797C290.075 489.002 290.491 489.105 290.965 489.105C291.273 489.105 291.552 489.062 291.8 488.976C292.052 488.886 292.269 488.754 292.452 488.578C292.634 488.399 292.775 488.177 292.874 487.912L294.008 488.23C293.888 488.615 293.688 488.953 293.406 489.244C293.124 489.533 292.776 489.758 292.362 489.92C291.948 490.08 291.482 490.159 290.965 490.159ZM299.014 490.159C298.298 490.159 297.682 489.99 297.165 489.652C296.648 489.314 296.25 488.848 295.971 488.255C295.693 487.662 295.554 486.984 295.554 486.222C295.554 485.446 295.696 484.762 295.981 484.168C296.27 483.572 296.671 483.106 297.184 482.771C297.702 482.433 298.305 482.264 298.994 482.264C299.531 482.264 300.015 482.364 300.446 482.562C300.877 482.761 301.23 483.04 301.505 483.398C301.78 483.756 301.951 484.173 302.017 484.651H300.844C300.754 484.303 300.555 483.994 300.247 483.726C299.942 483.454 299.531 483.318 299.014 483.318C298.557 483.318 298.156 483.437 297.811 483.676C297.47 483.911 297.203 484.245 297.01 484.675C296.822 485.103 296.727 485.605 296.727 486.182C296.727 486.772 296.82 487.286 297.006 487.723C297.194 488.161 297.46 488.5 297.801 488.742C298.146 488.984 298.55 489.105 299.014 489.105C299.319 489.105 299.596 489.052 299.844 488.946C300.093 488.84 300.303 488.688 300.476 488.489C300.648 488.29 300.771 488.051 300.844 487.773H302.017C301.951 488.223 301.787 488.629 301.525 488.991C301.266 489.349 300.923 489.634 300.496 489.846C300.071 490.055 299.577 490.159 299.014 490.159ZM307.053 482.364V483.358H303.096V482.364H307.053ZM304.249 480.534H305.422V487.812C305.422 488.144 305.47 488.393 305.567 488.558C305.666 488.721 305.792 488.83 305.944 488.886C306.1 488.939 306.264 488.966 306.437 488.966C306.566 488.966 306.672 488.959 306.755 488.946C306.838 488.929 306.904 488.916 306.954 488.906L307.192 489.96C307.113 489.99 307.002 490.02 306.859 490.05C306.717 490.083 306.536 490.099 306.317 490.099C305.986 490.099 305.661 490.028 305.343 489.886C305.028 489.743 304.766 489.526 304.557 489.234C304.352 488.943 304.249 488.575 304.249 488.131V480.534ZM308.818 490V482.364H309.952V483.517H310.031C310.17 483.139 310.422 482.833 310.787 482.597C311.151 482.362 311.562 482.244 312.02 482.244C312.106 482.244 312.214 482.246 312.343 482.249C312.472 482.253 312.57 482.258 312.636 482.264V483.457C312.596 483.447 312.505 483.433 312.363 483.413C312.224 483.389 312.076 483.378 311.92 483.378C311.549 483.378 311.218 483.456 310.926 483.612C310.638 483.764 310.409 483.976 310.24 484.248C310.074 484.516 309.991 484.823 309.991 485.168V490H308.818ZM316.897 490.159C316.207 490.159 315.603 489.995 315.082 489.667C314.565 489.339 314.161 488.88 313.869 488.29C313.581 487.7 313.437 487.01 313.437 486.222C313.437 485.426 313.581 484.732 313.869 484.138C314.161 483.545 314.565 483.085 315.082 482.756C315.603 482.428 316.207 482.264 316.897 482.264C317.586 482.264 318.189 482.428 318.706 482.756C319.227 483.085 319.631 483.545 319.92 484.138C320.211 484.732 320.357 485.426 320.357 486.222C320.357 487.01 320.211 487.7 319.92 488.29C319.631 488.88 319.227 489.339 318.706 489.667C318.189 489.995 317.586 490.159 316.897 490.159ZM316.897 489.105C317.421 489.105 317.851 488.971 318.189 488.702C318.528 488.434 318.778 488.081 318.94 487.643C319.103 487.206 319.184 486.732 319.184 486.222C319.184 485.711 319.103 485.236 318.94 484.795C318.778 484.354 318.528 483.998 318.189 483.726C317.851 483.454 317.421 483.318 316.897 483.318C316.373 483.318 315.942 483.454 315.604 483.726C315.266 483.998 315.016 484.354 314.854 484.795C314.691 485.236 314.61 485.711 314.61 486.222C314.61 486.732 314.691 487.206 314.854 487.643C315.016 488.081 315.266 488.434 315.604 488.702C315.942 488.971 316.373 489.105 316.897 489.105ZM323.321 485.406V490H322.148V482.364H323.282V483.557H323.381C323.56 483.169 323.832 482.857 324.196 482.622C324.561 482.384 325.032 482.264 325.608 482.264C326.125 482.264 326.578 482.37 326.966 482.582C327.353 482.791 327.655 483.109 327.87 483.537C328.086 483.961 328.194 484.498 328.194 485.148V490H327.02V485.227C327.02 484.627 326.864 484.16 326.553 483.825C326.241 483.487 325.814 483.318 325.27 483.318C324.896 483.318 324.561 483.399 324.266 483.562C323.974 483.724 323.744 483.961 323.575 484.273C323.406 484.584 323.321 484.962 323.321 485.406ZM330.338 490V482.364H331.511V490H330.338ZM330.934 481.091C330.705 481.091 330.508 481.013 330.343 480.857C330.18 480.701 330.099 480.514 330.099 480.295C330.099 480.077 330.18 479.889 330.343 479.734C330.508 479.578 330.705 479.5 330.934 479.5C331.163 479.5 331.358 479.578 331.521 479.734C331.686 479.889 331.769 480.077 331.769 480.295C331.769 480.514 331.686 480.701 331.521 480.857C331.358 481.013 331.163 481.091 330.934 481.091ZM336.762 490.159C336.046 490.159 335.43 489.99 334.913 489.652C334.396 489.314 333.998 488.848 333.719 488.255C333.441 487.662 333.302 486.984 333.302 486.222C333.302 485.446 333.444 484.762 333.729 484.168C334.018 483.572 334.419 483.106 334.933 482.771C335.45 482.433 336.053 482.264 336.742 482.264C337.279 482.264 337.763 482.364 338.194 482.562C338.625 482.761 338.978 483.04 339.253 483.398C339.528 483.756 339.699 484.173 339.765 484.651H338.592C338.502 484.303 338.303 483.994 337.995 483.726C337.69 483.454 337.279 483.318 336.762 483.318C336.305 483.318 335.904 483.437 335.559 483.676C335.218 483.911 334.951 484.245 334.759 484.675C334.57 485.103 334.475 485.605 334.475 486.182C334.475 486.772 334.568 487.286 334.754 487.723C334.942 488.161 335.208 488.5 335.549 488.742C335.894 488.984 336.298 489.105 336.762 489.105C337.067 489.105 337.344 489.052 337.592 488.946C337.841 488.84 338.051 488.688 338.224 488.489C338.396 488.29 338.519 488.051 338.592 487.773H339.765C339.699 488.223 339.535 488.629 339.273 488.991C339.014 489.349 338.671 489.634 338.244 489.846C337.819 490.055 337.326 490.159 336.762 490.159ZM346.889 484.074L345.835 484.372C345.769 484.196 345.671 484.026 345.542 483.86C345.416 483.691 345.244 483.552 345.025 483.442C344.806 483.333 344.526 483.278 344.185 483.278C343.717 483.278 343.328 483.386 343.016 483.602C342.708 483.814 342.554 484.084 342.554 484.412C342.554 484.704 342.66 484.934 342.872 485.103C343.084 485.272 343.416 485.413 343.866 485.526L345 485.804C345.683 485.97 346.192 486.223 346.526 486.565C346.861 486.903 347.028 487.339 347.028 487.872C347.028 488.31 346.902 488.701 346.651 489.045C346.402 489.39 346.054 489.662 345.607 489.861C345.159 490.06 344.639 490.159 344.045 490.159C343.267 490.159 342.622 489.99 342.112 489.652C341.601 489.314 341.278 488.82 341.142 488.17L342.256 487.892C342.362 488.303 342.562 488.611 342.857 488.817C343.156 489.022 343.545 489.125 344.026 489.125C344.572 489.125 345.007 489.009 345.328 488.777C345.653 488.542 345.815 488.26 345.815 487.932C345.815 487.667 345.723 487.445 345.537 487.266C345.351 487.083 345.066 486.947 344.682 486.858L343.409 486.56C342.71 486.394 342.196 486.137 341.868 485.789C341.543 485.438 341.381 484.999 341.381 484.472C341.381 484.041 341.502 483.66 341.744 483.328C341.989 482.997 342.322 482.737 342.743 482.548C343.167 482.359 343.648 482.264 344.185 482.264C344.94 482.264 345.534 482.43 345.964 482.761C346.399 483.093 346.707 483.53 346.889 484.074Z" fill="black"/>
<rect y="862" width="430" height="70" fill="#D9D9D9"/>
<path d="M160.636 890.364V902H159.273L152.932 892.864H152.818V902H151.409V890.364H152.773L159.136 899.523H159.25V890.364H160.636ZM165.842 902.205C165.289 902.205 164.787 902.1 164.337 901.892C163.886 901.68 163.528 901.375 163.263 900.977C162.998 900.576 162.865 900.091 162.865 899.523C162.865 899.023 162.964 898.617 163.161 898.307C163.357 897.992 163.621 897.746 163.95 897.568C164.28 897.39 164.643 897.258 165.041 897.17C165.443 897.08 165.846 897.008 166.251 896.955C166.782 896.886 167.212 896.835 167.541 896.801C167.875 896.763 168.117 896.701 168.268 896.614C168.424 896.527 168.501 896.375 168.501 896.159V896.114C168.501 895.553 168.348 895.117 168.041 894.807C167.738 894.496 167.278 894.341 166.661 894.341C166.02 894.341 165.518 894.481 165.155 894.761C164.791 895.042 164.536 895.341 164.388 895.659L163.115 895.205C163.342 894.674 163.645 894.261 164.024 893.966C164.407 893.667 164.823 893.458 165.274 893.341C165.729 893.22 166.176 893.159 166.615 893.159C166.895 893.159 167.217 893.193 167.581 893.261C167.948 893.326 168.303 893.46 168.643 893.665C168.988 893.869 169.274 894.178 169.501 894.591C169.729 895.004 169.842 895.557 169.842 896.25V902H168.501V900.818H168.433C168.342 901.008 168.191 901.21 167.979 901.426C167.767 901.642 167.484 901.826 167.132 901.977C166.78 902.129 166.35 902.205 165.842 902.205ZM166.047 901C166.577 901 167.024 900.896 167.388 900.688C167.755 900.479 168.032 900.21 168.217 899.881C168.407 899.551 168.501 899.205 168.501 898.841V897.614C168.445 897.682 168.32 897.744 168.126 897.801C167.937 897.854 167.717 897.902 167.467 897.943C167.221 897.981 166.981 898.015 166.746 898.045C166.515 898.072 166.327 898.095 166.183 898.114C165.835 898.159 165.509 898.233 165.206 898.335C164.907 898.434 164.664 898.583 164.479 898.784C164.297 898.981 164.206 899.25 164.206 899.591C164.206 900.057 164.378 900.409 164.723 900.648C165.071 900.883 165.513 901 166.047 901ZM179.114 893.273L175.886 902H174.523L171.295 893.273H172.75L175.159 900.227H175.25L177.659 893.273H179.114ZM185.565 902V890.364H189.634C190.444 890.364 191.113 890.504 191.639 890.784C192.166 891.061 192.558 891.434 192.815 891.903C193.073 892.369 193.202 892.886 193.202 893.455C193.202 893.955 193.113 894.367 192.935 894.693C192.76 895.019 192.529 895.277 192.241 895.466C191.957 895.655 191.649 895.795 191.315 895.886V896C191.671 896.023 192.029 896.148 192.389 896.375C192.749 896.602 193.05 896.928 193.293 897.352C193.535 897.777 193.656 898.295 193.656 898.909C193.656 899.492 193.524 900.017 193.259 900.483C192.993 900.949 192.575 901.318 192.003 901.591C191.431 901.864 190.687 902 189.77 902H185.565ZM186.974 900.75H189.77C190.69 900.75 191.344 900.572 191.73 900.216C192.12 899.856 192.315 899.42 192.315 898.909C192.315 898.515 192.215 898.152 192.014 897.818C191.813 897.481 191.527 897.212 191.156 897.011C190.785 896.807 190.346 896.705 189.838 896.705H186.974V900.75ZM186.974 895.477H189.588C190.012 895.477 190.395 895.394 190.736 895.227C191.08 895.061 191.353 894.826 191.554 894.523C191.759 894.22 191.861 893.864 191.861 893.455C191.861 892.943 191.683 892.509 191.327 892.153C190.971 891.794 190.406 891.614 189.634 891.614H186.974V895.477ZM198.358 902.205C197.805 902.205 197.303 902.1 196.852 901.892C196.402 901.68 196.044 901.375 195.778 900.977C195.513 900.576 195.381 900.091 195.381 899.523C195.381 899.023 195.479 898.617 195.676 898.307C195.873 897.992 196.136 897.746 196.466 897.568C196.795 897.39 197.159 897.258 197.557 897.17C197.958 897.08 198.362 897.008 198.767 896.955C199.297 896.886 199.727 896.835 200.057 896.801C200.39 896.763 200.633 896.701 200.784 896.614C200.939 896.527 201.017 896.375 201.017 896.159V896.114C201.017 895.553 200.864 895.117 200.557 894.807C200.254 894.496 199.794 894.341 199.176 894.341C198.536 894.341 198.034 894.481 197.67 894.761C197.307 895.042 197.051 895.341 196.903 895.659L195.631 895.205C195.858 894.674 196.161 894.261 196.54 893.966C196.922 893.667 197.339 893.458 197.79 893.341C198.244 893.22 198.691 893.159 199.131 893.159C199.411 893.159 199.733 893.193 200.097 893.261C200.464 893.326 200.818 893.46 201.159 893.665C201.504 893.869 201.79 894.178 202.017 894.591C202.244 895.004 202.358 895.557 202.358 896.25V902H201.017V900.818H200.949C200.858 901.008 200.706 901.21 200.494 901.426C200.282 901.642 200 901.826 199.648 901.977C199.295 902.129 198.866 902.205 198.358 902.205ZM198.562 901C199.093 901 199.54 900.896 199.903 900.688C200.271 900.479 200.547 900.21 200.733 899.881C200.922 899.551 201.017 899.205 201.017 898.841V897.614C200.96 897.682 200.835 897.744 200.642 897.801C200.453 897.854 200.233 897.902 199.983 897.943C199.737 897.981 199.496 898.015 199.261 898.045C199.03 898.072 198.843 898.095 198.699 898.114C198.35 898.159 198.025 898.233 197.722 898.335C197.422 898.434 197.18 898.583 196.994 898.784C196.813 898.981 196.722 899.25 196.722 899.591C196.722 900.057 196.894 900.409 197.239 900.648C197.587 900.883 198.028 901 198.562 901ZM204.805 902V893.273H206.101V894.591H206.192C206.351 894.159 206.639 893.809 207.055 893.54C207.472 893.271 207.942 893.136 208.464 893.136C208.563 893.136 208.686 893.138 208.834 893.142C208.982 893.146 209.093 893.152 209.169 893.159V894.523C209.124 894.511 209.019 894.494 208.857 894.472C208.697 894.445 208.529 894.432 208.351 894.432C207.927 894.432 207.548 894.521 207.214 894.699C206.885 894.873 206.624 895.116 206.43 895.426C206.241 895.733 206.146 896.083 206.146 896.477V902H204.805Z" fill="black"/>
</svg>
