<svg width="2076" height="124" viewBox="0 0 2076 124" fill="none" xmlns="http://www.w3.org/2000/svg">
<rect x="392" width="272" height="124" fill="#D9D9D9"/>
<path d="M454.716 58.0909C454.631 57.3712 454.285 56.8125 453.679 56.4148C453.073 56.017 452.33 55.8182 451.449 55.8182C450.805 55.8182 450.241 55.9223 449.759 56.1307C449.28 56.339 448.906 56.6255 448.636 56.9901C448.371 57.3546 448.239 57.7689 448.239 58.233C448.239 58.6212 448.331 58.955 448.516 59.2344C448.705 59.509 448.946 59.7386 449.24 59.9233C449.534 60.1032 449.841 60.2524 450.163 60.3707C450.485 60.4844 450.781 60.5767 451.051 60.6477L452.528 61.0455C452.907 61.1449 453.329 61.2822 453.793 61.4574C454.261 61.6326 454.709 61.8717 455.135 62.1747C455.566 62.473 455.921 62.8565 456.2 63.3253C456.48 63.794 456.619 64.3693 456.619 65.0511C456.619 65.8371 456.413 66.5473 456.001 67.1818C455.594 67.8163 454.998 68.3205 454.212 68.6946C453.43 69.0687 452.481 69.2557 451.364 69.2557C450.322 69.2557 449.42 69.0876 448.658 68.7514C447.9 68.4152 447.304 67.9465 446.868 67.3452C446.437 66.7438 446.193 66.0455 446.136 65.25H447.955C448.002 65.7992 448.187 66.2538 448.509 66.6136C448.835 66.9687 449.247 67.2339 449.744 67.4091C450.246 67.5795 450.786 67.6648 451.364 67.6648C452.036 67.6648 452.64 67.5559 453.175 67.3381C453.71 67.1155 454.134 66.8078 454.446 66.4148C454.759 66.017 454.915 65.553 454.915 65.0227C454.915 64.5398 454.78 64.1468 454.51 63.8438C454.24 63.5407 453.885 63.2945 453.445 63.1051C453.004 62.9157 452.528 62.75 452.017 62.608L450.227 62.0966C449.091 61.7699 448.191 61.3035 447.528 60.6974C446.866 60.0914 446.534 59.2983 446.534 58.3182C446.534 57.5038 446.754 56.7936 447.195 56.1875C447.64 55.5767 448.236 55.1032 448.984 54.767C449.737 54.4261 450.578 54.2557 451.506 54.2557C452.443 54.2557 453.277 54.4238 454.006 54.7599C454.735 55.0914 455.313 55.5459 455.739 56.1236C456.17 56.7012 456.397 57.357 456.42 58.0909H454.716ZM459.288 69V58.0909H460.964V69H459.288ZM460.14 56.2727C459.814 56.2727 459.532 56.1615 459.295 55.9389C459.063 55.7164 458.947 55.4489 458.947 55.1364C458.947 54.8239 459.063 54.5563 459.295 54.3338C459.532 54.1113 459.814 54 460.14 54C460.467 54 460.746 54.1113 460.978 54.3338C461.215 54.5563 461.333 54.8239 461.333 55.1364C461.333 55.4489 461.215 55.7164 460.978 55.9389C460.746 56.1615 460.467 56.2727 460.14 56.2727ZM468.438 73.3182C467.628 73.3182 466.932 73.214 466.349 73.0057C465.767 72.8021 465.282 72.5322 464.893 72.196C464.51 71.8646 464.205 71.5095 463.977 71.1307L465.312 70.1932C465.464 70.392 465.656 70.6193 465.888 70.875C466.12 71.1354 466.437 71.3603 466.839 71.5497C467.247 71.7438 467.779 71.8409 468.438 71.8409C469.318 71.8409 470.045 71.6278 470.618 71.2017C471.191 70.7756 471.477 70.108 471.477 69.1989V66.983H471.335C471.212 67.1818 471.037 67.428 470.81 67.7216C470.587 68.0104 470.265 68.2685 469.844 68.4957C469.427 68.7183 468.864 68.8295 468.153 68.8295C467.273 68.8295 466.482 68.6212 465.781 68.2045C465.085 67.7879 464.534 67.1818 464.126 66.3864C463.724 65.5909 463.523 64.625 463.523 63.4886C463.523 62.3712 463.719 61.3982 464.112 60.5696C464.505 59.7363 465.052 59.0923 465.753 58.6378C466.454 58.1785 467.263 57.9489 468.182 57.9489C468.892 57.9489 469.455 58.0672 469.872 58.304C470.294 58.536 470.616 58.8011 470.838 59.0994C471.065 59.393 471.241 59.6345 471.364 59.8239H471.534V58.0909H473.153V69.3125C473.153 70.25 472.94 71.0123 472.514 71.5994C472.093 72.1913 471.525 72.6245 470.81 72.8991C470.099 73.1785 469.309 73.3182 468.438 73.3182ZM468.381 67.3239C469.053 67.3239 469.621 67.17 470.085 66.8622C470.549 66.5545 470.902 66.1117 471.143 65.5341C471.385 64.9564 471.506 64.2652 471.506 63.4602C471.506 62.6742 471.387 61.9806 471.151 61.3793C470.914 60.7779 470.563 60.3068 470.099 59.9659C469.635 59.625 469.063 59.4545 468.381 59.4545C467.67 59.4545 467.079 59.6345 466.605 59.9943C466.136 60.3542 465.784 60.8371 465.547 61.4432C465.315 62.0492 465.199 62.7216 465.199 63.4602C465.199 64.2178 465.317 64.8878 465.554 65.4702C465.795 66.0478 466.151 66.5024 466.619 66.8338C467.093 67.1605 467.68 67.3239 468.381 67.3239ZM477.898 62.4375V69H476.222V58.0909H477.841V59.7955H477.983C478.239 59.2415 478.627 58.7964 479.148 58.4602C479.669 58.1193 480.341 57.9489 481.165 57.9489C481.903 57.9489 482.55 58.1004 483.104 58.4034C483.658 58.7017 484.089 59.1562 484.396 59.767C484.704 60.3731 484.858 61.1402 484.858 62.0682V69H483.182V62.1818C483.182 61.3248 482.959 60.6572 482.514 60.179C482.069 59.696 481.458 59.4545 480.682 59.4545C480.147 59.4545 479.669 59.5705 479.247 59.8026C478.83 60.0346 478.501 60.3731 478.26 60.8182C478.018 61.2633 477.898 61.803 477.898 62.4375ZM500.421 64.5398V58.0909H502.097V69H500.421V67.1534H500.307C500.051 67.7074 499.654 68.1785 499.114 68.5668C498.574 68.9503 497.892 69.142 497.069 69.142C496.387 69.142 495.781 68.9929 495.25 68.6946C494.72 68.3916 494.303 67.937 494 67.331C493.697 66.7202 493.546 65.9508 493.546 65.0227V58.0909H495.222V64.9091C495.222 65.7045 495.444 66.339 495.89 66.8125C496.339 67.286 496.912 67.5227 497.608 67.5227C498.025 67.5227 498.449 67.4162 498.88 67.2031C499.315 66.9901 499.68 66.6634 499.973 66.223C500.272 65.7827 500.421 65.2216 500.421 64.5398ZM505.167 73.0909V58.0909H506.786V59.8239H506.985C507.108 59.6345 507.279 59.393 507.496 59.0994C507.719 58.8011 508.036 58.536 508.448 58.304C508.865 58.0672 509.428 57.9489 510.138 57.9489C511.057 57.9489 511.867 58.1785 512.567 58.6378C513.268 59.0971 513.815 59.7481 514.208 60.5909C514.601 61.4337 514.798 62.428 514.798 63.5739C514.798 64.7292 514.601 65.7306 514.208 66.5781C513.815 67.4209 513.271 68.0743 512.575 68.5384C511.879 68.9976 511.076 69.2273 510.167 69.2273C509.466 69.2273 508.905 69.1113 508.484 68.8793C508.062 68.6425 507.738 68.375 507.511 68.0767C507.283 67.7737 507.108 67.5227 506.985 67.3239H506.843V73.0909H505.167ZM506.815 63.5455C506.815 64.3693 506.935 65.0961 507.177 65.7259C507.418 66.3509 507.771 66.8409 508.235 67.196C508.699 67.5464 509.267 67.7216 509.94 67.7216C510.64 67.7216 511.225 67.5369 511.694 67.1676C512.167 66.7936 512.522 66.2917 512.759 65.6619C513.001 65.0275 513.121 64.322 513.121 63.5455C513.121 62.7784 513.003 62.0871 512.766 61.4716C512.534 60.8513 512.182 60.3613 511.708 60.0014C511.239 59.6368 510.65 59.4545 509.94 59.4545C509.258 59.4545 508.685 59.6274 508.221 59.973C507.757 60.3139 507.406 60.7921 507.17 61.4077C506.933 62.0185 506.815 62.7311 506.815 63.5455ZM528.121 53.7727L523.434 71.1875H521.9L526.587 53.7727H528.121ZM535.961 69V54.4545H537.722V67.4375H544.483V69H535.961ZM551.415 69.2273C550.43 69.2273 549.566 68.9929 548.823 68.5241C548.084 68.0554 547.507 67.3996 547.09 66.5568C546.678 65.714 546.472 64.7292 546.472 63.6023C546.472 62.4659 546.678 61.474 547.09 60.6264C547.507 59.7789 548.084 59.1207 548.823 58.652C549.566 58.1832 550.43 57.9489 551.415 57.9489C552.4 57.9489 553.262 58.1832 554 58.652C554.744 59.1207 555.321 59.7789 555.733 60.6264C556.15 61.474 556.358 62.4659 556.358 63.6023C556.358 64.7292 556.15 65.714 555.733 66.5568C555.321 67.3996 554.744 68.0554 554 68.5241C553.262 68.9929 552.4 69.2273 551.415 69.2273ZM551.415 67.7216C552.163 67.7216 552.779 67.5298 553.262 67.1463C553.745 66.7628 554.102 66.2585 554.334 65.6335C554.566 65.0085 554.682 64.3314 554.682 63.6023C554.682 62.8731 554.566 62.1937 554.334 61.5639C554.102 60.9342 553.745 60.4252 553.262 60.0369C552.779 59.6487 552.163 59.4545 551.415 59.4545C550.667 59.4545 550.051 59.6487 549.569 60.0369C549.086 60.4252 548.728 60.9342 548.496 61.5639C548.264 62.1937 548.148 62.8731 548.148 63.6023C548.148 64.3314 548.264 65.0085 548.496 65.6335C548.728 66.2585 549.086 66.7628 549.569 67.1463C550.051 67.5298 550.667 67.7216 551.415 67.7216ZM563.32 73.3182C562.511 73.3182 561.815 73.214 561.232 73.0057C560.65 72.8021 560.165 72.5322 559.776 72.196C559.393 71.8646 559.087 71.5095 558.86 71.1307L560.195 70.1932C560.347 70.392 560.539 70.6193 560.771 70.875C561.003 71.1354 561.32 71.3603 561.722 71.5497C562.129 71.7438 562.662 71.8409 563.32 71.8409C564.201 71.8409 564.928 71.6278 565.501 71.2017C566.074 70.7756 566.36 70.108 566.36 69.1989V66.983H566.218C566.095 67.1818 565.92 67.428 565.692 67.7216C565.47 68.0104 565.148 68.2685 564.727 68.4957C564.31 68.7183 563.746 68.8295 563.036 68.8295C562.156 68.8295 561.365 68.6212 560.664 68.2045C559.968 67.7879 559.416 67.1818 559.009 66.3864C558.607 65.5909 558.406 64.625 558.406 63.4886C558.406 62.3712 558.602 61.3982 558.995 60.5696C559.388 59.7363 559.935 59.0923 560.636 58.6378C561.336 58.1785 562.146 57.9489 563.065 57.9489C563.775 57.9489 564.338 58.0672 564.755 58.304C565.176 58.536 565.498 58.8011 565.721 59.0994C565.948 59.393 566.123 59.6345 566.246 59.8239H566.417V58.0909H568.036V69.3125C568.036 70.25 567.823 71.0123 567.397 71.5994C566.976 72.1913 566.407 72.6245 565.692 72.8991C564.982 73.1785 564.192 73.3182 563.32 73.3182ZM563.263 67.3239C563.936 67.3239 564.504 67.17 564.968 66.8622C565.432 66.5545 565.785 66.1117 566.026 65.5341C566.268 64.9564 566.388 64.2652 566.388 63.4602C566.388 62.6742 566.27 61.9806 566.033 61.3793C565.797 60.7779 565.446 60.3068 564.982 59.9659C564.518 59.625 563.945 59.4545 563.263 59.4545C562.553 59.4545 561.961 59.6345 561.488 59.9943C561.019 60.3542 560.666 60.8371 560.43 61.4432C560.198 62.0492 560.082 62.7216 560.082 63.4602C560.082 64.2178 560.2 64.8878 560.437 65.4702C560.678 66.0478 561.033 66.5024 561.502 66.8338C561.976 67.1605 562.563 67.3239 563.263 67.3239ZM576.729 69V58.0909H578.406V69H576.729ZM577.582 56.2727C577.255 56.2727 576.973 56.1615 576.737 55.9389C576.504 55.7164 576.388 55.4489 576.388 55.1364C576.388 54.8239 576.504 54.5563 576.737 54.3338C576.973 54.1113 577.255 54 577.582 54C577.908 54 578.188 54.1113 578.42 54.3338C578.656 54.5563 578.775 54.8239 578.775 55.1364C578.775 55.4489 578.656 55.7164 578.42 55.9389C578.188 56.1615 577.908 56.2727 577.582 56.2727ZM583.152 62.4375V69H581.475V58.0909H583.095V59.7955H583.237C583.493 59.2415 583.881 58.7964 584.402 58.4602C584.922 58.1193 585.595 57.9489 586.419 57.9489C587.157 57.9489 587.804 58.1004 588.358 58.4034C588.912 58.7017 589.342 59.1562 589.65 59.767C589.958 60.3731 590.112 61.1402 590.112 62.0682V69H588.436V62.1818C588.436 61.3248 588.213 60.6572 587.768 60.179C587.323 59.696 586.712 59.4545 585.936 59.4545C585.401 59.4545 584.922 59.5705 584.501 59.8026C584.084 60.0346 583.755 60.3731 583.514 60.8182C583.272 61.2633 583.152 61.803 583.152 62.4375Z" fill="black"/>
<rect x="758" width="272" height="124" fill="#D9D9D9"/>
<path d="M865.761 69V54.4545H870.676C871.817 54.4545 872.75 54.6605 873.474 55.0724C874.204 55.4796 874.743 56.0312 875.094 56.7273C875.444 57.4233 875.619 58.1998 875.619 59.0568C875.619 59.9138 875.444 60.6927 875.094 61.3935C874.748 62.0942 874.213 62.6529 873.489 63.0696C872.764 63.4815 871.836 63.6875 870.705 63.6875H867.182V62.125H870.648C871.429 62.125 872.056 61.9901 872.53 61.7202C873.003 61.4503 873.347 61.0857 873.56 60.6264C873.777 60.1624 873.886 59.6392 873.886 59.0568C873.886 58.4744 873.777 57.9536 873.56 57.4943C873.347 57.035 873.001 56.6752 872.523 56.4148C872.045 56.1496 871.41 56.017 870.619 56.017H867.523V69H865.761ZM878.229 69V58.0909H879.849V59.7386H879.962C880.161 59.1989 880.521 58.7609 881.042 58.4247C881.563 58.0885 882.15 57.9205 882.803 57.9205C882.926 57.9205 883.08 57.9228 883.265 57.9276C883.45 57.9323 883.589 57.9394 883.684 57.9489V59.6534C883.627 59.6392 883.497 59.6179 883.293 59.5895C883.094 59.5563 882.884 59.5398 882.661 59.5398C882.131 59.5398 881.657 59.651 881.241 59.8736C880.829 60.0914 880.502 60.3944 880.261 60.7827C880.024 61.1662 879.906 61.6042 879.906 62.0966V69H878.229ZM889.771 69.2273C888.786 69.2273 887.922 68.9929 887.178 68.5241C886.44 68.0554 885.862 67.3996 885.445 66.5568C885.033 65.714 884.827 64.7292 884.827 63.6023C884.827 62.4659 885.033 61.474 885.445 60.6264C885.862 59.7789 886.44 59.1207 887.178 58.652C887.922 58.1832 888.786 57.9489 889.771 57.9489C890.755 57.9489 891.617 58.1832 892.356 58.652C893.099 59.1207 893.677 59.7789 894.089 60.6264C894.505 61.474 894.714 62.4659 894.714 63.6023C894.714 64.7292 894.505 65.714 894.089 66.5568C893.677 67.3996 893.099 68.0554 892.356 68.5241C891.617 68.9929 890.755 69.2273 889.771 69.2273ZM889.771 67.7216C890.519 67.7216 891.134 67.5298 891.617 67.1463C892.1 66.7628 892.458 66.2585 892.69 65.6335C892.922 65.0085 893.038 64.3314 893.038 63.6023C893.038 62.8731 892.922 62.1937 892.69 61.5639C892.458 60.9342 892.1 60.4252 891.617 60.0369C891.134 59.6487 890.519 59.4545 889.771 59.4545C889.022 59.4545 888.407 59.6487 887.924 60.0369C887.441 60.4252 887.084 60.9342 886.852 61.5639C886.62 62.1937 886.504 62.8731 886.504 63.6023C886.504 64.3314 886.62 65.0085 886.852 65.6335C887.084 66.2585 887.441 66.7628 887.924 67.1463C888.407 67.5298 889.022 67.7216 889.771 67.7216ZM902.13 58.0909V59.5114H896.25V58.0909H902.13ZM898.011 69V56.5852C898.011 55.9602 898.158 55.4394 898.451 55.0227C898.745 54.6061 899.126 54.2936 899.595 54.0852C900.064 53.8769 900.558 53.7727 901.079 53.7727C901.491 53.7727 901.827 53.8059 902.088 53.8722C902.348 53.9384 902.542 54 902.67 54.0568L902.187 55.5057C902.102 55.4773 901.984 55.4418 901.832 55.3991C901.685 55.3565 901.491 55.3352 901.25 55.3352C900.696 55.3352 900.296 55.4749 900.049 55.7543C899.808 56.0336 899.687 56.4432 899.687 56.983V69H898.011ZM904.479 69V58.0909H906.156V69H904.479ZM905.332 56.2727C905.005 56.2727 904.723 56.1615 904.487 55.9389C904.254 55.7164 904.138 55.4489 904.138 55.1364C904.138 54.8239 904.254 54.5563 904.487 54.3338C904.723 54.1113 905.005 54 905.332 54C905.658 54 905.938 54.1113 906.17 54.3338C906.406 54.5563 906.525 54.8239 906.525 55.1364C906.525 55.4489 906.406 55.7164 906.17 55.9389C905.938 56.1615 905.658 56.2727 905.332 56.2727ZM910.902 54.4545V69H909.225V54.4545H910.902ZM918.545 69.2273C917.494 69.2273 916.588 68.9953 915.825 68.5312C915.068 68.0625 914.483 67.4091 914.071 66.571C913.664 65.7282 913.46 64.7481 913.46 63.6307C913.46 62.5133 913.664 61.5284 914.071 60.6761C914.483 59.8191 915.056 59.1515 915.79 58.6733C916.528 58.1903 917.39 57.9489 918.375 57.9489C918.943 57.9489 919.504 58.0436 920.058 58.233C920.612 58.4223 921.116 58.7301 921.571 59.1562C922.026 59.5777 922.388 60.1364 922.658 60.8324C922.928 61.5284 923.062 62.3854 923.062 63.4034V64.1136H914.653V62.6648H921.358C921.358 62.0492 921.235 61.5 920.989 61.017C920.747 60.5341 920.402 60.1529 919.952 59.8736C919.507 59.5942 918.981 59.4545 918.375 59.4545C917.707 59.4545 917.13 59.6203 916.642 59.9517C916.159 60.2784 915.787 60.7045 915.527 61.2301C915.267 61.7557 915.136 62.3191 915.136 62.9205V63.8864C915.136 64.7102 915.278 65.4086 915.562 65.9815C915.851 66.5497 916.251 66.983 916.763 67.2812C917.274 67.5748 917.868 67.7216 918.545 67.7216C918.986 67.7216 919.384 67.66 919.739 67.5369C920.098 67.4091 920.409 67.2197 920.669 66.9688C920.929 66.7131 921.131 66.3958 921.273 66.017L922.892 66.4716C922.722 67.0208 922.435 67.5038 922.033 67.9205C921.63 68.3324 921.133 68.6544 920.541 68.8864C919.949 69.1136 919.284 69.2273 918.545 69.2273Z" fill="black"/>
<rect x="1124" width="272" height="124" fill="#D9D9D9"/>
<rect x="1124" width="272" height="124" fill="#D9D9D9"/>
<path d="M1179.36 69H1177.51L1182.85 54.4545H1184.67L1190.01 69H1188.16L1183.82 56.7557H1183.7L1179.36 69ZM1180.04 63.3182H1187.48V64.8807H1180.04V63.3182ZM1196.17 69.2273C1195.26 69.2273 1194.46 68.9976 1193.76 68.5384C1193.07 68.0743 1192.52 67.4209 1192.13 66.5781C1191.73 65.7306 1191.54 64.7292 1191.54 63.5739C1191.54 62.428 1191.73 61.4337 1192.13 60.5909C1192.52 59.7481 1193.07 59.0971 1193.77 58.6378C1194.47 58.1785 1195.28 57.9489 1196.2 57.9489C1196.91 57.9489 1197.47 58.0672 1197.88 58.304C1198.3 58.536 1198.61 58.8011 1198.83 59.0994C1199.05 59.393 1199.23 59.6345 1199.35 59.8239H1199.49V54.4545H1201.17V69H1199.55V67.3239H1199.35C1199.23 67.5227 1199.05 67.7737 1198.83 68.0767C1198.6 68.375 1198.27 68.6425 1197.85 68.8793C1197.43 69.1113 1196.87 69.2273 1196.17 69.2273ZM1196.4 67.7216C1197.07 67.7216 1197.64 67.5464 1198.1 67.196C1198.56 66.8409 1198.92 66.3509 1199.16 65.7259C1199.4 65.0961 1199.52 64.3693 1199.52 63.5455C1199.52 62.7311 1199.4 62.0185 1199.17 61.4077C1198.93 60.7921 1198.58 60.3139 1198.12 59.973C1197.65 59.6274 1197.08 59.4545 1196.4 59.4545C1195.69 59.4545 1195.09 59.6368 1194.62 60.0014C1194.15 60.3613 1193.8 60.8513 1193.56 61.4716C1193.33 62.0871 1193.21 62.7784 1193.21 63.5455C1193.21 64.322 1193.33 65.0275 1193.57 65.6619C1193.81 66.2917 1194.17 66.7936 1194.63 67.1676C1195.11 67.5369 1195.7 67.7216 1196.4 67.7216ZM1208.59 69.2273C1207.68 69.2273 1206.88 68.9976 1206.18 68.5384C1205.49 68.0743 1204.94 67.4209 1204.55 66.5781C1204.16 65.7306 1203.96 64.7292 1203.96 63.5739C1203.96 62.428 1204.16 61.4337 1204.55 60.5909C1204.94 59.7481 1205.49 59.0971 1206.19 58.6378C1206.89 58.1785 1207.7 57.9489 1208.62 57.9489C1209.33 57.9489 1209.89 58.0672 1210.3 58.304C1210.72 58.536 1211.04 58.8011 1211.25 59.0994C1211.48 59.393 1211.65 59.6345 1211.77 59.8239H1211.91V54.4545H1213.59V69H1211.97V67.3239H1211.77C1211.65 67.5227 1211.47 67.7737 1211.25 68.0767C1211.02 68.375 1210.7 68.6425 1210.27 68.8793C1209.85 69.1113 1209.29 69.2273 1208.59 69.2273ZM1208.82 67.7216C1209.49 67.7216 1210.06 67.5464 1210.52 67.196C1210.99 66.8409 1211.34 66.3509 1211.58 65.7259C1211.82 65.0961 1211.94 64.3693 1211.94 63.5455C1211.94 62.7311 1211.82 62.0185 1211.59 61.4077C1211.35 60.7921 1211 60.3139 1210.54 59.973C1210.07 59.6274 1209.5 59.4545 1208.82 59.4545C1208.11 59.4545 1207.52 59.6368 1207.04 60.0014C1206.57 60.3613 1206.22 60.8513 1205.98 61.4716C1205.75 62.0871 1205.64 62.7784 1205.64 63.5455C1205.64 64.322 1205.75 65.0275 1205.99 65.6619C1206.23 66.2917 1206.59 66.7936 1207.06 67.1676C1207.53 67.5369 1208.12 67.7216 1208.82 67.7216ZM1225.73 69.2557C1225.04 69.2557 1224.41 69.1255 1223.85 68.8651C1223.28 68.5999 1222.84 68.2188 1222.5 67.7216C1222.17 67.2197 1222.01 66.6136 1222.01 65.9034C1222.01 65.2784 1222.13 64.7718 1222.38 64.3835C1222.62 63.9905 1222.95 63.6828 1223.36 63.4602C1223.78 63.2377 1224.23 63.072 1224.73 62.9631C1225.23 62.8494 1225.73 62.7595 1226.24 62.6932C1226.9 62.608 1227.44 62.544 1227.85 62.5014C1228.27 62.4541 1228.57 62.3759 1228.76 62.267C1228.96 62.1581 1229.05 61.9687 1229.05 61.6989V61.642C1229.05 60.9413 1228.86 60.3968 1228.48 60.0085C1228.1 59.6203 1227.52 59.4261 1226.75 59.4261C1225.95 59.4261 1225.32 59.6013 1224.87 59.9517C1224.41 60.3021 1224.1 60.6761 1223.91 61.0739L1222.32 60.5057C1222.6 59.8428 1222.98 59.3267 1223.46 58.9574C1223.93 58.5833 1224.46 58.3229 1225.02 58.1761C1225.59 58.0246 1226.15 57.9489 1226.69 57.9489C1227.04 57.9489 1227.45 57.9915 1227.9 58.0767C1228.36 58.1572 1228.8 58.3253 1229.23 58.581C1229.66 58.8366 1230.02 59.2225 1230.3 59.7386C1230.59 60.2547 1230.73 60.946 1230.73 61.8125V69H1229.05V67.5227H1228.97C1228.85 67.7595 1228.66 68.0128 1228.4 68.2827C1228.13 68.5526 1227.78 68.7822 1227.34 68.9716C1226.9 69.161 1226.36 69.2557 1225.73 69.2557ZM1225.98 67.75C1226.65 67.75 1227.21 67.6198 1227.66 67.3594C1228.12 67.099 1228.47 66.7628 1228.7 66.3509C1228.93 65.9389 1229.05 65.5057 1229.05 65.0511V63.517C1228.98 63.6023 1228.83 63.6804 1228.58 63.7514C1228.35 63.8177 1228.07 63.8769 1227.76 63.929C1227.45 63.9763 1227.15 64.0189 1226.86 64.0568C1226.57 64.09 1226.33 64.1184 1226.15 64.142C1225.72 64.1989 1225.31 64.2912 1224.93 64.419C1224.56 64.5421 1224.26 64.7292 1224.02 64.9801C1223.8 65.2263 1223.68 65.5625 1223.68 65.9886C1223.68 66.571 1223.9 67.0114 1224.33 67.3097C1224.77 67.6032 1225.32 67.75 1225.98 67.75ZM1239.41 73.0909V58.0909H1241.03V59.8239H1241.23C1241.35 59.6345 1241.52 59.393 1241.74 59.0994C1241.97 58.8011 1242.28 58.536 1242.69 58.304C1243.11 58.0672 1243.67 57.9489 1244.38 57.9489C1245.3 57.9489 1246.11 58.1785 1246.81 58.6378C1247.51 59.0971 1248.06 59.7481 1248.45 60.5909C1248.85 61.4337 1249.04 62.428 1249.04 63.5739C1249.04 64.7292 1248.85 65.7306 1248.45 66.5781C1248.06 67.4209 1247.52 68.0743 1246.82 68.5384C1246.12 68.9976 1245.32 69.2273 1244.41 69.2273C1243.71 69.2273 1243.15 69.1113 1242.73 68.8793C1242.31 68.6425 1241.98 68.375 1241.76 68.0767C1241.53 67.7737 1241.35 67.5227 1241.23 67.3239H1241.09V73.0909H1239.41ZM1241.06 63.5455C1241.06 64.3693 1241.18 65.0961 1241.42 65.7259C1241.66 66.3509 1242.02 66.8409 1242.48 67.196C1242.95 67.5464 1243.51 67.7216 1244.19 67.7216C1244.89 67.7216 1245.47 67.5369 1245.94 67.1676C1246.41 66.7936 1246.77 66.2917 1247.01 65.6619C1247.25 65.0275 1247.37 64.322 1247.37 63.5455C1247.37 62.7784 1247.25 62.0871 1247.01 61.4716C1246.78 60.8513 1246.43 60.3613 1245.95 60.0014C1245.49 59.6368 1244.9 59.4545 1244.19 59.4545C1243.5 59.4545 1242.93 59.6274 1242.47 59.973C1242 60.3139 1241.65 60.7921 1241.42 61.4077C1241.18 62.0185 1241.06 62.7311 1241.06 63.5455ZM1251.6 69V58.0909H1253.22V59.7386H1253.33C1253.53 59.1989 1253.89 58.7609 1254.41 58.4247C1254.93 58.0885 1255.52 57.9205 1256.17 57.9205C1256.3 57.9205 1256.45 57.9228 1256.64 57.9276C1256.82 57.9323 1256.96 57.9394 1257.06 57.9489V59.6534C1257 59.6392 1256.87 59.6179 1256.66 59.5895C1256.47 59.5563 1256.25 59.5398 1256.03 59.5398C1255.5 59.5398 1255.03 59.651 1254.61 59.8736C1254.2 60.0914 1253.87 60.3944 1253.63 60.7827C1253.4 61.1662 1253.28 61.6042 1253.28 62.0966V69H1251.6ZM1263.14 69.2273C1262.16 69.2273 1261.29 68.9929 1260.55 68.5241C1259.81 68.0554 1259.23 67.3996 1258.82 66.5568C1258.4 65.714 1258.2 64.7292 1258.2 63.6023C1258.2 62.4659 1258.4 61.474 1258.82 60.6264C1259.23 59.7789 1259.81 59.1207 1260.55 58.652C1261.29 58.1832 1262.16 57.9489 1263.14 57.9489C1264.13 57.9489 1264.99 58.1832 1265.73 58.652C1266.47 59.1207 1267.05 59.7789 1267.46 60.6264C1267.88 61.474 1268.08 62.4659 1268.08 63.6023C1268.08 64.7292 1267.88 65.714 1267.46 66.5568C1267.05 67.3996 1266.47 68.0554 1265.73 68.5241C1264.99 68.9929 1264.13 69.2273 1263.14 69.2273ZM1263.14 67.7216C1263.89 67.7216 1264.51 67.5298 1264.99 67.1463C1265.47 66.7628 1265.83 66.2585 1266.06 65.6335C1266.29 65.0085 1266.41 64.3314 1266.41 63.6023C1266.41 62.8731 1266.29 62.1937 1266.06 61.5639C1265.83 60.9342 1265.47 60.4252 1264.99 60.0369C1264.51 59.6487 1263.89 59.4545 1263.14 59.4545C1262.39 59.4545 1261.78 59.6487 1261.3 60.0369C1260.81 60.4252 1260.45 60.9342 1260.22 61.5639C1259.99 62.1937 1259.87 62.8731 1259.87 63.6023C1259.87 64.3314 1259.99 65.0085 1260.22 65.6335C1260.45 66.2585 1260.81 66.7628 1261.3 67.1463C1261.78 67.5298 1262.39 67.7216 1263.14 67.7216ZM1274.76 69.2273C1273.85 69.2273 1273.05 68.9976 1272.36 68.5384C1271.66 68.0743 1271.11 67.4209 1270.72 66.5781C1270.33 65.7306 1270.13 64.7292 1270.13 63.5739C1270.13 62.428 1270.33 61.4337 1270.72 60.5909C1271.11 59.7481 1271.66 59.0971 1272.36 58.6378C1273.06 58.1785 1273.87 57.9489 1274.79 57.9489C1275.5 57.9489 1276.06 58.0672 1276.47 58.304C1276.89 58.536 1277.21 58.8011 1277.43 59.0994C1277.65 59.393 1277.82 59.6345 1277.94 59.8239H1278.09V54.4545H1279.76V69H1278.14V67.3239H1277.94C1277.82 67.5227 1277.65 67.7737 1277.42 68.0767C1277.19 68.375 1276.87 68.6425 1276.45 68.8793C1276.02 69.1113 1275.46 69.2273 1274.76 69.2273ZM1274.99 67.7216C1275.66 67.7216 1276.23 67.5464 1276.69 67.196C1277.16 66.8409 1277.51 66.3509 1277.75 65.7259C1277.99 65.0961 1278.12 64.3693 1278.12 63.5455C1278.12 62.7311 1278 62.0185 1277.76 61.4077C1277.52 60.7921 1277.17 60.3139 1276.71 59.973C1276.24 59.6274 1275.67 59.4545 1274.99 59.4545C1274.28 59.4545 1273.69 59.6368 1273.21 60.0014C1272.75 60.3613 1272.39 60.8513 1272.16 61.4716C1271.92 62.0871 1271.81 62.7784 1271.81 63.5455C1271.81 64.322 1271.93 65.0275 1272.16 65.6619C1272.4 66.2917 1272.76 66.7936 1273.23 67.1676C1273.7 67.5369 1274.29 67.7216 1274.99 67.7216ZM1289.94 64.5398V58.0909H1291.62V69H1289.94V67.1534H1289.83C1289.57 67.7074 1289.17 68.1785 1288.63 68.5668C1288.09 68.9503 1287.41 69.142 1286.59 69.142C1285.91 69.142 1285.3 68.9929 1284.77 68.6946C1284.24 68.3916 1283.82 67.937 1283.52 67.331C1283.22 66.7202 1283.07 65.9508 1283.07 65.0227V58.0909H1284.74V64.9091C1284.74 65.7045 1284.96 66.339 1285.41 66.8125C1285.86 67.286 1286.43 67.5227 1287.13 67.5227C1287.54 67.5227 1287.97 67.4162 1288.4 67.2031C1288.83 66.9901 1289.2 66.6634 1289.49 66.223C1289.79 65.7827 1289.94 65.2216 1289.94 64.5398ZM1299.12 69.2273C1298.1 69.2273 1297.21 68.9858 1296.48 68.5028C1295.74 68.0199 1295.17 67.3546 1294.77 66.5071C1294.37 65.6596 1294.18 64.6913 1294.18 63.6023C1294.18 62.4943 1294.38 61.5166 1294.79 60.669C1295.2 59.8168 1295.77 59.1515 1296.5 58.6733C1297.24 58.1903 1298.1 57.9489 1299.09 57.9489C1299.86 57.9489 1300.55 58.0909 1301.16 58.375C1301.78 58.6591 1302.28 59.0568 1302.68 59.5682C1303.07 60.0795 1303.31 60.6761 1303.41 61.358H1301.73C1301.6 60.8608 1301.32 60.4205 1300.88 60.0369C1300.44 59.6487 1299.86 59.4545 1299.12 59.4545C1298.46 59.4545 1297.89 59.625 1297.4 59.9659C1296.91 60.3021 1296.53 60.7779 1296.26 61.3935C1295.99 62.0043 1295.85 62.7216 1295.85 63.5455C1295.85 64.3883 1295.98 65.1222 1296.25 65.7472C1296.52 66.3722 1296.9 66.8575 1297.39 67.2031C1297.88 67.5488 1298.46 67.7216 1299.12 67.7216C1299.55 67.7216 1299.95 67.6458 1300.3 67.4943C1300.66 67.3428 1300.96 67.125 1301.21 66.8409C1301.45 66.5568 1301.63 66.2159 1301.73 65.8182H1303.41C1303.31 66.4621 1303.08 67.0421 1302.7 67.5582C1302.34 68.0696 1301.85 68.4768 1301.23 68.7798C1300.63 69.0781 1299.92 69.2273 1299.12 69.2273ZM1310.6 58.0909V59.5114H1304.95V58.0909H1310.6ZM1306.6 55.4773H1308.27V65.875C1308.27 66.3485 1308.34 66.7036 1308.48 66.9403C1308.62 67.1723 1308.8 67.3286 1309.02 67.4091C1309.24 67.4848 1309.48 67.5227 1309.72 67.5227C1309.91 67.5227 1310.06 67.5133 1310.18 67.4943C1310.29 67.4706 1310.39 67.4517 1310.46 67.4375L1310.8 68.9432C1310.69 68.9858 1310.53 69.0284 1310.33 69.071C1310.12 69.1184 1309.86 69.142 1309.55 69.142C1309.08 69.142 1308.61 69.0402 1308.16 68.8366C1307.71 68.633 1307.34 68.3229 1307.04 67.9062C1306.74 67.4896 1306.6 66.964 1306.6 66.3295V55.4773Z" fill="black"/>
<rect x="1461" width="272" height="124" fill="#D9D9D9"/>
<rect x="1461" width="272" height="124" fill="#D9D9D9"/>
<rect x="1461" width="272" height="124" fill="#D9D9D9"/>
<path d="M1500.76 69V54.4545H1505.68C1506.82 54.4545 1507.75 54.6605 1508.47 55.0724C1509.2 55.4796 1509.74 56.0312 1510.09 56.7273C1510.44 57.4233 1510.62 58.1998 1510.62 59.0568C1510.62 59.9138 1510.44 60.6927 1510.09 61.3935C1509.75 62.0942 1509.21 62.6529 1508.49 63.0696C1507.76 63.4815 1506.84 63.6875 1505.7 63.6875H1502.18V62.125H1505.65C1506.43 62.125 1507.06 61.9901 1507.53 61.7202C1508 61.4503 1508.35 61.0857 1508.56 60.6264C1508.78 60.1624 1508.89 59.6392 1508.89 59.0568C1508.89 58.4744 1508.78 57.9536 1508.56 57.4943C1508.35 57.035 1508 56.6752 1507.52 56.4148C1507.04 56.1496 1506.41 56.017 1505.62 56.017H1502.52V69H1500.76ZM1513.23 69V58.0909H1514.85V59.7386H1514.96C1515.16 59.1989 1515.52 58.7609 1516.04 58.4247C1516.56 58.0885 1517.15 57.9205 1517.8 57.9205C1517.93 57.9205 1518.08 57.9228 1518.26 57.9276C1518.45 57.9323 1518.59 57.9394 1518.68 57.9489V59.6534C1518.63 59.6392 1518.5 59.6179 1518.29 59.5895C1518.09 59.5563 1517.88 59.5398 1517.66 59.5398C1517.13 59.5398 1516.66 59.651 1516.24 59.8736C1515.83 60.0914 1515.5 60.3944 1515.26 60.7827C1515.02 61.1662 1514.91 61.6042 1514.91 62.0966V69H1513.23ZM1524.77 69.2273C1523.79 69.2273 1522.92 68.9929 1522.18 68.5241C1521.44 68.0554 1520.86 67.3996 1520.45 66.5568C1520.03 65.714 1519.83 64.7292 1519.83 63.6023C1519.83 62.4659 1520.03 61.474 1520.45 60.6264C1520.86 59.7789 1521.44 59.1207 1522.18 58.652C1522.92 58.1832 1523.79 57.9489 1524.77 57.9489C1525.76 57.9489 1526.62 58.1832 1527.36 58.652C1528.1 59.1207 1528.68 59.7789 1529.09 60.6264C1529.51 61.474 1529.71 62.4659 1529.71 63.6023C1529.71 64.7292 1529.51 65.714 1529.09 66.5568C1528.68 67.3996 1528.1 68.0554 1527.36 68.5241C1526.62 68.9929 1525.76 69.2273 1524.77 69.2273ZM1524.77 67.7216C1525.52 67.7216 1526.13 67.5298 1526.62 67.1463C1527.1 66.7628 1527.46 66.2585 1527.69 65.6335C1527.92 65.0085 1528.04 64.3314 1528.04 63.6023C1528.04 62.8731 1527.92 62.1937 1527.69 61.5639C1527.46 60.9342 1527.1 60.4252 1526.62 60.0369C1526.13 59.6487 1525.52 59.4545 1524.77 59.4545C1524.02 59.4545 1523.41 59.6487 1522.92 60.0369C1522.44 60.4252 1522.08 60.9342 1521.85 61.5639C1521.62 62.1937 1521.5 62.8731 1521.5 63.6023C1521.5 64.3314 1521.62 65.0085 1521.85 65.6335C1522.08 66.2585 1522.44 66.7628 1522.92 67.1463C1523.41 67.5298 1524.02 67.7216 1524.77 67.7216ZM1536.39 69.2273C1535.48 69.2273 1534.68 68.9976 1533.98 68.5384C1533.29 68.0743 1532.74 67.4209 1532.35 66.5781C1531.96 65.7306 1531.76 64.7292 1531.76 63.5739C1531.76 62.428 1531.96 61.4337 1532.35 60.5909C1532.74 59.7481 1533.29 59.0971 1533.99 58.6378C1534.69 58.1785 1535.5 57.9489 1536.42 57.9489C1537.13 57.9489 1537.69 58.0672 1538.1 58.304C1538.52 58.536 1538.84 58.8011 1539.06 59.0994C1539.28 59.393 1539.45 59.6345 1539.57 59.8239H1539.72V54.4545H1541.39V69H1539.77V67.3239H1539.57C1539.45 67.5227 1539.28 67.7737 1539.05 68.0767C1538.82 68.375 1538.5 68.6425 1538.07 68.8793C1537.65 69.1113 1537.09 69.2273 1536.39 69.2273ZM1536.62 67.7216C1537.29 67.7216 1537.86 67.5464 1538.32 67.196C1538.79 66.8409 1539.14 66.3509 1539.38 65.7259C1539.62 65.0961 1539.74 64.3693 1539.74 63.5455C1539.74 62.7311 1539.63 62.0185 1539.39 61.4077C1539.15 60.7921 1538.8 60.3139 1538.34 59.973C1537.87 59.6274 1537.3 59.4545 1536.62 59.4545C1535.91 59.4545 1535.32 59.6368 1534.84 60.0014C1534.37 60.3613 1534.02 60.8513 1533.79 61.4716C1533.55 62.0871 1533.44 62.7784 1533.44 63.5455C1533.44 64.322 1533.56 65.0275 1533.79 65.6619C1534.03 66.2917 1534.39 66.7936 1534.86 67.1676C1535.33 67.5369 1535.92 67.7216 1536.62 67.7216ZM1551.57 64.5398V58.0909H1553.25V69H1551.57V67.1534H1551.46C1551.2 67.7074 1550.8 68.1785 1550.26 68.5668C1549.72 68.9503 1549.04 69.142 1548.22 69.142C1547.54 69.142 1546.93 68.9929 1546.4 68.6946C1545.87 68.3916 1545.45 67.937 1545.15 67.331C1544.85 66.7202 1544.69 65.9508 1544.69 65.0227V58.0909H1546.37V64.9091C1546.37 65.7045 1546.59 66.339 1547.04 66.8125C1547.49 67.286 1548.06 67.5227 1548.76 67.5227C1549.17 67.5227 1549.6 67.4162 1550.03 67.2031C1550.46 66.9901 1550.83 66.6634 1551.12 66.223C1551.42 65.7827 1551.57 65.2216 1551.57 64.5398ZM1560.75 69.2273C1559.72 69.2273 1558.84 68.9858 1558.11 68.5028C1557.37 68.0199 1556.8 67.3546 1556.4 66.5071C1556 65.6596 1555.8 64.6913 1555.8 63.6023C1555.8 62.4943 1556.01 61.5166 1556.41 60.669C1556.83 59.8168 1557.4 59.1515 1558.13 58.6733C1558.87 58.1903 1559.73 57.9489 1560.72 57.9489C1561.49 57.9489 1562.18 58.0909 1562.79 58.375C1563.41 58.6591 1563.91 59.0568 1564.31 59.5682C1564.7 60.0795 1564.94 60.6761 1565.04 61.358H1563.36C1563.23 60.8608 1562.95 60.4205 1562.51 60.0369C1562.07 59.6487 1561.49 59.4545 1560.75 59.4545C1560.09 59.4545 1559.52 59.625 1559.03 59.9659C1558.54 60.3021 1558.16 60.7779 1557.88 61.3935C1557.62 62.0043 1557.48 62.7216 1557.48 63.5455C1557.48 64.3883 1557.61 65.1222 1557.88 65.7472C1558.15 66.3722 1558.53 66.8575 1559.01 67.2031C1559.51 67.5488 1560.08 67.7216 1560.75 67.7216C1561.18 67.7216 1561.58 67.6458 1561.93 67.4943C1562.29 67.3428 1562.59 67.125 1562.84 66.8409C1563.08 66.5568 1563.26 66.2159 1563.36 65.8182H1565.04C1564.94 66.4621 1564.71 67.0421 1564.33 67.5582C1563.96 68.0696 1563.47 68.4768 1562.86 68.7798C1562.26 69.0781 1561.55 69.2273 1560.75 69.2273ZM1572.23 58.0909V59.5114H1566.58V58.0909H1572.23ZM1568.23 55.4773H1569.9V65.875C1569.9 66.3485 1569.97 66.7036 1570.11 66.9403C1570.25 67.1723 1570.43 67.3286 1570.65 67.4091C1570.87 67.4848 1571.1 67.5227 1571.35 67.5227C1571.54 67.5227 1571.69 67.5133 1571.81 67.4943C1571.92 67.4706 1572.02 67.4517 1572.09 67.4375L1572.43 68.9432C1572.32 68.9858 1572.16 69.0284 1571.95 69.071C1571.75 69.1184 1571.49 69.142 1571.18 69.142C1570.71 69.142 1570.24 69.0402 1569.79 68.8366C1569.34 68.633 1568.96 68.3229 1568.67 67.9062C1568.37 67.4896 1568.23 66.964 1568.23 66.3295V55.4773ZM1587.25 64.5398V58.0909H1588.93V69H1587.25V67.1534H1587.14C1586.88 67.7074 1586.49 68.1785 1585.95 68.5668C1585.41 68.9503 1584.72 69.142 1583.9 69.142C1583.22 69.142 1582.61 68.9929 1582.08 68.6946C1581.55 68.3916 1581.14 67.937 1580.83 67.331C1580.53 66.7202 1580.38 65.9508 1580.38 65.0227V58.0909H1582.05V64.9091C1582.05 65.7045 1582.28 66.339 1582.72 66.8125C1583.17 67.286 1583.74 67.5227 1584.44 67.5227C1584.86 67.5227 1585.28 67.4162 1585.71 67.2031C1586.15 66.9901 1586.51 66.6634 1586.81 66.223C1587.1 65.7827 1587.25 65.2216 1587.25 64.5398ZM1592 73.0909V58.0909H1593.62V59.8239H1593.82C1593.94 59.6345 1594.11 59.393 1594.33 59.0994C1594.55 58.8011 1594.87 58.536 1595.28 58.304C1595.7 58.0672 1596.26 57.9489 1596.97 57.9489C1597.89 57.9489 1598.7 58.1785 1599.4 58.6378C1600.1 59.0971 1600.65 59.7481 1601.04 60.5909C1601.43 61.4337 1601.63 62.428 1601.63 63.5739C1601.63 64.7292 1601.43 65.7306 1601.04 66.5781C1600.65 67.4209 1600.1 68.0743 1599.41 68.5384C1598.71 68.9976 1597.91 69.2273 1597 69.2273C1596.3 69.2273 1595.74 69.1113 1595.32 68.8793C1594.89 68.6425 1594.57 68.375 1594.34 68.0767C1594.12 67.7737 1593.94 67.5227 1593.82 67.3239H1593.68V73.0909H1592ZM1593.65 63.5455C1593.65 64.3693 1593.77 65.0961 1594.01 65.7259C1594.25 66.3509 1594.6 66.8409 1595.07 67.196C1595.53 67.5464 1596.1 67.7216 1596.77 67.7216C1597.47 67.7216 1598.06 67.5369 1598.53 67.1676C1599 66.7936 1599.35 66.2917 1599.59 65.6619C1599.83 65.0275 1599.95 64.322 1599.95 63.5455C1599.95 62.7784 1599.84 62.0871 1599.6 61.4716C1599.37 60.8513 1599.01 60.3613 1598.54 60.0014C1598.07 59.6368 1597.48 59.4545 1596.77 59.4545C1596.09 59.4545 1595.52 59.6274 1595.05 59.973C1594.59 60.3139 1594.24 60.7921 1594 61.4077C1593.77 62.0185 1593.65 62.7311 1593.65 63.5455ZM1605.86 54.4545V69H1604.19V54.4545H1605.86ZM1613.36 69.2273C1612.38 69.2273 1611.52 68.9929 1610.77 68.5241C1610.03 68.0554 1609.46 67.3996 1609.04 66.5568C1608.63 65.714 1608.42 64.7292 1608.42 63.6023C1608.42 62.4659 1608.63 61.474 1609.04 60.6264C1609.46 59.7789 1610.03 59.1207 1610.77 58.652C1611.52 58.1832 1612.38 57.9489 1613.36 57.9489C1614.35 57.9489 1615.21 58.1832 1615.95 58.652C1616.69 59.1207 1617.27 59.7789 1617.68 60.6264C1618.1 61.474 1618.31 62.4659 1618.31 63.6023C1618.31 64.7292 1618.1 65.714 1617.68 66.5568C1617.27 67.3996 1616.69 68.0554 1615.95 68.5241C1615.21 68.9929 1614.35 69.2273 1613.36 69.2273ZM1613.36 67.7216C1614.11 67.7216 1614.73 67.5298 1615.21 67.1463C1615.69 66.7628 1616.05 66.2585 1616.28 65.6335C1616.52 65.0085 1616.63 64.3314 1616.63 63.6023C1616.63 62.8731 1616.52 62.1937 1616.28 61.5639C1616.05 60.9342 1615.69 60.4252 1615.21 60.0369C1614.73 59.6487 1614.11 59.4545 1613.36 59.4545C1612.62 59.4545 1612 59.6487 1611.52 60.0369C1611.03 60.4252 1610.68 60.9342 1610.45 61.5639C1610.21 62.1937 1610.1 62.8731 1610.1 63.6023C1610.1 64.3314 1610.21 65.0085 1610.45 65.6335C1610.68 66.2585 1611.03 66.7628 1611.52 67.1463C1612 67.5298 1612.62 67.7216 1613.36 67.7216ZM1624.08 69.2557C1623.39 69.2557 1622.76 69.1255 1622.19 68.8651C1621.63 68.5999 1621.18 68.2188 1620.85 67.7216C1620.52 67.2197 1620.35 66.6136 1620.35 65.9034C1620.35 65.2784 1620.48 64.7718 1620.72 64.3835C1620.97 63.9905 1621.3 63.6828 1621.71 63.4602C1622.12 63.2377 1622.58 63.072 1623.07 62.9631C1623.58 62.8494 1624.08 62.7595 1624.59 62.6932C1625.25 62.608 1625.79 62.544 1626.2 62.5014C1626.62 62.4541 1626.92 62.3759 1627.11 62.267C1627.3 62.1581 1627.4 61.9687 1627.4 61.6989V61.642C1627.4 60.9413 1627.21 60.3968 1626.82 60.0085C1626.45 59.6203 1625.87 59.4261 1625.1 59.4261C1624.3 59.4261 1623.67 59.6013 1623.22 59.9517C1622.76 60.3021 1622.44 60.6761 1622.26 61.0739L1620.67 60.5057C1620.95 59.8428 1621.33 59.3267 1621.8 58.9574C1622.28 58.5833 1622.8 58.3229 1623.37 58.1761C1623.93 58.0246 1624.49 57.9489 1625.04 57.9489C1625.39 57.9489 1625.8 57.9915 1626.25 58.0767C1626.71 58.1572 1627.15 58.3253 1627.58 58.581C1628.01 58.8366 1628.37 59.2225 1628.65 59.7386C1628.93 60.2547 1629.08 60.946 1629.08 61.8125V69H1627.4V67.5227H1627.31C1627.2 67.7595 1627.01 68.0128 1626.75 68.2827C1626.48 68.5526 1626.13 68.7822 1625.69 68.9716C1625.25 69.161 1624.71 69.2557 1624.08 69.2557ZM1624.33 67.75C1624.99 67.75 1625.55 67.6198 1626.01 67.3594C1626.47 67.099 1626.81 66.7628 1627.05 66.3509C1627.28 65.9389 1627.4 65.5057 1627.4 65.0511V63.517C1627.33 63.6023 1627.17 63.6804 1626.93 63.7514C1626.69 63.8177 1626.42 63.8769 1626.11 63.929C1625.8 63.9763 1625.5 64.0189 1625.21 64.0568C1624.92 64.09 1624.68 64.1184 1624.5 64.142C1624.07 64.1989 1623.66 64.2912 1623.28 64.419C1622.91 64.5421 1622.6 64.7292 1622.37 64.9801C1622.14 65.2263 1622.03 65.5625 1622.03 65.9886C1622.03 66.571 1622.25 67.0114 1622.68 67.3097C1623.11 67.6032 1623.66 67.75 1624.33 67.75ZM1636.25 69.2273C1635.35 69.2273 1634.54 68.9976 1633.85 68.5384C1633.15 68.0743 1632.61 67.4209 1632.21 66.5781C1631.82 65.7306 1631.62 64.7292 1631.62 63.5739C1631.62 62.428 1631.82 61.4337 1632.21 60.5909C1632.61 59.7481 1633.15 59.0971 1633.85 58.6378C1634.56 58.1785 1635.36 57.9489 1636.28 57.9489C1636.99 57.9489 1637.55 58.0672 1637.97 58.304C1638.38 58.536 1638.7 58.8011 1638.92 59.0994C1639.14 59.393 1639.31 59.6345 1639.44 59.8239H1639.58V54.4545H1641.25V69H1639.64V67.3239H1639.44C1639.31 67.5227 1639.14 67.7737 1638.91 68.0767C1638.68 68.375 1638.36 68.6425 1637.94 68.8793C1637.52 69.1113 1636.96 69.2273 1636.25 69.2273ZM1636.48 67.7216C1637.15 67.7216 1637.72 67.5464 1638.19 67.196C1638.65 66.8409 1639 66.3509 1639.25 65.7259C1639.49 65.0961 1639.61 64.3693 1639.61 63.5455C1639.61 62.7311 1639.49 62.0185 1639.25 61.4077C1639.02 60.7921 1638.67 60.3139 1638.2 59.973C1637.74 59.6274 1637.16 59.4545 1636.48 59.4545C1635.77 59.4545 1635.18 59.6368 1634.71 60.0014C1634.24 60.3613 1633.89 60.8513 1633.65 61.4716C1633.42 62.0871 1633.3 62.7784 1633.3 63.5455C1633.3 64.322 1633.42 65.0275 1633.66 65.6619C1633.9 66.2917 1634.25 66.7936 1634.72 67.1676C1635.19 67.5369 1635.78 67.7216 1636.48 67.7216ZM1650.18 73.0909V58.0909H1651.8V59.8239H1652C1652.12 59.6345 1652.29 59.393 1652.51 59.0994C1652.73 58.8011 1653.05 58.536 1653.46 58.304C1653.88 58.0672 1654.44 57.9489 1655.15 57.9489C1656.07 57.9489 1656.88 58.1785 1657.58 58.6378C1658.28 59.0971 1658.83 59.7481 1659.22 60.5909C1659.62 61.4337 1659.81 62.428 1659.81 63.5739C1659.81 64.7292 1659.62 65.7306 1659.22 66.5781C1658.83 67.4209 1658.29 68.0743 1657.59 68.5384C1656.89 68.9976 1656.09 69.2273 1655.18 69.2273C1654.48 69.2273 1653.92 69.1113 1653.5 68.8793C1653.08 68.6425 1652.75 68.375 1652.53 68.0767C1652.3 67.7737 1652.12 67.5227 1652 67.3239H1651.86V73.0909H1650.18ZM1651.83 63.5455C1651.83 64.3693 1651.95 65.0961 1652.19 65.7259C1652.43 66.3509 1652.79 66.8409 1653.25 67.196C1653.71 67.5464 1654.28 67.7216 1654.96 67.7216C1655.66 67.7216 1656.24 67.5369 1656.71 67.1676C1657.18 66.7936 1657.54 66.2917 1657.77 65.6619C1658.02 65.0275 1658.14 64.322 1658.14 63.5455C1658.14 62.7784 1658.02 62.0871 1657.78 61.4716C1657.55 60.8513 1657.2 60.3613 1656.72 60.0014C1656.25 59.6368 1655.67 59.4545 1654.96 59.4545C1654.27 59.4545 1653.7 59.6274 1653.24 59.973C1652.77 60.3139 1652.42 60.7921 1652.19 61.4077C1651.95 62.0185 1651.83 62.7311 1651.83 63.5455ZM1665.58 69.2557C1664.89 69.2557 1664.26 69.1255 1663.7 68.8651C1663.13 68.5999 1662.69 68.2188 1662.36 67.7216C1662.02 67.2197 1661.86 66.6136 1661.86 65.9034C1661.86 65.2784 1661.98 64.7718 1662.23 64.3835C1662.47 63.9905 1662.8 63.6828 1663.22 63.4602C1663.63 63.2377 1664.08 63.072 1664.58 62.9631C1665.08 62.8494 1665.58 62.7595 1666.09 62.6932C1666.75 62.608 1667.29 62.544 1667.7 62.5014C1668.12 62.4541 1668.42 62.3759 1668.61 62.267C1668.81 62.1581 1668.9 61.9687 1668.9 61.6989V61.642C1668.9 60.9413 1668.71 60.3968 1668.33 60.0085C1667.95 59.6203 1667.37 59.4261 1666.6 59.4261C1665.8 59.4261 1665.18 59.6013 1664.72 59.9517C1664.27 60.3021 1663.95 60.6761 1663.76 61.0739L1662.17 60.5057C1662.46 59.8428 1662.83 59.3267 1663.31 58.9574C1663.79 58.5833 1664.31 58.3229 1664.87 58.1761C1665.44 58.0246 1666 57.9489 1666.55 57.9489C1666.9 57.9489 1667.3 57.9915 1667.75 58.0767C1668.21 58.1572 1668.66 58.3253 1669.08 58.581C1669.51 58.8366 1669.87 59.2225 1670.15 59.7386C1670.44 60.2547 1670.58 60.946 1670.58 61.8125V69H1668.9V67.5227H1668.82C1668.71 67.7595 1668.52 68.0128 1668.25 68.2827C1667.99 68.5526 1667.63 68.7822 1667.19 68.9716C1666.75 69.161 1666.21 69.2557 1665.58 69.2557ZM1665.84 67.75C1666.5 67.75 1667.06 67.6198 1667.51 67.3594C1667.97 67.099 1668.32 66.7628 1668.55 66.3509C1668.79 65.9389 1668.9 65.5057 1668.9 65.0511V63.517C1668.83 63.6023 1668.68 63.6804 1668.44 63.7514C1668.2 63.8177 1667.92 63.8769 1667.61 63.929C1667.3 63.9763 1667 64.0189 1666.71 64.0568C1666.42 64.09 1666.19 64.1184 1666.01 64.142C1665.57 64.1989 1665.16 64.2912 1664.78 64.419C1664.41 64.5421 1664.11 64.7292 1663.88 64.9801C1663.65 65.2263 1663.53 65.5625 1663.53 65.9886C1663.53 66.571 1663.75 67.0114 1664.18 67.3097C1664.62 67.6032 1665.17 67.75 1665.84 67.75ZM1678.04 73.3182C1677.23 73.3182 1676.54 73.214 1675.95 73.0057C1675.37 72.8021 1674.89 72.5322 1674.5 72.196C1674.12 71.8646 1673.81 71.5095 1673.58 71.1307L1674.92 70.1932C1675.07 70.392 1675.26 70.6193 1675.49 70.875C1675.73 71.1354 1676.04 71.3603 1676.44 71.5497C1676.85 71.7438 1677.38 71.8409 1678.04 71.8409C1678.92 71.8409 1679.65 71.6278 1680.22 71.2017C1680.8 70.7756 1681.08 70.108 1681.08 69.1989V66.983H1680.94C1680.82 67.1818 1680.64 67.428 1680.42 67.7216C1680.19 68.0104 1679.87 68.2685 1679.45 68.4957C1679.03 68.7183 1678.47 68.8295 1677.76 68.8295C1676.88 68.8295 1676.09 68.6212 1675.39 68.2045C1674.69 67.7879 1674.14 67.1818 1673.73 66.3864C1673.33 65.5909 1673.13 64.625 1673.13 63.4886C1673.13 62.3712 1673.32 61.3982 1673.72 60.5696C1674.11 59.7363 1674.66 59.0923 1675.36 58.6378C1676.06 58.1785 1676.87 57.9489 1677.79 57.9489C1678.5 57.9489 1679.06 58.0672 1679.48 58.304C1679.9 58.536 1680.22 58.8011 1680.44 59.0994C1680.67 59.393 1680.85 59.6345 1680.97 59.8239H1681.14V58.0909H1682.76V69.3125C1682.76 70.25 1682.55 71.0123 1682.12 71.5994C1681.7 72.1913 1681.13 72.6245 1680.42 72.8991C1679.7 73.1785 1678.91 73.3182 1678.04 73.3182ZM1677.99 67.3239C1678.66 67.3239 1679.23 67.17 1679.69 66.8622C1680.15 66.5545 1680.51 66.1117 1680.75 65.5341C1680.99 64.9564 1681.11 64.2652 1681.11 63.4602C1681.11 62.6742 1680.99 61.9806 1680.76 61.3793C1680.52 60.7779 1680.17 60.3068 1679.7 59.9659C1679.24 59.625 1678.67 59.4545 1677.99 59.4545C1677.28 59.4545 1676.68 59.6345 1676.21 59.9943C1675.74 60.3542 1675.39 60.8371 1675.15 61.4432C1674.92 62.0492 1674.8 62.7216 1674.8 63.4602C1674.8 64.2178 1674.92 64.8878 1675.16 65.4702C1675.4 66.0478 1675.76 66.5024 1676.22 66.8338C1676.7 67.1605 1677.29 67.3239 1677.99 67.3239ZM1690.4 69.2273C1689.35 69.2273 1688.44 68.9953 1687.68 68.5312C1686.92 68.0625 1686.34 67.4091 1685.93 66.571C1685.52 65.7282 1685.32 64.7481 1685.32 63.6307C1685.32 62.5133 1685.52 61.5284 1685.93 60.6761C1686.34 59.8191 1686.91 59.1515 1687.65 58.6733C1688.38 58.1903 1689.25 57.9489 1690.23 57.9489C1690.8 57.9489 1691.36 58.0436 1691.91 58.233C1692.47 58.4223 1692.97 58.7301 1693.43 59.1562C1693.88 59.5777 1694.24 60.1364 1694.51 60.8324C1694.78 61.5284 1694.92 62.3854 1694.92 63.4034V64.1136H1686.51V62.6648H1693.21C1693.21 62.0492 1693.09 61.5 1692.84 61.017C1692.6 60.5341 1692.26 60.1529 1691.81 59.8736C1691.36 59.5942 1690.84 59.4545 1690.23 59.4545C1689.56 59.4545 1688.99 59.6203 1688.5 59.9517C1688.01 60.2784 1687.64 60.7045 1687.38 61.2301C1687.12 61.7557 1686.99 62.3191 1686.99 62.9205V63.8864C1686.99 64.7102 1687.13 65.4086 1687.42 65.9815C1687.71 66.5497 1688.11 66.983 1688.62 67.2812C1689.13 67.5748 1689.72 67.7216 1690.4 67.7216C1690.84 67.7216 1691.24 67.66 1691.59 67.5369C1691.95 67.4091 1692.26 67.2197 1692.52 66.9688C1692.78 66.7131 1692.99 66.3958 1693.13 66.017L1694.75 66.4716C1694.58 67.0208 1694.29 67.5038 1693.89 67.9205C1693.49 68.3324 1692.99 68.6544 1692.4 68.8864C1691.8 69.1136 1691.14 69.2273 1690.4 69.2273Z" fill="black"/>
<rect x="1804" width="272" height="124" fill="#D9D9D9"/>
<rect x="1804" width="272" height="124" fill="#D9D9D9"/>
<rect x="1804" width="272" height="124" fill="#D9D9D9"/>
<path d="M1858.76 69V54.4545H1863.68C1864.82 54.4545 1865.75 54.6605 1866.47 55.0724C1867.2 55.4796 1867.74 56.0312 1868.09 56.7273C1868.44 57.4233 1868.62 58.1998 1868.62 59.0568C1868.62 59.9138 1868.44 60.6927 1868.09 61.3935C1867.75 62.0942 1867.21 62.6529 1866.49 63.0696C1865.76 63.4815 1864.84 63.6875 1863.7 63.6875H1860.18V62.125H1863.65C1864.43 62.125 1865.06 61.9901 1865.53 61.7202C1866 61.4503 1866.35 61.0857 1866.56 60.6264C1866.78 60.1624 1866.89 59.6392 1866.89 59.0568C1866.89 58.4744 1866.78 57.9536 1866.56 57.4943C1866.35 57.035 1866 56.6752 1865.52 56.4148C1865.04 56.1496 1864.41 56.017 1863.62 56.017H1860.52V69H1858.76ZM1875.54 69.2273C1874.56 69.2273 1873.7 68.9929 1872.95 68.5241C1872.21 68.0554 1871.64 67.3996 1871.22 66.5568C1870.81 65.714 1870.6 64.7292 1870.6 63.6023C1870.6 62.4659 1870.81 61.474 1871.22 60.6264C1871.64 59.7789 1872.21 59.1207 1872.95 58.652C1873.7 58.1832 1874.56 57.9489 1875.54 57.9489C1876.53 57.9489 1877.39 58.1832 1878.13 58.652C1878.87 59.1207 1879.45 59.7789 1879.86 60.6264C1880.28 61.474 1880.49 62.4659 1880.49 63.6023C1880.49 64.7292 1880.28 65.714 1879.86 66.5568C1879.45 67.3996 1878.87 68.0554 1878.13 68.5241C1877.39 68.9929 1876.53 69.2273 1875.54 69.2273ZM1875.54 67.7216C1876.29 67.7216 1876.91 67.5298 1877.39 67.1463C1877.87 66.7628 1878.23 66.2585 1878.46 65.6335C1878.7 65.0085 1878.81 64.3314 1878.81 63.6023C1878.81 62.8731 1878.7 62.1937 1878.46 61.5639C1878.23 60.9342 1877.87 60.4252 1877.39 60.0369C1876.91 59.6487 1876.29 59.4545 1875.54 59.4545C1874.8 59.4545 1874.18 59.6487 1873.7 60.0369C1873.21 60.4252 1872.86 60.9342 1872.62 61.5639C1872.39 62.1937 1872.28 62.8731 1872.28 63.6023C1872.28 64.3314 1872.39 65.0085 1872.62 65.6335C1872.86 66.2585 1873.21 66.7628 1873.7 67.1463C1874.18 67.5298 1874.8 67.7216 1875.54 67.7216ZM1890.77 60.5341L1889.27 60.9602C1889.17 60.7093 1889.03 60.4654 1888.85 60.2287C1888.67 59.9872 1888.42 59.7884 1888.11 59.6321C1887.8 59.4759 1887.4 59.3977 1886.91 59.3977C1886.24 59.3977 1885.69 59.5516 1885.24 59.8594C1884.8 60.1624 1884.58 60.5483 1884.58 61.017C1884.58 61.4337 1884.73 61.7628 1885.03 62.0043C1885.34 62.2457 1885.81 62.447 1886.45 62.608L1888.07 63.0057C1889.05 63.2424 1889.78 63.6046 1890.25 64.0923C1890.73 64.5753 1890.97 65.1979 1890.97 65.9602C1890.97 66.5852 1890.79 67.1439 1890.43 67.6364C1890.08 68.1288 1889.58 68.517 1888.94 68.8011C1888.3 69.0852 1887.56 69.2273 1886.71 69.2273C1885.6 69.2273 1884.68 68.9858 1883.95 68.5028C1883.22 68.0199 1882.76 67.3144 1882.56 66.3864L1884.15 65.9886C1884.31 66.5758 1884.59 67.0161 1885.01 67.3097C1885.44 67.6032 1886 67.75 1886.68 67.75C1887.46 67.75 1888.08 67.5843 1888.54 67.2528C1889.01 66.9167 1889.24 66.5142 1889.24 66.0455C1889.24 65.6667 1889.11 65.3494 1888.84 65.0938C1888.58 64.8333 1888.17 64.6392 1887.62 64.5114L1885.8 64.0852C1884.8 63.8485 1884.07 63.4815 1883.6 62.9844C1883.14 62.4825 1882.9 61.8551 1882.9 61.1023C1882.9 60.4867 1883.08 59.9422 1883.42 59.4688C1883.77 58.9953 1884.25 58.6236 1884.85 58.3537C1885.46 58.0838 1886.14 57.9489 1886.91 57.9489C1887.99 57.9489 1888.84 58.1856 1889.45 58.6591C1890.07 59.1326 1890.51 59.7576 1890.77 60.5341ZM1898.24 58.0909V59.5114H1892.59V58.0909H1898.24ZM1894.23 55.4773H1895.91V65.875C1895.91 66.3485 1895.98 66.7036 1896.12 66.9403C1896.26 67.1723 1896.44 67.3286 1896.66 67.4091C1896.88 67.4848 1897.11 67.5227 1897.36 67.5227C1897.54 67.5227 1897.69 67.5133 1897.81 67.4943C1897.93 67.4706 1898.03 67.4517 1898.1 67.4375L1898.44 68.9432C1898.32 68.9858 1898.17 69.0284 1897.96 69.071C1897.76 69.1184 1897.5 69.142 1897.19 69.142C1896.71 69.142 1896.25 69.0402 1895.8 68.8366C1895.35 68.633 1894.97 68.3229 1894.67 67.9062C1894.38 67.4896 1894.23 66.964 1894.23 66.3295V55.4773ZM1913.26 64.5398V58.0909H1914.94V69H1913.26V67.1534H1913.15C1912.89 67.7074 1912.49 68.1785 1911.95 68.5668C1911.41 68.9503 1910.73 69.142 1909.91 69.142C1909.23 69.142 1908.62 68.9929 1908.09 68.6946C1907.56 68.3916 1907.14 67.937 1906.84 67.331C1906.54 66.7202 1906.39 65.9508 1906.39 65.0227V58.0909H1908.06V64.9091C1908.06 65.7045 1908.28 66.339 1908.73 66.8125C1909.18 67.286 1909.75 67.5227 1910.45 67.5227C1910.86 67.5227 1911.29 67.4162 1911.72 67.2031C1912.16 66.9901 1912.52 66.6634 1912.81 66.223C1913.11 65.7827 1913.26 65.2216 1913.26 64.5398ZM1918.01 73.0909V58.0909H1919.63V59.8239H1919.82C1919.95 59.6345 1920.12 59.393 1920.34 59.0994C1920.56 58.8011 1920.88 58.536 1921.29 58.304C1921.7 58.0672 1922.27 57.9489 1922.98 57.9489C1923.9 57.9489 1924.71 58.1785 1925.41 58.6378C1926.11 59.0971 1926.65 59.7481 1927.05 60.5909C1927.44 61.4337 1927.64 62.428 1927.64 63.5739C1927.64 64.7292 1927.44 65.7306 1927.05 66.5781C1926.65 67.4209 1926.11 68.0743 1925.41 68.5384C1924.72 68.9976 1923.92 69.2273 1923.01 69.2273C1922.31 69.2273 1921.74 69.1113 1921.32 68.8793C1920.9 68.6425 1920.58 68.375 1920.35 68.0767C1920.12 67.7737 1919.95 67.5227 1919.82 67.3239H1919.68V73.0909H1918.01ZM1919.65 63.5455C1919.65 64.3693 1919.78 65.0961 1920.02 65.7259C1920.26 66.3509 1920.61 66.8409 1921.07 67.196C1921.54 67.5464 1922.11 67.7216 1922.78 67.7216C1923.48 67.7216 1924.06 67.5369 1924.53 67.1676C1925.01 66.7936 1925.36 66.2917 1925.6 65.6619C1925.84 65.0275 1925.96 64.322 1925.96 63.5455C1925.96 62.7784 1925.84 62.0871 1925.61 61.4716C1925.37 60.8513 1925.02 60.3613 1924.55 60.0014C1924.08 59.6368 1923.49 59.4545 1922.78 59.4545C1922.1 59.4545 1921.52 59.6274 1921.06 59.973C1920.6 60.3139 1920.25 60.7921 1920.01 61.4077C1919.77 62.0185 1919.65 62.7311 1919.65 63.5455ZM1931.87 54.4545V69H1930.19V54.4545H1931.87ZM1939.37 69.2273C1938.39 69.2273 1937.52 68.9929 1936.78 68.5241C1936.04 68.0554 1935.46 67.3996 1935.05 66.5568C1934.63 65.714 1934.43 64.7292 1934.43 63.6023C1934.43 62.4659 1934.63 61.474 1935.05 60.6264C1935.46 59.7789 1936.04 59.1207 1936.78 58.652C1937.52 58.1832 1938.39 57.9489 1939.37 57.9489C1940.36 57.9489 1941.22 58.1832 1941.96 58.652C1942.7 59.1207 1943.28 59.7789 1943.69 60.6264C1944.11 61.474 1944.32 62.4659 1944.32 63.6023C1944.32 64.7292 1944.11 65.714 1943.69 66.5568C1943.28 67.3996 1942.7 68.0554 1941.96 68.5241C1941.22 68.9929 1940.36 69.2273 1939.37 69.2273ZM1939.37 67.7216C1940.12 67.7216 1940.74 67.5298 1941.22 67.1463C1941.7 66.7628 1942.06 66.2585 1942.29 65.6335C1942.52 65.0085 1942.64 64.3314 1942.64 63.6023C1942.64 62.8731 1942.52 62.1937 1942.29 61.5639C1942.06 60.9342 1941.7 60.4252 1941.22 60.0369C1940.74 59.6487 1940.12 59.4545 1939.37 59.4545C1938.62 59.4545 1938.01 59.6487 1937.53 60.0369C1937.04 60.4252 1936.69 60.9342 1936.45 61.5639C1936.22 62.1937 1936.11 62.8731 1936.11 63.6023C1936.11 64.3314 1936.22 65.0085 1936.45 65.6335C1936.69 66.2585 1937.04 66.7628 1937.53 67.1463C1938.01 67.5298 1938.62 67.7216 1939.37 67.7216ZM1950.08 69.2557C1949.39 69.2557 1948.77 69.1255 1948.2 68.8651C1947.64 68.5999 1947.19 68.2188 1946.86 67.7216C1946.53 67.2197 1946.36 66.6136 1946.36 65.9034C1946.36 65.2784 1946.49 64.7718 1946.73 64.3835C1946.98 63.9905 1947.31 63.6828 1947.72 63.4602C1948.13 63.2377 1948.59 63.072 1949.08 62.9631C1949.58 62.8494 1950.09 62.7595 1950.6 62.6932C1951.26 62.608 1951.8 62.544 1952.21 62.5014C1952.62 62.4541 1952.93 62.3759 1953.12 62.267C1953.31 62.1581 1953.41 61.9687 1953.41 61.6989V61.642C1953.41 60.9413 1953.22 60.3968 1952.83 60.0085C1952.45 59.6203 1951.88 59.4261 1951.11 59.4261C1950.31 59.4261 1949.68 59.6013 1949.22 59.9517C1948.77 60.3021 1948.45 60.6761 1948.27 61.0739L1946.68 60.5057C1946.96 59.8428 1947.34 59.3267 1947.81 58.9574C1948.29 58.5833 1948.81 58.3229 1949.37 58.1761C1949.94 58.0246 1950.5 57.9489 1951.05 57.9489C1951.4 57.9489 1951.8 57.9915 1952.26 58.0767C1952.72 58.1572 1953.16 58.3253 1953.59 58.581C1954.02 58.8366 1954.37 59.2225 1954.66 59.7386C1954.94 60.2547 1955.08 60.946 1955.08 61.8125V69H1953.41V67.5227H1953.32C1953.21 67.7595 1953.02 68.0128 1952.75 68.2827C1952.49 68.5526 1952.14 68.7822 1951.7 68.9716C1951.26 69.161 1950.72 69.2557 1950.08 69.2557ZM1950.34 67.75C1951 67.75 1951.56 67.6198 1952.02 67.3594C1952.48 67.099 1952.82 66.7628 1953.05 66.3509C1953.29 65.9389 1953.41 65.5057 1953.41 65.0511V63.517C1953.34 63.6023 1953.18 63.6804 1952.94 63.7514C1952.7 63.8177 1952.43 63.8769 1952.12 63.929C1951.81 63.9763 1951.51 64.0189 1951.21 64.0568C1950.92 64.09 1950.69 64.1184 1950.51 64.142C1950.07 64.1989 1949.67 64.2912 1949.29 64.419C1948.91 64.5421 1948.61 64.7292 1948.38 64.9801C1948.15 65.2263 1948.04 65.5625 1948.04 65.9886C1948.04 66.571 1948.25 67.0114 1948.69 67.3097C1949.12 67.6032 1949.67 67.75 1950.34 67.75ZM1962.26 69.2273C1961.35 69.2273 1960.55 68.9976 1959.86 68.5384C1959.16 68.0743 1958.61 67.4209 1958.22 66.5781C1957.83 65.7306 1957.63 64.7292 1957.63 63.5739C1957.63 62.428 1957.83 61.4337 1958.22 60.5909C1958.61 59.7481 1959.16 59.0971 1959.86 58.6378C1960.56 58.1785 1961.37 57.9489 1962.29 57.9489C1963 57.9489 1963.56 58.0672 1963.97 58.304C1964.39 58.536 1964.71 58.8011 1964.93 59.0994C1965.15 59.393 1965.32 59.6345 1965.44 59.8239H1965.59V54.4545H1967.26V69H1965.64V67.3239H1965.44C1965.32 67.5227 1965.15 67.7737 1964.92 68.0767C1964.69 68.375 1964.37 68.6425 1963.95 68.8793C1963.52 69.1113 1962.96 69.2273 1962.26 69.2273ZM1962.49 67.7216C1963.16 67.7216 1963.73 67.5464 1964.19 67.196C1964.66 66.8409 1965.01 66.3509 1965.25 65.7259C1965.49 65.0961 1965.62 64.3693 1965.62 63.5455C1965.62 62.7311 1965.5 62.0185 1965.26 61.4077C1965.02 60.7921 1964.67 60.3139 1964.21 59.973C1963.74 59.6274 1963.17 59.4545 1962.49 59.4545C1961.78 59.4545 1961.19 59.6368 1960.71 60.0014C1960.25 60.3613 1959.89 60.8513 1959.66 61.4716C1959.42 62.0871 1959.31 62.7784 1959.31 63.5455C1959.31 64.322 1959.43 65.0275 1959.66 65.6619C1959.9 66.2917 1960.26 66.7936 1960.73 67.1676C1961.2 67.5369 1961.79 67.7216 1962.49 67.7216ZM1975.14 69.2273C1974.09 69.2273 1973.18 68.9953 1972.42 68.5312C1971.66 68.0625 1971.08 67.4091 1970.66 66.571C1970.26 65.7282 1970.05 64.7481 1970.05 63.6307C1970.05 62.5133 1970.26 61.5284 1970.66 60.6761C1971.08 59.8191 1971.65 59.1515 1972.38 58.6733C1973.12 58.1903 1973.98 57.9489 1974.97 57.9489C1975.54 57.9489 1976.1 58.0436 1976.65 58.233C1977.21 58.4223 1977.71 58.7301 1978.16 59.1562C1978.62 59.5777 1978.98 60.1364 1979.25 60.8324C1979.52 61.5284 1979.66 62.3854 1979.66 63.4034V64.1136H1971.25V62.6648H1977.95C1977.95 62.0492 1977.83 61.5 1977.58 61.017C1977.34 60.5341 1977 60.1529 1976.55 59.8736C1976.1 59.5942 1975.57 59.4545 1974.97 59.4545C1974.3 59.4545 1973.72 59.6203 1973.24 59.9517C1972.75 60.2784 1972.38 60.7045 1972.12 61.2301C1971.86 61.7557 1971.73 62.3191 1971.73 62.9205V63.8864C1971.73 64.7102 1971.87 65.4086 1972.16 65.9815C1972.45 66.5497 1972.85 66.983 1973.36 67.2812C1973.87 67.5748 1974.46 67.7216 1975.14 67.7216C1975.58 67.7216 1975.98 67.66 1976.33 67.5369C1976.69 67.4091 1977 67.2197 1977.26 66.9688C1977.52 66.7131 1977.72 66.3958 1977.87 66.017L1979.49 66.4716C1979.32 67.0208 1979.03 67.5038 1978.63 67.9205C1978.22 68.3324 1977.73 68.6544 1977.13 68.8864C1976.54 69.1136 1975.88 69.2273 1975.14 69.2273ZM1986.33 69.2273C1985.42 69.2273 1984.61 68.9976 1983.92 68.5384C1983.22 68.0743 1982.68 67.4209 1982.28 66.5781C1981.89 65.7306 1981.69 64.7292 1981.69 63.5739C1981.69 62.428 1981.89 61.4337 1982.28 60.5909C1982.68 59.7481 1983.22 59.0971 1983.92 58.6378C1984.63 58.1785 1985.44 57.9489 1986.35 57.9489C1987.06 57.9489 1987.63 58.0672 1988.04 58.304C1988.45 58.536 1988.77 58.8011 1988.99 59.0994C1989.21 59.393 1989.38 59.6345 1989.51 59.8239H1989.65V54.4545H1991.33V69H1989.71V67.3239H1989.51C1989.38 67.5227 1989.21 67.7737 1988.98 68.0767C1988.75 68.375 1988.43 68.6425 1988.01 68.8793C1987.59 69.1113 1987.03 69.2273 1986.33 69.2273ZM1986.55 67.7216C1987.22 67.7216 1987.79 67.5464 1988.26 67.196C1988.72 66.8409 1989.07 66.3509 1989.32 65.7259C1989.56 65.0961 1989.68 64.3693 1989.68 63.5455C1989.68 62.7311 1989.56 62.0185 1989.32 61.4077C1989.09 60.7921 1988.74 60.3139 1988.27 59.973C1987.81 59.6274 1987.23 59.4545 1986.55 59.4545C1985.84 59.4545 1985.25 59.6368 1984.78 60.0014C1984.31 60.3613 1983.96 60.8513 1983.72 61.4716C1983.49 62.0871 1983.37 62.7784 1983.37 63.5455C1983.37 64.322 1983.49 65.0275 1983.73 65.6619C1983.97 66.2917 1984.32 66.7936 1984.79 67.1676C1985.26 67.5369 1985.85 67.7216 1986.55 67.7216ZM1996.84 54.4545L1996.7 64.9091H1995.05L1994.91 54.4545H1996.84ZM1995.88 69.1136C1995.53 69.1136 1995.23 68.9882 1994.98 68.7372C1994.72 68.4863 1994.6 68.1856 1994.6 67.8352C1994.6 67.4848 1994.72 67.1842 1994.98 66.9332C1995.23 66.6823 1995.53 66.5568 1995.88 66.5568C1996.23 66.5568 1996.53 66.6823 1996.78 66.9332C1997.03 67.1842 1997.16 67.4848 1997.16 67.8352C1997.16 68.0672 1997.1 68.2803 1996.98 68.4744C1996.87 68.6686 1996.71 68.8248 1996.52 68.9432C1996.33 69.0568 1996.11 69.1136 1995.88 69.1136Z" fill="black"/>
<path d="M13.4659 59H11.7045C11.6004 58.4934 11.4181 58.0483 11.1577 57.6648C10.902 57.2812 10.5895 56.9593 10.2202 56.6989C9.85559 56.4337 9.45076 56.2348 9.00568 56.1023C8.56061 55.9697 8.09659 55.9034 7.61364 55.9034C6.73295 55.9034 5.93513 56.1259 5.22017 56.571C4.50994 57.0161 3.94413 57.6719 3.52273 58.5384C3.10606 59.4048 2.89773 60.4678 2.89773 61.7273C2.89773 62.9867 3.10606 64.0497 3.52273 64.9162C3.94413 65.7827 4.50994 66.4384 5.22017 66.8835C5.93513 67.3286 6.73295 67.5511 7.61364 67.5511C8.09659 67.5511 8.56061 67.4848 9.00568 67.3523C9.45076 67.2197 9.85559 67.0232 10.2202 66.7628C10.5895 66.4976 10.902 66.1733 11.1577 65.7898C11.4181 65.4015 11.6004 64.9564 11.7045 64.4545H13.4659C13.3333 65.1979 13.0919 65.8632 12.7415 66.4503C12.3911 67.0374 11.9555 67.5369 11.4347 67.9489C10.9138 68.3561 10.3291 68.6662 9.6804 68.8793C9.03646 69.0923 8.34754 69.1989 7.61364 69.1989C6.37311 69.1989 5.26989 68.8958 4.30398 68.2898C3.33807 67.6837 2.57813 66.822 2.02415 65.7045C1.47017 64.5871 1.19318 63.2614 1.19318 61.7273C1.19318 60.1932 1.47017 58.8674 2.02415 57.75C2.57813 56.6326 3.33807 55.7708 4.30398 55.1648C5.26989 54.5587 6.37311 54.2557 7.61364 54.2557C8.34754 54.2557 9.03646 54.3622 9.6804 54.5753C10.3291 54.7884 10.9138 55.1009 11.4347 55.5128C11.9555 55.92 12.3911 56.4171 12.7415 57.0043C13.0919 57.5866 13.3333 58.2519 13.4659 59ZM16.0849 69V58.0909H17.7042V59.7386H17.8178C18.0167 59.1989 18.3765 58.7609 18.8974 58.4247C19.4182 58.0885 20.0053 57.9205 20.6587 57.9205C20.7818 57.9205 20.9357 57.9228 21.1204 57.9276C21.305 57.9323 21.4447 57.9394 21.5394 57.9489V59.6534C21.4826 59.6392 21.3524 59.6179 21.1488 59.5895C20.9499 59.5563 20.7392 59.5398 20.5167 59.5398C19.9864 59.5398 19.5129 59.651 19.0962 59.8736C18.6843 60.0914 18.3576 60.3944 18.1161 60.7827C17.8794 61.1662 17.761 61.6042 17.761 62.0966V69H16.0849ZM27.7681 69.2273C26.717 69.2273 25.8103 68.9953 25.0479 68.5312C24.2904 68.0625 23.7056 67.4091 23.2937 66.571C22.8865 65.7282 22.6829 64.7481 22.6829 63.6307C22.6829 62.5133 22.8865 61.5284 23.2937 60.6761C23.7056 59.8191 24.2785 59.1515 25.0124 58.6733C25.7511 58.1903 26.6128 57.9489 27.5977 57.9489C28.1658 57.9489 28.7269 58.0436 29.2809 58.233C29.8349 58.4223 30.3391 58.7301 30.7937 59.1562C31.2482 59.5777 31.6104 60.1364 31.8803 60.8324C32.1502 61.5284 32.2852 62.3854 32.2852 63.4034V64.1136H23.8761V62.6648H30.5806C30.5806 62.0492 30.4575 61.5 30.2113 61.017C29.9698 60.5341 29.6242 60.1529 29.1744 59.8736C28.7293 59.5942 28.2037 59.4545 27.5977 59.4545C26.93 59.4545 26.3524 59.6203 25.8647 59.9517C25.3817 60.2784 25.0101 60.7045 24.7496 61.2301C24.4892 61.7557 24.359 62.3191 24.359 62.9205V63.8864C24.359 64.7102 24.5011 65.4086 24.7852 65.9815C25.074 66.5497 25.4741 66.983 25.9854 67.2812C26.4968 67.5748 27.091 67.7216 27.7681 67.7216C28.2085 67.7216 28.6062 67.66 28.9613 67.5369C29.3211 67.4091 29.6313 67.2197 29.8917 66.9688C30.1521 66.7131 30.3533 66.3958 30.4954 66.017L32.1147 66.4716C31.9442 67.0208 31.6578 67.5038 31.2553 67.9205C30.8529 68.3324 30.3557 68.6544 29.7638 68.8864C29.172 69.1136 28.5067 69.2273 27.7681 69.2273ZM38.0451 69.2557C37.3538 69.2557 36.7264 69.1255 36.163 68.8651C35.5996 68.5999 35.1521 68.2188 34.8207 67.7216C34.4892 67.2197 34.3235 66.6136 34.3235 65.9034C34.3235 65.2784 34.4466 64.7718 34.6928 64.3835C34.939 63.9905 35.2681 63.6828 35.68 63.4602C36.092 63.2377 36.5465 63.072 37.0437 62.9631C37.5456 62.8494 38.0498 62.7595 38.5565 62.6932C39.2193 62.608 39.7567 62.544 40.1687 62.5014C40.5853 62.4541 40.8884 62.3759 41.0778 62.267C41.2719 62.1581 41.369 61.9687 41.369 61.6989V61.642C41.369 60.9413 41.1772 60.3968 40.7937 60.0085C40.4149 59.6203 39.8396 59.4261 39.0678 59.4261C38.2676 59.4261 37.6403 59.6013 37.1857 59.9517C36.7312 60.3021 36.4116 60.6761 36.2269 61.0739L34.636 60.5057C34.9201 59.8428 35.2989 59.3267 35.7724 58.9574C36.2506 58.5833 36.7714 58.3229 37.3349 58.1761C37.9031 58.0246 38.4618 57.9489 39.011 57.9489C39.3614 57.9489 39.7638 57.9915 40.2184 58.0767C40.6777 58.1572 41.1204 58.3253 41.5465 58.581C41.9774 58.8366 42.3349 59.2225 42.619 59.7386C42.9031 60.2547 43.0451 60.946 43.0451 61.8125V69H41.369V67.5227H41.2837C41.1701 67.7595 40.9807 68.0128 40.7156 68.2827C40.4504 68.5526 40.0977 68.7822 39.6573 68.9716C39.217 69.161 38.6796 69.2557 38.0451 69.2557ZM38.3008 67.75C38.9637 67.75 39.5224 67.6198 39.9769 67.3594C40.4362 67.099 40.7818 66.7628 41.0138 66.3509C41.2506 65.9389 41.369 65.5057 41.369 65.0511V63.517C41.2979 63.6023 41.1417 63.6804 40.9002 63.7514C40.6635 63.8177 40.3888 63.8769 40.0763 63.929C39.7686 63.9763 39.4679 64.0189 39.1744 64.0568C38.8855 64.09 38.6512 64.1184 38.4712 64.142C38.0356 64.1989 37.6284 64.2912 37.2496 64.419C36.8756 64.5421 36.5726 64.7292 36.3406 64.9801C36.1133 65.2263 35.9996 65.5625 35.9996 65.9886C35.9996 66.571 36.2151 67.0114 36.646 67.3097C37.0816 67.6032 37.6332 67.75 38.3008 67.75ZM50.8487 58.0909V59.5114H45.1953V58.0909H50.8487ZM46.843 55.4773H48.5192V65.875C48.5192 66.3485 48.5878 66.7036 48.7251 66.9403C48.8672 67.1723 49.0471 67.3286 49.2649 67.4091C49.4875 67.4848 49.7218 67.5227 49.968 67.5227C50.1527 67.5227 50.3042 67.5133 50.4226 67.4943C50.541 67.4706 50.6357 67.4517 50.7067 67.4375L51.0476 68.9432C50.9339 68.9858 50.7753 69.0284 50.5717 69.071C50.3681 69.1184 50.1101 69.142 49.7976 69.142C49.3241 69.142 48.8601 69.0402 48.4055 68.8366C47.9557 68.633 47.5817 68.3229 47.2834 67.9062C46.9898 67.4896 46.843 66.964 46.843 66.3295V55.4773ZM57.6847 69.2273C56.6998 69.2273 55.8357 68.9929 55.0923 68.5241C54.3537 68.0554 53.776 67.3996 53.3594 66.5568C52.9474 65.714 52.7415 64.7292 52.7415 63.6023C52.7415 62.4659 52.9474 61.474 53.3594 60.6264C53.776 59.7789 54.3537 59.1207 55.0923 58.652C55.8357 58.1832 56.6998 57.9489 57.6847 57.9489C58.6695 57.9489 59.5313 58.1832 60.2699 58.652C61.0133 59.1207 61.5909 59.7789 62.0028 60.6264C62.4195 61.474 62.6278 62.4659 62.6278 63.6023C62.6278 64.7292 62.4195 65.714 62.0028 66.5568C61.5909 67.3996 61.0133 68.0554 60.2699 68.5241C59.5313 68.9929 58.6695 69.2273 57.6847 69.2273ZM57.6847 67.7216C58.4328 67.7216 59.0483 67.5298 59.5312 67.1463C60.0142 66.7628 60.3717 66.2585 60.6037 65.6335C60.8357 65.0085 60.9517 64.3314 60.9517 63.6023C60.9517 62.8731 60.8357 62.1937 60.6037 61.5639C60.3717 60.9342 60.0142 60.4252 59.5312 60.0369C59.0483 59.6487 58.4328 59.4545 57.6847 59.4545C56.9366 59.4545 56.321 59.6487 55.8381 60.0369C55.3551 60.4252 54.9976 60.9342 54.7656 61.5639C54.5336 62.1937 54.4176 62.8731 54.4176 63.6023C54.4176 64.3314 54.5336 65.0085 54.7656 65.6335C54.9976 66.2585 55.3551 66.7628 55.8381 67.1463C56.321 67.5298 56.9366 67.7216 57.6847 67.7216ZM65.1864 69V58.0909H66.8058V59.7386H66.9194C67.1183 59.1989 67.4781 58.7609 67.9989 58.4247C68.5198 58.0885 69.1069 57.9205 69.7603 57.9205C69.8834 57.9205 70.0373 57.9228 70.2219 57.9276C70.4066 57.9323 70.5463 57.9394 70.641 57.9489V59.6534C70.5842 59.6392 70.454 59.6179 70.2504 59.5895C70.0515 59.5563 69.8408 59.5398 69.6183 59.5398C69.088 59.5398 68.6145 59.651 68.1978 59.8736C67.7859 60.0914 67.4592 60.3944 67.2177 60.7827C66.9809 61.1662 66.8626 61.6042 66.8626 62.0966V69H65.1864ZM84.5028 61.983V63.5455H78.1392V61.983H84.5028ZM11.3068 78.4545H13.0682V88.0852C13.0682 89.0795 12.8338 89.9673 12.3651 90.7486C11.901 91.5251 11.2453 92.1383 10.3977 92.5881C9.55019 93.0331 8.55587 93.2557 7.41477 93.2557C6.27367 93.2557 5.27936 93.0331 4.43182 92.5881C3.58428 92.1383 2.92614 91.5251 2.45739 90.7486C1.99337 89.9673 1.76136 89.0795 1.76136 88.0852V78.4545H3.52273V87.9432C3.52273 88.6534 3.67898 89.2855 3.99148 89.8395C4.30398 90.3887 4.74905 90.822 5.3267 91.1392C5.90909 91.4517 6.60511 91.608 7.41477 91.608C8.22443 91.608 8.92045 91.4517 9.50284 91.1392C10.0852 90.822 10.5303 90.3887 10.8381 89.8395C11.1506 89.2855 11.3068 88.6534 11.3068 87.9432V78.4545ZM24.0856 84.5341L22.5799 84.9602C22.4852 84.7093 22.3455 84.4654 22.1609 84.2287C21.9809 83.9872 21.7347 83.7884 21.4222 83.6321C21.1097 83.4759 20.7096 83.3977 20.2219 83.3977C19.5543 83.3977 18.998 83.5516 18.5529 83.8594C18.1126 84.1624 17.8924 84.5483 17.8924 85.017C17.8924 85.4337 18.0439 85.7628 18.3469 86.0043C18.65 86.2457 19.1235 86.447 19.7674 86.608L21.3867 87.0057C22.3621 87.2424 23.0889 87.6046 23.5671 88.0923C24.0453 88.5753 24.2844 89.1979 24.2844 89.9602C24.2844 90.5852 24.1045 91.1439 23.7447 91.6364C23.3896 92.1288 22.8924 92.517 22.2532 92.8011C21.614 93.0852 20.8706 93.2273 20.0231 93.2273C18.9104 93.2273 17.9895 92.9858 17.2603 92.5028C16.5311 92.0199 16.0695 91.3144 15.8754 90.3864L17.4663 89.9886C17.6178 90.5758 17.9042 91.0161 18.3256 91.3097C18.7518 91.6032 19.3081 91.75 19.9947 91.75C20.7759 91.75 21.3962 91.5843 21.8555 91.2528C22.3195 90.9167 22.5515 90.5142 22.5515 90.0455C22.5515 89.6667 22.4189 89.3494 22.1538 89.0938C21.8886 88.8333 21.4814 88.6392 20.9322 88.5114L19.114 88.0852C18.1149 87.8485 17.381 87.4815 16.9123 86.9844C16.4483 86.4825 16.2163 85.8551 16.2163 85.1023C16.2163 84.4867 16.3891 83.9422 16.7347 83.4688C17.0851 82.9953 17.561 82.6236 18.1623 82.3537C18.7683 82.0838 19.4549 81.9489 20.2219 81.9489C21.3015 81.9489 22.149 82.1856 22.7646 82.6591C23.3848 83.1326 23.8252 83.7576 24.0856 84.5341ZM31.3814 93.2273C30.3303 93.2273 29.4235 92.9953 28.6612 92.5312C27.9036 92.0625 27.3189 91.4091 26.907 90.571C26.4998 89.7282 26.2962 88.7481 26.2962 87.6307C26.2962 86.5133 26.4998 85.5284 26.907 84.6761C27.3189 83.8191 27.8918 83.1515 28.6257 82.6733C29.3643 82.1903 30.2261 81.9489 31.2109 81.9489C31.7791 81.9489 32.3402 82.0436 32.8942 82.233C33.4482 82.4223 33.9524 82.7301 34.407 83.1562C34.8615 83.5777 35.2237 84.1364 35.4936 84.8324C35.7635 85.5284 35.8984 86.3854 35.8984 87.4034V88.1136H27.4893V86.6648H34.1939C34.1939 86.0492 34.0708 85.5 33.8246 85.017C33.5831 84.5341 33.2375 84.1529 32.7876 83.8736C32.3426 83.5942 31.817 83.4545 31.2109 83.4545C30.5433 83.4545 29.9657 83.6203 29.478 83.9517C28.995 84.2784 28.6233 84.7045 28.3629 85.2301C28.1025 85.7557 27.9723 86.3191 27.9723 86.9205V87.8864C27.9723 88.7102 28.1143 89.4086 28.3984 89.9815C28.6873 90.5497 29.0874 90.983 29.5987 91.2812C30.1101 91.5748 30.7043 91.7216 31.3814 91.7216C31.8217 91.7216 32.2195 91.66 32.5746 91.5369C32.9344 91.4091 33.2446 91.2197 33.505 90.9688C33.7654 90.7131 33.9666 90.3958 34.1087 90.017L35.728 90.4716C35.5575 91.0208 35.2711 91.5038 34.8686 91.9205C34.4661 92.3324 33.969 92.6544 33.3771 92.8864C32.7853 93.1136 32.12 93.2273 31.3814 93.2273ZM38.4482 93V82.0909H40.0675V83.7386H40.1811C40.38 83.1989 40.7398 82.7609 41.2607 82.4247C41.7815 82.0885 42.3686 81.9205 43.022 81.9205C43.1451 81.9205 43.299 81.9228 43.4837 81.9276C43.6683 81.9323 43.808 81.9394 43.9027 81.9489V83.6534C43.8459 83.6392 43.7157 83.6179 43.5121 83.5895C43.3132 83.5563 43.1025 83.5398 42.88 83.5398C42.3497 83.5398 41.8762 83.651 41.4595 83.8736C41.0476 84.0914 40.7209 84.3944 40.4794 84.7827C40.2427 85.1662 40.1243 85.6042 40.1243 86.0966V93H38.4482ZM56.3725 82.0909V83.5114H50.4918V82.0909H56.3725ZM52.2532 93V80.5852C52.2532 79.9602 52.4 79.4394 52.6935 79.0227C52.9871 78.6061 53.3683 78.2936 53.837 78.0852C54.3058 77.8769 54.8005 77.7727 55.3214 77.7727C55.7333 77.7727 56.0695 77.8059 56.3299 77.8722C56.5903 77.9384 56.7844 78 56.9123 78.0568L56.4293 79.5057C56.3441 79.4773 56.2257 79.4418 56.0742 79.3991C55.9274 79.3565 55.7333 79.3352 55.4918 79.3352C54.9379 79.3352 54.5378 79.4749 54.2915 79.7543C54.0501 80.0336 53.9293 80.4432 53.9293 80.983V93H52.2532ZM60.3977 78.4545V93H58.7216V78.4545H60.3977ZM67.8995 93.2273C66.9147 93.2273 66.0505 92.9929 65.3072 92.5241C64.5685 92.0554 63.9909 91.3996 63.5742 90.5568C63.1623 89.714 62.9563 88.7292 62.9563 87.6023C62.9563 86.4659 63.1623 85.474 63.5742 84.6264C63.9909 83.7789 64.5685 83.1207 65.3072 82.652C66.0505 82.1832 66.9147 81.9489 67.8995 81.9489C68.8844 81.9489 69.7461 82.1832 70.4847 82.652C71.2281 83.1207 71.8058 83.7789 72.2177 84.6264C72.6344 85.474 72.8427 86.4659 72.8427 87.6023C72.8427 88.7292 72.6344 89.714 72.2177 90.5568C71.8058 91.3996 71.2281 92.0554 70.4847 92.5241C69.7461 92.9929 68.8844 93.2273 67.8995 93.2273ZM67.8995 91.7216C68.6476 91.7216 69.2631 91.5298 69.7461 91.1463C70.229 90.7628 70.5865 90.2585 70.8185 89.6335C71.0505 89.0085 71.1665 88.3314 71.1665 87.6023C71.1665 86.8731 71.0505 86.1937 70.8185 85.5639C70.5865 84.9342 70.229 84.4252 69.7461 84.0369C69.2631 83.6487 68.6476 83.4545 67.8995 83.4545C67.1514 83.4545 66.5359 83.6487 66.0529 84.0369C65.57 84.4252 65.2125 84.9342 64.9805 85.5639C64.7485 86.1937 64.6325 86.8731 64.6325 87.6023C64.6325 88.3314 64.7485 89.0085 64.9805 89.6335C65.2125 90.2585 65.57 90.7628 66.0529 91.1463C66.5359 91.5298 67.1514 91.7216 67.8995 91.7216ZM77.5018 93L74.1779 82.0909H75.9393L78.2972 90.4432H78.4109L80.7404 82.0909H82.5302L84.8313 90.4148H84.945L87.3029 82.0909H89.0643L85.7404 93H84.0927L81.7063 84.6193H81.5359L79.1495 93H77.5018ZM101.65 82.0909V83.5114H95.9961V82.0909H101.65ZM97.6438 79.4773H99.32V89.875C99.32 90.3485 99.3886 90.7036 99.5259 90.9403C99.668 91.1723 99.8479 91.3286 100.066 91.4091C100.288 91.4848 100.523 91.5227 100.769 91.5227C100.953 91.5227 101.105 91.5133 101.223 91.4943C101.342 91.4706 101.436 91.4517 101.507 91.4375L101.848 92.9432C101.735 92.9858 101.576 93.0284 101.373 93.071C101.169 93.1184 100.911 93.142 100.598 93.142C100.125 93.142 99.6609 93.0402 99.2063 92.8366C98.7565 92.633 98.3825 92.3229 98.0842 91.9062C97.7906 91.4896 97.6438 90.964 97.6438 90.3295V79.4773ZM108.485 93.2273C107.501 93.2273 106.636 92.9929 105.893 92.5241C105.154 92.0554 104.577 91.3996 104.16 90.5568C103.748 89.714 103.542 88.7292 103.542 87.6023C103.542 86.4659 103.748 85.474 104.16 84.6264C104.577 83.7789 105.154 83.1207 105.893 82.652C106.636 82.1832 107.501 81.9489 108.485 81.9489C109.47 81.9489 110.332 82.1832 111.071 82.652C111.814 83.1207 112.392 83.7789 112.804 84.6264C113.22 85.474 113.429 86.4659 113.429 87.6023C113.429 88.7292 113.22 89.714 112.804 90.5568C112.392 91.3996 111.814 92.0554 111.071 92.5241C110.332 92.9929 109.47 93.2273 108.485 93.2273ZM108.485 91.7216C109.234 91.7216 109.849 91.5298 110.332 91.1463C110.815 90.7628 111.172 90.2585 111.404 89.6335C111.636 89.0085 111.752 88.3314 111.752 87.6023C111.752 86.8731 111.636 86.1937 111.404 85.5639C111.172 84.9342 110.815 84.4252 110.332 84.0369C109.849 83.6487 109.234 83.4545 108.485 83.4545C107.737 83.4545 107.122 83.6487 106.639 84.0369C106.156 84.4252 105.798 84.9342 105.566 85.5639C105.334 86.1937 105.218 86.8731 105.218 87.6023C105.218 88.3314 105.334 89.0085 105.566 89.6335C105.798 90.2585 106.156 90.7628 106.639 91.1463C107.122 91.5298 107.737 91.7216 108.485 91.7216ZM126.044 93.2273C125.021 93.2273 124.141 92.9858 123.402 92.5028C122.663 92.0199 122.095 91.3546 121.697 90.5071C121.3 89.6596 121.101 88.6913 121.101 87.6023C121.101 86.4943 121.304 85.5166 121.712 84.669C122.124 83.8168 122.696 83.1515 123.43 82.6733C124.169 82.1903 125.031 81.9489 126.016 81.9489C126.783 81.9489 127.474 82.0909 128.089 82.375C128.705 82.6591 129.209 83.0568 129.602 83.5682C129.995 84.0795 130.239 84.6761 130.334 85.358H128.658C128.53 84.8608 128.246 84.4205 127.805 84.0369C127.37 83.6487 126.783 83.4545 126.044 83.4545C125.391 83.4545 124.818 83.625 124.325 83.9659C123.838 84.3021 123.456 84.7779 123.182 85.3935C122.912 86.0043 122.777 86.7216 122.777 87.5455C122.777 88.3883 122.91 89.1222 123.175 89.7472C123.445 90.3722 123.823 90.8575 124.311 91.2031C124.804 91.5488 125.381 91.7216 126.044 91.7216C126.48 91.7216 126.875 91.6458 127.23 91.4943C127.585 91.3428 127.886 91.125 128.132 90.8409C128.378 90.5568 128.554 90.2159 128.658 89.8182H130.334C130.239 90.4621 130.005 91.0421 129.631 91.5582C129.261 92.0696 128.771 92.4768 128.161 92.7798C127.554 93.0781 126.849 93.2273 126.044 93.2273ZM132.784 93V82.0909H134.403V83.7386H134.517C134.716 83.1989 135.076 82.7609 135.597 82.4247C136.117 82.0885 136.705 81.9205 137.358 81.9205C137.481 81.9205 137.635 81.9228 137.82 81.9276C138.004 81.9323 138.144 81.9394 138.239 81.9489V83.6534C138.182 83.6392 138.052 83.6179 137.848 83.5895C137.649 83.5563 137.438 83.5398 137.216 83.5398C136.686 83.5398 136.212 83.651 135.795 83.8736C135.384 84.0914 135.057 84.3944 134.815 84.7827C134.579 85.1662 134.46 85.6042 134.46 86.0966V93H132.784ZM144.467 93.2273C143.416 93.2273 142.509 92.9953 141.747 92.5312C140.99 92.0625 140.405 91.4091 139.993 90.571C139.586 89.7282 139.382 88.7481 139.382 87.6307C139.382 86.5133 139.586 85.5284 139.993 84.6761C140.405 83.8191 140.978 83.1515 141.712 82.6733C142.45 82.1903 143.312 81.9489 144.297 81.9489C144.865 81.9489 145.426 82.0436 145.98 82.233C146.534 82.4223 147.038 82.7301 147.493 83.1562C147.947 83.5777 148.31 84.1364 148.58 84.8324C148.849 85.5284 148.984 86.3854 148.984 87.4034V88.1136H140.575V86.6648H147.28C147.28 86.0492 147.157 85.5 146.911 85.017C146.669 84.5341 146.323 84.1529 145.874 83.8736C145.429 83.5942 144.903 83.4545 144.297 83.4545C143.629 83.4545 143.052 83.6203 142.564 83.9517C142.081 84.2784 141.709 84.7045 141.449 85.2301C141.188 85.7557 141.058 86.3191 141.058 86.9205V87.8864C141.058 88.7102 141.2 89.4086 141.484 89.9815C141.773 90.5497 142.173 90.983 142.685 91.2812C143.196 91.5748 143.79 91.7216 144.467 91.7216C144.908 91.7216 145.305 91.66 145.661 91.5369C146.02 91.4091 146.33 91.2197 146.591 90.9688C146.851 90.7131 147.053 90.3958 147.195 90.017L148.814 90.4716C148.643 91.0208 148.357 91.5038 147.955 91.9205C147.552 92.3324 147.055 92.6544 146.463 92.8864C145.871 93.1136 145.206 93.2273 144.467 93.2273ZM154.744 93.2557C154.053 93.2557 153.426 93.1255 152.862 92.8651C152.299 92.5999 151.851 92.2188 151.52 91.7216C151.188 91.2197 151.023 90.6136 151.023 89.9034C151.023 89.2784 151.146 88.7718 151.392 88.3835C151.638 87.9905 151.967 87.6828 152.379 87.4602C152.791 87.2377 153.246 87.072 153.743 86.9631C154.245 86.8494 154.749 86.7595 155.256 86.6932C155.919 86.608 156.456 86.544 156.868 86.5014C157.285 86.4541 157.588 86.3759 157.777 86.267C157.971 86.1581 158.068 85.9687 158.068 85.6989V85.642C158.068 84.9413 157.876 84.3968 157.493 84.0085C157.114 83.6203 156.539 83.4261 155.767 83.4261C154.967 83.4261 154.339 83.6013 153.885 83.9517C153.43 84.3021 153.111 84.6761 152.926 85.0739L151.335 84.5057C151.619 83.8428 151.998 83.3267 152.472 82.9574C152.95 82.5833 153.471 82.3229 154.034 82.1761C154.602 82.0246 155.161 81.9489 155.71 81.9489C156.061 81.9489 156.463 81.9915 156.918 82.0767C157.377 82.1572 157.82 82.3253 158.246 82.581C158.677 82.8366 159.034 83.2225 159.318 83.7386C159.602 84.2547 159.744 84.946 159.744 85.8125V93H158.068V91.5227H157.983C157.869 91.7595 157.68 92.0128 157.415 92.2827C157.15 92.5526 156.797 92.7822 156.357 92.9716C155.916 93.161 155.379 93.2557 154.744 93.2557ZM155 91.75C155.663 91.75 156.222 91.6198 156.676 91.3594C157.135 91.099 157.481 90.7628 157.713 90.3509C157.95 89.9389 158.068 89.5057 158.068 89.0511V87.517C157.997 87.6023 157.841 87.6804 157.599 87.7514C157.363 87.8177 157.088 87.8769 156.776 87.929C156.468 87.9763 156.167 88.0189 155.874 88.0568C155.585 88.09 155.35 88.1184 155.17 88.142C154.735 88.1989 154.328 88.2912 153.949 88.419C153.575 88.5421 153.272 88.7292 153.04 88.9801C152.813 89.2263 152.699 89.5625 152.699 89.9886C152.699 90.571 152.914 91.0114 153.345 91.3097C153.781 91.6032 154.332 91.75 155 91.75ZM167.548 82.0909V83.5114H161.895V82.0909H167.548ZM163.542 79.4773H165.218V89.875C165.218 90.3485 165.287 90.7036 165.424 90.9403C165.566 91.1723 165.746 91.3286 165.964 91.4091C166.187 91.4848 166.421 91.5227 166.667 91.5227C166.852 91.5227 167.003 91.5133 167.122 91.4943C167.24 91.4706 167.335 91.4517 167.406 91.4375L167.747 92.9432C167.633 92.9858 167.475 93.0284 167.271 93.071C167.067 93.1184 166.809 93.142 166.497 93.142C166.023 93.142 165.559 93.0402 165.105 92.8366C164.655 92.633 164.281 92.3229 163.983 91.9062C163.689 91.4896 163.542 90.964 163.542 90.3295V79.4773ZM174.526 93.2273C173.475 93.2273 172.568 92.9953 171.806 92.5312C171.048 92.0625 170.463 91.4091 170.051 90.571C169.644 89.7282 169.441 88.7481 169.441 87.6307C169.441 86.5133 169.644 85.5284 170.051 84.6761C170.463 83.8191 171.036 83.1515 171.77 82.6733C172.509 82.1903 173.371 81.9489 174.355 81.9489C174.924 81.9489 175.485 82.0436 176.039 82.233C176.593 82.4223 177.097 82.7301 177.551 83.1562C178.006 83.5777 178.368 84.1364 178.638 84.8324C178.908 85.5284 179.043 86.3854 179.043 87.4034V88.1136H170.634V86.6648H177.338C177.338 86.0492 177.215 85.5 176.969 85.017C176.728 84.5341 176.382 84.1529 175.932 83.8736C175.487 83.5942 174.962 83.4545 174.355 83.4545C173.688 83.4545 173.11 83.6203 172.623 83.9517C172.14 84.2784 171.768 84.7045 171.507 85.2301C171.247 85.7557 171.117 86.3191 171.117 86.9205V87.8864C171.117 88.7102 171.259 89.4086 171.543 89.9815C171.832 90.5497 172.232 90.983 172.743 91.2812C173.255 91.5748 173.849 91.7216 174.526 91.7216C174.966 91.7216 175.364 91.66 175.719 91.5369C176.079 91.4091 176.389 91.2197 176.65 90.9688C176.91 90.7131 177.111 90.3958 177.253 90.017L178.873 90.4716C178.702 91.0208 178.416 91.5038 178.013 91.9205C177.611 92.3324 177.114 92.6544 176.522 92.8864C175.93 93.1136 175.265 93.2273 174.526 93.2273ZM190.428 93.2557C189.737 93.2557 189.109 93.1255 188.546 92.8651C187.982 92.5999 187.535 92.2188 187.203 91.7216C186.872 91.2197 186.706 90.6136 186.706 89.9034C186.706 89.2784 186.829 88.7718 187.076 88.3835C187.322 87.9905 187.651 87.6828 188.063 87.4602C188.475 87.2377 188.929 87.072 189.426 86.9631C189.928 86.8494 190.433 86.7595 190.939 86.6932C191.602 86.608 192.14 86.544 192.551 86.5014C192.968 86.4541 193.271 86.3759 193.461 86.267C193.655 86.1581 193.752 85.9687 193.752 85.6989V85.642C193.752 84.9413 193.56 84.3968 193.176 84.0085C192.798 83.6203 192.222 83.4261 191.451 83.4261C190.65 83.4261 190.023 83.6013 189.569 83.9517C189.114 84.3021 188.794 84.6761 188.61 85.0739L187.019 84.5057C187.303 83.8428 187.682 83.3267 188.155 82.9574C188.633 82.5833 189.154 82.3229 189.718 82.1761C190.286 82.0246 190.845 81.9489 191.394 81.9489C191.744 81.9489 192.147 81.9915 192.601 82.0767C193.06 82.1572 193.503 82.3253 193.929 82.581C194.36 82.8366 194.718 83.2225 195.002 83.7386C195.286 84.2547 195.428 84.946 195.428 85.8125V93H193.752V91.5227H193.667C193.553 91.7595 193.364 92.0128 193.098 92.2827C192.833 92.5526 192.48 92.7822 192.04 92.9716C191.6 93.161 191.062 93.2557 190.428 93.2557ZM190.684 91.75C191.346 91.75 191.905 91.6198 192.36 91.3594C192.819 91.099 193.165 90.7628 193.397 90.3509C193.633 89.9389 193.752 89.5057 193.752 89.0511V87.517C193.681 87.6023 193.525 87.6804 193.283 87.7514C193.046 87.8177 192.772 87.8769 192.459 87.929C192.151 87.9763 191.851 88.0189 191.557 88.0568C191.268 88.09 191.034 88.1184 190.854 88.142C190.418 88.1989 190.011 88.2912 189.632 88.419C189.258 88.5421 188.955 88.7292 188.723 88.9801C188.496 89.2263 188.382 89.5625 188.382 89.9886C188.382 90.571 188.598 91.0114 189.029 91.3097C189.464 91.6032 190.016 91.75 190.684 91.75ZM204.112 97.0909V82.0909H205.732V83.8239H205.93C206.054 83.6345 206.224 83.393 206.442 83.0994C206.664 82.8011 206.982 82.536 207.393 82.304C207.81 82.0672 208.374 81.9489 209.084 81.9489C210.002 81.9489 210.812 82.1785 211.513 82.6378C212.214 83.0971 212.76 83.7481 213.153 84.5909C213.546 85.4337 213.743 86.428 213.743 87.5739C213.743 88.7292 213.546 89.7306 213.153 90.5781C212.76 91.4209 212.216 92.0743 211.52 92.5384C210.824 92.9976 210.021 93.2273 209.112 93.2273C208.411 93.2273 207.85 93.1113 207.429 92.8793C207.008 92.6425 206.683 92.375 206.456 92.0767C206.229 91.7737 206.054 91.5227 205.93 91.3239H205.788V97.0909H204.112ZM205.76 87.5455C205.76 88.3693 205.881 89.0961 206.122 89.7259C206.364 90.3509 206.716 90.8409 207.18 91.196C207.644 91.5464 208.213 91.7216 208.885 91.7216C209.586 91.7216 210.17 91.5369 210.639 91.1676C211.113 90.7936 211.468 90.2917 211.705 89.6619C211.946 89.0275 212.067 88.322 212.067 87.5455C212.067 86.7784 211.948 86.0871 211.712 85.4716C211.48 84.8513 211.127 84.3613 210.653 84.0014C210.185 83.6368 209.595 83.4545 208.885 83.4545C208.203 83.4545 207.63 83.6274 207.166 83.973C206.702 84.3139 206.352 84.7921 206.115 85.4077C205.878 86.0185 205.76 86.7311 205.76 87.5455ZM220.732 93.2273C219.747 93.2273 218.883 92.9929 218.139 92.5241C217.401 92.0554 216.823 91.3996 216.406 90.5568C215.994 89.714 215.788 88.7292 215.788 87.6023C215.788 86.4659 215.994 85.474 216.406 84.6264C216.823 83.7789 217.401 83.1207 218.139 82.652C218.883 82.1832 219.747 81.9489 220.732 81.9489C221.716 81.9489 222.578 82.1832 223.317 82.652C224.06 83.1207 224.638 83.7789 225.05 84.6264C225.466 85.474 225.675 86.4659 225.675 87.6023C225.675 88.7292 225.466 89.714 225.05 90.5568C224.638 91.3996 224.06 92.0554 223.317 92.5241C222.578 92.9929 221.716 93.2273 220.732 93.2273ZM220.732 91.7216C221.48 91.7216 222.095 91.5298 222.578 91.1463C223.061 90.7628 223.419 90.2585 223.651 89.6335C223.883 89.0085 223.999 88.3314 223.999 87.6023C223.999 86.8731 223.883 86.1937 223.651 85.5639C223.419 84.9342 223.061 84.4252 222.578 84.0369C222.095 83.6487 221.48 83.4545 220.732 83.4545C219.983 83.4545 219.368 83.6487 218.885 84.0369C218.402 84.4252 218.045 84.9342 217.812 85.5639C217.58 86.1937 217.464 86.8731 217.464 87.6023C217.464 88.3314 217.58 89.0085 217.812 89.6335C218.045 90.2585 218.402 90.7628 218.885 91.1463C219.368 91.5298 219.983 91.7216 220.732 91.7216ZM235.961 84.5341L234.455 84.9602C234.36 84.7093 234.221 84.4654 234.036 84.2287C233.856 83.9872 233.61 83.7884 233.297 83.6321C232.985 83.4759 232.585 83.3977 232.097 83.3977C231.429 83.3977 230.873 83.5516 230.428 83.8594C229.988 84.1624 229.767 84.5483 229.767 85.017C229.767 85.4337 229.919 85.7628 230.222 86.0043C230.525 86.2457 230.998 86.447 231.642 86.608L233.262 87.0057C234.237 87.2424 234.964 87.6046 235.442 88.0923C235.92 88.5753 236.159 89.1979 236.159 89.9602C236.159 90.5852 235.98 91.1439 235.62 91.6364C235.265 92.1288 234.767 92.517 234.128 92.8011C233.489 93.0852 232.746 93.2273 231.898 93.2273C230.785 93.2273 229.864 92.9858 229.135 92.5028C228.406 92.0199 227.944 91.3144 227.75 90.3864L229.341 89.9886C229.493 90.5758 229.779 91.0161 230.201 91.3097C230.627 91.6032 231.183 91.75 231.87 91.75C232.651 91.75 233.271 91.5843 233.73 91.2528C234.194 90.9167 234.426 90.5142 234.426 90.0455C234.426 89.6667 234.294 89.3494 234.029 89.0938C233.764 88.8333 233.356 88.6392 232.807 88.5114L230.989 88.0852C229.99 87.8485 229.256 87.4815 228.787 86.9844C228.323 86.4825 228.091 85.8551 228.091 85.1023C228.091 84.4867 228.264 83.9422 228.61 83.4688C228.96 82.9953 229.436 82.6236 230.037 82.3537C230.643 82.0838 231.33 81.9489 232.097 81.9489C233.176 81.9489 234.024 82.1856 234.64 82.6591C235.26 83.1326 235.7 83.7576 235.961 84.5341ZM243.427 82.0909V83.5114H237.773V82.0909H243.427ZM239.421 79.4773H241.097V89.875C241.097 90.3485 241.166 90.7036 241.303 90.9403C241.445 91.1723 241.625 91.3286 241.843 91.4091C242.066 91.4848 242.3 91.5227 242.546 91.5227C242.731 91.5227 242.882 91.5133 243.001 91.4943C243.119 91.4706 243.214 91.4517 243.285 91.4375L243.626 92.9432C243.512 92.9858 243.353 93.0284 243.15 93.071C242.946 93.1184 242.688 93.142 242.376 93.142C241.902 93.142 241.438 93.0402 240.984 92.8366C240.534 92.633 240.16 92.3229 239.862 91.9062C239.568 91.4896 239.421 90.964 239.421 90.3295V79.4773Z" fill="black"/>
<path d="M742.707 62.7071C743.098 62.3166 743.098 61.6834 742.707 61.2929L736.343 54.9289C735.953 54.5384 735.319 54.5384 734.929 54.9289C734.538 55.3195 734.538 55.9526 734.929 56.3431L740.586 62L734.929 67.6569C734.538 68.0474 734.538 68.6805 734.929 69.0711C735.319 69.4616 735.953 69.4616 736.343 69.0711L742.707 62.7071ZM664 63H742V61H664V63Z" fill="black"/>
<path d="M1118.71 62.7071C1119.1 62.3166 1119.1 61.6834 1118.71 61.2929L1112.34 54.9289C1111.95 54.5384 1111.32 54.5384 1110.93 54.9289C1110.54 55.3195 1110.54 55.9526 1110.93 56.3431L1116.59 62L1110.93 67.6569C1110.54 68.0474 1110.54 68.6805 1110.93 69.0711C1111.32 69.4616 1111.95 69.4616 1112.34 69.0711L1118.71 62.7071ZM1040 63H1118V61H1040V63Z" fill="black"/>
<path d="M1468.71 62.7071C1469.1 62.3166 1469.1 61.6834 1468.71 61.2929L1462.34 54.9289C1461.95 54.5384 1461.32 54.5384 1460.93 54.9289C1460.54 55.3195 1460.54 55.9526 1460.93 56.3431L1466.59 62L1460.93 67.6569C1460.54 68.0474 1460.54 68.6805 1460.93 69.0711C1461.32 69.4616 1461.95 69.4616 1462.34 69.0711L1468.71 62.7071ZM1390 63H1468V61H1390V63Z" fill="black"/>
<path d="M1811.71 62.7071C1812.1 62.3166 1812.1 61.6834 1811.71 61.2929L1805.34 54.9289C1804.95 54.5384 1804.32 54.5384 1803.93 54.9289C1803.54 55.3195 1803.54 55.9526 1803.93 56.3431L1809.59 62L1803.93 67.6569C1803.54 68.0474 1803.54 68.6805 1803.93 69.0711C1804.32 69.4616 1804.95 69.4616 1805.34 69.0711L1811.71 62.7071ZM1733 63H1811V61H1733V63Z" fill="black"/>
</svg>
