<svg width="215" height="460" viewBox="0 0 430 932" fill="none" xmlns="http://www.w3.org/2000/svg">
<g clip-path="url(#clip0_4_96)">
<rect width="430" height="932" fill="white"/>
<path d="M23.8693 56.3153V54.9091H33.6875V56.3153H29.571V68H27.9858V56.3153H23.8693ZM34.91 68V58.1818H36.3674V59.6648H36.4696C36.6486 59.179 36.9725 58.7848 37.4412 58.4822C37.91 58.1797 38.4384 58.0284 39.0265 58.0284C39.1373 58.0284 39.2757 58.0305 39.4419 58.0348C39.6081 58.0391 39.7338 58.0455 39.8191 58.054V59.5881C39.7679 59.5753 39.6507 59.5561 39.4675 59.5305C39.2885 59.5007 39.0989 59.4858 38.8986 59.4858C38.4213 59.4858 37.9952 59.5859 37.6202 59.7862C37.2495 59.9822 36.9554 60.255 36.7381 60.6044C36.525 60.9496 36.4185 61.3437 36.4185 61.7869V68H34.91ZM45.4249 68.2045C44.4789 68.2045 43.6628 67.9957 42.9767 67.5781C42.2949 67.1562 41.7686 66.5682 41.3979 65.8139C41.0314 65.0554 40.8482 64.1733 40.8482 63.1676C40.8482 62.1619 41.0314 61.2756 41.3979 60.5085C41.7686 59.7372 42.2843 59.1364 42.9448 58.706C43.6096 58.2713 44.3851 58.054 45.2715 58.054C45.7828 58.054 46.2878 58.1392 46.7864 58.3097C47.285 58.4801 47.7388 58.7571 48.1479 59.1406C48.557 59.5199 48.883 60.0227 49.1259 60.6491C49.3688 61.2756 49.4902 62.0469 49.4902 62.9631V63.6023H41.9221V62.2983H47.9561C47.9561 61.7443 47.8453 61.25 47.6238 60.8153C47.4064 60.3807 47.0953 60.0376 46.6905 59.7862C46.29 59.5348 45.8169 59.4091 45.2715 59.4091C44.6706 59.4091 44.1507 59.5582 43.7118 59.8565C43.2772 60.1506 42.9426 60.5341 42.7083 61.0071C42.4739 61.4801 42.3567 61.9872 42.3567 62.5284V63.3977C42.3567 64.1392 42.4846 64.7678 42.7402 65.2834C43.0002 65.7947 43.3603 66.1847 43.8205 66.4531C44.2807 66.7173 44.8155 66.8494 45.4249 66.8494C45.8212 66.8494 46.1792 66.794 46.4988 66.6832C46.8226 66.5682 47.1017 66.3977 47.3361 66.1719C47.5705 65.9418 47.7516 65.6562 47.8794 65.3153L49.3368 65.7244C49.1834 66.2188 48.9256 66.6534 48.5634 67.0284C48.2012 67.3991 47.7537 67.6889 47.2211 67.8977C46.6884 68.1023 46.0897 68.2045 45.4249 68.2045ZM53.2935 62.0938V68H51.785V58.1818H53.2424V59.7159H53.3702C53.6003 59.2173 53.9498 58.8168 54.4185 58.5142C54.8873 58.2074 55.4924 58.054 56.2338 58.054C56.8986 58.054 57.4803 58.1903 57.9789 58.4631C58.4775 58.7315 58.8652 59.1406 59.1422 59.6903C59.4192 60.2358 59.5577 60.9261 59.5577 61.7614V68H58.0492V61.8636C58.0492 61.0923 57.8489 60.4915 57.4483 60.0611C57.0478 59.6264 56.498 59.4091 55.7992 59.4091C55.3176 59.4091 54.8873 59.5135 54.508 59.7223C54.133 59.9311 53.8368 60.2358 53.6195 60.6364C53.4022 61.0369 53.2935 61.5227 53.2935 62.0938ZM66.0217 68.2045C65.2035 68.2045 64.4812 67.9979 63.8548 67.5845C63.2283 67.1669 62.7383 66.5788 62.3846 65.8203C62.0309 65.0575 61.854 64.1562 61.854 63.1165C61.854 62.0852 62.0309 61.1903 62.3846 60.4318C62.7383 59.6733 63.2305 59.0874 63.8612 58.674C64.4918 58.2607 65.2205 58.054 66.0472 58.054C66.6864 58.054 67.1914 58.1605 67.5621 58.3736C67.9371 58.5824 68.2227 58.821 68.4187 59.0895C68.619 59.3537 68.7745 59.571 68.8853 59.7415H69.0131V54.9091H70.5217V68H69.0643V66.4915H68.8853C68.7745 66.6705 68.6168 66.8963 68.4123 67.169C68.2077 67.4375 67.9158 67.6783 67.5366 67.8913C67.1573 68.1001 66.6523 68.2045 66.0217 68.2045ZM66.2262 66.8494C66.8313 66.8494 67.3427 66.6918 67.7603 66.3764C68.1779 66.0568 68.4954 65.6158 68.7127 65.0533C68.93 64.4865 69.0387 63.8324 69.0387 63.0909C69.0387 62.358 68.9322 61.7166 68.7191 61.1669C68.506 60.6129 68.1907 60.1825 67.7731 59.8757C67.3555 59.5646 66.8398 59.4091 66.2262 59.4091C65.587 59.4091 65.0543 59.5732 64.6282 59.9013C64.2063 60.2251 63.8888 60.6662 63.6758 61.2244C63.467 61.7784 63.3626 62.4006 63.3626 63.0909C63.3626 63.7898 63.4691 64.4247 63.6822 64.9957C63.8995 65.5625 64.2191 66.0142 64.641 66.3509C65.0671 66.6832 65.5955 66.8494 66.2262 66.8494ZM73.494 68V58.1818H75.0025V68H73.494ZM74.261 56.5455C73.967 56.5455 73.7134 56.4453 73.5004 56.245C73.2915 56.0447 73.1871 55.804 73.1871 55.5227C73.1871 55.2415 73.2915 55.0007 73.5004 54.8004C73.7134 54.6001 73.967 54.5 74.261 54.5C74.555 54.5 74.8065 54.6001 75.0153 54.8004C75.2283 55.0007 75.3349 55.2415 75.3349 55.5227C75.3349 55.804 75.2283 56.0447 75.0153 56.245C74.8065 56.4453 74.555 56.5455 74.261 56.5455ZM79.274 62.0938V68H77.7654V58.1818H79.2228V59.7159H79.3507C79.5808 59.2173 79.9302 58.8168 80.399 58.5142C80.8677 58.2074 81.4728 58.054 82.2143 58.054C82.8791 58.054 83.4608 58.1903 83.9593 58.4631C84.4579 58.7315 84.8457 59.1406 85.1227 59.6903C85.3997 60.2358 85.5382 60.9261 85.5382 61.7614V68H84.0297V61.8636C84.0297 61.0923 83.8294 60.4915 83.4288 60.0611C83.0282 59.6264 82.4785 59.4091 81.7797 59.4091C81.2981 59.4091 80.8677 59.5135 80.4885 59.7223C80.1135 59.9311 79.8173 60.2358 79.6 60.6364C79.3826 61.0369 79.274 61.5227 79.274 62.0938ZM92.2578 71.8864C91.5291 71.8864 90.9027 71.7926 90.3786 71.6051C89.8544 71.4219 89.4176 71.179 89.0682 70.8764C88.723 70.5781 88.4482 70.2585 88.2436 69.9176L89.4453 69.0739C89.5817 69.2528 89.7543 69.4574 89.9631 69.6875C90.1719 69.9219 90.4574 70.1243 90.8196 70.2947C91.1861 70.4695 91.6655 70.5568 92.2578 70.5568C93.0504 70.5568 93.7045 70.3651 94.2202 69.9815C94.7358 69.598 94.9936 68.9972 94.9936 68.179V66.1847H94.8658C94.755 66.3636 94.5973 66.5852 94.3928 66.8494C94.1925 67.1094 93.9027 67.3416 93.5234 67.5462C93.1484 67.7464 92.6413 67.8466 92.0021 67.8466C91.2095 67.8466 90.4979 67.6591 89.8672 67.2841C89.2408 66.9091 88.7443 66.3636 88.3778 65.6477C88.0156 64.9318 87.8345 64.0625 87.8345 63.0398C87.8345 62.0341 88.0114 61.1584 88.3651 60.4126C88.7188 59.6626 89.2109 59.0831 89.8416 58.674C90.4723 58.2607 91.201 58.054 92.0277 58.054C92.6669 58.054 93.174 58.1605 93.549 58.3736C93.9283 58.5824 94.218 58.821 94.4183 59.0895C94.6229 59.3537 94.7805 59.571 94.8913 59.7415H95.0447V58.1818H96.5021V68.2812C96.5021 69.125 96.3104 69.8111 95.9268 70.3395C95.5476 70.8722 95.0362 71.2621 94.3928 71.5092C93.7536 71.7607 93.0419 71.8864 92.2578 71.8864ZM92.2067 66.4915C92.8118 66.4915 93.3232 66.353 93.7408 66.076C94.1584 65.799 94.4759 65.4006 94.6932 64.8807C94.9105 64.3608 95.0192 63.7386 95.0192 63.0142C95.0192 62.3068 94.9126 61.6825 94.6996 61.1413C94.4865 60.6001 94.1712 60.1761 93.7536 59.8693C93.3359 59.5625 92.8203 59.4091 92.2067 59.4091C91.5675 59.4091 91.0348 59.571 90.6087 59.8949C90.1868 60.2187 89.8693 60.6534 89.6562 61.1989C89.4474 61.7443 89.343 62.3494 89.343 63.0142C89.343 63.696 89.4496 64.299 89.6626 64.8232C89.88 65.343 90.1996 65.7521 90.6214 66.0504C91.0476 66.3445 91.576 66.4915 92.2067 66.4915ZM114.911 54.9091V68H113.377L106.244 57.7216H106.116V68H104.531V54.9091H106.065L113.224 65.2131H113.352V54.9091H114.911ZM121.867 68.2045C120.981 68.2045 120.203 67.9936 119.534 67.5717C118.869 67.1499 118.35 66.5597 117.975 65.8011C117.604 65.0426 117.419 64.1562 117.419 63.142C117.419 62.1193 117.604 61.2266 117.975 60.4638C118.35 59.701 118.869 59.1087 119.534 58.6868C120.203 58.2649 120.981 58.054 121.867 58.054C122.754 58.054 123.529 58.2649 124.194 58.6868C124.863 59.1087 125.383 59.701 125.754 60.4638C126.129 61.2266 126.316 62.1193 126.316 63.142C126.316 64.1562 126.129 65.0426 125.754 65.8011C125.383 66.5597 124.863 67.1499 124.194 67.5717C123.529 67.9936 122.754 68.2045 121.867 68.2045ZM121.867 66.8494C122.541 66.8494 123.095 66.6768 123.529 66.3317C123.964 65.9865 124.286 65.5327 124.494 64.9702C124.703 64.4077 124.808 63.7983 124.808 63.142C124.808 62.4858 124.703 61.8743 124.494 61.3075C124.286 60.7408 123.964 60.2827 123.529 59.9332C123.095 59.5838 122.541 59.4091 121.867 59.4091C121.194 59.4091 120.64 59.5838 120.205 59.9332C119.771 60.2827 119.449 60.7408 119.24 61.3075C119.031 61.8743 118.927 62.4858 118.927 63.142C118.927 63.7983 119.031 64.4077 119.24 64.9702C119.449 65.5327 119.771 65.9865 120.205 66.3317C120.64 66.6768 121.194 66.8494 121.867 66.8494ZM130.509 68L127.518 58.1818H129.103L131.225 65.6989H131.328L133.424 58.1818H135.035L137.106 65.6733H137.208L139.33 58.1818H140.916L137.924 68H136.441L134.294 60.4574H134.14L131.992 68H130.509Z" fill="black"/>
<path d="M24.5852 343V329.909H32.4347V331.315H26.1705V335.739H31.8466V337.145H26.1705V343H24.5852ZM34.8397 343V333.182H36.2971V334.665H36.3993C36.5783 334.179 36.9022 333.785 37.3709 333.482C37.8397 333.18 38.3681 333.028 38.9561 333.028C39.0669 333.028 39.2054 333.031 39.3716 333.035C39.5378 333.039 39.6635 333.045 39.7488 333.054V334.588C39.6976 334.575 39.5804 334.556 39.3972 334.531C39.2182 334.501 39.0286 334.486 38.8283 334.486C38.351 334.486 37.9249 334.586 37.5499 334.786C37.1792 334.982 36.8851 335.255 36.6678 335.604C36.4547 335.95 36.3482 336.344 36.3482 336.787V343H34.8397ZM45.2267 343.205C44.3404 343.205 43.5627 342.994 42.8936 342.572C42.2289 342.15 41.709 341.56 41.334 340.801C40.9632 340.043 40.7779 339.156 40.7779 338.142C40.7779 337.119 40.9632 336.227 41.334 335.464C41.709 334.701 42.2289 334.109 42.8936 333.687C43.5627 333.265 44.3404 333.054 45.2267 333.054C46.1131 333.054 46.8887 333.265 47.5534 333.687C48.2225 334.109 48.7424 334.701 49.1131 335.464C49.4881 336.227 49.6756 337.119 49.6756 338.142C49.6756 339.156 49.4881 340.043 49.1131 340.801C48.7424 341.56 48.2225 342.15 47.5534 342.572C46.8887 342.994 46.1131 343.205 45.2267 343.205ZM45.2267 341.849C45.9 341.849 46.454 341.677 46.8887 341.332C47.3233 340.987 47.6451 340.533 47.8539 339.97C48.0627 339.408 48.1671 338.798 48.1671 338.142C48.1671 337.486 48.0627 336.874 47.8539 336.308C47.6451 335.741 47.3233 335.283 46.8887 334.933C46.454 334.584 45.9 334.409 45.2267 334.409C44.5534 334.409 43.9995 334.584 43.5648 334.933C43.1301 335.283 42.8084 335.741 42.5996 336.308C42.3908 336.874 42.2864 337.486 42.2864 338.142C42.2864 338.798 42.3908 339.408 42.5996 339.97C42.8084 340.533 43.1301 340.987 43.5648 341.332C43.9995 341.677 44.5534 341.849 45.2267 341.849ZM51.9783 343V333.182H53.4357V334.716H53.5636C53.7681 334.192 54.0984 333.785 54.5543 333.495C55.0103 333.201 55.5579 333.054 56.1971 333.054C56.8448 333.054 57.3839 333.201 57.8143 333.495C58.2489 333.785 58.5877 334.192 58.8306 334.716H58.9329C59.1843 334.209 59.5614 333.806 60.0643 333.508C60.5671 333.205 61.1701 333.054 61.8732 333.054C62.7511 333.054 63.4691 333.329 64.0273 333.879C64.5856 334.424 64.8647 335.274 64.8647 336.429V343H63.3562V336.429C63.3562 335.705 63.158 335.187 62.7617 334.876C62.3654 334.565 61.8988 334.409 61.3619 334.409C60.6715 334.409 60.1367 334.618 59.7575 335.036C59.3782 335.449 59.1886 335.973 59.1886 336.608V343H57.6545V336.276C57.6545 335.717 57.4734 335.268 57.1112 334.927C56.7489 334.582 56.2823 334.409 55.7113 334.409C55.3192 334.409 54.9528 334.513 54.6119 334.722C54.2752 334.931 54.0025 335.221 53.7937 335.592C53.5891 335.958 53.4869 336.382 53.4869 336.864V343H51.9783ZM72.6854 346.682V333.182H74.1428V334.741H74.3217C74.4325 334.571 74.5859 334.354 74.782 334.089C74.9822 333.821 75.2678 333.582 75.6385 333.374C76.0135 333.161 76.5206 333.054 77.1598 333.054C77.9865 333.054 78.7152 333.261 79.3459 333.674C79.9766 334.087 80.4688 334.673 80.8224 335.432C81.1761 336.19 81.353 337.085 81.353 338.116C81.353 339.156 81.1761 340.058 80.8224 340.82C80.4688 341.579 79.9787 342.167 79.3523 342.585C78.7259 342.998 78.0036 343.205 77.1854 343.205C76.5547 343.205 76.0497 343.1 75.6705 342.891C75.2912 342.678 74.9993 342.437 74.7947 342.169C74.5902 341.896 74.4325 341.67 74.3217 341.491H74.1939V346.682H72.6854ZM74.1683 338.091C74.1683 338.832 74.277 339.487 74.4943 340.053C74.7116 340.616 75.0291 341.057 75.4467 341.376C75.8643 341.692 76.3757 341.849 76.9808 341.849C77.6115 341.849 78.1378 341.683 78.5597 341.351C78.9858 341.014 79.3054 340.562 79.5185 339.996C79.7358 339.425 79.8445 338.79 79.8445 338.091C79.8445 337.401 79.7379 336.778 79.5249 336.224C79.3161 335.666 78.9986 335.225 78.5724 334.901C78.1506 334.573 77.62 334.409 76.9808 334.409C76.3672 334.409 75.8516 334.565 75.4339 334.876C75.0163 335.183 74.701 335.613 74.4879 336.167C74.2749 336.717 74.1683 337.358 74.1683 338.091ZM87.7706 343.205C86.8246 343.205 86.0085 342.996 85.3224 342.578C84.6406 342.156 84.1143 341.568 83.7436 340.814C83.3771 340.055 83.1939 339.173 83.1939 338.168C83.1939 337.162 83.3771 336.276 83.7436 335.509C84.1143 334.737 84.63 334.136 85.2905 333.706C85.9553 333.271 86.7308 333.054 87.6172 333.054C88.1286 333.054 88.6335 333.139 89.1321 333.31C89.6307 333.48 90.0845 333.757 90.4936 334.141C90.9027 334.52 91.2287 335.023 91.4716 335.649C91.7145 336.276 91.8359 337.047 91.8359 337.963V338.602H84.2678V337.298H90.3018C90.3018 336.744 90.1911 336.25 89.9695 335.815C89.7521 335.381 89.4411 335.038 89.0362 334.786C88.6357 334.535 88.1626 334.409 87.6172 334.409C87.0163 334.409 86.4964 334.558 86.0575 334.857C85.6229 335.151 85.2884 335.534 85.054 336.007C84.8196 336.48 84.7024 336.987 84.7024 337.528V338.398C84.7024 339.139 84.8303 339.768 85.0859 340.283C85.3459 340.795 85.706 341.185 86.1662 341.453C86.6264 341.717 87.1612 341.849 87.7706 341.849C88.1669 341.849 88.5249 341.794 88.8445 341.683C89.1683 341.568 89.4474 341.398 89.6818 341.172C89.9162 340.942 90.0973 340.656 90.2251 340.315L91.6825 340.724C91.5291 341.219 91.2713 341.653 90.9091 342.028C90.5469 342.399 90.0994 342.689 89.5668 342.898C89.0341 343.102 88.4354 343.205 87.7706 343.205ZM98.1193 343.205C97.233 343.205 96.4553 342.994 95.7862 342.572C95.1214 342.15 94.6016 341.56 94.2266 340.801C93.8558 340.043 93.6705 339.156 93.6705 338.142C93.6705 337.119 93.8558 336.227 94.2266 335.464C94.6016 334.701 95.1214 334.109 95.7862 333.687C96.4553 333.265 97.233 333.054 98.1193 333.054C99.0057 333.054 99.7813 333.265 100.446 333.687C101.115 334.109 101.635 334.701 102.006 335.464C102.381 336.227 102.568 337.119 102.568 338.142C102.568 339.156 102.381 340.043 102.006 340.801C101.635 341.56 101.115 342.15 100.446 342.572C99.7813 342.994 99.0057 343.205 98.1193 343.205ZM98.1193 341.849C98.7926 341.849 99.3466 341.677 99.7812 341.332C100.216 340.987 100.538 340.533 100.746 339.97C100.955 339.408 101.06 338.798 101.06 338.142C101.06 337.486 100.955 336.874 100.746 336.308C100.538 335.741 100.216 335.283 99.7812 334.933C99.3466 334.584 98.7926 334.409 98.1193 334.409C97.446 334.409 96.892 334.584 96.4574 334.933C96.0227 335.283 95.701 335.741 95.4922 336.308C95.2834 336.874 95.179 337.486 95.179 338.142C95.179 338.798 95.2834 339.408 95.4922 339.97C95.701 340.533 96.0227 340.987 96.4574 341.332C96.892 341.677 97.446 341.849 98.1193 341.849ZM104.871 346.682V333.182H106.328V334.741H106.507C106.618 334.571 106.771 334.354 106.968 334.089C107.168 333.821 107.453 333.582 107.824 333.374C108.199 333.161 108.706 333.054 109.345 333.054C110.172 333.054 110.901 333.261 111.531 333.674C112.162 334.087 112.654 334.673 113.008 335.432C113.362 336.19 113.539 337.085 113.539 338.116C113.539 339.156 113.362 340.058 113.008 340.82C112.654 341.579 112.164 342.167 111.538 342.585C110.911 342.998 110.189 343.205 109.371 343.205C108.74 343.205 108.235 343.1 107.856 342.891C107.477 342.678 107.185 342.437 106.98 342.169C106.776 341.896 106.618 341.67 106.507 341.491H106.379V346.682H104.871ZM106.354 338.091C106.354 338.832 106.463 339.487 106.68 340.053C106.897 340.616 107.215 341.057 107.632 341.376C108.05 341.692 108.561 341.849 109.166 341.849C109.797 341.849 110.323 341.683 110.745 341.351C111.171 341.014 111.491 340.562 111.704 339.996C111.921 339.425 112.03 338.79 112.03 338.091C112.03 337.401 111.923 336.778 111.71 336.224C111.502 335.666 111.184 335.225 110.758 334.901C110.336 334.573 109.806 334.409 109.166 334.409C108.553 334.409 108.037 334.565 107.619 334.876C107.202 335.183 106.887 335.613 106.673 336.167C106.46 336.717 106.354 337.358 106.354 338.091ZM117.348 329.909V343H115.84V329.909H117.348ZM124.228 343.205C123.282 343.205 122.466 342.996 121.779 342.578C121.098 342.156 120.571 341.568 120.201 340.814C119.834 340.055 119.651 339.173 119.651 338.168C119.651 337.162 119.834 336.276 120.201 335.509C120.571 334.737 121.087 334.136 121.748 333.706C122.412 333.271 123.188 333.054 124.074 333.054C124.586 333.054 125.091 333.139 125.589 333.31C126.088 333.48 126.542 333.757 126.951 334.141C127.36 334.52 127.686 335.023 127.929 335.649C128.172 336.276 128.293 337.047 128.293 337.963V338.602H120.725V337.298H126.759C126.759 336.744 126.648 336.25 126.426 335.815C126.209 335.381 125.898 335.038 125.493 334.786C125.093 334.535 124.62 334.409 124.074 334.409C123.473 334.409 122.953 334.558 122.515 334.857C122.08 335.151 121.745 335.534 121.511 336.007C121.277 336.48 121.159 336.987 121.159 337.528V338.398C121.159 339.139 121.287 339.768 121.543 340.283C121.803 340.795 122.163 341.185 122.623 341.453C123.083 341.717 123.618 341.849 124.228 341.849C124.624 341.849 124.982 341.794 125.301 341.683C125.625 341.568 125.904 341.398 126.139 341.172C126.373 340.942 126.554 340.656 126.682 340.315L128.14 340.724C127.986 341.219 127.728 341.653 127.366 342.028C127.004 342.399 126.556 342.689 126.024 342.898C125.491 343.102 124.892 343.205 124.228 343.205ZM136.622 346.682C136.366 346.682 136.138 346.661 135.938 346.618C135.738 346.58 135.599 346.541 135.522 346.503L135.906 345.173C136.272 345.267 136.596 345.301 136.877 345.276C137.159 345.25 137.408 345.124 137.625 344.898C137.847 344.677 138.049 344.317 138.233 343.818L138.514 343.051L134.883 333.182H136.52L139.23 341.006H139.332L142.042 333.182H143.679L139.511 344.432C139.324 344.939 139.091 345.359 138.814 345.691C138.537 346.028 138.216 346.277 137.849 346.439C137.487 346.601 137.078 346.682 136.622 346.682ZM149.307 343.205C148.42 343.205 147.643 342.994 146.974 342.572C146.309 342.15 145.789 341.56 145.414 340.801C145.043 340.043 144.858 339.156 144.858 338.142C144.858 337.119 145.043 336.227 145.414 335.464C145.789 334.701 146.309 334.109 146.974 333.687C147.643 333.265 148.42 333.054 149.307 333.054C150.193 333.054 150.969 333.265 151.634 333.687C152.303 334.109 152.822 334.701 153.193 335.464C153.568 336.227 153.756 337.119 153.756 338.142C153.756 339.156 153.568 340.043 153.193 340.801C152.822 341.56 152.303 342.15 151.634 342.572C150.969 342.994 150.193 343.205 149.307 343.205ZM149.307 341.849C149.98 341.849 150.534 341.677 150.969 341.332C151.403 340.987 151.725 340.533 151.934 339.97C152.143 339.408 152.247 338.798 152.247 338.142C152.247 337.486 152.143 336.874 151.934 336.308C151.725 335.741 151.403 335.283 150.969 334.933C150.534 334.584 149.98 334.409 149.307 334.409C148.634 334.409 148.08 334.584 147.645 334.933C147.21 335.283 146.888 335.741 146.68 336.308C146.471 336.874 146.366 337.486 146.366 338.142C146.366 338.798 146.471 339.408 146.68 339.97C146.888 340.533 147.21 340.987 147.645 341.332C148.08 341.677 148.634 341.849 149.307 341.849ZM162.246 338.986V333.182H163.754V343H162.246V341.338H162.144C161.914 341.837 161.556 342.261 161.07 342.61C160.584 342.955 159.97 343.128 159.229 343.128C158.615 343.128 158.07 342.994 157.593 342.725C157.115 342.452 156.74 342.043 156.468 341.498C156.195 340.948 156.058 340.256 156.058 339.42V333.182H157.567V339.318C157.567 340.034 157.767 340.605 158.168 341.031C158.573 341.457 159.088 341.67 159.715 341.67C160.09 341.67 160.471 341.575 160.859 341.383C161.251 341.191 161.579 340.897 161.843 340.501C162.112 340.104 162.246 339.599 162.246 338.986ZM175.952 333.182V334.46H170.659V333.182H175.952ZM172.245 343V331.827C172.245 331.264 172.377 330.795 172.641 330.42C172.905 330.045 173.248 329.764 173.67 329.577C174.092 329.389 174.537 329.295 175.006 329.295C175.377 329.295 175.679 329.325 175.914 329.385C176.148 329.445 176.323 329.5 176.438 329.551L176.003 330.855C175.926 330.83 175.82 330.798 175.684 330.759C175.551 330.721 175.377 330.702 175.159 330.702C174.661 330.702 174.301 330.827 174.079 331.079C173.862 331.33 173.753 331.699 173.753 332.185V343H172.245ZM181.651 343.205C180.764 343.205 179.987 342.994 179.317 342.572C178.653 342.15 178.133 341.56 177.758 340.801C177.387 340.043 177.202 339.156 177.202 338.142C177.202 337.119 177.387 336.227 177.758 335.464C178.133 334.701 178.653 334.109 179.317 333.687C179.987 333.265 180.764 333.054 181.651 333.054C182.537 333.054 183.313 333.265 183.977 333.687C184.646 334.109 185.166 334.701 185.537 335.464C185.912 336.227 186.099 337.119 186.099 338.142C186.099 339.156 185.912 340.043 185.537 340.801C185.166 341.56 184.646 342.15 183.977 342.572C183.313 342.994 182.537 343.205 181.651 343.205ZM181.651 341.849C182.324 341.849 182.878 341.677 183.312 341.332C183.747 340.987 184.069 340.533 184.278 339.97C184.487 339.408 184.591 338.798 184.591 338.142C184.591 337.486 184.487 336.874 184.278 336.308C184.069 335.741 183.747 335.283 183.312 334.933C182.878 334.584 182.324 334.409 181.651 334.409C180.977 334.409 180.423 334.584 179.989 334.933C179.554 335.283 179.232 335.741 179.023 336.308C178.815 336.874 178.71 337.486 178.71 338.142C178.71 338.798 178.815 339.408 179.023 339.97C179.232 340.533 179.554 340.987 179.989 341.332C180.423 341.677 180.977 341.849 181.651 341.849ZM189.911 329.909V343H188.402V329.909H189.911ZM194.182 329.909V343H192.674V329.909H194.182ZM200.934 343.205C200.047 343.205 199.27 342.994 198.601 342.572C197.936 342.15 197.416 341.56 197.041 340.801C196.67 340.043 196.485 339.156 196.485 338.142C196.485 337.119 196.67 336.227 197.041 335.464C197.416 334.701 197.936 334.109 198.601 333.687C199.27 333.265 200.047 333.054 200.934 333.054C201.82 333.054 202.596 333.265 203.26 333.687C203.93 334.109 204.449 334.701 204.82 335.464C205.195 336.227 205.383 337.119 205.383 338.142C205.383 339.156 205.195 340.043 204.82 340.801C204.449 341.56 203.93 342.15 203.26 342.572C202.596 342.994 201.82 343.205 200.934 343.205ZM200.934 341.849C201.607 341.849 202.161 341.677 202.596 341.332C203.03 340.987 203.352 340.533 203.561 339.97C203.77 339.408 203.874 338.798 203.874 338.142C203.874 337.486 203.77 336.874 203.561 336.308C203.352 335.741 203.03 335.283 202.596 334.933C202.161 334.584 201.607 334.409 200.934 334.409C200.26 334.409 199.706 334.584 199.272 334.933C198.837 335.283 198.515 335.741 198.307 336.308C198.098 336.874 197.993 337.486 197.993 338.142C197.993 338.798 198.098 339.408 198.307 339.97C198.515 340.533 198.837 340.987 199.272 341.332C199.706 341.677 200.26 341.849 200.934 341.849ZM209.576 343L206.584 333.182H208.17L210.292 340.699H210.394L212.491 333.182H214.101L216.172 340.673H216.275L218.397 333.182H219.982L216.991 343H215.508L213.36 335.457H213.206L211.059 343H209.576Z" fill="black"/>
<path d="M17.4602 620.909H19.2756L22.9062 627.02H23.0597L26.6903 620.909H28.5057L23.7756 628.605V634H22.1903V628.605L17.4602 620.909ZM32.9513 634.205C32.065 634.205 31.2873 633.994 30.6183 633.572C29.9535 633.15 29.4336 632.56 29.0586 631.801C28.6879 631.043 28.5025 630.156 28.5025 629.142C28.5025 628.119 28.6879 627.227 29.0586 626.464C29.4336 625.701 29.9535 625.109 30.6183 624.687C31.2873 624.265 32.065 624.054 32.9513 624.054C33.8377 624.054 34.6133 624.265 35.2781 624.687C35.9471 625.109 36.467 625.701 36.8377 626.464C37.2127 627.227 37.4002 628.119 37.4002 629.142C37.4002 630.156 37.2127 631.043 36.8377 631.801C36.467 632.56 35.9471 633.15 35.2781 633.572C34.6133 633.994 33.8377 634.205 32.9513 634.205ZM32.9513 632.849C33.6246 632.849 34.1786 632.677 34.6133 632.332C35.0479 631.987 35.3697 631.533 35.5785 630.97C35.7873 630.408 35.8917 629.798 35.8917 629.142C35.8917 628.486 35.7873 627.874 35.5785 627.308C35.3697 626.741 35.0479 626.283 34.6133 625.933C34.1786 625.584 33.6246 625.409 32.9513 625.409C32.2781 625.409 31.7241 625.584 31.2894 625.933C30.8548 626.283 30.533 626.741 30.3242 627.308C30.1154 627.874 30.011 628.486 30.011 629.142C30.011 629.798 30.1154 630.408 30.3242 630.97C30.533 631.533 30.8548 631.987 31.2894 632.332C31.7241 632.677 32.2781 632.849 32.9513 632.849ZM45.8904 629.986V624.182H47.399V634H45.8904V632.338H45.7882C45.5581 632.837 45.2001 633.261 44.7143 633.61C44.2285 633.955 43.6149 634.128 42.8734 634.128C42.2598 634.128 41.7143 633.994 41.237 633.725C40.7598 633.452 40.3848 633.043 40.112 632.498C39.8393 631.948 39.7029 631.256 39.7029 630.42V624.182H41.2115V630.318C41.2115 631.034 41.4118 631.605 41.8123 632.031C42.2172 632.457 42.7328 632.67 43.3592 632.67C43.7342 632.67 44.1156 632.575 44.5034 632.383C44.8954 632.191 45.2235 631.897 45.4877 631.501C45.7562 631.104 45.8904 630.599 45.8904 629.986ZM55.2244 634V624.182H56.6818V625.716H56.8097C57.0142 625.192 57.3445 624.785 57.8004 624.495C58.2564 624.201 58.804 624.054 59.4432 624.054C60.0909 624.054 60.63 624.201 61.0604 624.495C61.495 624.785 61.8338 625.192 62.0767 625.716H62.179C62.4304 625.209 62.8075 624.806 63.3104 624.508C63.8132 624.205 64.4162 624.054 65.1193 624.054C65.9972 624.054 66.7152 624.329 67.2734 624.879C67.8317 625.424 68.1108 626.274 68.1108 627.429V634H66.6023V627.429C66.6023 626.705 66.4041 626.187 66.0078 625.876C65.6115 625.565 65.1449 625.409 64.608 625.409C63.9176 625.409 63.3828 625.618 63.0036 626.036C62.6243 626.449 62.4347 626.973 62.4347 627.608V634H60.9006V627.276C60.9006 626.717 60.7195 626.268 60.3572 625.927C59.995 625.582 59.5284 625.409 58.9574 625.409C58.5653 625.409 58.1989 625.513 57.858 625.722C57.5213 625.931 57.2486 626.221 57.0398 626.592C56.8352 626.958 56.733 627.382 56.733 627.864V634H55.2244ZM73.7582 634.23C73.136 634.23 72.5714 634.113 72.0643 633.879C71.5572 633.64 71.1545 633.297 70.8562 632.849C70.5579 632.398 70.4087 631.852 70.4087 631.213C70.4087 630.651 70.5195 630.195 70.7411 629.845C70.9627 629.491 71.2589 629.214 71.6296 629.014C72.0004 628.814 72.4094 628.665 72.8569 628.567C73.3086 628.464 73.7624 628.384 74.2184 628.324C74.815 628.247 75.2987 628.19 75.6694 628.151C76.0444 628.109 76.3171 628.038 76.4876 627.94C76.6623 627.842 76.7496 627.672 76.7496 627.429V627.378C76.7496 626.747 76.5771 626.257 76.2319 625.908C75.891 625.558 75.3732 625.384 74.6786 625.384C73.9585 625.384 73.3938 625.541 72.9847 625.857C72.5756 626.172 72.288 626.509 72.1218 626.866L70.69 626.355C70.9457 625.759 71.2866 625.294 71.7127 624.962C72.1431 624.625 72.6119 624.391 73.119 624.259C73.6303 624.122 74.1332 624.054 74.6275 624.054C74.9428 624.054 75.305 624.092 75.7141 624.169C76.1275 624.241 76.5259 624.393 76.9094 624.623C77.2972 624.853 77.619 625.2 77.8746 625.665C78.1303 626.129 78.2582 626.751 78.2582 627.531V634H76.7496V632.67H76.6729C76.5707 632.884 76.4002 633.112 76.1616 633.354C75.9229 633.597 75.6055 633.804 75.2092 633.974C74.8129 634.145 74.3292 634.23 73.7582 634.23ZM73.9883 632.875C74.5849 632.875 75.0877 632.758 75.4968 632.523C75.9102 632.289 76.2212 631.987 76.43 631.616C76.6431 631.245 76.7496 630.855 76.7496 630.446V629.065C76.6857 629.142 76.5451 629.212 76.3278 629.276C76.1147 629.336 75.8675 629.389 75.5863 629.436C75.3093 629.479 75.0387 629.517 74.7745 629.551C74.5146 629.581 74.3036 629.607 74.1417 629.628C73.7496 629.679 73.3832 629.762 73.0423 629.877C72.7056 629.988 72.4329 630.156 72.2241 630.382C72.0195 630.604 71.9173 630.906 71.9173 631.29C71.9173 631.814 72.1112 632.21 72.4989 632.479C72.891 632.743 73.3874 632.875 73.9883 632.875ZM81.6316 637.682C81.3759 637.682 81.1479 637.661 80.9476 637.618C80.7473 637.58 80.6088 637.541 80.5321 637.503L80.9157 636.173C81.2821 636.267 81.606 636.301 81.8873 636.276C82.1685 636.25 82.4178 636.124 82.6351 635.898C82.8567 635.677 83.0591 635.317 83.2424 634.818L83.5236 634.051L79.8929 624.182H81.5293L84.2395 632.006H84.3418L87.052 624.182H88.6884L84.5208 635.432C84.3333 635.939 84.101 636.359 83.824 636.691C83.5471 637.028 83.2253 637.277 82.8588 637.439C82.4966 637.601 82.0875 637.682 81.6316 637.682ZM98.6312 634.23C98.0091 634.23 97.4444 634.113 96.9373 633.879C96.4302 633.64 96.0275 633.297 95.7292 632.849C95.4309 632.398 95.2818 631.852 95.2818 631.213C95.2818 630.651 95.3926 630.195 95.6142 629.845C95.8358 629.491 96.1319 629.214 96.5027 629.014C96.8734 628.814 97.2825 628.665 97.7299 628.567C98.1816 628.464 98.6355 628.384 99.0914 628.324C99.688 628.247 100.172 628.19 100.542 628.151C100.917 628.109 101.19 628.038 101.361 627.94C101.535 627.842 101.623 627.672 101.623 627.429V627.378C101.623 626.747 101.45 626.257 101.105 625.908C100.764 625.558 100.246 625.384 99.5517 625.384C98.8315 625.384 98.2669 625.541 97.8578 625.857C97.4487 626.172 97.161 626.509 96.9949 626.866L95.563 626.355C95.8187 625.759 96.1596 625.294 96.5858 624.962C97.0162 624.625 97.4849 624.391 97.992 624.259C98.5034 624.122 99.0062 624.054 99.5005 624.054C99.8159 624.054 100.178 624.092 100.587 624.169C101.001 624.241 101.399 624.393 101.782 624.623C102.17 624.853 102.492 625.2 102.748 625.665C103.003 626.129 103.131 626.751 103.131 627.531V634H101.623V632.67H101.546C101.444 632.884 101.273 633.112 101.035 633.354C100.796 633.597 100.479 633.804 100.082 633.974C99.6859 634.145 99.2022 634.23 98.6312 634.23ZM98.8613 632.875C99.4579 632.875 99.9608 632.758 100.37 632.523C100.783 632.289 101.094 631.987 101.303 631.616C101.516 631.245 101.623 630.855 101.623 630.446V629.065C101.559 629.142 101.418 629.212 101.201 629.276C100.988 629.336 100.741 629.389 100.459 629.436C100.182 629.479 99.9118 629.517 99.6476 629.551C99.3876 629.581 99.1767 629.607 99.0147 629.628C98.6227 629.679 98.2562 629.762 97.9153 629.877C97.5787 629.988 97.3059 630.156 97.0971 630.382C96.8926 630.604 96.7903 630.906 96.7903 631.29C96.7903 631.814 96.9842 632.21 97.372 632.479C97.764 632.743 98.2605 632.875 98.8613 632.875ZM107.393 620.909V634H105.885V620.909H107.393ZM117.111 626.381L115.756 626.764C115.67 626.538 115.545 626.319 115.378 626.106C115.216 625.888 114.995 625.71 114.714 625.569C114.432 625.428 114.072 625.358 113.633 625.358C113.032 625.358 112.532 625.496 112.131 625.773C111.735 626.046 111.537 626.393 111.537 626.815C111.537 627.19 111.673 627.487 111.946 627.704C112.219 627.921 112.645 628.102 113.224 628.247L114.682 628.605C115.559 628.818 116.214 629.144 116.644 629.583C117.074 630.018 117.29 630.578 117.29 631.264C117.29 631.827 117.128 632.33 116.804 632.773C116.484 633.216 116.037 633.565 115.461 633.821C114.886 634.077 114.217 634.205 113.454 634.205C112.453 634.205 111.624 633.987 110.968 633.553C110.312 633.118 109.896 632.483 109.721 631.648L111.153 631.29C111.29 631.818 111.547 632.214 111.927 632.479C112.31 632.743 112.811 632.875 113.429 632.875C114.132 632.875 114.69 632.726 115.104 632.428C115.521 632.125 115.73 631.763 115.73 631.341C115.73 631 115.611 630.714 115.372 630.484C115.133 630.25 114.767 630.075 114.273 629.96L112.636 629.577C111.737 629.364 111.077 629.033 110.655 628.586C110.237 628.134 110.028 627.57 110.028 626.892C110.028 626.338 110.184 625.848 110.495 625.422C110.81 624.996 111.238 624.661 111.78 624.418C112.325 624.175 112.943 624.054 113.633 624.054C114.605 624.054 115.368 624.267 115.922 624.693C116.48 625.119 116.876 625.682 117.111 626.381ZM123.549 634.205C122.663 634.205 121.885 633.994 121.216 633.572C120.551 633.15 120.031 632.56 119.656 631.801C119.286 631.043 119.1 630.156 119.1 629.142C119.1 628.119 119.286 627.227 119.656 626.464C120.031 625.701 120.551 625.109 121.216 624.687C121.885 624.265 122.663 624.054 123.549 624.054C124.435 624.054 125.211 624.265 125.876 624.687C126.545 625.109 127.065 625.701 127.435 626.464C127.81 627.227 127.998 628.119 127.998 629.142C127.998 630.156 127.81 631.043 127.435 631.801C127.065 632.56 126.545 633.15 125.876 633.572C125.211 633.994 124.435 634.205 123.549 634.205ZM123.549 632.849C124.222 632.849 124.776 632.677 125.211 632.332C125.646 631.987 125.967 631.533 126.176 630.97C126.385 630.408 126.489 629.798 126.489 629.142C126.489 628.486 126.385 627.874 126.176 627.308C125.967 626.741 125.646 626.283 125.211 625.933C124.776 625.584 124.222 625.409 123.549 625.409C122.876 625.409 122.322 625.584 121.887 625.933C121.452 626.283 121.131 626.741 120.922 627.308C120.713 627.874 120.609 628.486 120.609 629.142C120.609 629.798 120.713 630.408 120.922 630.97C121.131 631.533 121.452 631.987 121.887 632.332C122.322 632.677 122.876 632.849 123.549 632.849ZM136.872 620.909V634H135.363V620.909H136.872ZM139.635 634V624.182H141.143V634H139.635ZM140.402 622.545C140.108 622.545 139.854 622.445 139.641 622.245C139.432 622.045 139.328 621.804 139.328 621.523C139.328 621.241 139.432 621.001 139.641 620.8C139.854 620.6 140.108 620.5 140.402 620.5C140.696 620.5 140.947 620.6 141.156 620.8C141.369 621.001 141.475 621.241 141.475 621.523C141.475 621.804 141.369 622.045 141.156 622.245C140.947 622.445 140.696 622.545 140.402 622.545ZM145.312 630.42L145.287 628.554H145.594L149.889 624.182H151.756L147.179 628.81H147.051L145.312 630.42ZM143.906 634V620.909H145.415V634H143.906ZM150.145 634L146.309 629.142L147.383 628.094L152.062 634H150.145ZM157.409 634.205C156.463 634.205 155.647 633.996 154.961 633.578C154.279 633.156 153.753 632.568 153.382 631.814C153.016 631.055 152.833 630.173 152.833 629.168C152.833 628.162 153.016 627.276 153.382 626.509C153.753 625.737 154.269 625.136 154.929 624.706C155.594 624.271 156.369 624.054 157.256 624.054C157.767 624.054 158.272 624.139 158.771 624.31C159.269 624.48 159.723 624.757 160.132 625.141C160.541 625.52 160.867 626.023 161.11 626.649C161.353 627.276 161.475 628.047 161.475 628.963V629.602H153.906V628.298H159.941C159.941 627.744 159.83 627.25 159.608 626.815C159.391 626.381 159.08 626.038 158.675 625.786C158.274 625.535 157.801 625.409 157.256 625.409C156.655 625.409 156.135 625.558 155.696 625.857C155.262 626.151 154.927 626.534 154.693 627.007C154.458 627.48 154.341 627.987 154.341 628.528V629.398C154.341 630.139 154.469 630.768 154.725 631.283C154.985 631.795 155.345 632.185 155.805 632.453C156.265 632.717 156.8 632.849 157.409 632.849C157.806 632.849 158.164 632.794 158.483 632.683C158.807 632.568 159.086 632.398 159.32 632.172C159.555 631.942 159.736 631.656 159.864 631.315L161.321 631.724C161.168 632.219 160.91 632.653 160.548 633.028C160.186 633.399 159.738 633.689 159.205 633.898C158.673 634.102 158.074 634.205 157.409 634.205Z" fill="black"/>
<rect x="15" y="96" width="112" height="144" fill="#D9D9D9"/>
<path d="M53.5 145.5H86C87.9891 145.5 89.8968 146.29 91.3033 147.697C92.7098 149.103 93.5 151.011 93.5 153V185.5C93.5 187.489 92.7098 189.397 91.3033 190.803C89.8968 192.21 87.9891 193 86 193H53.5C51.5109 193 49.6032 192.21 48.1967 190.803C46.7902 189.397 46 187.489 46 185.5V153C46 151.011 46.7902 149.103 48.1967 147.697C49.6032 146.29 51.5109 145.5 53.5 145.5ZM53.5 148C52.1739 148 50.9021 148.527 49.9645 149.464C49.0268 150.402 48.5 151.674 48.5 153V181.975L59.225 171.225L65.475 177.475L77.975 164.975L91 178V153C91 151.674 90.4732 150.402 89.5355 149.464C88.5979 148.527 87.3261 148 86 148H53.5ZM65.475 181.025L59.225 174.775L48.5 185.5C48.5 186.826 49.0268 188.098 49.9645 189.036C50.9021 189.973 52.1739 190.5 53.5 190.5H86C87.3261 190.5 88.5979 189.973 89.5355 189.036C90.4732 188.098 91 186.826 91 185.5V181.525L77.975 168.525L65.475 181.025ZM59.75 153C61.4076 153 62.9973 153.658 64.1694 154.831C65.3415 156.003 66 157.592 66 159.25C66 160.908 65.3415 162.497 64.1694 163.669C62.9973 164.842 61.4076 165.5 59.75 165.5C58.0924 165.5 56.5027 164.842 55.3306 163.669C54.1585 162.497 53.5 160.908 53.5 159.25C53.5 157.592 54.1585 156.003 55.3306 154.831C56.5027 153.658 58.0924 153 59.75 153ZM59.75 155.5C58.7554 155.5 57.8016 155.895 57.0983 156.598C56.3951 157.302 56 158.255 56 159.25C56 160.245 56.3951 161.198 57.0983 161.902C57.8016 162.605 58.7554 163 59.75 163C60.7446 163 61.6984 162.605 62.4017 161.902C63.1049 161.198 63.5 160.245 63.5 159.25C63.5 158.255 63.1049 157.302 62.4017 156.598C61.6984 155.895 60.7446 155.5 59.75 155.5Z" fill="black"/>
<rect x="151" y="96" width="112" height="144" fill="#D9D9D9"/>
<path d="M190.5 145.5H223C224.989 145.5 226.897 146.29 228.303 147.697C229.71 149.103 230.5 151.011 230.5 153V185.5C230.5 187.489 229.71 189.397 228.303 190.803C226.897 192.21 224.989 193 223 193H190.5C188.511 193 186.603 192.21 185.197 190.803C183.79 189.397 183 187.489 183 185.5V153C183 151.011 183.79 149.103 185.197 147.697C186.603 146.29 188.511 145.5 190.5 145.5ZM190.5 148C189.174 148 187.902 148.527 186.964 149.464C186.027 150.402 185.5 151.674 185.5 153V181.975L196.225 171.225L202.475 177.475L214.975 164.975L228 178V153C228 151.674 227.473 150.402 226.536 149.464C225.598 148.527 224.326 148 223 148H190.5ZM202.475 181.025L196.225 174.775L185.5 185.5C185.5 186.826 186.027 188.098 186.964 189.036C187.902 189.973 189.174 190.5 190.5 190.5H223C224.326 190.5 225.598 189.973 226.536 189.036C227.473 188.098 228 186.826 228 185.5V181.525L214.975 168.525L202.475 181.025ZM196.75 153C198.408 153 199.997 153.658 201.169 154.831C202.342 156.003 203 157.592 203 159.25C203 160.908 202.342 162.497 201.169 163.669C199.997 164.842 198.408 165.5 196.75 165.5C195.092 165.5 193.503 164.842 192.331 163.669C191.158 162.497 190.5 160.908 190.5 159.25C190.5 157.592 191.158 156.003 192.331 154.831C193.503 153.658 195.092 153 196.75 153ZM196.75 155.5C195.755 155.5 194.802 155.895 194.098 156.598C193.395 157.302 193 158.255 193 159.25C193 160.245 193.395 161.198 194.098 161.902C194.802 162.605 195.755 163 196.75 163C197.745 163 198.698 162.605 199.402 161.902C200.105 161.198 200.5 160.245 200.5 159.25C200.5 158.255 200.105 157.302 199.402 156.598C198.698 155.895 197.745 155.5 196.75 155.5Z" fill="black"/>
<rect x="287" y="96" width="112" height="144" fill="#D9D9D9"/>
<path d="M327.5 145.5H360C361.989 145.5 363.897 146.29 365.303 147.697C366.71 149.103 367.5 151.011 367.5 153V185.5C367.5 187.489 366.71 189.397 365.303 190.803C363.897 192.21 361.989 193 360 193H327.5C325.511 193 323.603 192.21 322.197 190.803C320.79 189.397 320 187.489 320 185.5V153C320 151.011 320.79 149.103 322.197 147.697C323.603 146.29 325.511 145.5 327.5 145.5ZM327.5 148C326.174 148 324.902 148.527 323.964 149.464C323.027 150.402 322.5 151.674 322.5 153V181.975L333.225 171.225L339.475 177.475L351.975 164.975L365 178V153C365 151.674 364.473 150.402 363.536 149.464C362.598 148.527 361.326 148 360 148H327.5ZM339.475 181.025L333.225 174.775L322.5 185.5C322.5 186.826 323.027 188.098 323.964 189.036C324.902 189.973 326.174 190.5 327.5 190.5H360C361.326 190.5 362.598 189.973 363.536 189.036C364.473 188.098 365 186.826 365 185.5V181.525L351.975 168.525L339.475 181.025ZM333.75 153C335.408 153 336.997 153.658 338.169 154.831C339.342 156.003 340 157.592 340 159.25C340 160.908 339.342 162.497 338.169 163.669C336.997 164.842 335.408 165.5 333.75 165.5C332.092 165.5 330.503 164.842 329.331 163.669C328.158 162.497 327.5 160.908 327.5 159.25C327.5 157.592 328.158 156.003 329.331 154.831C330.503 153.658 332.092 153 333.75 153ZM333.75 155.5C332.755 155.5 331.802 155.895 331.098 156.598C330.395 157.302 330 158.255 330 159.25C330 160.245 330.395 161.198 331.098 161.902C331.802 162.605 332.755 163 333.75 163C334.745 163 335.698 162.605 336.402 161.902C337.105 161.198 337.5 160.245 337.5 159.25C337.5 158.255 337.105 157.302 336.402 156.598C335.698 155.895 334.745 155.5 333.75 155.5Z" fill="black"/>
<rect x="414" y="96" width="112" height="144" fill="#D9D9D9"/>
<path d="M355.557 335.92L354.653 336.176C354.597 336.026 354.513 335.879 354.402 335.737C354.294 335.592 354.146 335.473 353.959 335.379C353.771 335.286 353.531 335.239 353.239 335.239C352.838 335.239 352.504 335.331 352.237 335.516C351.973 335.697 351.841 335.929 351.841 336.21C351.841 336.46 351.932 336.658 352.114 336.803C352.295 336.947 352.58 337.068 352.966 337.165L353.938 337.403C354.523 337.545 354.959 337.763 355.246 338.055C355.533 338.345 355.676 338.719 355.676 339.176C355.676 339.551 355.568 339.886 355.352 340.182C355.139 340.477 354.841 340.71 354.457 340.881C354.074 341.051 353.628 341.136 353.119 341.136C352.452 341.136 351.899 340.991 351.462 340.702C351.024 340.412 350.747 339.989 350.631 339.432L351.585 339.193C351.676 339.545 351.848 339.81 352.101 339.986C352.357 340.162 352.69 340.25 353.102 340.25C353.571 340.25 353.943 340.151 354.219 339.952C354.497 339.75 354.636 339.509 354.636 339.227C354.636 339 354.557 338.81 354.398 338.656C354.239 338.5 353.994 338.384 353.665 338.307L352.574 338.051C351.974 337.909 351.534 337.689 351.253 337.391C350.974 337.089 350.835 336.713 350.835 336.261C350.835 335.892 350.939 335.565 351.146 335.281C351.357 334.997 351.642 334.774 352.003 334.612C352.366 334.45 352.778 334.369 353.239 334.369C353.886 334.369 354.395 334.511 354.764 334.795C355.136 335.08 355.401 335.455 355.557 335.92ZM359.934 341.136C359.304 341.136 358.76 340.997 358.302 340.719C357.848 340.438 357.497 340.045 357.25 339.543C357.005 339.037 356.883 338.449 356.883 337.778C356.883 337.108 357.005 336.517 357.25 336.006C357.497 335.491 357.841 335.091 358.281 334.804C358.724 334.514 359.241 334.369 359.832 334.369C360.173 334.369 360.51 334.426 360.842 334.54C361.174 334.653 361.477 334.838 361.75 335.094C362.022 335.347 362.24 335.682 362.402 336.099C362.564 336.517 362.645 337.031 362.645 337.642V338.068H357.599V337.199H361.622C361.622 336.83 361.548 336.5 361.4 336.21C361.255 335.92 361.048 335.692 360.778 335.524C360.511 335.357 360.196 335.273 359.832 335.273C359.431 335.273 359.085 335.372 358.792 335.571C358.502 335.767 358.279 336.023 358.123 336.338C357.967 336.653 357.889 336.991 357.889 337.352V337.932C357.889 338.426 357.974 338.845 358.145 339.189C358.318 339.53 358.558 339.79 358.865 339.969C359.172 340.145 359.528 340.233 359.934 340.233C360.199 340.233 360.437 340.196 360.65 340.122C360.866 340.045 361.052 339.932 361.208 339.781C361.365 339.628 361.485 339.437 361.571 339.21L362.542 339.483C362.44 339.812 362.268 340.102 362.027 340.352C361.785 340.599 361.487 340.793 361.132 340.932C360.777 341.068 360.377 341.136 359.934 341.136ZM366.919 341.136C366.288 341.136 365.744 340.997 365.287 340.719C364.832 340.438 364.481 340.045 364.234 339.543C363.99 339.037 363.868 338.449 363.868 337.778C363.868 337.108 363.99 336.517 364.234 336.006C364.481 335.491 364.825 335.091 365.265 334.804C365.708 334.514 366.225 334.369 366.816 334.369C367.157 334.369 367.494 334.426 367.826 334.54C368.159 334.653 368.461 334.838 368.734 335.094C369.007 335.347 369.224 335.682 369.386 336.099C369.548 336.517 369.629 337.031 369.629 337.642V338.068H364.583V337.199H368.606C368.606 336.83 368.532 336.5 368.385 336.21C368.24 335.92 368.032 335.692 367.762 335.524C367.495 335.357 367.18 335.273 366.816 335.273C366.416 335.273 366.069 335.372 365.777 335.571C365.487 335.767 365.264 336.023 365.108 336.338C364.951 336.653 364.873 336.991 364.873 337.352V337.932C364.873 338.426 364.958 338.845 365.129 339.189C365.302 339.53 365.542 339.79 365.849 339.969C366.156 340.145 366.512 340.233 366.919 340.233C367.183 340.233 367.422 340.196 367.635 340.122C367.85 340.045 368.037 339.932 368.193 339.781C368.349 339.628 368.47 339.437 368.555 339.21L369.527 339.483C369.424 339.812 369.252 340.102 369.011 340.352C368.77 340.599 368.471 340.793 368.116 340.932C367.761 341.068 367.362 341.136 366.919 341.136ZM374.534 341V334.455H375.505V335.477H375.591C375.727 335.128 375.947 334.857 376.251 334.663C376.555 334.467 376.92 334.369 377.346 334.369C377.778 334.369 378.137 334.467 378.424 334.663C378.714 334.857 378.94 335.128 379.102 335.477H379.17C379.338 335.139 379.589 334.871 379.924 334.672C380.26 334.47 380.662 334.369 381.13 334.369C381.716 334.369 382.194 334.553 382.566 334.919C382.939 335.283 383.125 335.849 383.125 336.619V341H382.119V336.619C382.119 336.136 381.987 335.791 381.723 335.584C381.458 335.376 381.147 335.273 380.789 335.273C380.329 335.273 379.973 335.412 379.72 335.69C379.467 335.966 379.341 336.315 379.341 336.739V341H378.318V336.517C378.318 336.145 378.197 335.845 377.956 335.618C377.714 335.388 377.403 335.273 377.022 335.273C376.761 335.273 376.517 335.342 376.289 335.482C376.065 335.621 375.883 335.814 375.744 336.061C375.608 336.305 375.539 336.588 375.539 336.909V341H374.534ZM387.623 341.136C387.032 341.136 386.513 340.996 386.067 340.714C385.624 340.433 385.277 340.04 385.027 339.534C384.78 339.028 384.657 338.437 384.657 337.761C384.657 337.08 384.78 336.484 385.027 335.976C385.277 335.467 385.624 335.072 386.067 334.791C386.513 334.51 387.032 334.369 387.623 334.369C388.213 334.369 388.73 334.51 389.174 334.791C389.62 335.072 389.966 335.467 390.213 335.976C390.463 336.484 390.588 337.08 390.588 337.761C390.588 338.437 390.463 339.028 390.213 339.534C389.966 340.04 389.62 340.433 389.174 340.714C388.73 340.996 388.213 341.136 387.623 341.136ZM387.623 340.233C388.071 340.233 388.441 340.118 388.73 339.888C389.02 339.658 389.235 339.355 389.374 338.98C389.513 338.605 389.583 338.199 389.583 337.761C389.583 337.324 389.513 336.916 389.374 336.538C389.235 336.161 389.02 335.855 388.73 335.622C388.441 335.389 388.071 335.273 387.623 335.273C387.174 335.273 386.804 335.389 386.515 335.622C386.225 335.855 386.01 336.161 385.871 336.538C385.732 336.916 385.662 337.324 385.662 337.761C385.662 338.199 385.732 338.605 385.871 338.98C386.01 339.355 386.225 339.658 386.515 339.888C386.804 340.118 387.174 340.233 387.623 340.233ZM392.124 341V334.455H393.095V335.443H393.163C393.283 335.119 393.499 334.857 393.811 334.655C394.124 334.453 394.476 334.352 394.868 334.352C394.942 334.352 395.034 334.354 395.145 334.357C395.256 334.359 395.339 334.364 395.396 334.369V335.392C395.362 335.384 395.284 335.371 395.162 335.354C395.043 335.334 394.916 335.324 394.783 335.324C394.464 335.324 394.18 335.391 393.93 335.524C393.683 335.655 393.487 335.837 393.342 336.07C393.2 336.3 393.129 336.562 393.129 336.858V341H392.124ZM399.134 341.136C398.503 341.136 397.959 340.997 397.501 340.719C397.047 340.438 396.696 340.045 396.449 339.543C396.205 339.037 396.082 338.449 396.082 337.778C396.082 337.108 396.205 336.517 396.449 336.006C396.696 335.491 397.04 335.091 397.48 334.804C397.923 334.514 398.44 334.369 399.031 334.369C399.372 334.369 399.709 334.426 400.041 334.54C400.374 334.653 400.676 334.838 400.949 335.094C401.222 335.347 401.439 335.682 401.601 336.099C401.763 336.517 401.844 337.031 401.844 337.642V338.068H396.798V337.199H400.821C400.821 336.83 400.747 336.5 400.599 336.21C400.455 335.92 400.247 335.692 399.977 335.524C399.71 335.357 399.395 335.273 399.031 335.273C398.631 335.273 398.284 335.372 397.991 335.571C397.702 335.767 397.479 336.023 397.322 336.338C397.166 336.653 397.088 336.991 397.088 337.352V337.932C397.088 338.426 397.173 338.845 397.344 339.189C397.517 339.53 397.757 339.79 398.064 339.969C398.371 340.145 398.727 340.233 399.134 340.233C399.398 340.233 399.636 340.196 399.849 340.122C400.065 340.045 400.251 339.932 400.408 339.781C400.564 339.628 400.685 339.437 400.77 339.21L401.741 339.483C401.639 339.812 401.467 340.102 401.226 340.352C400.984 340.599 400.686 340.793 400.331 340.932C399.976 341.068 399.577 341.136 399.134 341.136Z" fill="black"/>
<path d="M410.59 330.84L416.25 336.5L410.59 342.16L409.89 341.45L414.84 336.5L409.89 331.55L410.59 330.84Z" fill="black"/>
<path d="M350.557 60.9205L349.653 61.1761C349.597 61.0256 349.513 60.8793 349.402 60.7372C349.294 60.5923 349.146 60.473 348.959 60.3793C348.771 60.2855 348.531 60.2386 348.239 60.2386C347.838 60.2386 347.504 60.331 347.237 60.5156C346.973 60.6974 346.841 60.929 346.841 61.2102C346.841 61.4602 346.932 61.6577 347.114 61.8026C347.295 61.9474 347.58 62.0682 347.966 62.1648L348.938 62.4034C349.523 62.5455 349.959 62.7628 350.246 63.0554C350.533 63.3452 350.676 63.7187 350.676 64.1761C350.676 64.5511 350.568 64.8864 350.352 65.1818C350.139 65.4773 349.841 65.7102 349.457 65.8807C349.074 66.0511 348.628 66.1364 348.119 66.1364C347.452 66.1364 346.899 65.9915 346.462 65.7017C346.024 65.4119 345.747 64.9886 345.631 64.4318L346.585 64.1932C346.676 64.5455 346.848 64.8097 347.101 64.9858C347.357 65.1619 347.69 65.25 348.102 65.25C348.571 65.25 348.943 65.1506 349.219 64.9517C349.497 64.75 349.636 64.5085 349.636 64.2273C349.636 64 349.557 63.8097 349.398 63.6562C349.239 63.5 348.994 63.3835 348.665 63.3068L347.574 63.0511C346.974 62.9091 346.534 62.6889 346.253 62.3906C345.974 62.0895 345.835 61.7131 345.835 61.2614C345.835 60.892 345.939 60.5653 346.146 60.2812C346.357 59.9972 346.642 59.7741 347.003 59.6122C347.366 59.4503 347.778 59.3693 348.239 59.3693C348.886 59.3693 349.395 59.5114 349.764 59.7955C350.136 60.0795 350.401 60.4545 350.557 60.9205ZM354.934 66.1364C354.304 66.1364 353.76 65.9972 353.302 65.7188C352.848 65.4375 352.497 65.0455 352.25 64.5426C352.005 64.0369 351.883 63.4489 351.883 62.7784C351.883 62.108 352.005 61.517 352.25 61.0057C352.497 60.4915 352.841 60.0909 353.281 59.804C353.724 59.5142 354.241 59.3693 354.832 59.3693C355.173 59.3693 355.51 59.4261 355.842 59.5398C356.174 59.6534 356.477 59.8381 356.75 60.0938C357.022 60.3466 357.24 60.6818 357.402 61.0994C357.564 61.517 357.645 62.0312 357.645 62.642V63.0682H352.599V62.1989H356.622C356.622 61.8295 356.548 61.5 356.4 61.2102C356.255 60.9205 356.048 60.6918 355.778 60.5241C355.511 60.3565 355.196 60.2727 354.832 60.2727C354.431 60.2727 354.085 60.3722 353.792 60.571C353.502 60.767 353.279 61.0227 353.123 61.3381C352.967 61.6534 352.889 61.9915 352.889 62.3523V62.9318C352.889 63.4261 352.974 63.8452 353.145 64.1889C353.318 64.5298 353.558 64.7898 353.865 64.9688C354.172 65.1449 354.528 65.233 354.934 65.233C355.199 65.233 355.437 65.196 355.65 65.1222C355.866 65.0455 356.052 64.9318 356.208 64.7812C356.365 64.6278 356.485 64.4375 356.571 64.2102L357.542 64.483C357.44 64.8125 357.268 65.1023 357.027 65.3523C356.785 65.5994 356.487 65.7926 356.132 65.9318C355.777 66.0682 355.377 66.1364 354.934 66.1364ZM361.919 66.1364C361.288 66.1364 360.744 65.9972 360.287 65.7188C359.832 65.4375 359.481 65.0455 359.234 64.5426C358.99 64.0369 358.868 63.4489 358.868 62.7784C358.868 62.108 358.99 61.517 359.234 61.0057C359.481 60.4915 359.825 60.0909 360.265 59.804C360.708 59.5142 361.225 59.3693 361.816 59.3693C362.157 59.3693 362.494 59.4261 362.826 59.5398C363.159 59.6534 363.461 59.8381 363.734 60.0938C364.007 60.3466 364.224 60.6818 364.386 61.0994C364.548 61.517 364.629 62.0312 364.629 62.642V63.0682H359.583V62.1989H363.606C363.606 61.8295 363.532 61.5 363.385 61.2102C363.24 60.9205 363.032 60.6918 362.762 60.5241C362.495 60.3565 362.18 60.2727 361.816 60.2727C361.416 60.2727 361.069 60.3722 360.777 60.571C360.487 60.767 360.264 61.0227 360.108 61.3381C359.951 61.6534 359.873 61.9915 359.873 62.3523V62.9318C359.873 63.4261 359.958 63.8452 360.129 64.1889C360.302 64.5298 360.542 64.7898 360.849 64.9688C361.156 65.1449 361.512 65.233 361.919 65.233C362.183 65.233 362.422 65.196 362.635 65.1222C362.85 65.0455 363.037 64.9318 363.193 64.7812C363.349 64.6278 363.47 64.4375 363.555 64.2102L364.527 64.483C364.424 64.8125 364.252 65.1023 364.011 65.3523C363.77 65.5994 363.471 65.7926 363.116 65.9318C362.761 66.0682 362.362 66.1364 361.919 66.1364ZM369.534 66V59.4545H370.505V60.4773H370.591C370.727 60.1278 370.947 59.8565 371.251 59.6634C371.555 59.4673 371.92 59.3693 372.346 59.3693C372.778 59.3693 373.137 59.4673 373.424 59.6634C373.714 59.8565 373.94 60.1278 374.102 60.4773H374.17C374.338 60.1392 374.589 59.8707 374.924 59.6719C375.26 59.4702 375.662 59.3693 376.13 59.3693C376.716 59.3693 377.194 59.5526 377.566 59.919C377.939 60.2827 378.125 60.8494 378.125 61.6193V66H377.119V61.6193C377.119 61.1364 376.987 60.7912 376.723 60.5838C376.458 60.3764 376.147 60.2727 375.789 60.2727C375.329 60.2727 374.973 60.4119 374.72 60.6903C374.467 60.9659 374.341 61.3153 374.341 61.7386V66H373.318V61.517C373.318 61.1449 373.197 60.8452 372.956 60.6179C372.714 60.3878 372.403 60.2727 372.022 60.2727C371.761 60.2727 371.517 60.3423 371.289 60.4815C371.065 60.6207 370.883 60.8139 370.744 61.0611C370.608 61.3054 370.539 61.5881 370.539 61.9091V66H369.534ZM382.623 66.1364C382.032 66.1364 381.513 65.9957 381.067 65.7145C380.624 65.4332 380.277 65.0398 380.027 64.5341C379.78 64.0284 379.657 63.4375 379.657 62.7614C379.657 62.0795 379.78 61.4844 380.027 60.9759C380.277 60.4673 380.624 60.0724 381.067 59.7912C381.513 59.5099 382.032 59.3693 382.623 59.3693C383.213 59.3693 383.73 59.5099 384.174 59.7912C384.62 60.0724 384.966 60.4673 385.213 60.9759C385.463 61.4844 385.588 62.0795 385.588 62.7614C385.588 63.4375 385.463 64.0284 385.213 64.5341C384.966 65.0398 384.62 65.4332 384.174 65.7145C383.73 65.9957 383.213 66.1364 382.623 66.1364ZM382.623 65.233C383.071 65.233 383.441 65.1179 383.73 64.8878C384.02 64.6577 384.235 64.3551 384.374 63.9801C384.513 63.6051 384.583 63.1989 384.583 62.7614C384.583 62.3239 384.513 61.9162 384.374 61.5384C384.235 61.1605 384.02 60.8551 383.73 60.6222C383.441 60.3892 383.071 60.2727 382.623 60.2727C382.174 60.2727 381.804 60.3892 381.515 60.6222C381.225 60.8551 381.01 61.1605 380.871 61.5384C380.732 61.9162 380.662 62.3239 380.662 62.7614C380.662 63.1989 380.732 63.6051 380.871 63.9801C381.01 64.3551 381.225 64.6577 381.515 64.8878C381.804 65.1179 382.174 65.233 382.623 65.233ZM387.124 66V59.4545H388.095V60.4432H388.163C388.283 60.1193 388.499 59.8565 388.811 59.6548C389.124 59.4531 389.476 59.3523 389.868 59.3523C389.942 59.3523 390.034 59.3537 390.145 59.3565C390.256 59.3594 390.339 59.3636 390.396 59.3693V60.392C390.362 60.3835 390.284 60.3707 390.162 60.3537C390.043 60.3338 389.916 60.3239 389.783 60.3239C389.464 60.3239 389.18 60.3906 388.93 60.5241C388.683 60.6548 388.487 60.8366 388.342 61.0696C388.2 61.2997 388.129 61.5625 388.129 61.858V66H387.124ZM394.134 66.1364C393.503 66.1364 392.959 65.9972 392.501 65.7188C392.047 65.4375 391.696 65.0455 391.449 64.5426C391.205 64.0369 391.082 63.4489 391.082 62.7784C391.082 62.108 391.205 61.517 391.449 61.0057C391.696 60.4915 392.04 60.0909 392.48 59.804C392.923 59.5142 393.44 59.3693 394.031 59.3693C394.372 59.3693 394.709 59.4261 395.041 59.5398C395.374 59.6534 395.676 59.8381 395.949 60.0938C396.222 60.3466 396.439 60.6818 396.601 61.0994C396.763 61.517 396.844 62.0312 396.844 62.642V63.0682H391.798V62.1989H395.821C395.821 61.8295 395.747 61.5 395.599 61.2102C395.455 60.9205 395.247 60.6918 394.977 60.5241C394.71 60.3565 394.395 60.2727 394.031 60.2727C393.631 60.2727 393.284 60.3722 392.991 60.571C392.702 60.767 392.479 61.0227 392.322 61.3381C392.166 61.6534 392.088 61.9915 392.088 62.3523V62.9318C392.088 63.4261 392.173 63.8452 392.344 64.1889C392.517 64.5298 392.757 64.7898 393.064 64.9688C393.371 65.1449 393.727 65.233 394.134 65.233C394.398 65.233 394.636 65.196 394.849 65.1222C395.065 65.0455 395.251 64.9318 395.408 64.7812C395.564 64.6278 395.685 64.4375 395.77 64.2102L396.741 64.483C396.639 64.8125 396.467 65.1023 396.226 65.3523C395.984 65.5994 395.686 65.7926 395.331 65.9318C394.976 66.0682 394.577 66.1364 394.134 66.1364Z" fill="black"/>
<path d="M405.59 55.84L411.25 61.5L405.59 67.16L404.89 66.45L409.84 61.5L404.89 56.55L405.59 55.84Z" fill="black"/>
<path d="M349.557 626.92L348.653 627.176C348.597 627.026 348.513 626.879 348.402 626.737C348.294 626.592 348.146 626.473 347.959 626.379C347.771 626.286 347.531 626.239 347.239 626.239C346.838 626.239 346.504 626.331 346.237 626.516C345.973 626.697 345.841 626.929 345.841 627.21C345.841 627.46 345.932 627.658 346.114 627.803C346.295 627.947 346.58 628.068 346.966 628.165L347.938 628.403C348.523 628.545 348.959 628.763 349.246 629.055C349.533 629.345 349.676 629.719 349.676 630.176C349.676 630.551 349.568 630.886 349.352 631.182C349.139 631.477 348.841 631.71 348.457 631.881C348.074 632.051 347.628 632.136 347.119 632.136C346.452 632.136 345.899 631.991 345.462 631.702C345.024 631.412 344.747 630.989 344.631 630.432L345.585 630.193C345.676 630.545 345.848 630.81 346.101 630.986C346.357 631.162 346.69 631.25 347.102 631.25C347.571 631.25 347.943 631.151 348.219 630.952C348.497 630.75 348.636 630.509 348.636 630.227C348.636 630 348.557 629.81 348.398 629.656C348.239 629.5 347.994 629.384 347.665 629.307L346.574 629.051C345.974 628.909 345.534 628.689 345.253 628.391C344.974 628.089 344.835 627.713 344.835 627.261C344.835 626.892 344.939 626.565 345.146 626.281C345.357 625.997 345.642 625.774 346.003 625.612C346.366 625.45 346.778 625.369 347.239 625.369C347.886 625.369 348.395 625.511 348.764 625.795C349.136 626.08 349.401 626.455 349.557 626.92ZM353.934 632.136C353.304 632.136 352.76 631.997 352.302 631.719C351.848 631.438 351.497 631.045 351.25 630.543C351.005 630.037 350.883 629.449 350.883 628.778C350.883 628.108 351.005 627.517 351.25 627.006C351.497 626.491 351.841 626.091 352.281 625.804C352.724 625.514 353.241 625.369 353.832 625.369C354.173 625.369 354.51 625.426 354.842 625.54C355.174 625.653 355.477 625.838 355.75 626.094C356.022 626.347 356.24 626.682 356.402 627.099C356.564 627.517 356.645 628.031 356.645 628.642V629.068H351.599V628.199H355.622C355.622 627.83 355.548 627.5 355.4 627.21C355.255 626.92 355.048 626.692 354.778 626.524C354.511 626.357 354.196 626.273 353.832 626.273C353.431 626.273 353.085 626.372 352.792 626.571C352.502 626.767 352.279 627.023 352.123 627.338C351.967 627.653 351.889 627.991 351.889 628.352V628.932C351.889 629.426 351.974 629.845 352.145 630.189C352.318 630.53 352.558 630.79 352.865 630.969C353.172 631.145 353.528 631.233 353.934 631.233C354.199 631.233 354.437 631.196 354.65 631.122C354.866 631.045 355.052 630.932 355.208 630.781C355.365 630.628 355.485 630.437 355.571 630.21L356.542 630.483C356.44 630.812 356.268 631.102 356.027 631.352C355.785 631.599 355.487 631.793 355.132 631.932C354.777 632.068 354.377 632.136 353.934 632.136ZM360.919 632.136C360.288 632.136 359.744 631.997 359.287 631.719C358.832 631.438 358.481 631.045 358.234 630.543C357.99 630.037 357.868 629.449 357.868 628.778C357.868 628.108 357.99 627.517 358.234 627.006C358.481 626.491 358.825 626.091 359.265 625.804C359.708 625.514 360.225 625.369 360.816 625.369C361.157 625.369 361.494 625.426 361.826 625.54C362.159 625.653 362.461 625.838 362.734 626.094C363.007 626.347 363.224 626.682 363.386 627.099C363.548 627.517 363.629 628.031 363.629 628.642V629.068H358.583V628.199H362.606C362.606 627.83 362.532 627.5 362.385 627.21C362.24 626.92 362.032 626.692 361.762 626.524C361.495 626.357 361.18 626.273 360.816 626.273C360.416 626.273 360.069 626.372 359.777 626.571C359.487 626.767 359.264 627.023 359.108 627.338C358.951 627.653 358.873 627.991 358.873 628.352V628.932C358.873 629.426 358.958 629.845 359.129 630.189C359.302 630.53 359.542 630.79 359.849 630.969C360.156 631.145 360.512 631.233 360.919 631.233C361.183 631.233 361.422 631.196 361.635 631.122C361.85 631.045 362.037 630.932 362.193 630.781C362.349 630.628 362.47 630.437 362.555 630.21L363.527 630.483C363.424 630.812 363.252 631.102 363.011 631.352C362.77 631.599 362.471 631.793 362.116 631.932C361.761 632.068 361.362 632.136 360.919 632.136ZM368.534 632V625.455H369.505V626.477H369.591C369.727 626.128 369.947 625.857 370.251 625.663C370.555 625.467 370.92 625.369 371.346 625.369C371.778 625.369 372.137 625.467 372.424 625.663C372.714 625.857 372.94 626.128 373.102 626.477H373.17C373.338 626.139 373.589 625.871 373.924 625.672C374.26 625.47 374.662 625.369 375.13 625.369C375.716 625.369 376.194 625.553 376.566 625.919C376.939 626.283 377.125 626.849 377.125 627.619V632H376.119V627.619C376.119 627.136 375.987 626.791 375.723 626.584C375.458 626.376 375.147 626.273 374.789 626.273C374.329 626.273 373.973 626.412 373.72 626.69C373.467 626.966 373.341 627.315 373.341 627.739V632H372.318V627.517C372.318 627.145 372.197 626.845 371.956 626.618C371.714 626.388 371.403 626.273 371.022 626.273C370.761 626.273 370.517 626.342 370.289 626.482C370.065 626.621 369.883 626.814 369.744 627.061C369.608 627.305 369.539 627.588 369.539 627.909V632H368.534ZM381.623 632.136C381.032 632.136 380.513 631.996 380.067 631.714C379.624 631.433 379.277 631.04 379.027 630.534C378.78 630.028 378.657 629.437 378.657 628.761C378.657 628.08 378.78 627.484 379.027 626.976C379.277 626.467 379.624 626.072 380.067 625.791C380.513 625.51 381.032 625.369 381.623 625.369C382.213 625.369 382.73 625.51 383.174 625.791C383.62 626.072 383.966 626.467 384.213 626.976C384.463 627.484 384.588 628.08 384.588 628.761C384.588 629.437 384.463 630.028 384.213 630.534C383.966 631.04 383.62 631.433 383.174 631.714C382.73 631.996 382.213 632.136 381.623 632.136ZM381.623 631.233C382.071 631.233 382.441 631.118 382.73 630.888C383.02 630.658 383.235 630.355 383.374 629.98C383.513 629.605 383.583 629.199 383.583 628.761C383.583 628.324 383.513 627.916 383.374 627.538C383.235 627.161 383.02 626.855 382.73 626.622C382.441 626.389 382.071 626.273 381.623 626.273C381.174 626.273 380.804 626.389 380.515 626.622C380.225 626.855 380.01 627.161 379.871 627.538C379.732 627.916 379.662 628.324 379.662 628.761C379.662 629.199 379.732 629.605 379.871 629.98C380.01 630.355 380.225 630.658 380.515 630.888C380.804 631.118 381.174 631.233 381.623 631.233ZM386.124 632V625.455H387.095V626.443H387.163C387.283 626.119 387.499 625.857 387.811 625.655C388.124 625.453 388.476 625.352 388.868 625.352C388.942 625.352 389.034 625.354 389.145 625.357C389.256 625.359 389.339 625.364 389.396 625.369V626.392C389.362 626.384 389.284 626.371 389.162 626.354C389.043 626.334 388.916 626.324 388.783 626.324C388.464 626.324 388.18 626.391 387.93 626.524C387.683 626.655 387.487 626.837 387.342 627.07C387.2 627.3 387.129 627.562 387.129 627.858V632H386.124ZM393.134 632.136C392.503 632.136 391.959 631.997 391.501 631.719C391.047 631.438 390.696 631.045 390.449 630.543C390.205 630.037 390.082 629.449 390.082 628.778C390.082 628.108 390.205 627.517 390.449 627.006C390.696 626.491 391.04 626.091 391.48 625.804C391.923 625.514 392.44 625.369 393.031 625.369C393.372 625.369 393.709 625.426 394.041 625.54C394.374 625.653 394.676 625.838 394.949 626.094C395.222 626.347 395.439 626.682 395.601 627.099C395.763 627.517 395.844 628.031 395.844 628.642V629.068H390.798V628.199H394.821C394.821 627.83 394.747 627.5 394.599 627.21C394.455 626.92 394.247 626.692 393.977 626.524C393.71 626.357 393.395 626.273 393.031 626.273C392.631 626.273 392.284 626.372 391.991 626.571C391.702 626.767 391.479 627.023 391.322 627.338C391.166 627.653 391.088 627.991 391.088 628.352V628.932C391.088 629.426 391.173 629.845 391.344 630.189C391.517 630.53 391.757 630.79 392.064 630.969C392.371 631.145 392.727 631.233 393.134 631.233C393.398 631.233 393.636 631.196 393.849 631.122C394.065 631.045 394.251 630.932 394.408 630.781C394.564 630.628 394.685 630.437 394.77 630.21L395.741 630.483C395.639 630.812 395.467 631.102 395.226 631.352C394.984 631.599 394.686 631.793 394.331 631.932C393.976 632.068 393.577 632.136 393.134 632.136Z" fill="black"/>
<path d="M404.59 621.84L410.25 627.5L404.59 633.16L403.89 632.45L408.84 627.5L403.89 622.55L404.59 621.84Z" fill="black"/>
<rect x="15" y="376" width="112" height="144" fill="#D9D9D9"/>
<path d="M53.5 425.5H86C87.9891 425.5 89.8968 426.29 91.3033 427.697C92.7098 429.103 93.5 431.011 93.5 433V465.5C93.5 467.489 92.7098 469.397 91.3033 470.803C89.8968 472.21 87.9891 473 86 473H53.5C51.5109 473 49.6032 472.21 48.1967 470.803C46.7902 469.397 46 467.489 46 465.5V433C46 431.011 46.7902 429.103 48.1967 427.697C49.6032 426.29 51.5109 425.5 53.5 425.5ZM53.5 428C52.1739 428 50.9021 428.527 49.9645 429.464C49.0268 430.402 48.5 431.674 48.5 433V461.975L59.225 451.225L65.475 457.475L77.975 444.975L91 458V433C91 431.674 90.4732 430.402 89.5355 429.464C88.5979 428.527 87.3261 428 86 428H53.5ZM65.475 461.025L59.225 454.775L48.5 465.5C48.5 466.826 49.0268 468.098 49.9645 469.036C50.9021 469.973 52.1739 470.5 53.5 470.5H86C87.3261 470.5 88.5979 469.973 89.5355 469.036C90.4732 468.098 91 466.826 91 465.5V461.525L77.975 448.525L65.475 461.025ZM59.75 433C61.4076 433 62.9973 433.658 64.1694 434.831C65.3415 436.003 66 437.592 66 439.25C66 440.908 65.3415 442.497 64.1694 443.669C62.9973 444.842 61.4076 445.5 59.75 445.5C58.0924 445.5 56.5027 444.842 55.3306 443.669C54.1585 442.497 53.5 440.908 53.5 439.25C53.5 437.592 54.1585 436.003 55.3306 434.831C56.5027 433.658 58.0924 433 59.75 433ZM59.75 435.5C58.7554 435.5 57.8016 435.895 57.0983 436.598C56.3951 437.302 56 438.255 56 439.25C56 440.245 56.3951 441.198 57.0983 441.902C57.8016 442.605 58.7554 443 59.75 443C60.7446 443 61.6984 442.605 62.4017 441.902C63.1049 441.198 63.5 440.245 63.5 439.25C63.5 438.255 63.1049 437.302 62.4017 436.598C61.6984 435.895 60.7446 435.5 59.75 435.5Z" fill="black"/>
<rect x="151" y="376" width="112" height="144" fill="#D9D9D9"/>
<path d="M190.5 425.5H223C224.989 425.5 226.897 426.29 228.303 427.697C229.71 429.103 230.5 431.011 230.5 433V465.5C230.5 467.489 229.71 469.397 228.303 470.803C226.897 472.21 224.989 473 223 473H190.5C188.511 473 186.603 472.21 185.197 470.803C183.79 469.397 183 467.489 183 465.5V433C183 431.011 183.79 429.103 185.197 427.697C186.603 426.29 188.511 425.5 190.5 425.5ZM190.5 428C189.174 428 187.902 428.527 186.964 429.464C186.027 430.402 185.5 431.674 185.5 433V461.975L196.225 451.225L202.475 457.475L214.975 444.975L228 458V433C228 431.674 227.473 430.402 226.536 429.464C225.598 428.527 224.326 428 223 428H190.5ZM202.475 461.025L196.225 454.775L185.5 465.5C185.5 466.826 186.027 468.098 186.964 469.036C187.902 469.973 189.174 470.5 190.5 470.5H223C224.326 470.5 225.598 469.973 226.536 469.036C227.473 468.098 228 466.826 228 465.5V461.525L214.975 448.525L202.475 461.025ZM196.75 433C198.408 433 199.997 433.658 201.169 434.831C202.342 436.003 203 437.592 203 439.25C203 440.908 202.342 442.497 201.169 443.669C199.997 444.842 198.408 445.5 196.75 445.5C195.092 445.5 193.503 444.842 192.331 443.669C191.158 442.497 190.5 440.908 190.5 439.25C190.5 437.592 191.158 436.003 192.331 434.831C193.503 433.658 195.092 433 196.75 433ZM196.75 435.5C195.755 435.5 194.802 435.895 194.098 436.598C193.395 437.302 193 438.255 193 439.25C193 440.245 193.395 441.198 194.098 441.902C194.802 442.605 195.755 443 196.75 443C197.745 443 198.698 442.605 199.402 441.902C200.105 441.198 200.5 440.245 200.5 439.25C200.5 438.255 200.105 437.302 199.402 436.598C198.698 435.895 197.745 435.5 196.75 435.5Z" fill="black"/>
<rect x="287" y="376" width="112" height="144" fill="#D9D9D9"/>
<path d="M327.5 425.5H360C361.989 425.5 363.897 426.29 365.303 427.697C366.71 429.103 367.5 431.011 367.5 433V465.5C367.5 467.489 366.71 469.397 365.303 470.803C363.897 472.21 361.989 473 360 473H327.5C325.511 473 323.603 472.21 322.197 470.803C320.79 469.397 320 467.489 320 465.5V433C320 431.011 320.79 429.103 322.197 427.697C323.603 426.29 325.511 425.5 327.5 425.5ZM327.5 428C326.174 428 324.902 428.527 323.964 429.464C323.027 430.402 322.5 431.674 322.5 433V461.975L333.225 451.225L339.475 457.475L351.975 444.975L365 458V433C365 431.674 364.473 430.402 363.536 429.464C362.598 428.527 361.326 428 360 428H327.5ZM339.475 461.025L333.225 454.775L322.5 465.5C322.5 466.826 323.027 468.098 323.964 469.036C324.902 469.973 326.174 470.5 327.5 470.5H360C361.326 470.5 362.598 469.973 363.536 469.036C364.473 468.098 365 466.826 365 465.5V461.525L351.975 448.525L339.475 461.025ZM333.75 433C335.408 433 336.997 433.658 338.169 434.831C339.342 436.003 340 437.592 340 439.25C340 440.908 339.342 442.497 338.169 443.669C336.997 444.842 335.408 445.5 333.75 445.5C332.092 445.5 330.503 444.842 329.331 443.669C328.158 442.497 327.5 440.908 327.5 439.25C327.5 437.592 328.158 436.003 329.331 434.831C330.503 433.658 332.092 433 333.75 433ZM333.75 435.5C332.755 435.5 331.802 435.895 331.098 436.598C330.395 437.302 330 438.255 330 439.25C330 440.245 330.395 441.198 331.098 441.902C331.802 442.605 332.755 443 333.75 443C334.745 443 335.698 442.605 336.402 441.902C337.105 441.198 337.5 440.245 337.5 439.25C337.5 438.255 337.105 437.302 336.402 436.598C335.698 435.895 334.745 435.5 333.75 435.5Z" fill="black"/>
<rect x="414" y="376" width="112" height="144" fill="#D9D9D9"/>
<rect x="15" y="656" width="112" height="144" fill="#D9D9D9"/>
<path d="M53.5 705.5H86C87.9891 705.5 89.8968 706.29 91.3033 707.697C92.7098 709.103 93.5 711.011 93.5 713V745.5C93.5 747.489 92.7098 749.397 91.3033 750.803C89.8968 752.21 87.9891 753 86 753H53.5C51.5109 753 49.6032 752.21 48.1967 750.803C46.7902 749.397 46 747.489 46 745.5V713C46 711.011 46.7902 709.103 48.1967 707.697C49.6032 706.29 51.5109 705.5 53.5 705.5ZM53.5 708C52.1739 708 50.9021 708.527 49.9645 709.464C49.0268 710.402 48.5 711.674 48.5 713V741.975L59.225 731.225L65.475 737.475L77.975 724.975L91 738V713C91 711.674 90.4732 710.402 89.5355 709.464C88.5979 708.527 87.3261 708 86 708H53.5ZM65.475 741.025L59.225 734.775L48.5 745.5C48.5 746.826 49.0268 748.098 49.9645 749.036C50.9021 749.973 52.1739 750.5 53.5 750.5H86C87.3261 750.5 88.5979 749.973 89.5355 749.036C90.4732 748.098 91 746.826 91 745.5V741.525L77.975 728.525L65.475 741.025ZM59.75 713C61.4076 713 62.9973 713.658 64.1694 714.831C65.3415 716.003 66 717.592 66 719.25C66 720.908 65.3415 722.497 64.1694 723.669C62.9973 724.842 61.4076 725.5 59.75 725.5C58.0924 725.5 56.5027 724.842 55.3306 723.669C54.1585 722.497 53.5 720.908 53.5 719.25C53.5 717.592 54.1585 716.003 55.3306 714.831C56.5027 713.658 58.0924 713 59.75 713ZM59.75 715.5C58.7554 715.5 57.8016 715.895 57.0983 716.598C56.3951 717.302 56 718.255 56 719.25C56 720.245 56.3951 721.198 57.0983 721.902C57.8016 722.605 58.7554 723 59.75 723C60.7446 723 61.6984 722.605 62.4017 721.902C63.1049 721.198 63.5 720.245 63.5 719.25C63.5 718.255 63.1049 717.302 62.4017 716.598C61.6984 715.895 60.7446 715.5 59.75 715.5Z" fill="black"/>
<rect x="151" y="656" width="112" height="144" fill="#D9D9D9"/>
<path d="M190.5 705.5H223C224.989 705.5 226.897 706.29 228.303 707.697C229.71 709.103 230.5 711.011 230.5 713V745.5C230.5 747.489 229.71 749.397 228.303 750.803C226.897 752.21 224.989 753 223 753H190.5C188.511 753 186.603 752.21 185.197 750.803C183.79 749.397 183 747.489 183 745.5V713C183 711.011 183.79 709.103 185.197 707.697C186.603 706.29 188.511 705.5 190.5 705.5ZM190.5 708C189.174 708 187.902 708.527 186.964 709.464C186.027 710.402 185.5 711.674 185.5 713V741.975L196.225 731.225L202.475 737.475L214.975 724.975L228 738V713C228 711.674 227.473 710.402 226.536 709.464C225.598 708.527 224.326 708 223 708H190.5ZM202.475 741.025L196.225 734.775L185.5 745.5C185.5 746.826 186.027 748.098 186.964 749.036C187.902 749.973 189.174 750.5 190.5 750.5H223C224.326 750.5 225.598 749.973 226.536 749.036C227.473 748.098 228 746.826 228 745.5V741.525L214.975 728.525L202.475 741.025ZM196.75 713C198.408 713 199.997 713.658 201.169 714.831C202.342 716.003 203 717.592 203 719.25C203 720.908 202.342 722.497 201.169 723.669C199.997 724.842 198.408 725.5 196.75 725.5C195.092 725.5 193.503 724.842 192.331 723.669C191.158 722.497 190.5 720.908 190.5 719.25C190.5 717.592 191.158 716.003 192.331 714.831C193.503 713.658 195.092 713 196.75 713ZM196.75 715.5C195.755 715.5 194.802 715.895 194.098 716.598C193.395 717.302 193 718.255 193 719.25C193 720.245 193.395 721.198 194.098 721.902C194.802 722.605 195.755 723 196.75 723C197.745 723 198.698 722.605 199.402 721.902C200.105 721.198 200.5 720.245 200.5 719.25C200.5 718.255 200.105 717.302 199.402 716.598C198.698 715.895 197.745 715.5 196.75 715.5Z" fill="black"/>
<rect x="287" y="656" width="112" height="144" fill="#D9D9D9"/>
<path d="M327.5 705.5H360C361.989 705.5 363.897 706.29 365.303 707.697C366.71 709.103 367.5 711.011 367.5 713V745.5C367.5 747.489 366.71 749.397 365.303 750.803C363.897 752.21 361.989 753 360 753H327.5C325.511 753 323.603 752.21 322.197 750.803C320.79 749.397 320 747.489 320 745.5V713C320 711.011 320.79 709.103 322.197 707.697C323.603 706.29 325.511 705.5 327.5 705.5ZM327.5 708C326.174 708 324.902 708.527 323.964 709.464C323.027 710.402 322.5 711.674 322.5 713V741.975L333.225 731.225L339.475 737.475L351.975 724.975L365 738V713C365 711.674 364.473 710.402 363.536 709.464C362.598 708.527 361.326 708 360 708H327.5ZM339.475 741.025L333.225 734.775L322.5 745.5C322.5 746.826 323.027 748.098 323.964 749.036C324.902 749.973 326.174 750.5 327.5 750.5H360C361.326 750.5 362.598 749.973 363.536 749.036C364.473 748.098 365 746.826 365 745.5V741.525L351.975 728.525L339.475 741.025ZM333.75 713C335.408 713 336.997 713.658 338.169 714.831C339.342 716.003 340 717.592 340 719.25C340 720.908 339.342 722.497 338.169 723.669C336.997 724.842 335.408 725.5 333.75 725.5C332.092 725.5 330.503 724.842 329.331 723.669C328.158 722.497 327.5 720.908 327.5 719.25C327.5 717.592 328.158 716.003 329.331 714.831C330.503 713.658 332.092 713 333.75 713ZM333.75 715.5C332.755 715.5 331.802 715.895 331.098 716.598C330.395 717.302 330 718.255 330 719.25C330 720.245 330.395 721.198 331.098 721.902C331.802 722.605 332.755 723 333.75 723C334.745 723 335.698 722.605 336.402 721.902C337.105 721.198 337.5 720.245 337.5 719.25C337.5 718.255 337.105 717.302 336.402 716.598C335.698 715.895 334.745 715.5 333.75 715.5Z" fill="black"/>
<rect x="414" y="656" width="112" height="144" fill="#D9D9D9"/>
<rect y="862" width="430" height="70" fill="#D9D9D9"/>
<path d="M160.636 890.364V902H159.273L152.932 892.864H152.818V902H151.409V890.364H152.773L159.136 899.523H159.25V890.364H160.636ZM165.842 902.205C165.289 902.205 164.787 902.1 164.337 901.892C163.886 901.68 163.528 901.375 163.263 900.977C162.998 900.576 162.865 900.091 162.865 899.523C162.865 899.023 162.964 898.617 163.161 898.307C163.357 897.992 163.621 897.746 163.95 897.568C164.28 897.39 164.643 897.258 165.041 897.17C165.443 897.08 165.846 897.008 166.251 896.955C166.782 896.886 167.212 896.835 167.541 896.801C167.875 896.763 168.117 896.701 168.268 896.614C168.424 896.527 168.501 896.375 168.501 896.159V896.114C168.501 895.553 168.348 895.117 168.041 894.807C167.738 894.496 167.278 894.341 166.661 894.341C166.02 894.341 165.518 894.481 165.155 894.761C164.791 895.042 164.536 895.341 164.388 895.659L163.115 895.205C163.342 894.674 163.645 894.261 164.024 893.966C164.407 893.667 164.823 893.458 165.274 893.341C165.729 893.22 166.176 893.159 166.615 893.159C166.895 893.159 167.217 893.193 167.581 893.261C167.948 893.326 168.303 893.46 168.643 893.665C168.988 893.869 169.274 894.178 169.501 894.591C169.729 895.004 169.842 895.557 169.842 896.25V902H168.501V900.818H168.433C168.342 901.008 168.191 901.21 167.979 901.426C167.767 901.642 167.484 901.826 167.132 901.977C166.78 902.129 166.35 902.205 165.842 902.205ZM166.047 901C166.577 901 167.024 900.896 167.388 900.688C167.755 900.479 168.032 900.21 168.217 899.881C168.407 899.551 168.501 899.205 168.501 898.841V897.614C168.445 897.682 168.32 897.744 168.126 897.801C167.937 897.854 167.717 897.902 167.467 897.943C167.221 897.981 166.981 898.015 166.746 898.045C166.515 898.072 166.327 898.095 166.183 898.114C165.835 898.159 165.509 898.233 165.206 898.335C164.907 898.434 164.664 898.583 164.479 898.784C164.297 898.981 164.206 899.25 164.206 899.591C164.206 900.057 164.378 900.409 164.723 900.648C165.071 900.883 165.513 901 166.047 901ZM179.114 893.273L175.886 902H174.523L171.295 893.273H172.75L175.159 900.227H175.25L177.659 893.273H179.114ZM185.565 902V890.364H189.634C190.444 890.364 191.113 890.504 191.639 890.784C192.166 891.061 192.558 891.434 192.815 891.903C193.073 892.369 193.202 892.886 193.202 893.455C193.202 893.955 193.113 894.367 192.935 894.693C192.76 895.019 192.529 895.277 192.241 895.466C191.957 895.655 191.649 895.795 191.315 895.886V896C191.671 896.023 192.029 896.148 192.389 896.375C192.749 896.602 193.05 896.928 193.293 897.352C193.535 897.777 193.656 898.295 193.656 898.909C193.656 899.492 193.524 900.017 193.259 900.483C192.993 900.949 192.575 901.318 192.003 901.591C191.431 901.864 190.687 902 189.77 902H185.565ZM186.974 900.75H189.77C190.69 900.75 191.344 900.572 191.73 900.216C192.12 899.856 192.315 899.42 192.315 898.909C192.315 898.515 192.215 898.152 192.014 897.818C191.813 897.481 191.527 897.212 191.156 897.011C190.785 896.807 190.346 896.705 189.838 896.705H186.974V900.75ZM186.974 895.477H189.588C190.012 895.477 190.395 895.394 190.736 895.227C191.08 895.061 191.353 894.826 191.554 894.523C191.759 894.22 191.861 893.864 191.861 893.455C191.861 892.943 191.683 892.509 191.327 892.153C190.971 891.794 190.406 891.614 189.634 891.614H186.974V895.477ZM198.358 902.205C197.805 902.205 197.303 902.1 196.852 901.892C196.402 901.68 196.044 901.375 195.778 900.977C195.513 900.576 195.381 900.091 195.381 899.523C195.381 899.023 195.479 898.617 195.676 898.307C195.873 897.992 196.136 897.746 196.466 897.568C196.795 897.39 197.159 897.258 197.557 897.17C197.958 897.08 198.362 897.008 198.767 896.955C199.297 896.886 199.727 896.835 200.057 896.801C200.39 896.763 200.633 896.701 200.784 896.614C200.939 896.527 201.017 896.375 201.017 896.159V896.114C201.017 895.553 200.864 895.117 200.557 894.807C200.254 894.496 199.794 894.341 199.176 894.341C198.536 894.341 198.034 894.481 197.67 894.761C197.307 895.042 197.051 895.341 196.903 895.659L195.631 895.205C195.858 894.674 196.161 894.261 196.54 893.966C196.922 893.667 197.339 893.458 197.79 893.341C198.244 893.22 198.691 893.159 199.131 893.159C199.411 893.159 199.733 893.193 200.097 893.261C200.464 893.326 200.818 893.46 201.159 893.665C201.504 893.869 201.79 894.178 202.017 894.591C202.244 895.004 202.358 895.557 202.358 896.25V902H201.017V900.818H200.949C200.858 901.008 200.706 901.21 200.494 901.426C200.282 901.642 200 901.826 199.648 901.977C199.295 902.129 198.866 902.205 198.358 902.205ZM198.562 901C199.093 901 199.54 900.896 199.903 900.688C200.271 900.479 200.547 900.21 200.733 899.881C200.922 899.551 201.017 899.205 201.017 898.841V897.614C200.96 897.682 200.835 897.744 200.642 897.801C200.453 897.854 200.233 897.902 199.983 897.943C199.737 897.981 199.496 898.015 199.261 898.045C199.03 898.072 198.843 898.095 198.699 898.114C198.35 898.159 198.025 898.233 197.722 898.335C197.422 898.434 197.18 898.583 196.994 898.784C196.813 898.981 196.722 899.25 196.722 899.591C196.722 900.057 196.894 900.409 197.239 900.648C197.587 900.883 198.028 901 198.562 901ZM204.805 902V893.273H206.101V894.591H206.192C206.351 894.159 206.639 893.809 207.055 893.54C207.472 893.271 207.942 893.136 208.464 893.136C208.563 893.136 208.686 893.138 208.834 893.142C208.982 893.146 209.093 893.152 209.169 893.159V894.523C209.124 894.511 209.019 894.494 208.857 894.472C208.697 894.445 208.529 894.432 208.351 894.432C207.927 894.432 207.548 894.521 207.214 894.699C206.885 894.873 206.624 895.116 206.43 895.426C206.241 895.733 206.146 896.083 206.146 896.477V902H204.805Z" fill="black"/>
</g>
<defs>
<clipPath id="clip0_4_96">
<rect width="430" height="932" fill="white"/>
</clipPath>
</defs>
</svg>
